G04 #@! TF.GenerationSoftware,KiCad,Pcbnew,(5.1.4)-1*
G04 #@! TF.CreationDate,2020-03-13T16:18:46-07:00*
G04 #@! TF.ProjectId,stm32F042cXt6_demo,73746d33-3246-4303-9432-635874365f64,rev?*
G04 #@! TF.SameCoordinates,Original*
G04 #@! TF.FileFunction,Legend,Top*
G04 #@! TF.FilePolarity,Positive*
%FSLAX46Y46*%
G04 Gerber Fmt 4.6, Leading zero omitted, Abs format (unit mm)*
G04 Created by KiCad (PCBNEW (5.1.4)-1) date 2020-03-13 16:18:46*
%MOMM*%
%LPD*%
G04 APERTURE LIST*
%ADD10C,0.300000*%
%ADD11C,0.203200*%
%ADD12C,0.120000*%
%ADD13C,0.150000*%
G04 APERTURE END LIST*
D10*
X32574999Y-36557142D02*
X32432142Y-36628571D01*
X32146428Y-36628571D01*
X32003571Y-36557142D01*
X31932142Y-36485714D01*
X31860714Y-36342857D01*
X31860714Y-35914285D01*
X31932142Y-35771428D01*
X32003571Y-35700000D01*
X32146428Y-35628571D01*
X32432142Y-35628571D01*
X32574999Y-35700000D01*
X33217857Y-35628571D02*
X33217857Y-36628571D01*
X33217857Y-35771428D02*
X33289285Y-35700000D01*
X33432142Y-35628571D01*
X33646428Y-35628571D01*
X33789285Y-35700000D01*
X33860714Y-35842857D01*
X33860714Y-36628571D01*
X34789285Y-36628571D02*
X34646428Y-36557142D01*
X34574999Y-36414285D01*
X34574999Y-35128571D01*
X35574999Y-36628571D02*
X35432142Y-36557142D01*
X35360714Y-36485714D01*
X35289285Y-36342857D01*
X35289285Y-35914285D01*
X35360714Y-35771428D01*
X35432142Y-35700000D01*
X35574999Y-35628571D01*
X35789285Y-35628571D01*
X35932142Y-35700000D01*
X36003571Y-35771428D01*
X36074999Y-35914285D01*
X36074999Y-36342857D01*
X36003571Y-36485714D01*
X35932142Y-36557142D01*
X35789285Y-36628571D01*
X35574999Y-36628571D01*
X36717857Y-36628571D02*
X36717857Y-35128571D01*
X37360714Y-36628571D02*
X37360714Y-35842857D01*
X37289285Y-35700000D01*
X37146428Y-35628571D01*
X36932142Y-35628571D01*
X36789285Y-35700000D01*
X36717857Y-35771428D01*
X38074999Y-36628571D02*
X38074999Y-35628571D01*
X38074999Y-35914285D02*
X38146428Y-35771428D01*
X38217857Y-35700000D01*
X38360714Y-35628571D01*
X38503571Y-35628571D01*
X39074999Y-35128571D02*
X38932142Y-35414285D01*
X39646428Y-36557142D02*
X39789285Y-36628571D01*
X40074999Y-36628571D01*
X40217857Y-36557142D01*
X40289285Y-36414285D01*
X40289285Y-36342857D01*
X40217857Y-36200000D01*
X40074999Y-36128571D01*
X39860714Y-36128571D01*
X39717857Y-36057142D01*
X39646428Y-35914285D01*
X39646428Y-35842857D01*
X39717857Y-35700000D01*
X39860714Y-35628571D01*
X40074999Y-35628571D01*
X40217857Y-35700000D01*
X42003571Y-36557142D02*
X42146428Y-36628571D01*
X42432142Y-36628571D01*
X42574999Y-36557142D01*
X42646428Y-36414285D01*
X42646428Y-36342857D01*
X42574999Y-36200000D01*
X42432142Y-36128571D01*
X42217857Y-36128571D01*
X42074999Y-36057142D01*
X42003571Y-35914285D01*
X42003571Y-35842857D01*
X42074999Y-35700000D01*
X42217857Y-35628571D01*
X42432142Y-35628571D01*
X42574999Y-35700000D01*
X43074999Y-35628571D02*
X43646428Y-35628571D01*
X43289285Y-35128571D02*
X43289285Y-36414285D01*
X43360714Y-36557142D01*
X43503571Y-36628571D01*
X43646428Y-36628571D01*
X44146428Y-36628571D02*
X44146428Y-35628571D01*
X44146428Y-35771428D02*
X44217857Y-35700000D01*
X44360714Y-35628571D01*
X44574999Y-35628571D01*
X44717857Y-35700000D01*
X44789285Y-35842857D01*
X44789285Y-36628571D01*
X44789285Y-35842857D02*
X44860714Y-35700000D01*
X45003571Y-35628571D01*
X45217857Y-35628571D01*
X45360714Y-35700000D01*
X45432142Y-35842857D01*
X45432142Y-36628571D01*
X46003571Y-35128571D02*
X46932142Y-35128571D01*
X46432142Y-35700000D01*
X46646428Y-35700000D01*
X46789285Y-35771428D01*
X46860714Y-35842857D01*
X46932142Y-35985714D01*
X46932142Y-36342857D01*
X46860714Y-36485714D01*
X46789285Y-36557142D01*
X46646428Y-36628571D01*
X46217857Y-36628571D01*
X46074999Y-36557142D01*
X46003571Y-36485714D01*
X47503571Y-35271428D02*
X47574999Y-35200000D01*
X47717857Y-35128571D01*
X48074999Y-35128571D01*
X48217857Y-35200000D01*
X48289285Y-35271428D01*
X48360714Y-35414285D01*
X48360714Y-35557142D01*
X48289285Y-35771428D01*
X47432142Y-36628571D01*
X48360714Y-36628571D01*
X48789285Y-35628571D02*
X49360714Y-35628571D01*
X49003571Y-36628571D02*
X49003571Y-35342857D01*
X49074999Y-35200000D01*
X49217857Y-35128571D01*
X49360714Y-35128571D01*
X50146428Y-35128571D02*
X50289285Y-35128571D01*
X50432142Y-35200000D01*
X50503571Y-35271428D01*
X50574999Y-35414285D01*
X50646428Y-35700000D01*
X50646428Y-36057142D01*
X50574999Y-36342857D01*
X50503571Y-36485714D01*
X50432142Y-36557142D01*
X50289285Y-36628571D01*
X50146428Y-36628571D01*
X50003571Y-36557142D01*
X49932142Y-36485714D01*
X49860714Y-36342857D01*
X49789285Y-36057142D01*
X49789285Y-35700000D01*
X49860714Y-35414285D01*
X49932142Y-35271428D01*
X50003571Y-35200000D01*
X50146428Y-35128571D01*
X51932142Y-35628571D02*
X51932142Y-36628571D01*
X51574999Y-35057142D02*
X51217857Y-36128571D01*
X52146428Y-36128571D01*
X52646428Y-35271428D02*
X52717857Y-35200000D01*
X52860714Y-35128571D01*
X53217857Y-35128571D01*
X53360714Y-35200000D01*
X53432142Y-35271428D01*
X53503571Y-35414285D01*
X53503571Y-35557142D01*
X53432142Y-35771428D01*
X52574999Y-36628571D01*
X53503571Y-36628571D01*
X53789285Y-36771428D02*
X54932142Y-36771428D01*
X55074999Y-35628571D02*
X55646428Y-35628571D01*
X55289285Y-36628571D02*
X55289285Y-35342857D01*
X55360714Y-35200000D01*
X55503571Y-35128571D01*
X55646428Y-35128571D01*
X56789285Y-35628571D02*
X56789285Y-36628571D01*
X56146428Y-35628571D02*
X56146428Y-36414285D01*
X56217857Y-36557142D01*
X56360714Y-36628571D01*
X56575000Y-36628571D01*
X56717857Y-36557142D01*
X56789285Y-36485714D01*
X57503571Y-35628571D02*
X57503571Y-36628571D01*
X57503571Y-35771428D02*
X57575000Y-35700000D01*
X57717857Y-35628571D01*
X57932142Y-35628571D01*
X58075000Y-35700000D01*
X58146428Y-35842857D01*
X58146428Y-36628571D01*
X59932142Y-36557142D02*
X60075000Y-36628571D01*
X60360714Y-36628571D01*
X60503571Y-36557142D01*
X60575000Y-36414285D01*
X60575000Y-36342857D01*
X60503571Y-36200000D01*
X60360714Y-36128571D01*
X60146428Y-36128571D01*
X60003571Y-36057142D01*
X59932142Y-35914285D01*
X59932142Y-35842857D01*
X60003571Y-35700000D01*
X60146428Y-35628571D01*
X60360714Y-35628571D01*
X60503571Y-35700000D01*
X61003571Y-35628571D02*
X61574999Y-35628571D01*
X61217857Y-35128571D02*
X61217857Y-36414285D01*
X61289285Y-36557142D01*
X61432142Y-36628571D01*
X61574999Y-36628571D01*
X62075000Y-36628571D02*
X62075000Y-35628571D01*
X62075000Y-35771428D02*
X62146428Y-35700000D01*
X62289285Y-35628571D01*
X62503571Y-35628571D01*
X62646428Y-35700000D01*
X62717857Y-35842857D01*
X62717857Y-36628571D01*
X62717857Y-35842857D02*
X62789285Y-35700000D01*
X62932142Y-35628571D01*
X63146428Y-35628571D01*
X63289285Y-35700000D01*
X63360714Y-35842857D01*
X63360714Y-36628571D01*
X63932142Y-35128571D02*
X64860714Y-35128571D01*
X64360714Y-35700000D01*
X64575000Y-35700000D01*
X64717857Y-35771428D01*
X64789285Y-35842857D01*
X64860714Y-35985714D01*
X64860714Y-36342857D01*
X64789285Y-36485714D01*
X64717857Y-36557142D01*
X64575000Y-36628571D01*
X64146428Y-36628571D01*
X64003571Y-36557142D01*
X63932142Y-36485714D01*
X65432142Y-35271428D02*
X65503571Y-35200000D01*
X65646428Y-35128571D01*
X66003571Y-35128571D01*
X66146428Y-35200000D01*
X66217857Y-35271428D01*
X66289285Y-35414285D01*
X66289285Y-35557142D01*
X66217857Y-35771428D01*
X65360714Y-36628571D01*
X66289285Y-36628571D01*
X66717857Y-35628571D02*
X67289285Y-35628571D01*
X66932142Y-36628571D02*
X66932142Y-35342857D01*
X67003571Y-35200000D01*
X67146428Y-35128571D01*
X67289285Y-35128571D01*
X68075000Y-35128571D02*
X68217857Y-35128571D01*
X68360714Y-35200000D01*
X68432142Y-35271428D01*
X68503571Y-35414285D01*
X68575000Y-35700000D01*
X68575000Y-36057142D01*
X68503571Y-36342857D01*
X68432142Y-36485714D01*
X68360714Y-36557142D01*
X68217857Y-36628571D01*
X68075000Y-36628571D01*
X67932142Y-36557142D01*
X67860714Y-36485714D01*
X67789285Y-36342857D01*
X67717857Y-36057142D01*
X67717857Y-35700000D01*
X67789285Y-35414285D01*
X67860714Y-35271428D01*
X67932142Y-35200000D01*
X68075000Y-35128571D01*
X69860714Y-35628571D02*
X69860714Y-36628571D01*
X69503571Y-35057142D02*
X69146428Y-36128571D01*
X70075000Y-36128571D01*
X70574999Y-35271428D02*
X70646428Y-35200000D01*
X70789285Y-35128571D01*
X71146428Y-35128571D01*
X71289285Y-35200000D01*
X71360714Y-35271428D01*
X71432142Y-35414285D01*
X71432142Y-35557142D01*
X71360714Y-35771428D01*
X70503571Y-36628571D01*
X71432142Y-36628571D01*
X72717857Y-36557142D02*
X72574999Y-36628571D01*
X72289285Y-36628571D01*
X72146428Y-36557142D01*
X72074999Y-36485714D01*
X72003571Y-36342857D01*
X72003571Y-35914285D01*
X72074999Y-35771428D01*
X72146428Y-35700000D01*
X72289285Y-35628571D01*
X72574999Y-35628571D01*
X72717857Y-35700000D01*
X73217857Y-35128571D02*
X74217857Y-36628571D01*
X74217857Y-35128571D02*
X73217857Y-36628571D01*
X74574999Y-35628571D02*
X75146428Y-35628571D01*
X74789285Y-35128571D02*
X74789285Y-36414285D01*
X74860714Y-36557142D01*
X75003571Y-36628571D01*
X75146428Y-36628571D01*
X76289285Y-35128571D02*
X76003571Y-35128571D01*
X75860714Y-35200000D01*
X75789285Y-35271428D01*
X75646428Y-35485714D01*
X75574999Y-35771428D01*
X75574999Y-36342857D01*
X75646428Y-36485714D01*
X75717857Y-36557142D01*
X75860714Y-36628571D01*
X76146428Y-36628571D01*
X76289285Y-36557142D01*
X76360714Y-36485714D01*
X76432142Y-36342857D01*
X76432142Y-35985714D01*
X76360714Y-35842857D01*
X76289285Y-35771428D01*
X76146428Y-35700000D01*
X75860714Y-35700000D01*
X75717857Y-35771428D01*
X75646428Y-35842857D01*
X75574999Y-35985714D01*
X78217857Y-36628571D02*
X78217857Y-35628571D01*
X78217857Y-35914285D02*
X78289285Y-35771428D01*
X78360714Y-35700000D01*
X78503571Y-35628571D01*
X78646428Y-35628571D01*
X79717857Y-36557142D02*
X79574999Y-36628571D01*
X79289285Y-36628571D01*
X79146428Y-36557142D01*
X79074999Y-36414285D01*
X79074999Y-35842857D01*
X79146428Y-35700000D01*
X79289285Y-35628571D01*
X79574999Y-35628571D01*
X79717857Y-35700000D01*
X79789285Y-35842857D01*
X79789285Y-35985714D01*
X79074999Y-36128571D01*
X80289285Y-35628571D02*
X80646428Y-36628571D01*
X81003571Y-35628571D01*
X81574999Y-36057142D02*
X82717857Y-36057142D01*
X75053571Y-83446428D02*
X74339285Y-83946428D01*
X75053571Y-84303571D02*
X73553571Y-84303571D01*
X73553571Y-83732142D01*
X73625000Y-83589285D01*
X73696428Y-83517857D01*
X73839285Y-83446428D01*
X74053571Y-83446428D01*
X74196428Y-83517857D01*
X74267857Y-83589285D01*
X74339285Y-83732142D01*
X74339285Y-84303571D01*
X74982142Y-82875000D02*
X75053571Y-82660714D01*
X75053571Y-82303571D01*
X74982142Y-82160714D01*
X74910714Y-82089285D01*
X74767857Y-82017857D01*
X74625000Y-82017857D01*
X74482142Y-82089285D01*
X74410714Y-82160714D01*
X74339285Y-82303571D01*
X74267857Y-82589285D01*
X74196428Y-82732142D01*
X74125000Y-82803571D01*
X73982142Y-82875000D01*
X73839285Y-82875000D01*
X73696428Y-82803571D01*
X73625000Y-82732142D01*
X73553571Y-82589285D01*
X73553571Y-82232142D01*
X73625000Y-82017857D01*
X73553571Y-81589285D02*
X73553571Y-80732142D01*
X75053571Y-81160714D02*
X73553571Y-81160714D01*
X77532142Y-84660714D02*
X77603571Y-84446428D01*
X77603571Y-84089285D01*
X77532142Y-83946428D01*
X77460714Y-83875000D01*
X77317857Y-83803571D01*
X77175000Y-83803571D01*
X77032142Y-83875000D01*
X76960714Y-83946428D01*
X76889285Y-84089285D01*
X76817857Y-84375000D01*
X76746428Y-84517857D01*
X76675000Y-84589285D01*
X76532142Y-84660714D01*
X76389285Y-84660714D01*
X76246428Y-84589285D01*
X76175000Y-84517857D01*
X76103571Y-84375000D01*
X76103571Y-84017857D01*
X76175000Y-83803571D01*
X76103571Y-83303571D02*
X77603571Y-82946428D01*
X76532142Y-82660714D01*
X77603571Y-82375000D01*
X76103571Y-82017857D01*
X77603571Y-81446428D02*
X76103571Y-81446428D01*
X76103571Y-81089285D01*
X76175000Y-80875000D01*
X76317857Y-80732142D01*
X76460714Y-80660714D01*
X76746428Y-80589285D01*
X76960714Y-80589285D01*
X77246428Y-80660714D01*
X77389285Y-80732142D01*
X77532142Y-80875000D01*
X77603571Y-81089285D01*
X77603571Y-81446428D01*
X78725000Y-83767857D02*
X78653571Y-83910714D01*
X78653571Y-84125000D01*
X78725000Y-84339285D01*
X78867857Y-84482142D01*
X79010714Y-84553571D01*
X79296428Y-84625000D01*
X79510714Y-84625000D01*
X79796428Y-84553571D01*
X79939285Y-84482142D01*
X80082142Y-84339285D01*
X80153571Y-84125000D01*
X80153571Y-83982142D01*
X80082142Y-83767857D01*
X80010714Y-83696428D01*
X79510714Y-83696428D01*
X79510714Y-83982142D01*
X80153571Y-83053571D02*
X78653571Y-83053571D01*
X80153571Y-82196428D01*
X78653571Y-82196428D01*
X80153571Y-81482142D02*
X78653571Y-81482142D01*
X78653571Y-81125000D01*
X78725000Y-80910714D01*
X78867857Y-80767857D01*
X79010714Y-80696428D01*
X79296428Y-80625000D01*
X79510714Y-80625000D01*
X79796428Y-80696428D01*
X79939285Y-80767857D01*
X80082142Y-80910714D01*
X80153571Y-81125000D01*
X80153571Y-81482142D01*
X82632142Y-84660714D02*
X82703571Y-84446428D01*
X82703571Y-84089285D01*
X82632142Y-83946428D01*
X82560714Y-83875000D01*
X82417857Y-83803571D01*
X82275000Y-83803571D01*
X82132142Y-83875000D01*
X82060714Y-83946428D01*
X81989285Y-84089285D01*
X81917857Y-84375000D01*
X81846428Y-84517857D01*
X81775000Y-84589285D01*
X81632142Y-84660714D01*
X81489285Y-84660714D01*
X81346428Y-84589285D01*
X81275000Y-84517857D01*
X81203571Y-84375000D01*
X81203571Y-84017857D01*
X81275000Y-83803571D01*
X81203571Y-83303571D02*
X82703571Y-82946428D01*
X81632142Y-82660714D01*
X82703571Y-82375000D01*
X81203571Y-82017857D01*
X82560714Y-80589285D02*
X82632142Y-80660714D01*
X82703571Y-80875000D01*
X82703571Y-81017857D01*
X82632142Y-81232142D01*
X82489285Y-81375000D01*
X82346428Y-81446428D01*
X82060714Y-81517857D01*
X81846428Y-81517857D01*
X81560714Y-81446428D01*
X81417857Y-81375000D01*
X81275000Y-81232142D01*
X81203571Y-81017857D01*
X81203571Y-80875000D01*
X81275000Y-80660714D01*
X81346428Y-80589285D01*
X84682142Y-84553571D02*
X84682142Y-83410714D01*
X85253571Y-83982142D02*
X84110714Y-83982142D01*
X83753571Y-81982142D02*
X83753571Y-82696428D01*
X84467857Y-82767857D01*
X84396428Y-82696428D01*
X84325000Y-82553571D01*
X84325000Y-82196428D01*
X84396428Y-82053571D01*
X84467857Y-81982142D01*
X84610714Y-81910714D01*
X84967857Y-81910714D01*
X85110714Y-81982142D01*
X85182142Y-82053571D01*
X85253571Y-82196428D01*
X85253571Y-82553571D01*
X85182142Y-82696428D01*
X85110714Y-82767857D01*
X83753571Y-81482142D02*
X85253571Y-80982142D01*
X83753571Y-80482142D01*
D11*
X34290000Y-85090000D02*
X33655000Y-85090000D01*
X34925000Y-84455000D02*
X34290000Y-85090000D01*
X34925000Y-83185000D02*
X34925000Y-84455000D01*
X35560000Y-83820000D02*
X34925000Y-83185000D01*
X34290000Y-83820000D02*
X35560000Y-83820000D01*
X33655000Y-84455000D02*
X34290000Y-83820000D01*
X33655000Y-85090000D02*
X33655000Y-84455000D01*
D12*
X82198070Y-47470000D02*
G75*
G03X82198070Y-47470000I-258070J0D01*
G01*
D13*
X87508087Y-53012148D02*
X87912148Y-52608087D01*
X87710118Y-52810118D02*
X88417225Y-53517225D01*
X88383553Y-53348866D01*
X88383553Y-53214179D01*
X88417225Y-53113164D01*
D12*
X75413748Y-89210000D02*
X75936252Y-89210000D01*
X75413748Y-87790000D02*
X75936252Y-87790000D01*
X81532687Y-60388221D02*
X81163221Y-60757687D01*
X82536779Y-61392313D02*
X82167313Y-61761779D01*
X86313221Y-47317313D02*
X86682687Y-47686779D01*
X87317313Y-46313221D02*
X87686779Y-46682687D01*
X91135000Y-79286252D02*
X91135000Y-78763748D01*
X89715000Y-79286252D02*
X89715000Y-78763748D01*
X41520000Y-92700000D02*
X41520000Y-93850000D01*
X48820000Y-92700000D02*
X41520000Y-92700000D01*
X48820000Y-98200000D02*
X41520000Y-98200000D01*
X50520000Y-92700000D02*
X50520000Y-93850000D01*
X57820000Y-92700000D02*
X50520000Y-92700000D01*
X57820000Y-98200000D02*
X50520000Y-98200000D01*
X59520000Y-92700000D02*
X59520000Y-93850000D01*
X66820000Y-92700000D02*
X59520000Y-92700000D01*
X66820000Y-98200000D02*
X59520000Y-98200000D01*
X68520000Y-92700000D02*
X68520000Y-93850000D01*
X75820000Y-92700000D02*
X68520000Y-92700000D01*
X75820000Y-98200000D02*
X68520000Y-98200000D01*
X77520000Y-92700000D02*
X77520000Y-93850000D01*
X84820000Y-92700000D02*
X77520000Y-92700000D01*
X84820000Y-98200000D02*
X77520000Y-98200000D01*
X86520000Y-92700000D02*
X86520000Y-93850000D01*
X93820000Y-92700000D02*
X86520000Y-92700000D01*
X93820000Y-98200000D02*
X86520000Y-98200000D01*
X73050000Y-79830000D02*
X73050000Y-78500000D01*
X74380000Y-79830000D02*
X73050000Y-79830000D01*
X75650000Y-79830000D02*
X75650000Y-77170000D01*
X75650000Y-77170000D02*
X85870000Y-77170000D01*
X75650000Y-79830000D02*
X85870000Y-79830000D01*
X85870000Y-79830000D02*
X85870000Y-77170000D01*
X89886252Y-65415000D02*
X89363748Y-65415000D01*
X89886252Y-66835000D02*
X89363748Y-66835000D01*
X74290000Y-63713748D02*
X74290000Y-64236252D01*
X75710000Y-63713748D02*
X75710000Y-64236252D01*
X72388221Y-72067313D02*
X72757687Y-72436779D01*
X73392313Y-71063221D02*
X73761779Y-71432687D01*
X86787113Y-53181802D02*
X87699281Y-52269634D01*
X87105311Y-53500000D02*
X86787113Y-53181802D01*
X86787113Y-53818198D02*
X87105311Y-53500000D01*
X82000000Y-58605311D02*
X81681802Y-58287113D01*
X82318198Y-58287113D02*
X82000000Y-58605311D01*
X82000000Y-48394689D02*
X82318198Y-48712887D01*
X81681802Y-48712887D02*
X82000000Y-48394689D01*
X76894689Y-53500000D02*
X77212887Y-53818198D01*
X77212887Y-53181802D02*
X76894689Y-53500000D01*
D13*
X91700000Y-63300000D02*
X91700000Y-56700000D01*
X98300000Y-63300000D02*
X98300000Y-56700000D01*
X96100000Y-56700000D02*
X93900000Y-56700000D01*
X93900000Y-63300000D02*
X96100000Y-63300000D01*
D12*
X93390000Y-80280000D02*
X99400000Y-80280000D01*
X95640000Y-87100000D02*
X99400000Y-87100000D01*
X99400000Y-80280000D02*
X99400000Y-81540000D01*
X99400000Y-87100000D02*
X99400000Y-85840000D01*
X99987500Y-74820000D02*
X100437500Y-74820000D01*
X99987500Y-74820000D02*
X99987500Y-74370000D01*
X100537500Y-69220000D02*
X100537500Y-69670000D01*
X102387500Y-69220000D02*
X100537500Y-69220000D01*
X104937500Y-77020000D02*
X104687500Y-77020000D01*
X104937500Y-69220000D02*
X104687500Y-69220000D01*
X102387500Y-77020000D02*
X100537500Y-77020000D01*
X100537500Y-77020000D02*
X100537500Y-76570000D01*
X93400000Y-70890000D02*
X90450000Y-70890000D01*
X91600000Y-74110000D02*
X93400000Y-74110000D01*
X102178748Y-64620000D02*
X102701252Y-64620000D01*
X102178748Y-63200000D02*
X102701252Y-63200000D01*
X100010000Y-42463747D02*
X100010000Y-42986251D01*
X101430000Y-42463747D02*
X101430000Y-42986251D01*
D13*
X83340000Y-42178427D02*
X82632893Y-42178427D01*
X82986447Y-41824874D02*
X82632893Y-42178427D01*
X82986447Y-42531981D02*
X82279340Y-41824874D01*
X83693553Y-41824874D02*
X82986447Y-42531981D01*
X80865126Y-39703553D02*
X82986447Y-41824874D01*
X85814874Y-38996447D02*
X83693553Y-36875126D01*
D12*
X94936251Y-43610000D02*
X94413747Y-43610000D01*
X94936251Y-45030000D02*
X94413747Y-45030000D01*
X101908748Y-56760000D02*
X102431252Y-56760000D01*
X101908748Y-55340000D02*
X102431252Y-55340000D01*
D13*
X93440000Y-38360000D02*
X93440000Y-38560000D01*
X93040000Y-38360000D02*
X93440000Y-38360000D01*
X93040000Y-38760000D02*
X93040000Y-38360000D01*
X93240000Y-38760000D02*
X93040000Y-38760000D01*
X93440000Y-38560000D02*
X93240000Y-38560000D01*
X93240000Y-38760000D02*
X93240000Y-38560000D01*
X97840000Y-41560000D02*
X97840000Y-38760000D01*
X93440000Y-41560000D02*
X93440000Y-38760000D01*
D12*
X82463748Y-89035000D02*
X82986252Y-89035000D01*
X82463748Y-87615000D02*
X82986252Y-87615000D01*
D13*
X75508333Y-87207142D02*
X75460714Y-87254761D01*
X75317857Y-87302380D01*
X75222619Y-87302380D01*
X75079761Y-87254761D01*
X74984523Y-87159523D01*
X74936904Y-87064285D01*
X74889285Y-86873809D01*
X74889285Y-86730952D01*
X74936904Y-86540476D01*
X74984523Y-86445238D01*
X75079761Y-86350000D01*
X75222619Y-86302380D01*
X75317857Y-86302380D01*
X75460714Y-86350000D01*
X75508333Y-86397619D01*
X76460714Y-87302380D02*
X75889285Y-87302380D01*
X76175000Y-87302380D02*
X76175000Y-86302380D01*
X76079761Y-86445238D01*
X75984523Y-86540476D01*
X75889285Y-86588095D01*
X74317857Y-90507142D02*
X74365476Y-90554761D01*
X74317857Y-90602380D01*
X74270238Y-90554761D01*
X74317857Y-90507142D01*
X74317857Y-90602380D01*
X75317857Y-90602380D02*
X74746428Y-90602380D01*
X75032142Y-90602380D02*
X75032142Y-89602380D01*
X74936904Y-89745238D01*
X74841666Y-89840476D01*
X74746428Y-89888095D01*
X76175000Y-89935714D02*
X76175000Y-90602380D01*
X75746428Y-89935714D02*
X75746428Y-90459523D01*
X75794047Y-90554761D01*
X75889285Y-90602380D01*
X76032142Y-90602380D01*
X76127380Y-90554761D01*
X76175000Y-90507142D01*
X76984523Y-90078571D02*
X76651190Y-90078571D01*
X76651190Y-90602380D02*
X76651190Y-89602380D01*
X77127380Y-89602380D01*
X83151413Y-62612115D02*
X83151413Y-62679458D01*
X83084069Y-62814145D01*
X83016726Y-62881489D01*
X82882038Y-62948832D01*
X82747351Y-62948832D01*
X82646336Y-62915161D01*
X82477977Y-62814145D01*
X82376962Y-62713130D01*
X82275947Y-62544771D01*
X82242275Y-62443756D01*
X82242275Y-62309069D01*
X82309619Y-62174382D01*
X82376962Y-62107038D01*
X82511649Y-62039695D01*
X82578993Y-62039695D01*
X82848367Y-61770321D02*
X82848367Y-61702977D01*
X82882038Y-61601962D01*
X83050397Y-61433603D01*
X83151413Y-61399932D01*
X83218756Y-61399932D01*
X83319771Y-61433603D01*
X83387115Y-61500947D01*
X83454458Y-61635634D01*
X83454458Y-62443756D01*
X83892191Y-62006023D01*
X82142893Y-65462183D02*
X82210236Y-65462183D01*
X82210236Y-65529526D01*
X82142893Y-65529526D01*
X82142893Y-65462183D01*
X82210236Y-65529526D01*
X82917343Y-64822419D02*
X82513282Y-65226480D01*
X82715312Y-65024450D02*
X82008206Y-64317343D01*
X82041877Y-64485702D01*
X82041877Y-64620389D01*
X82008206Y-64721404D01*
X83052030Y-63744923D02*
X83523435Y-64216328D01*
X82748984Y-64047969D02*
X83119374Y-64418358D01*
X83220389Y-64452030D01*
X83321404Y-64418358D01*
X83422419Y-64317343D01*
X83456091Y-64216328D01*
X83456091Y-64148984D01*
X83725465Y-63273519D02*
X83489763Y-63509221D01*
X83860152Y-63879610D02*
X83153045Y-63172503D01*
X83489763Y-62835786D01*
X87796336Y-45967961D02*
X87728993Y-45967961D01*
X87594306Y-45900617D01*
X87526962Y-45833274D01*
X87459619Y-45698586D01*
X87459619Y-45563899D01*
X87493290Y-45462884D01*
X87594306Y-45294525D01*
X87695321Y-45193510D01*
X87863680Y-45092495D01*
X87964695Y-45058823D01*
X88099382Y-45058823D01*
X88234069Y-45126167D01*
X88301413Y-45193510D01*
X88368756Y-45328197D01*
X88368756Y-45395541D01*
X88671802Y-45563899D02*
X89109535Y-46001632D01*
X88604458Y-46035304D01*
X88705474Y-46136319D01*
X88739145Y-46237335D01*
X88739145Y-46304678D01*
X88705474Y-46405693D01*
X88537115Y-46574052D01*
X88436100Y-46607724D01*
X88368756Y-46607724D01*
X88267741Y-46574052D01*
X88065710Y-46372022D01*
X88032038Y-46271006D01*
X88032038Y-46203663D01*
X84755777Y-47728993D02*
X84351716Y-47324932D01*
X84553747Y-47526962D02*
X85260854Y-46819855D01*
X85092495Y-46853527D01*
X84957808Y-46853527D01*
X84856793Y-46819855D01*
X85900617Y-47459619D02*
X85967961Y-47526962D01*
X86001632Y-47627977D01*
X86001632Y-47695321D01*
X85967961Y-47796336D01*
X85866945Y-47964695D01*
X85698586Y-48133054D01*
X85530228Y-48234069D01*
X85429212Y-48267741D01*
X85361869Y-48267741D01*
X85260854Y-48234069D01*
X85193510Y-48166726D01*
X85159838Y-48065710D01*
X85159838Y-47998367D01*
X85193510Y-47897351D01*
X85294525Y-47728993D01*
X85462884Y-47560634D01*
X85631243Y-47459619D01*
X85732258Y-47425947D01*
X85799602Y-47425947D01*
X85900617Y-47459619D01*
X86506709Y-48537115D02*
X86035304Y-49008519D01*
X86203663Y-48234069D02*
X85833274Y-48604458D01*
X85799602Y-48705474D01*
X85833274Y-48806489D01*
X85934289Y-48907504D01*
X86035304Y-48941176D01*
X86102648Y-48941176D01*
X86978113Y-49210550D02*
X86742411Y-48974848D01*
X86372022Y-49345237D02*
X87079128Y-48638130D01*
X87415846Y-48974848D01*
X89132142Y-79191666D02*
X89179761Y-79239285D01*
X89227380Y-79382142D01*
X89227380Y-79477380D01*
X89179761Y-79620238D01*
X89084523Y-79715476D01*
X88989285Y-79763095D01*
X88798809Y-79810714D01*
X88655952Y-79810714D01*
X88465476Y-79763095D01*
X88370238Y-79715476D01*
X88275000Y-79620238D01*
X88227380Y-79477380D01*
X88227380Y-79382142D01*
X88275000Y-79239285D01*
X88322619Y-79191666D01*
X88560714Y-78334523D02*
X89227380Y-78334523D01*
X88179761Y-78572619D02*
X88894047Y-78810714D01*
X88894047Y-78191666D01*
X92527380Y-80096428D02*
X92527380Y-80667857D01*
X92527380Y-80382142D02*
X91527380Y-80382142D01*
X91670238Y-80477380D01*
X91765476Y-80572619D01*
X91813095Y-80667857D01*
X91527380Y-79477380D02*
X91527380Y-79382142D01*
X91575000Y-79286904D01*
X91622619Y-79239285D01*
X91717857Y-79191666D01*
X91908333Y-79144047D01*
X92146428Y-79144047D01*
X92336904Y-79191666D01*
X92432142Y-79239285D01*
X92479761Y-79286904D01*
X92527380Y-79382142D01*
X92527380Y-79477380D01*
X92479761Y-79572619D01*
X92432142Y-79620238D01*
X92336904Y-79667857D01*
X92146428Y-79715476D01*
X91908333Y-79715476D01*
X91717857Y-79667857D01*
X91622619Y-79620238D01*
X91575000Y-79572619D01*
X91527380Y-79477380D01*
X91860714Y-78286904D02*
X92527380Y-78286904D01*
X91860714Y-78715476D02*
X92384523Y-78715476D01*
X92479761Y-78667857D01*
X92527380Y-78572619D01*
X92527380Y-78429761D01*
X92479761Y-78334523D01*
X92432142Y-78286904D01*
X92003571Y-77477380D02*
X92003571Y-77810714D01*
X92527380Y-77810714D02*
X91527380Y-77810714D01*
X91527380Y-77334523D01*
X44431904Y-99402380D02*
X44431904Y-98402380D01*
X44670000Y-98402380D01*
X44812857Y-98450000D01*
X44908095Y-98545238D01*
X44955714Y-98640476D01*
X45003333Y-98830952D01*
X45003333Y-98973809D01*
X44955714Y-99164285D01*
X44908095Y-99259523D01*
X44812857Y-99354761D01*
X44670000Y-99402380D01*
X44431904Y-99402380D01*
X45955714Y-99402380D02*
X45384285Y-99402380D01*
X45670000Y-99402380D02*
X45670000Y-98402380D01*
X45574761Y-98545238D01*
X45479523Y-98640476D01*
X45384285Y-98688095D01*
X41860476Y-90902380D02*
X42098571Y-91902380D01*
X42289047Y-91188095D01*
X42479523Y-91902380D01*
X42717619Y-90902380D01*
X43050952Y-91854761D02*
X43193809Y-91902380D01*
X43431904Y-91902380D01*
X43527142Y-91854761D01*
X43574761Y-91807142D01*
X43622380Y-91711904D01*
X43622380Y-91616666D01*
X43574761Y-91521428D01*
X43527142Y-91473809D01*
X43431904Y-91426190D01*
X43241428Y-91378571D01*
X43146190Y-91330952D01*
X43098571Y-91283333D01*
X43050952Y-91188095D01*
X43050952Y-91092857D01*
X43098571Y-90997619D01*
X43146190Y-90950000D01*
X43241428Y-90902380D01*
X43479523Y-90902380D01*
X43622380Y-90950000D01*
X44003333Y-90997619D02*
X44050952Y-90950000D01*
X44146190Y-90902380D01*
X44384285Y-90902380D01*
X44479523Y-90950000D01*
X44527142Y-90997619D01*
X44574761Y-91092857D01*
X44574761Y-91188095D01*
X44527142Y-91330952D01*
X43955714Y-91902380D01*
X44574761Y-91902380D01*
X45146190Y-91330952D02*
X45050952Y-91283333D01*
X45003333Y-91235714D01*
X44955714Y-91140476D01*
X44955714Y-91092857D01*
X45003333Y-90997619D01*
X45050952Y-90950000D01*
X45146190Y-90902380D01*
X45336666Y-90902380D01*
X45431904Y-90950000D01*
X45479523Y-90997619D01*
X45527142Y-91092857D01*
X45527142Y-91140476D01*
X45479523Y-91235714D01*
X45431904Y-91283333D01*
X45336666Y-91330952D01*
X45146190Y-91330952D01*
X45050952Y-91378571D01*
X45003333Y-91426190D01*
X44955714Y-91521428D01*
X44955714Y-91711904D01*
X45003333Y-91807142D01*
X45050952Y-91854761D01*
X45146190Y-91902380D01*
X45336666Y-91902380D01*
X45431904Y-91854761D01*
X45479523Y-91807142D01*
X45527142Y-91711904D01*
X45527142Y-91521428D01*
X45479523Y-91426190D01*
X45431904Y-91378571D01*
X45336666Y-91330952D01*
X46479523Y-91902380D02*
X45908095Y-91902380D01*
X46193809Y-91902380D02*
X46193809Y-90902380D01*
X46098571Y-91045238D01*
X46003333Y-91140476D01*
X45908095Y-91188095D01*
X46860476Y-90997619D02*
X46908095Y-90950000D01*
X47003333Y-90902380D01*
X47241428Y-90902380D01*
X47336666Y-90950000D01*
X47384285Y-90997619D01*
X47431904Y-91092857D01*
X47431904Y-91188095D01*
X47384285Y-91330952D01*
X46812857Y-91902380D01*
X47431904Y-91902380D01*
X48193809Y-91378571D02*
X48336666Y-91426190D01*
X48384285Y-91473809D01*
X48431904Y-91569047D01*
X48431904Y-91711904D01*
X48384285Y-91807142D01*
X48336666Y-91854761D01*
X48241428Y-91902380D01*
X47860476Y-91902380D01*
X47860476Y-90902380D01*
X48193809Y-90902380D01*
X48289047Y-90950000D01*
X48336666Y-90997619D01*
X48384285Y-91092857D01*
X48384285Y-91188095D01*
X48336666Y-91283333D01*
X48289047Y-91330952D01*
X48193809Y-91378571D01*
X47860476Y-91378571D01*
X49605714Y-97502380D02*
X49034285Y-97502380D01*
X49320000Y-97502380D02*
X49320000Y-96502380D01*
X49224761Y-96645238D01*
X49129523Y-96740476D01*
X49034285Y-96788095D01*
X53431904Y-99402380D02*
X53431904Y-98402380D01*
X53670000Y-98402380D01*
X53812857Y-98450000D01*
X53908095Y-98545238D01*
X53955714Y-98640476D01*
X54003333Y-98830952D01*
X54003333Y-98973809D01*
X53955714Y-99164285D01*
X53908095Y-99259523D01*
X53812857Y-99354761D01*
X53670000Y-99402380D01*
X53431904Y-99402380D01*
X54384285Y-98497619D02*
X54431904Y-98450000D01*
X54527142Y-98402380D01*
X54765238Y-98402380D01*
X54860476Y-98450000D01*
X54908095Y-98497619D01*
X54955714Y-98592857D01*
X54955714Y-98688095D01*
X54908095Y-98830952D01*
X54336666Y-99402380D01*
X54955714Y-99402380D01*
X50860476Y-90902380D02*
X51098571Y-91902380D01*
X51289047Y-91188095D01*
X51479523Y-91902380D01*
X51717619Y-90902380D01*
X52050952Y-91854761D02*
X52193809Y-91902380D01*
X52431904Y-91902380D01*
X52527142Y-91854761D01*
X52574761Y-91807142D01*
X52622380Y-91711904D01*
X52622380Y-91616666D01*
X52574761Y-91521428D01*
X52527142Y-91473809D01*
X52431904Y-91426190D01*
X52241428Y-91378571D01*
X52146190Y-91330952D01*
X52098571Y-91283333D01*
X52050952Y-91188095D01*
X52050952Y-91092857D01*
X52098571Y-90997619D01*
X52146190Y-90950000D01*
X52241428Y-90902380D01*
X52479523Y-90902380D01*
X52622380Y-90950000D01*
X53003333Y-90997619D02*
X53050952Y-90950000D01*
X53146190Y-90902380D01*
X53384285Y-90902380D01*
X53479523Y-90950000D01*
X53527142Y-90997619D01*
X53574761Y-91092857D01*
X53574761Y-91188095D01*
X53527142Y-91330952D01*
X52955714Y-91902380D01*
X53574761Y-91902380D01*
X54146190Y-91330952D02*
X54050952Y-91283333D01*
X54003333Y-91235714D01*
X53955714Y-91140476D01*
X53955714Y-91092857D01*
X54003333Y-90997619D01*
X54050952Y-90950000D01*
X54146190Y-90902380D01*
X54336666Y-90902380D01*
X54431904Y-90950000D01*
X54479523Y-90997619D01*
X54527142Y-91092857D01*
X54527142Y-91140476D01*
X54479523Y-91235714D01*
X54431904Y-91283333D01*
X54336666Y-91330952D01*
X54146190Y-91330952D01*
X54050952Y-91378571D01*
X54003333Y-91426190D01*
X53955714Y-91521428D01*
X53955714Y-91711904D01*
X54003333Y-91807142D01*
X54050952Y-91854761D01*
X54146190Y-91902380D01*
X54336666Y-91902380D01*
X54431904Y-91854761D01*
X54479523Y-91807142D01*
X54527142Y-91711904D01*
X54527142Y-91521428D01*
X54479523Y-91426190D01*
X54431904Y-91378571D01*
X54336666Y-91330952D01*
X55479523Y-91902380D02*
X54908095Y-91902380D01*
X55193809Y-91902380D02*
X55193809Y-90902380D01*
X55098571Y-91045238D01*
X55003333Y-91140476D01*
X54908095Y-91188095D01*
X55860476Y-90997619D02*
X55908095Y-90950000D01*
X56003333Y-90902380D01*
X56241428Y-90902380D01*
X56336666Y-90950000D01*
X56384285Y-90997619D01*
X56431904Y-91092857D01*
X56431904Y-91188095D01*
X56384285Y-91330952D01*
X55812857Y-91902380D01*
X56431904Y-91902380D01*
X57193809Y-91378571D02*
X57336666Y-91426190D01*
X57384285Y-91473809D01*
X57431904Y-91569047D01*
X57431904Y-91711904D01*
X57384285Y-91807142D01*
X57336666Y-91854761D01*
X57241428Y-91902380D01*
X56860476Y-91902380D01*
X56860476Y-90902380D01*
X57193809Y-90902380D01*
X57289047Y-90950000D01*
X57336666Y-90997619D01*
X57384285Y-91092857D01*
X57384285Y-91188095D01*
X57336666Y-91283333D01*
X57289047Y-91330952D01*
X57193809Y-91378571D01*
X56860476Y-91378571D01*
X58605714Y-97502380D02*
X58034285Y-97502380D01*
X58320000Y-97502380D02*
X58320000Y-96502380D01*
X58224761Y-96645238D01*
X58129523Y-96740476D01*
X58034285Y-96788095D01*
X62431904Y-99402380D02*
X62431904Y-98402380D01*
X62670000Y-98402380D01*
X62812857Y-98450000D01*
X62908095Y-98545238D01*
X62955714Y-98640476D01*
X63003333Y-98830952D01*
X63003333Y-98973809D01*
X62955714Y-99164285D01*
X62908095Y-99259523D01*
X62812857Y-99354761D01*
X62670000Y-99402380D01*
X62431904Y-99402380D01*
X63336666Y-98402380D02*
X63955714Y-98402380D01*
X63622380Y-98783333D01*
X63765238Y-98783333D01*
X63860476Y-98830952D01*
X63908095Y-98878571D01*
X63955714Y-98973809D01*
X63955714Y-99211904D01*
X63908095Y-99307142D01*
X63860476Y-99354761D01*
X63765238Y-99402380D01*
X63479523Y-99402380D01*
X63384285Y-99354761D01*
X63336666Y-99307142D01*
X59860476Y-90902380D02*
X60098571Y-91902380D01*
X60289047Y-91188095D01*
X60479523Y-91902380D01*
X60717619Y-90902380D01*
X61050952Y-91854761D02*
X61193809Y-91902380D01*
X61431904Y-91902380D01*
X61527142Y-91854761D01*
X61574761Y-91807142D01*
X61622380Y-91711904D01*
X61622380Y-91616666D01*
X61574761Y-91521428D01*
X61527142Y-91473809D01*
X61431904Y-91426190D01*
X61241428Y-91378571D01*
X61146190Y-91330952D01*
X61098571Y-91283333D01*
X61050952Y-91188095D01*
X61050952Y-91092857D01*
X61098571Y-90997619D01*
X61146190Y-90950000D01*
X61241428Y-90902380D01*
X61479523Y-90902380D01*
X61622380Y-90950000D01*
X62003333Y-90997619D02*
X62050952Y-90950000D01*
X62146190Y-90902380D01*
X62384285Y-90902380D01*
X62479523Y-90950000D01*
X62527142Y-90997619D01*
X62574761Y-91092857D01*
X62574761Y-91188095D01*
X62527142Y-91330952D01*
X61955714Y-91902380D01*
X62574761Y-91902380D01*
X63146190Y-91330952D02*
X63050952Y-91283333D01*
X63003333Y-91235714D01*
X62955714Y-91140476D01*
X62955714Y-91092857D01*
X63003333Y-90997619D01*
X63050952Y-90950000D01*
X63146190Y-90902380D01*
X63336666Y-90902380D01*
X63431904Y-90950000D01*
X63479523Y-90997619D01*
X63527142Y-91092857D01*
X63527142Y-91140476D01*
X63479523Y-91235714D01*
X63431904Y-91283333D01*
X63336666Y-91330952D01*
X63146190Y-91330952D01*
X63050952Y-91378571D01*
X63003333Y-91426190D01*
X62955714Y-91521428D01*
X62955714Y-91711904D01*
X63003333Y-91807142D01*
X63050952Y-91854761D01*
X63146190Y-91902380D01*
X63336666Y-91902380D01*
X63431904Y-91854761D01*
X63479523Y-91807142D01*
X63527142Y-91711904D01*
X63527142Y-91521428D01*
X63479523Y-91426190D01*
X63431904Y-91378571D01*
X63336666Y-91330952D01*
X64479523Y-91902380D02*
X63908095Y-91902380D01*
X64193809Y-91902380D02*
X64193809Y-90902380D01*
X64098571Y-91045238D01*
X64003333Y-91140476D01*
X63908095Y-91188095D01*
X64860476Y-90997619D02*
X64908095Y-90950000D01*
X65003333Y-90902380D01*
X65241428Y-90902380D01*
X65336666Y-90950000D01*
X65384285Y-90997619D01*
X65431904Y-91092857D01*
X65431904Y-91188095D01*
X65384285Y-91330952D01*
X64812857Y-91902380D01*
X65431904Y-91902380D01*
X66193809Y-91378571D02*
X66336666Y-91426190D01*
X66384285Y-91473809D01*
X66431904Y-91569047D01*
X66431904Y-91711904D01*
X66384285Y-91807142D01*
X66336666Y-91854761D01*
X66241428Y-91902380D01*
X65860476Y-91902380D01*
X65860476Y-90902380D01*
X66193809Y-90902380D01*
X66289047Y-90950000D01*
X66336666Y-90997619D01*
X66384285Y-91092857D01*
X66384285Y-91188095D01*
X66336666Y-91283333D01*
X66289047Y-91330952D01*
X66193809Y-91378571D01*
X65860476Y-91378571D01*
X67605714Y-97502380D02*
X67034285Y-97502380D01*
X67320000Y-97502380D02*
X67320000Y-96502380D01*
X67224761Y-96645238D01*
X67129523Y-96740476D01*
X67034285Y-96788095D01*
X71431904Y-99402380D02*
X71431904Y-98402380D01*
X71670000Y-98402380D01*
X71812857Y-98450000D01*
X71908095Y-98545238D01*
X71955714Y-98640476D01*
X72003333Y-98830952D01*
X72003333Y-98973809D01*
X71955714Y-99164285D01*
X71908095Y-99259523D01*
X71812857Y-99354761D01*
X71670000Y-99402380D01*
X71431904Y-99402380D01*
X72860476Y-98735714D02*
X72860476Y-99402380D01*
X72622380Y-98354761D02*
X72384285Y-99069047D01*
X73003333Y-99069047D01*
X68860476Y-90902380D02*
X69098571Y-91902380D01*
X69289047Y-91188095D01*
X69479523Y-91902380D01*
X69717619Y-90902380D01*
X70050952Y-91854761D02*
X70193809Y-91902380D01*
X70431904Y-91902380D01*
X70527142Y-91854761D01*
X70574761Y-91807142D01*
X70622380Y-91711904D01*
X70622380Y-91616666D01*
X70574761Y-91521428D01*
X70527142Y-91473809D01*
X70431904Y-91426190D01*
X70241428Y-91378571D01*
X70146190Y-91330952D01*
X70098571Y-91283333D01*
X70050952Y-91188095D01*
X70050952Y-91092857D01*
X70098571Y-90997619D01*
X70146190Y-90950000D01*
X70241428Y-90902380D01*
X70479523Y-90902380D01*
X70622380Y-90950000D01*
X71003333Y-90997619D02*
X71050952Y-90950000D01*
X71146190Y-90902380D01*
X71384285Y-90902380D01*
X71479523Y-90950000D01*
X71527142Y-90997619D01*
X71574761Y-91092857D01*
X71574761Y-91188095D01*
X71527142Y-91330952D01*
X70955714Y-91902380D01*
X71574761Y-91902380D01*
X72146190Y-91330952D02*
X72050952Y-91283333D01*
X72003333Y-91235714D01*
X71955714Y-91140476D01*
X71955714Y-91092857D01*
X72003333Y-90997619D01*
X72050952Y-90950000D01*
X72146190Y-90902380D01*
X72336666Y-90902380D01*
X72431904Y-90950000D01*
X72479523Y-90997619D01*
X72527142Y-91092857D01*
X72527142Y-91140476D01*
X72479523Y-91235714D01*
X72431904Y-91283333D01*
X72336666Y-91330952D01*
X72146190Y-91330952D01*
X72050952Y-91378571D01*
X72003333Y-91426190D01*
X71955714Y-91521428D01*
X71955714Y-91711904D01*
X72003333Y-91807142D01*
X72050952Y-91854761D01*
X72146190Y-91902380D01*
X72336666Y-91902380D01*
X72431904Y-91854761D01*
X72479523Y-91807142D01*
X72527142Y-91711904D01*
X72527142Y-91521428D01*
X72479523Y-91426190D01*
X72431904Y-91378571D01*
X72336666Y-91330952D01*
X73479523Y-91902380D02*
X72908095Y-91902380D01*
X73193809Y-91902380D02*
X73193809Y-90902380D01*
X73098571Y-91045238D01*
X73003333Y-91140476D01*
X72908095Y-91188095D01*
X73860476Y-90997619D02*
X73908095Y-90950000D01*
X74003333Y-90902380D01*
X74241428Y-90902380D01*
X74336666Y-90950000D01*
X74384285Y-90997619D01*
X74431904Y-91092857D01*
X74431904Y-91188095D01*
X74384285Y-91330952D01*
X73812857Y-91902380D01*
X74431904Y-91902380D01*
X75193809Y-91378571D02*
X75336666Y-91426190D01*
X75384285Y-91473809D01*
X75431904Y-91569047D01*
X75431904Y-91711904D01*
X75384285Y-91807142D01*
X75336666Y-91854761D01*
X75241428Y-91902380D01*
X74860476Y-91902380D01*
X74860476Y-90902380D01*
X75193809Y-90902380D01*
X75289047Y-90950000D01*
X75336666Y-90997619D01*
X75384285Y-91092857D01*
X75384285Y-91188095D01*
X75336666Y-91283333D01*
X75289047Y-91330952D01*
X75193809Y-91378571D01*
X74860476Y-91378571D01*
X76605714Y-97502380D02*
X76034285Y-97502380D01*
X76320000Y-97502380D02*
X76320000Y-96502380D01*
X76224761Y-96645238D01*
X76129523Y-96740476D01*
X76034285Y-96788095D01*
X80431904Y-99402380D02*
X80431904Y-98402380D01*
X80670000Y-98402380D01*
X80812857Y-98450000D01*
X80908095Y-98545238D01*
X80955714Y-98640476D01*
X81003333Y-98830952D01*
X81003333Y-98973809D01*
X80955714Y-99164285D01*
X80908095Y-99259523D01*
X80812857Y-99354761D01*
X80670000Y-99402380D01*
X80431904Y-99402380D01*
X81908095Y-98402380D02*
X81431904Y-98402380D01*
X81384285Y-98878571D01*
X81431904Y-98830952D01*
X81527142Y-98783333D01*
X81765238Y-98783333D01*
X81860476Y-98830952D01*
X81908095Y-98878571D01*
X81955714Y-98973809D01*
X81955714Y-99211904D01*
X81908095Y-99307142D01*
X81860476Y-99354761D01*
X81765238Y-99402380D01*
X81527142Y-99402380D01*
X81431904Y-99354761D01*
X81384285Y-99307142D01*
X77860476Y-90902380D02*
X78098571Y-91902380D01*
X78289047Y-91188095D01*
X78479523Y-91902380D01*
X78717619Y-90902380D01*
X79050952Y-91854761D02*
X79193809Y-91902380D01*
X79431904Y-91902380D01*
X79527142Y-91854761D01*
X79574761Y-91807142D01*
X79622380Y-91711904D01*
X79622380Y-91616666D01*
X79574761Y-91521428D01*
X79527142Y-91473809D01*
X79431904Y-91426190D01*
X79241428Y-91378571D01*
X79146190Y-91330952D01*
X79098571Y-91283333D01*
X79050952Y-91188095D01*
X79050952Y-91092857D01*
X79098571Y-90997619D01*
X79146190Y-90950000D01*
X79241428Y-90902380D01*
X79479523Y-90902380D01*
X79622380Y-90950000D01*
X80003333Y-90997619D02*
X80050952Y-90950000D01*
X80146190Y-90902380D01*
X80384285Y-90902380D01*
X80479523Y-90950000D01*
X80527142Y-90997619D01*
X80574761Y-91092857D01*
X80574761Y-91188095D01*
X80527142Y-91330952D01*
X79955714Y-91902380D01*
X80574761Y-91902380D01*
X81146190Y-91330952D02*
X81050952Y-91283333D01*
X81003333Y-91235714D01*
X80955714Y-91140476D01*
X80955714Y-91092857D01*
X81003333Y-90997619D01*
X81050952Y-90950000D01*
X81146190Y-90902380D01*
X81336666Y-90902380D01*
X81431904Y-90950000D01*
X81479523Y-90997619D01*
X81527142Y-91092857D01*
X81527142Y-91140476D01*
X81479523Y-91235714D01*
X81431904Y-91283333D01*
X81336666Y-91330952D01*
X81146190Y-91330952D01*
X81050952Y-91378571D01*
X81003333Y-91426190D01*
X80955714Y-91521428D01*
X80955714Y-91711904D01*
X81003333Y-91807142D01*
X81050952Y-91854761D01*
X81146190Y-91902380D01*
X81336666Y-91902380D01*
X81431904Y-91854761D01*
X81479523Y-91807142D01*
X81527142Y-91711904D01*
X81527142Y-91521428D01*
X81479523Y-91426190D01*
X81431904Y-91378571D01*
X81336666Y-91330952D01*
X82479523Y-91902380D02*
X81908095Y-91902380D01*
X82193809Y-91902380D02*
X82193809Y-90902380D01*
X82098571Y-91045238D01*
X82003333Y-91140476D01*
X81908095Y-91188095D01*
X82860476Y-90997619D02*
X82908095Y-90950000D01*
X83003333Y-90902380D01*
X83241428Y-90902380D01*
X83336666Y-90950000D01*
X83384285Y-90997619D01*
X83431904Y-91092857D01*
X83431904Y-91188095D01*
X83384285Y-91330952D01*
X82812857Y-91902380D01*
X83431904Y-91902380D01*
X84193809Y-91378571D02*
X84336666Y-91426190D01*
X84384285Y-91473809D01*
X84431904Y-91569047D01*
X84431904Y-91711904D01*
X84384285Y-91807142D01*
X84336666Y-91854761D01*
X84241428Y-91902380D01*
X83860476Y-91902380D01*
X83860476Y-90902380D01*
X84193809Y-90902380D01*
X84289047Y-90950000D01*
X84336666Y-90997619D01*
X84384285Y-91092857D01*
X84384285Y-91188095D01*
X84336666Y-91283333D01*
X84289047Y-91330952D01*
X84193809Y-91378571D01*
X83860476Y-91378571D01*
X85605714Y-97502380D02*
X85034285Y-97502380D01*
X85320000Y-97502380D02*
X85320000Y-96502380D01*
X85224761Y-96645238D01*
X85129523Y-96740476D01*
X85034285Y-96788095D01*
X89431904Y-99402380D02*
X89431904Y-98402380D01*
X89670000Y-98402380D01*
X89812857Y-98450000D01*
X89908095Y-98545238D01*
X89955714Y-98640476D01*
X90003333Y-98830952D01*
X90003333Y-98973809D01*
X89955714Y-99164285D01*
X89908095Y-99259523D01*
X89812857Y-99354761D01*
X89670000Y-99402380D01*
X89431904Y-99402380D01*
X90860476Y-98402380D02*
X90670000Y-98402380D01*
X90574761Y-98450000D01*
X90527142Y-98497619D01*
X90431904Y-98640476D01*
X90384285Y-98830952D01*
X90384285Y-99211904D01*
X90431904Y-99307142D01*
X90479523Y-99354761D01*
X90574761Y-99402380D01*
X90765238Y-99402380D01*
X90860476Y-99354761D01*
X90908095Y-99307142D01*
X90955714Y-99211904D01*
X90955714Y-98973809D01*
X90908095Y-98878571D01*
X90860476Y-98830952D01*
X90765238Y-98783333D01*
X90574761Y-98783333D01*
X90479523Y-98830952D01*
X90431904Y-98878571D01*
X90384285Y-98973809D01*
X86860476Y-90902380D02*
X87098571Y-91902380D01*
X87289047Y-91188095D01*
X87479523Y-91902380D01*
X87717619Y-90902380D01*
X88050952Y-91854761D02*
X88193809Y-91902380D01*
X88431904Y-91902380D01*
X88527142Y-91854761D01*
X88574761Y-91807142D01*
X88622380Y-91711904D01*
X88622380Y-91616666D01*
X88574761Y-91521428D01*
X88527142Y-91473809D01*
X88431904Y-91426190D01*
X88241428Y-91378571D01*
X88146190Y-91330952D01*
X88098571Y-91283333D01*
X88050952Y-91188095D01*
X88050952Y-91092857D01*
X88098571Y-90997619D01*
X88146190Y-90950000D01*
X88241428Y-90902380D01*
X88479523Y-90902380D01*
X88622380Y-90950000D01*
X89003333Y-90997619D02*
X89050952Y-90950000D01*
X89146190Y-90902380D01*
X89384285Y-90902380D01*
X89479523Y-90950000D01*
X89527142Y-90997619D01*
X89574761Y-91092857D01*
X89574761Y-91188095D01*
X89527142Y-91330952D01*
X88955714Y-91902380D01*
X89574761Y-91902380D01*
X90146190Y-91330952D02*
X90050952Y-91283333D01*
X90003333Y-91235714D01*
X89955714Y-91140476D01*
X89955714Y-91092857D01*
X90003333Y-90997619D01*
X90050952Y-90950000D01*
X90146190Y-90902380D01*
X90336666Y-90902380D01*
X90431904Y-90950000D01*
X90479523Y-90997619D01*
X90527142Y-91092857D01*
X90527142Y-91140476D01*
X90479523Y-91235714D01*
X90431904Y-91283333D01*
X90336666Y-91330952D01*
X90146190Y-91330952D01*
X90050952Y-91378571D01*
X90003333Y-91426190D01*
X89955714Y-91521428D01*
X89955714Y-91711904D01*
X90003333Y-91807142D01*
X90050952Y-91854761D01*
X90146190Y-91902380D01*
X90336666Y-91902380D01*
X90431904Y-91854761D01*
X90479523Y-91807142D01*
X90527142Y-91711904D01*
X90527142Y-91521428D01*
X90479523Y-91426190D01*
X90431904Y-91378571D01*
X90336666Y-91330952D01*
X91479523Y-91902380D02*
X90908095Y-91902380D01*
X91193809Y-91902380D02*
X91193809Y-90902380D01*
X91098571Y-91045238D01*
X91003333Y-91140476D01*
X90908095Y-91188095D01*
X91860476Y-90997619D02*
X91908095Y-90950000D01*
X92003333Y-90902380D01*
X92241428Y-90902380D01*
X92336666Y-90950000D01*
X92384285Y-90997619D01*
X92431904Y-91092857D01*
X92431904Y-91188095D01*
X92384285Y-91330952D01*
X91812857Y-91902380D01*
X92431904Y-91902380D01*
X93193809Y-91378571D02*
X93336666Y-91426190D01*
X93384285Y-91473809D01*
X93431904Y-91569047D01*
X93431904Y-91711904D01*
X93384285Y-91807142D01*
X93336666Y-91854761D01*
X93241428Y-91902380D01*
X92860476Y-91902380D01*
X92860476Y-90902380D01*
X93193809Y-90902380D01*
X93289047Y-90950000D01*
X93336666Y-90997619D01*
X93384285Y-91092857D01*
X93384285Y-91188095D01*
X93336666Y-91283333D01*
X93289047Y-91330952D01*
X93193809Y-91378571D01*
X92860476Y-91378571D01*
X94605714Y-97502380D02*
X94034285Y-97502380D01*
X94320000Y-97502380D02*
X94320000Y-96502380D01*
X94224761Y-96645238D01*
X94129523Y-96740476D01*
X94034285Y-96788095D01*
X71502380Y-78833333D02*
X72216666Y-78833333D01*
X72359523Y-78880952D01*
X72454761Y-78976190D01*
X72502380Y-79119047D01*
X72502380Y-79214285D01*
X72502380Y-77833333D02*
X72502380Y-78404761D01*
X72502380Y-78119047D02*
X71502380Y-78119047D01*
X71645238Y-78214285D01*
X71740476Y-78309523D01*
X71788095Y-78404761D01*
X87322380Y-79833333D02*
X86322380Y-79833333D01*
X86322380Y-79452380D01*
X86370000Y-79357142D01*
X86417619Y-79309523D01*
X86512857Y-79261904D01*
X86655714Y-79261904D01*
X86750952Y-79309523D01*
X86798571Y-79357142D01*
X86846190Y-79452380D01*
X86846190Y-79833333D01*
X86370000Y-78309523D02*
X86322380Y-78404761D01*
X86322380Y-78547619D01*
X86370000Y-78690476D01*
X86465238Y-78785714D01*
X86560476Y-78833333D01*
X86750952Y-78880952D01*
X86893809Y-78880952D01*
X87084285Y-78833333D01*
X87179523Y-78785714D01*
X87274761Y-78690476D01*
X87322380Y-78547619D01*
X87322380Y-78452380D01*
X87274761Y-78309523D01*
X87227142Y-78261904D01*
X86893809Y-78261904D01*
X86893809Y-78452380D01*
X87322380Y-77833333D02*
X86322380Y-77833333D01*
X87036666Y-77500000D01*
X86322380Y-77166666D01*
X87322380Y-77166666D01*
X44584797Y-28659486D02*
X44584797Y-27659486D01*
X44965750Y-27659486D01*
X45060988Y-27707106D01*
X45108607Y-27754725D01*
X45156226Y-27849963D01*
X45156226Y-27992820D01*
X45108607Y-28088058D01*
X45060988Y-28135677D01*
X44965750Y-28183296D01*
X44584797Y-28183296D01*
X46108607Y-28659486D02*
X45537178Y-28659486D01*
X45822893Y-28659486D02*
X45822893Y-27659486D01*
X45727654Y-27802344D01*
X45632416Y-27897582D01*
X45537178Y-27945201D01*
X44560988Y-26611867D02*
X44703845Y-26659486D01*
X44941940Y-26659486D01*
X45037178Y-26611867D01*
X45084797Y-26564248D01*
X45132416Y-26469010D01*
X45132416Y-26373772D01*
X45084797Y-26278534D01*
X45037178Y-26230915D01*
X44941940Y-26183296D01*
X44751464Y-26135677D01*
X44656226Y-26088058D01*
X44608607Y-26040439D01*
X44560988Y-25945201D01*
X44560988Y-25849963D01*
X44608607Y-25754725D01*
X44656226Y-25707106D01*
X44751464Y-25659486D01*
X44989559Y-25659486D01*
X45132416Y-25707106D01*
X45513369Y-25754725D02*
X45560988Y-25707106D01*
X45656226Y-25659486D01*
X45894321Y-25659486D01*
X45989559Y-25707106D01*
X46037178Y-25754725D01*
X46084797Y-25849963D01*
X46084797Y-25945201D01*
X46037178Y-26088058D01*
X45465750Y-26659486D01*
X46084797Y-26659486D01*
X68371904Y-44962380D02*
X68371904Y-43962380D01*
X68752857Y-43962380D01*
X68848095Y-44010000D01*
X68895714Y-44057619D01*
X68943333Y-44152857D01*
X68943333Y-44295714D01*
X68895714Y-44390952D01*
X68848095Y-44438571D01*
X68752857Y-44486190D01*
X68371904Y-44486190D01*
X69324285Y-44057619D02*
X69371904Y-44010000D01*
X69467142Y-43962380D01*
X69705238Y-43962380D01*
X69800476Y-44010000D01*
X69848095Y-44057619D01*
X69895714Y-44152857D01*
X69895714Y-44248095D01*
X69848095Y-44390952D01*
X69276666Y-44962380D01*
X69895714Y-44962380D01*
X67761904Y-46572380D02*
X67761904Y-45572380D01*
X68142857Y-45572380D01*
X68238095Y-45620000D01*
X68285714Y-45667619D01*
X68333333Y-45762857D01*
X68333333Y-45905714D01*
X68285714Y-46000952D01*
X68238095Y-46048571D01*
X68142857Y-46096190D01*
X67761904Y-46096190D01*
X69095238Y-46048571D02*
X69238095Y-46096190D01*
X69285714Y-46143809D01*
X69333333Y-46239047D01*
X69333333Y-46381904D01*
X69285714Y-46477142D01*
X69238095Y-46524761D01*
X69142857Y-46572380D01*
X68761904Y-46572380D01*
X68761904Y-45572380D01*
X69095238Y-45572380D01*
X69190476Y-45620000D01*
X69238095Y-45667619D01*
X69285714Y-45762857D01*
X69285714Y-45858095D01*
X69238095Y-45953333D01*
X69190476Y-46000952D01*
X69095238Y-46048571D01*
X68761904Y-46048571D01*
X69952380Y-45572380D02*
X70047619Y-45572380D01*
X70142857Y-45620000D01*
X70190476Y-45667619D01*
X70238095Y-45762857D01*
X70285714Y-45953333D01*
X70285714Y-46191428D01*
X70238095Y-46381904D01*
X70190476Y-46477142D01*
X70142857Y-46524761D01*
X70047619Y-46572380D01*
X69952380Y-46572380D01*
X69857142Y-46524761D01*
X69809523Y-46477142D01*
X69761904Y-46381904D01*
X69714285Y-46191428D01*
X69714285Y-45953333D01*
X69761904Y-45762857D01*
X69809523Y-45667619D01*
X69857142Y-45620000D01*
X69952380Y-45572380D01*
X47884797Y-28659486D02*
X47884797Y-27659486D01*
X48265750Y-27659486D01*
X48360988Y-27707106D01*
X48408607Y-27754725D01*
X48456226Y-27849963D01*
X48456226Y-27992820D01*
X48408607Y-28088058D01*
X48360988Y-28135677D01*
X48265750Y-28183296D01*
X47884797Y-28183296D01*
X48789559Y-27659486D02*
X49408607Y-27659486D01*
X49075273Y-28040439D01*
X49218131Y-28040439D01*
X49313369Y-28088058D01*
X49360988Y-28135677D01*
X49408607Y-28230915D01*
X49408607Y-28469010D01*
X49360988Y-28564248D01*
X49313369Y-28611867D01*
X49218131Y-28659486D01*
X48932416Y-28659486D01*
X48837178Y-28611867D01*
X48789559Y-28564248D01*
X47870988Y-26611867D02*
X48013845Y-26659486D01*
X48251940Y-26659486D01*
X48347178Y-26611867D01*
X48394797Y-26564248D01*
X48442416Y-26469010D01*
X48442416Y-26373772D01*
X48394797Y-26278534D01*
X48347178Y-26230915D01*
X48251940Y-26183296D01*
X48061464Y-26135677D01*
X47966226Y-26088058D01*
X47918607Y-26040439D01*
X47870988Y-25945201D01*
X47870988Y-25849963D01*
X47918607Y-25754725D01*
X47966226Y-25707106D01*
X48061464Y-25659486D01*
X48299559Y-25659486D01*
X48442416Y-25707106D01*
X49061464Y-25659486D02*
X49156702Y-25659486D01*
X49251940Y-25707106D01*
X49299559Y-25754725D01*
X49347178Y-25849963D01*
X49394797Y-26040439D01*
X49394797Y-26278534D01*
X49347178Y-26469010D01*
X49299559Y-26564248D01*
X49251940Y-26611867D01*
X49156702Y-26659486D01*
X49061464Y-26659486D01*
X48966226Y-26611867D01*
X48918607Y-26564248D01*
X48870988Y-26469010D01*
X48823369Y-26278534D01*
X48823369Y-26040439D01*
X48870988Y-25849963D01*
X48918607Y-25754725D01*
X48966226Y-25707106D01*
X49061464Y-25659486D01*
X68371904Y-48962380D02*
X68371904Y-47962380D01*
X68752857Y-47962380D01*
X68848095Y-48010000D01*
X68895714Y-48057619D01*
X68943333Y-48152857D01*
X68943333Y-48295714D01*
X68895714Y-48390952D01*
X68848095Y-48438571D01*
X68752857Y-48486190D01*
X68371904Y-48486190D01*
X69800476Y-48295714D02*
X69800476Y-48962380D01*
X69562380Y-47914761D02*
X69324285Y-48629047D01*
X69943333Y-48629047D01*
X67761904Y-50452380D02*
X67761904Y-49452380D01*
X68142857Y-49452380D01*
X68238095Y-49500000D01*
X68285714Y-49547619D01*
X68333333Y-49642857D01*
X68333333Y-49785714D01*
X68285714Y-49880952D01*
X68238095Y-49928571D01*
X68142857Y-49976190D01*
X67761904Y-49976190D01*
X69095238Y-49928571D02*
X69238095Y-49976190D01*
X69285714Y-50023809D01*
X69333333Y-50119047D01*
X69333333Y-50261904D01*
X69285714Y-50357142D01*
X69238095Y-50404761D01*
X69142857Y-50452380D01*
X68761904Y-50452380D01*
X68761904Y-49452380D01*
X69095238Y-49452380D01*
X69190476Y-49500000D01*
X69238095Y-49547619D01*
X69285714Y-49642857D01*
X69285714Y-49738095D01*
X69238095Y-49833333D01*
X69190476Y-49880952D01*
X69095238Y-49928571D01*
X68761904Y-49928571D01*
X70285714Y-50452380D02*
X69714285Y-50452380D01*
X70000000Y-50452380D02*
X70000000Y-49452380D01*
X69904761Y-49595238D01*
X69809523Y-49690476D01*
X69714285Y-49738095D01*
X51184797Y-28659487D02*
X51184797Y-27659487D01*
X51565750Y-27659487D01*
X51660988Y-27707107D01*
X51708607Y-27754726D01*
X51756226Y-27849964D01*
X51756226Y-27992821D01*
X51708607Y-28088059D01*
X51660988Y-28135678D01*
X51565750Y-28183297D01*
X51184797Y-28183297D01*
X52660988Y-27659487D02*
X52184797Y-27659487D01*
X52137178Y-28135678D01*
X52184797Y-28088059D01*
X52280035Y-28040440D01*
X52518131Y-28040440D01*
X52613369Y-28088059D01*
X52660988Y-28135678D01*
X52708607Y-28230916D01*
X52708607Y-28469011D01*
X52660988Y-28564249D01*
X52613369Y-28611868D01*
X52518131Y-28659487D01*
X52280035Y-28659487D01*
X52184797Y-28611868D01*
X52137178Y-28564249D01*
X51060988Y-26611868D02*
X51203845Y-26659487D01*
X51441940Y-26659487D01*
X51537178Y-26611868D01*
X51584797Y-26564249D01*
X51632416Y-26469011D01*
X51632416Y-26373773D01*
X51584797Y-26278535D01*
X51537178Y-26230916D01*
X51441940Y-26183297D01*
X51251464Y-26135678D01*
X51156226Y-26088059D01*
X51108607Y-26040440D01*
X51060988Y-25945202D01*
X51060988Y-25849964D01*
X51108607Y-25754726D01*
X51156226Y-25707107D01*
X51251464Y-25659487D01*
X51489559Y-25659487D01*
X51632416Y-25707107D01*
X52537178Y-25659487D02*
X52060988Y-25659487D01*
X52013369Y-26135678D01*
X52060988Y-26088059D01*
X52156226Y-26040440D01*
X52394321Y-26040440D01*
X52489559Y-26088059D01*
X52537178Y-26135678D01*
X52584797Y-26230916D01*
X52584797Y-26469011D01*
X52537178Y-26564249D01*
X52489559Y-26611868D01*
X52394321Y-26659487D01*
X52156226Y-26659487D01*
X52060988Y-26611868D01*
X52013369Y-26564249D01*
X68371904Y-52962380D02*
X68371904Y-51962380D01*
X68752857Y-51962380D01*
X68848095Y-52010000D01*
X68895714Y-52057619D01*
X68943333Y-52152857D01*
X68943333Y-52295714D01*
X68895714Y-52390952D01*
X68848095Y-52438571D01*
X68752857Y-52486190D01*
X68371904Y-52486190D01*
X69800476Y-51962380D02*
X69610000Y-51962380D01*
X69514761Y-52010000D01*
X69467142Y-52057619D01*
X69371904Y-52200476D01*
X69324285Y-52390952D01*
X69324285Y-52771904D01*
X69371904Y-52867142D01*
X69419523Y-52914761D01*
X69514761Y-52962380D01*
X69705238Y-52962380D01*
X69800476Y-52914761D01*
X69848095Y-52867142D01*
X69895714Y-52771904D01*
X69895714Y-52533809D01*
X69848095Y-52438571D01*
X69800476Y-52390952D01*
X69705238Y-52343333D01*
X69514761Y-52343333D01*
X69419523Y-52390952D01*
X69371904Y-52438571D01*
X69324285Y-52533809D01*
X67761904Y-54572380D02*
X67761904Y-53572380D01*
X68142857Y-53572380D01*
X68238095Y-53620000D01*
X68285714Y-53667619D01*
X68333333Y-53762857D01*
X68333333Y-53905714D01*
X68285714Y-54000952D01*
X68238095Y-54048571D01*
X68142857Y-54096190D01*
X67761904Y-54096190D01*
X69095238Y-54048571D02*
X69238095Y-54096190D01*
X69285714Y-54143809D01*
X69333333Y-54239047D01*
X69333333Y-54381904D01*
X69285714Y-54477142D01*
X69238095Y-54524761D01*
X69142857Y-54572380D01*
X68761904Y-54572380D01*
X68761904Y-53572380D01*
X69095238Y-53572380D01*
X69190476Y-53620000D01*
X69238095Y-53667619D01*
X69285714Y-53762857D01*
X69285714Y-53858095D01*
X69238095Y-53953333D01*
X69190476Y-54000952D01*
X69095238Y-54048571D01*
X68761904Y-54048571D01*
X69714285Y-53667619D02*
X69761904Y-53620000D01*
X69857142Y-53572380D01*
X70095238Y-53572380D01*
X70190476Y-53620000D01*
X70238095Y-53667619D01*
X70285714Y-53762857D01*
X70285714Y-53858095D01*
X70238095Y-54000952D01*
X69666666Y-54572380D01*
X70285714Y-54572380D01*
X54584797Y-28659486D02*
X54584797Y-27659486D01*
X54965750Y-27659486D01*
X55060988Y-27707106D01*
X55108607Y-27754725D01*
X55156226Y-27849963D01*
X55156226Y-27992820D01*
X55108607Y-28088058D01*
X55060988Y-28135677D01*
X54965750Y-28183296D01*
X54584797Y-28183296D01*
X55489559Y-27659486D02*
X56156226Y-27659486D01*
X55727654Y-28659486D01*
X54560988Y-26611867D02*
X54703845Y-26659486D01*
X54941940Y-26659486D01*
X55037178Y-26611867D01*
X55084797Y-26564248D01*
X55132416Y-26469010D01*
X55132416Y-26373772D01*
X55084797Y-26278534D01*
X55037178Y-26230915D01*
X54941940Y-26183296D01*
X54751464Y-26135677D01*
X54656226Y-26088058D01*
X54608607Y-26040439D01*
X54560988Y-25945201D01*
X54560988Y-25849963D01*
X54608607Y-25754725D01*
X54656226Y-25707106D01*
X54751464Y-25659486D01*
X54989559Y-25659486D01*
X55132416Y-25707106D01*
X55513369Y-25754725D02*
X55560988Y-25707106D01*
X55656226Y-25659486D01*
X55894321Y-25659486D01*
X55989559Y-25707106D01*
X56037178Y-25754725D01*
X56084797Y-25849963D01*
X56084797Y-25945201D01*
X56037178Y-26088058D01*
X55465750Y-26659486D01*
X56084797Y-26659486D01*
X62442380Y-76348095D02*
X61442380Y-76348095D01*
X61442380Y-75967142D01*
X61490000Y-75871904D01*
X61537619Y-75824285D01*
X61632857Y-75776666D01*
X61775714Y-75776666D01*
X61870952Y-75824285D01*
X61918571Y-75871904D01*
X61966190Y-75967142D01*
X61966190Y-76348095D01*
X61870952Y-75205238D02*
X61823333Y-75300476D01*
X61775714Y-75348095D01*
X61680476Y-75395714D01*
X61632857Y-75395714D01*
X61537619Y-75348095D01*
X61490000Y-75300476D01*
X61442380Y-75205238D01*
X61442380Y-75014761D01*
X61490000Y-74919523D01*
X61537619Y-74871904D01*
X61632857Y-74824285D01*
X61680476Y-74824285D01*
X61775714Y-74871904D01*
X61823333Y-74919523D01*
X61870952Y-75014761D01*
X61870952Y-75205238D01*
X61918571Y-75300476D01*
X61966190Y-75348095D01*
X62061428Y-75395714D01*
X62251904Y-75395714D01*
X62347142Y-75348095D01*
X62394761Y-75300476D01*
X62442380Y-75205238D01*
X62442380Y-75014761D01*
X62394761Y-74919523D01*
X62347142Y-74871904D01*
X62251904Y-74824285D01*
X62061428Y-74824285D01*
X61966190Y-74871904D01*
X61918571Y-74919523D01*
X61870952Y-75014761D01*
X60452380Y-77738096D02*
X59452380Y-77738096D01*
X59452380Y-77357143D01*
X59500000Y-77261905D01*
X59547619Y-77214286D01*
X59642857Y-77166667D01*
X59785714Y-77166667D01*
X59880952Y-77214286D01*
X59928571Y-77261905D01*
X59976190Y-77357143D01*
X59976190Y-77738096D01*
X59928571Y-76404762D02*
X59976190Y-76261905D01*
X60023809Y-76214286D01*
X60119047Y-76166667D01*
X60261904Y-76166667D01*
X60357142Y-76214286D01*
X60404761Y-76261905D01*
X60452380Y-76357143D01*
X60452380Y-76738096D01*
X59452380Y-76738096D01*
X59452380Y-76404762D01*
X59500000Y-76309524D01*
X59547619Y-76261905D01*
X59642857Y-76214286D01*
X59738095Y-76214286D01*
X59833333Y-76261905D01*
X59880952Y-76309524D01*
X59928571Y-76404762D01*
X59928571Y-76738096D01*
X59452380Y-75833334D02*
X59452380Y-75214286D01*
X59833333Y-75547620D01*
X59833333Y-75404762D01*
X59880952Y-75309524D01*
X59928571Y-75261905D01*
X60023809Y-75214286D01*
X60261904Y-75214286D01*
X60357142Y-75261905D01*
X60404761Y-75309524D01*
X60452380Y-75404762D01*
X60452380Y-75690477D01*
X60404761Y-75785715D01*
X60357142Y-75833334D01*
X57784797Y-28659487D02*
X57784797Y-27659487D01*
X58165750Y-27659487D01*
X58260988Y-27707107D01*
X58308607Y-27754726D01*
X58356226Y-27849964D01*
X58356226Y-27992821D01*
X58308607Y-28088059D01*
X58260988Y-28135678D01*
X58165750Y-28183297D01*
X57784797Y-28183297D01*
X58832416Y-28659487D02*
X59022893Y-28659487D01*
X59118131Y-28611868D01*
X59165750Y-28564249D01*
X59260988Y-28421392D01*
X59308607Y-28230916D01*
X59308607Y-27849964D01*
X59260988Y-27754726D01*
X59213369Y-27707107D01*
X59118131Y-27659487D01*
X58927654Y-27659487D01*
X58832416Y-27707107D01*
X58784797Y-27754726D01*
X58737178Y-27849964D01*
X58737178Y-28088059D01*
X58784797Y-28183297D01*
X58832416Y-28230916D01*
X58927654Y-28278535D01*
X59118131Y-28278535D01*
X59213369Y-28230916D01*
X59260988Y-28183297D01*
X59308607Y-28088059D01*
X57560988Y-26611868D02*
X57703845Y-26659487D01*
X57941940Y-26659487D01*
X58037178Y-26611868D01*
X58084797Y-26564249D01*
X58132416Y-26469011D01*
X58132416Y-26373773D01*
X58084797Y-26278535D01*
X58037178Y-26230916D01*
X57941940Y-26183297D01*
X57751464Y-26135678D01*
X57656226Y-26088059D01*
X57608607Y-26040440D01*
X57560988Y-25945202D01*
X57560988Y-25849964D01*
X57608607Y-25754726D01*
X57656226Y-25707107D01*
X57751464Y-25659487D01*
X57989559Y-25659487D01*
X58132416Y-25707107D01*
X58989559Y-25992821D02*
X58989559Y-26659487D01*
X58751464Y-25611868D02*
X58513369Y-26326154D01*
X59132416Y-26326154D01*
X58442380Y-76824285D02*
X57442380Y-76824285D01*
X57442380Y-76443333D01*
X57490000Y-76348095D01*
X57537619Y-76300476D01*
X57632857Y-76252857D01*
X57775714Y-76252857D01*
X57870952Y-76300476D01*
X57918571Y-76348095D01*
X57966190Y-76443333D01*
X57966190Y-76824285D01*
X58442380Y-75300476D02*
X58442380Y-75871904D01*
X58442380Y-75586190D02*
X57442380Y-75586190D01*
X57585238Y-75681428D01*
X57680476Y-75776666D01*
X57728095Y-75871904D01*
X57442380Y-74681428D02*
X57442380Y-74586190D01*
X57490000Y-74490952D01*
X57537619Y-74443333D01*
X57632857Y-74395714D01*
X57823333Y-74348095D01*
X58061428Y-74348095D01*
X58251904Y-74395714D01*
X58347142Y-74443333D01*
X58394761Y-74490952D01*
X58442380Y-74586190D01*
X58442380Y-74681428D01*
X58394761Y-74776666D01*
X58347142Y-74824285D01*
X58251904Y-74871904D01*
X58061428Y-74919523D01*
X57823333Y-74919523D01*
X57632857Y-74871904D01*
X57537619Y-74824285D01*
X57490000Y-74776666D01*
X57442380Y-74681428D01*
X56452380Y-77738095D02*
X55452380Y-77738095D01*
X55452380Y-77357142D01*
X55500000Y-77261904D01*
X55547619Y-77214285D01*
X55642857Y-77166666D01*
X55785714Y-77166666D01*
X55880952Y-77214285D01*
X55928571Y-77261904D01*
X55976190Y-77357142D01*
X55976190Y-77738095D01*
X55928571Y-76404761D02*
X55976190Y-76261904D01*
X56023809Y-76214285D01*
X56119047Y-76166666D01*
X56261904Y-76166666D01*
X56357142Y-76214285D01*
X56404761Y-76261904D01*
X56452380Y-76357142D01*
X56452380Y-76738095D01*
X55452380Y-76738095D01*
X55452380Y-76404761D01*
X55500000Y-76309523D01*
X55547619Y-76261904D01*
X55642857Y-76214285D01*
X55738095Y-76214285D01*
X55833333Y-76261904D01*
X55880952Y-76309523D01*
X55928571Y-76404761D01*
X55928571Y-76738095D01*
X55785714Y-75309523D02*
X56452380Y-75309523D01*
X55404761Y-75547619D02*
X56119047Y-75785714D01*
X56119047Y-75166666D01*
X60608607Y-28659487D02*
X60608607Y-27659487D01*
X60989559Y-27659487D01*
X61084797Y-27707107D01*
X61132416Y-27754726D01*
X61180035Y-27849964D01*
X61180035Y-27992821D01*
X61132416Y-28088059D01*
X61084797Y-28135678D01*
X60989559Y-28183297D01*
X60608607Y-28183297D01*
X62132416Y-28659487D02*
X61560988Y-28659487D01*
X61846702Y-28659487D02*
X61846702Y-27659487D01*
X61751464Y-27802345D01*
X61656226Y-27897583D01*
X61560988Y-27945202D01*
X63084797Y-28659487D02*
X62513369Y-28659487D01*
X62799083Y-28659487D02*
X62799083Y-27659487D01*
X62703845Y-27802345D01*
X62608607Y-27897583D01*
X62513369Y-27945202D01*
X61010988Y-26611868D02*
X61153845Y-26659487D01*
X61391940Y-26659487D01*
X61487178Y-26611868D01*
X61534797Y-26564249D01*
X61582416Y-26469011D01*
X61582416Y-26373773D01*
X61534797Y-26278535D01*
X61487178Y-26230916D01*
X61391940Y-26183297D01*
X61201464Y-26135678D01*
X61106226Y-26088059D01*
X61058607Y-26040440D01*
X61010988Y-25945202D01*
X61010988Y-25849964D01*
X61058607Y-25754726D01*
X61106226Y-25707107D01*
X61201464Y-25659487D01*
X61439559Y-25659487D01*
X61582416Y-25707107D01*
X62201464Y-25659487D02*
X62296702Y-25659487D01*
X62391940Y-25707107D01*
X62439559Y-25754726D01*
X62487178Y-25849964D01*
X62534797Y-26040440D01*
X62534797Y-26278535D01*
X62487178Y-26469011D01*
X62439559Y-26564249D01*
X62391940Y-26611868D01*
X62296702Y-26659487D01*
X62201464Y-26659487D01*
X62106226Y-26611868D01*
X62058607Y-26564249D01*
X62010988Y-26469011D01*
X61963369Y-26278535D01*
X61963369Y-26040440D01*
X62010988Y-25849964D01*
X62058607Y-25754726D01*
X62106226Y-25707107D01*
X62201464Y-25659487D01*
X54442380Y-76824285D02*
X53442380Y-76824285D01*
X53442380Y-76443333D01*
X53490000Y-76348095D01*
X53537619Y-76300476D01*
X53632857Y-76252857D01*
X53775714Y-76252857D01*
X53870952Y-76300476D01*
X53918571Y-76348095D01*
X53966190Y-76443333D01*
X53966190Y-76824285D01*
X54442380Y-75300476D02*
X54442380Y-75871904D01*
X54442380Y-75586190D02*
X53442380Y-75586190D01*
X53585238Y-75681428D01*
X53680476Y-75776666D01*
X53728095Y-75871904D01*
X53537619Y-74919523D02*
X53490000Y-74871904D01*
X53442380Y-74776666D01*
X53442380Y-74538571D01*
X53490000Y-74443333D01*
X53537619Y-74395714D01*
X53632857Y-74348095D01*
X53728095Y-74348095D01*
X53870952Y-74395714D01*
X54442380Y-74967142D01*
X54442380Y-74348095D01*
X52452380Y-77738095D02*
X51452380Y-77738095D01*
X51452380Y-77357142D01*
X51500000Y-77261904D01*
X51547619Y-77214285D01*
X51642857Y-77166666D01*
X51785714Y-77166666D01*
X51880952Y-77214285D01*
X51928571Y-77261904D01*
X51976190Y-77357142D01*
X51976190Y-77738095D01*
X51928571Y-76404761D02*
X51976190Y-76261904D01*
X52023809Y-76214285D01*
X52119047Y-76166666D01*
X52261904Y-76166666D01*
X52357142Y-76214285D01*
X52404761Y-76261904D01*
X52452380Y-76357142D01*
X52452380Y-76738095D01*
X51452380Y-76738095D01*
X51452380Y-76404761D01*
X51500000Y-76309523D01*
X51547619Y-76261904D01*
X51642857Y-76214285D01*
X51738095Y-76214285D01*
X51833333Y-76261904D01*
X51880952Y-76309523D01*
X51928571Y-76404761D01*
X51928571Y-76738095D01*
X51452380Y-75261904D02*
X51452380Y-75738095D01*
X51928571Y-75785714D01*
X51880952Y-75738095D01*
X51833333Y-75642857D01*
X51833333Y-75404761D01*
X51880952Y-75309523D01*
X51928571Y-75261904D01*
X52023809Y-75214285D01*
X52261904Y-75214285D01*
X52357142Y-75261904D01*
X52404761Y-75309523D01*
X52452380Y-75404761D01*
X52452380Y-75642857D01*
X52404761Y-75738095D01*
X52357142Y-75785714D01*
X63908607Y-28659486D02*
X63908607Y-27659486D01*
X64289559Y-27659486D01*
X64384797Y-27707106D01*
X64432416Y-27754725D01*
X64480035Y-27849963D01*
X64480035Y-27992820D01*
X64432416Y-28088058D01*
X64384797Y-28135677D01*
X64289559Y-28183296D01*
X63908607Y-28183296D01*
X65432416Y-28659486D02*
X64860988Y-28659486D01*
X65146702Y-28659486D02*
X65146702Y-27659486D01*
X65051464Y-27802344D01*
X64956226Y-27897582D01*
X64860988Y-27945201D01*
X65765750Y-27659486D02*
X66384797Y-27659486D01*
X66051464Y-28040439D01*
X66194321Y-28040439D01*
X66289559Y-28088058D01*
X66337178Y-28135677D01*
X66384797Y-28230915D01*
X66384797Y-28469010D01*
X66337178Y-28564248D01*
X66289559Y-28611867D01*
X66194321Y-28659486D01*
X65908607Y-28659486D01*
X65813369Y-28611867D01*
X65765750Y-28564248D01*
X64520988Y-26611867D02*
X64663845Y-26659486D01*
X64901940Y-26659486D01*
X64997178Y-26611867D01*
X65044797Y-26564248D01*
X65092416Y-26469010D01*
X65092416Y-26373772D01*
X65044797Y-26278534D01*
X64997178Y-26230915D01*
X64901940Y-26183296D01*
X64711464Y-26135677D01*
X64616226Y-26088058D01*
X64568607Y-26040439D01*
X64520988Y-25945201D01*
X64520988Y-25849963D01*
X64568607Y-25754725D01*
X64616226Y-25707106D01*
X64711464Y-25659486D01*
X64949559Y-25659486D01*
X65092416Y-25707106D01*
X65425750Y-25659486D02*
X66044797Y-25659486D01*
X65711464Y-26040439D01*
X65854321Y-26040439D01*
X65949559Y-26088058D01*
X65997178Y-26135677D01*
X66044797Y-26230915D01*
X66044797Y-26469010D01*
X65997178Y-26564248D01*
X65949559Y-26611867D01*
X65854321Y-26659486D01*
X65568607Y-26659486D01*
X65473369Y-26611867D01*
X65425750Y-26564248D01*
X50442380Y-76824285D02*
X49442380Y-76824285D01*
X49442380Y-76443333D01*
X49490000Y-76348095D01*
X49537619Y-76300476D01*
X49632857Y-76252857D01*
X49775714Y-76252857D01*
X49870952Y-76300476D01*
X49918571Y-76348095D01*
X49966190Y-76443333D01*
X49966190Y-76824285D01*
X50442380Y-75300476D02*
X50442380Y-75871904D01*
X50442380Y-75586190D02*
X49442380Y-75586190D01*
X49585238Y-75681428D01*
X49680476Y-75776666D01*
X49728095Y-75871904D01*
X49775714Y-74443333D02*
X50442380Y-74443333D01*
X49394761Y-74681428D02*
X50109047Y-74919523D01*
X50109047Y-74300476D01*
X48452380Y-77738095D02*
X47452380Y-77738095D01*
X47452380Y-77357142D01*
X47500000Y-77261904D01*
X47547619Y-77214285D01*
X47642857Y-77166666D01*
X47785714Y-77166666D01*
X47880952Y-77214285D01*
X47928571Y-77261904D01*
X47976190Y-77357142D01*
X47976190Y-77738095D01*
X47928571Y-76404761D02*
X47976190Y-76261904D01*
X48023809Y-76214285D01*
X48119047Y-76166666D01*
X48261904Y-76166666D01*
X48357142Y-76214285D01*
X48404761Y-76261904D01*
X48452380Y-76357142D01*
X48452380Y-76738095D01*
X47452380Y-76738095D01*
X47452380Y-76404761D01*
X47500000Y-76309523D01*
X47547619Y-76261904D01*
X47642857Y-76214285D01*
X47738095Y-76214285D01*
X47833333Y-76261904D01*
X47880952Y-76309523D01*
X47928571Y-76404761D01*
X47928571Y-76738095D01*
X47452380Y-75309523D02*
X47452380Y-75500000D01*
X47500000Y-75595238D01*
X47547619Y-75642857D01*
X47690476Y-75738095D01*
X47880952Y-75785714D01*
X48261904Y-75785714D01*
X48357142Y-75738095D01*
X48404761Y-75690476D01*
X48452380Y-75595238D01*
X48452380Y-75404761D01*
X48404761Y-75309523D01*
X48357142Y-75261904D01*
X48261904Y-75214285D01*
X48023809Y-75214285D01*
X47928571Y-75261904D01*
X47880952Y-75309523D01*
X47833333Y-75404761D01*
X47833333Y-75595238D01*
X47880952Y-75690476D01*
X47928571Y-75738095D01*
X48023809Y-75785714D01*
X67208607Y-28659487D02*
X67208607Y-27659487D01*
X67589559Y-27659487D01*
X67684797Y-27707107D01*
X67732416Y-27754726D01*
X67780035Y-27849964D01*
X67780035Y-27992821D01*
X67732416Y-28088059D01*
X67684797Y-28135678D01*
X67589559Y-28183297D01*
X67208607Y-28183297D01*
X68732416Y-28659487D02*
X68160988Y-28659487D01*
X68446702Y-28659487D02*
X68446702Y-27659487D01*
X68351464Y-27802345D01*
X68256226Y-27897583D01*
X68160988Y-27945202D01*
X69637178Y-27659487D02*
X69160988Y-27659487D01*
X69113369Y-28135678D01*
X69160988Y-28088059D01*
X69256226Y-28040440D01*
X69494321Y-28040440D01*
X69589559Y-28088059D01*
X69637178Y-28135678D01*
X69684797Y-28230916D01*
X69684797Y-28469011D01*
X69637178Y-28564249D01*
X69589559Y-28611868D01*
X69494321Y-28659487D01*
X69256226Y-28659487D01*
X69160988Y-28611868D01*
X69113369Y-28564249D01*
X67870988Y-26611868D02*
X68013845Y-26659487D01*
X68251940Y-26659487D01*
X68347178Y-26611868D01*
X68394797Y-26564249D01*
X68442416Y-26469011D01*
X68442416Y-26373773D01*
X68394797Y-26278535D01*
X68347178Y-26230916D01*
X68251940Y-26183297D01*
X68061464Y-26135678D01*
X67966226Y-26088059D01*
X67918607Y-26040440D01*
X67870988Y-25945202D01*
X67870988Y-25849964D01*
X67918607Y-25754726D01*
X67966226Y-25707107D01*
X68061464Y-25659487D01*
X68299559Y-25659487D01*
X68442416Y-25707107D01*
X69394797Y-26659487D02*
X68823369Y-26659487D01*
X69109083Y-26659487D02*
X69109083Y-25659487D01*
X69013845Y-25802345D01*
X68918607Y-25897583D01*
X68823369Y-25945202D01*
X46442380Y-76824285D02*
X45442380Y-76824285D01*
X45442380Y-76443333D01*
X45490000Y-76348095D01*
X45537619Y-76300476D01*
X45632857Y-76252857D01*
X45775714Y-76252857D01*
X45870952Y-76300476D01*
X45918571Y-76348095D01*
X45966190Y-76443333D01*
X45966190Y-76824285D01*
X46442380Y-75300476D02*
X46442380Y-75871904D01*
X46442380Y-75586190D02*
X45442380Y-75586190D01*
X45585238Y-75681428D01*
X45680476Y-75776666D01*
X45728095Y-75871904D01*
X45442380Y-74443333D02*
X45442380Y-74633809D01*
X45490000Y-74729047D01*
X45537619Y-74776666D01*
X45680476Y-74871904D01*
X45870952Y-74919523D01*
X46251904Y-74919523D01*
X46347142Y-74871904D01*
X46394761Y-74824285D01*
X46442380Y-74729047D01*
X46442380Y-74538571D01*
X46394761Y-74443333D01*
X46347142Y-74395714D01*
X46251904Y-74348095D01*
X46013809Y-74348095D01*
X45918571Y-74395714D01*
X45870952Y-74443333D01*
X45823333Y-74538571D01*
X45823333Y-74729047D01*
X45870952Y-74824285D01*
X45918571Y-74871904D01*
X46013809Y-74919523D01*
X44452380Y-77738095D02*
X43452380Y-77738095D01*
X43452380Y-77357142D01*
X43500000Y-77261904D01*
X43547619Y-77214285D01*
X43642857Y-77166666D01*
X43785714Y-77166666D01*
X43880952Y-77214285D01*
X43928571Y-77261904D01*
X43976190Y-77357142D01*
X43976190Y-77738095D01*
X43928571Y-76404761D02*
X43976190Y-76261904D01*
X44023809Y-76214285D01*
X44119047Y-76166666D01*
X44261904Y-76166666D01*
X44357142Y-76214285D01*
X44404761Y-76261904D01*
X44452380Y-76357142D01*
X44452380Y-76738095D01*
X43452380Y-76738095D01*
X43452380Y-76404761D01*
X43500000Y-76309523D01*
X43547619Y-76261904D01*
X43642857Y-76214285D01*
X43738095Y-76214285D01*
X43833333Y-76261904D01*
X43880952Y-76309523D01*
X43928571Y-76404761D01*
X43928571Y-76738095D01*
X43452380Y-75833333D02*
X43452380Y-75166666D01*
X44452380Y-75595238D01*
X70508607Y-28659486D02*
X70508607Y-27659486D01*
X70889559Y-27659486D01*
X70984797Y-27707106D01*
X71032416Y-27754725D01*
X71080035Y-27849963D01*
X71080035Y-27992820D01*
X71032416Y-28088058D01*
X70984797Y-28135677D01*
X70889559Y-28183296D01*
X70508607Y-28183296D01*
X72032416Y-28659486D02*
X71460988Y-28659486D01*
X71746702Y-28659486D02*
X71746702Y-27659486D01*
X71651464Y-27802344D01*
X71556226Y-27897582D01*
X71460988Y-27945201D01*
X72365750Y-27659486D02*
X73032416Y-27659486D01*
X72603845Y-28659486D01*
X70770988Y-26631867D02*
X70913845Y-26679486D01*
X71151940Y-26679486D01*
X71247178Y-26631867D01*
X71294797Y-26584248D01*
X71342416Y-26489010D01*
X71342416Y-26393772D01*
X71294797Y-26298534D01*
X71247178Y-26250915D01*
X71151940Y-26203296D01*
X70961464Y-26155677D01*
X70866226Y-26108058D01*
X70818607Y-26060439D01*
X70770988Y-25965201D01*
X70770988Y-25869963D01*
X70818607Y-25774725D01*
X70866226Y-25727106D01*
X70961464Y-25679486D01*
X71199559Y-25679486D01*
X71342416Y-25727106D01*
X72247178Y-25679486D02*
X71770988Y-25679486D01*
X71723369Y-26155677D01*
X71770988Y-26108058D01*
X71866226Y-26060439D01*
X72104321Y-26060439D01*
X72199559Y-26108058D01*
X72247178Y-26155677D01*
X72294797Y-26250915D01*
X72294797Y-26489010D01*
X72247178Y-26584248D01*
X72199559Y-26631867D01*
X72104321Y-26679486D01*
X71866226Y-26679486D01*
X71770988Y-26631867D01*
X71723369Y-26584248D01*
X42442380Y-76824285D02*
X41442380Y-76824285D01*
X41442380Y-76443333D01*
X41490000Y-76348095D01*
X41537619Y-76300476D01*
X41632857Y-76252857D01*
X41775714Y-76252857D01*
X41870952Y-76300476D01*
X41918571Y-76348095D01*
X41966190Y-76443333D01*
X41966190Y-76824285D01*
X42442380Y-75300476D02*
X42442380Y-75871904D01*
X42442380Y-75586190D02*
X41442380Y-75586190D01*
X41585238Y-75681428D01*
X41680476Y-75776666D01*
X41728095Y-75871904D01*
X41870952Y-74729047D02*
X41823333Y-74824285D01*
X41775714Y-74871904D01*
X41680476Y-74919523D01*
X41632857Y-74919523D01*
X41537619Y-74871904D01*
X41490000Y-74824285D01*
X41442380Y-74729047D01*
X41442380Y-74538571D01*
X41490000Y-74443333D01*
X41537619Y-74395714D01*
X41632857Y-74348095D01*
X41680476Y-74348095D01*
X41775714Y-74395714D01*
X41823333Y-74443333D01*
X41870952Y-74538571D01*
X41870952Y-74729047D01*
X41918571Y-74824285D01*
X41966190Y-74871904D01*
X42061428Y-74919523D01*
X42251904Y-74919523D01*
X42347142Y-74871904D01*
X42394761Y-74824285D01*
X42442380Y-74729047D01*
X42442380Y-74538571D01*
X42394761Y-74443333D01*
X42347142Y-74395714D01*
X42251904Y-74348095D01*
X42061428Y-74348095D01*
X41966190Y-74395714D01*
X41918571Y-74443333D01*
X41870952Y-74538571D01*
X40452380Y-77738095D02*
X39452380Y-77738095D01*
X39452380Y-77357142D01*
X39500000Y-77261904D01*
X39547619Y-77214285D01*
X39642857Y-77166666D01*
X39785714Y-77166666D01*
X39880952Y-77214285D01*
X39928571Y-77261904D01*
X39976190Y-77357142D01*
X39976190Y-77738095D01*
X39928571Y-76404761D02*
X39976190Y-76261904D01*
X40023809Y-76214285D01*
X40119047Y-76166666D01*
X40261904Y-76166666D01*
X40357142Y-76214285D01*
X40404761Y-76261904D01*
X40452380Y-76357142D01*
X40452380Y-76738095D01*
X39452380Y-76738095D01*
X39452380Y-76404761D01*
X39500000Y-76309523D01*
X39547619Y-76261904D01*
X39642857Y-76214285D01*
X39738095Y-76214285D01*
X39833333Y-76261904D01*
X39880952Y-76309523D01*
X39928571Y-76404761D01*
X39928571Y-76738095D01*
X39880952Y-75595238D02*
X39833333Y-75690476D01*
X39785714Y-75738095D01*
X39690476Y-75785714D01*
X39642857Y-75785714D01*
X39547619Y-75738095D01*
X39500000Y-75690476D01*
X39452380Y-75595238D01*
X39452380Y-75404761D01*
X39500000Y-75309523D01*
X39547619Y-75261904D01*
X39642857Y-75214285D01*
X39690476Y-75214285D01*
X39785714Y-75261904D01*
X39833333Y-75309523D01*
X39880952Y-75404761D01*
X39880952Y-75595238D01*
X39928571Y-75690476D01*
X39976190Y-75738095D01*
X40071428Y-75785714D01*
X40261904Y-75785714D01*
X40357142Y-75738095D01*
X40404761Y-75690476D01*
X40452380Y-75595238D01*
X40452380Y-75404761D01*
X40404761Y-75309523D01*
X40357142Y-75261904D01*
X40261904Y-75214285D01*
X40071428Y-75214285D01*
X39976190Y-75261904D01*
X39928571Y-75309523D01*
X39880952Y-75404761D01*
X73808607Y-28659486D02*
X73808607Y-27659486D01*
X74189559Y-27659486D01*
X74284797Y-27707106D01*
X74332416Y-27754725D01*
X74380035Y-27849963D01*
X74380035Y-27992820D01*
X74332416Y-28088058D01*
X74284797Y-28135677D01*
X74189559Y-28183296D01*
X73808607Y-28183296D01*
X75332416Y-28659486D02*
X74760988Y-28659486D01*
X75046702Y-28659486D02*
X75046702Y-27659486D01*
X74951464Y-27802344D01*
X74856226Y-27897582D01*
X74760988Y-27945201D01*
X75808607Y-28659486D02*
X75999083Y-28659486D01*
X76094321Y-28611867D01*
X76141940Y-28564248D01*
X76237178Y-28421391D01*
X76284797Y-28230915D01*
X76284797Y-27849963D01*
X76237178Y-27754725D01*
X76189559Y-27707106D01*
X76094321Y-27659486D01*
X75903845Y-27659486D01*
X75808607Y-27707106D01*
X75760988Y-27754725D01*
X75713369Y-27849963D01*
X75713369Y-28088058D01*
X75760988Y-28183296D01*
X75808607Y-28230915D01*
X75903845Y-28278534D01*
X76094321Y-28278534D01*
X76189559Y-28230915D01*
X76237178Y-28183296D01*
X76284797Y-28088058D01*
X74090988Y-26611867D02*
X74233845Y-26659486D01*
X74471940Y-26659486D01*
X74567178Y-26611867D01*
X74614797Y-26564248D01*
X74662416Y-26469010D01*
X74662416Y-26373772D01*
X74614797Y-26278534D01*
X74567178Y-26230915D01*
X74471940Y-26183296D01*
X74281464Y-26135677D01*
X74186226Y-26088058D01*
X74138607Y-26040439D01*
X74090988Y-25945201D01*
X74090988Y-25849963D01*
X74138607Y-25754725D01*
X74186226Y-25707106D01*
X74281464Y-25659486D01*
X74519559Y-25659486D01*
X74662416Y-25707106D01*
X75519559Y-25992820D02*
X75519559Y-26659486D01*
X75281464Y-25611867D02*
X75043369Y-26326153D01*
X75662416Y-26326153D01*
X38442380Y-76824286D02*
X37442380Y-76824286D01*
X37442380Y-76443334D01*
X37490000Y-76348096D01*
X37537619Y-76300477D01*
X37632857Y-76252858D01*
X37775714Y-76252858D01*
X37870952Y-76300477D01*
X37918571Y-76348096D01*
X37966190Y-76443334D01*
X37966190Y-76824286D01*
X37537619Y-75871905D02*
X37490000Y-75824286D01*
X37442380Y-75729048D01*
X37442380Y-75490953D01*
X37490000Y-75395715D01*
X37537619Y-75348096D01*
X37632857Y-75300477D01*
X37728095Y-75300477D01*
X37870952Y-75348096D01*
X38442380Y-75919524D01*
X38442380Y-75300477D01*
X37442380Y-74681429D02*
X37442380Y-74586191D01*
X37490000Y-74490953D01*
X37537619Y-74443334D01*
X37632857Y-74395715D01*
X37823333Y-74348096D01*
X38061428Y-74348096D01*
X38251904Y-74395715D01*
X38347142Y-74443334D01*
X38394761Y-74490953D01*
X38442380Y-74586191D01*
X38442380Y-74681429D01*
X38394761Y-74776667D01*
X38347142Y-74824286D01*
X38251904Y-74871905D01*
X38061428Y-74919524D01*
X37823333Y-74919524D01*
X37632857Y-74871905D01*
X37537619Y-74824286D01*
X37490000Y-74776667D01*
X37442380Y-74681429D01*
X36452380Y-77738095D02*
X35452380Y-77738095D01*
X35452380Y-77357142D01*
X35500000Y-77261904D01*
X35547619Y-77214285D01*
X35642857Y-77166666D01*
X35785714Y-77166666D01*
X35880952Y-77214285D01*
X35928571Y-77261904D01*
X35976190Y-77357142D01*
X35976190Y-77738095D01*
X35928571Y-76404761D02*
X35976190Y-76261904D01*
X36023809Y-76214285D01*
X36119047Y-76166666D01*
X36261904Y-76166666D01*
X36357142Y-76214285D01*
X36404761Y-76261904D01*
X36452380Y-76357142D01*
X36452380Y-76738095D01*
X35452380Y-76738095D01*
X35452380Y-76404761D01*
X35500000Y-76309523D01*
X35547619Y-76261904D01*
X35642857Y-76214285D01*
X35738095Y-76214285D01*
X35833333Y-76261904D01*
X35880952Y-76309523D01*
X35928571Y-76404761D01*
X35928571Y-76738095D01*
X36452380Y-75690476D02*
X36452380Y-75500000D01*
X36404761Y-75404761D01*
X36357142Y-75357142D01*
X36214285Y-75261904D01*
X36023809Y-75214285D01*
X35642857Y-75214285D01*
X35547619Y-75261904D01*
X35500000Y-75309523D01*
X35452380Y-75404761D01*
X35452380Y-75595238D01*
X35500000Y-75690476D01*
X35547619Y-75738095D01*
X35642857Y-75785714D01*
X35880952Y-75785714D01*
X35976190Y-75738095D01*
X36023809Y-75690476D01*
X36071428Y-75595238D01*
X36071428Y-75404761D01*
X36023809Y-75309523D01*
X35976190Y-75261904D01*
X35880952Y-75214285D01*
X77108607Y-28659487D02*
X77108607Y-27659487D01*
X77489559Y-27659487D01*
X77584797Y-27707107D01*
X77632416Y-27754726D01*
X77680035Y-27849964D01*
X77680035Y-27992821D01*
X77632416Y-28088059D01*
X77584797Y-28135678D01*
X77489559Y-28183297D01*
X77108607Y-28183297D01*
X78060988Y-27754726D02*
X78108607Y-27707107D01*
X78203845Y-27659487D01*
X78441940Y-27659487D01*
X78537178Y-27707107D01*
X78584797Y-27754726D01*
X78632416Y-27849964D01*
X78632416Y-27945202D01*
X78584797Y-28088059D01*
X78013369Y-28659487D01*
X78632416Y-28659487D01*
X79584797Y-28659487D02*
X79013369Y-28659487D01*
X79299083Y-28659487D02*
X79299083Y-27659487D01*
X79203845Y-27802345D01*
X79108607Y-27897583D01*
X79013369Y-27945202D01*
X77560988Y-26631868D02*
X77703845Y-26679487D01*
X77941940Y-26679487D01*
X78037178Y-26631868D01*
X78084797Y-26584249D01*
X78132416Y-26489011D01*
X78132416Y-26393773D01*
X78084797Y-26298535D01*
X78037178Y-26250916D01*
X77941940Y-26203297D01*
X77751464Y-26155678D01*
X77656226Y-26108059D01*
X77608607Y-26060440D01*
X77560988Y-25965202D01*
X77560988Y-25869964D01*
X77608607Y-25774726D01*
X77656226Y-25727107D01*
X77751464Y-25679487D01*
X77989559Y-25679487D01*
X78132416Y-25727107D01*
X78465750Y-25679487D02*
X79084797Y-25679487D01*
X78751464Y-26060440D01*
X78894321Y-26060440D01*
X78989559Y-26108059D01*
X79037178Y-26155678D01*
X79084797Y-26250916D01*
X79084797Y-26489011D01*
X79037178Y-26584249D01*
X78989559Y-26631868D01*
X78894321Y-26679487D01*
X78608607Y-26679487D01*
X78513369Y-26631868D01*
X78465750Y-26584249D01*
X34442380Y-76824285D02*
X33442380Y-76824285D01*
X33442380Y-76443333D01*
X33490000Y-76348095D01*
X33537619Y-76300476D01*
X33632857Y-76252857D01*
X33775714Y-76252857D01*
X33870952Y-76300476D01*
X33918571Y-76348095D01*
X33966190Y-76443333D01*
X33966190Y-76824285D01*
X33537619Y-75871904D02*
X33490000Y-75824285D01*
X33442380Y-75729047D01*
X33442380Y-75490952D01*
X33490000Y-75395714D01*
X33537619Y-75348095D01*
X33632857Y-75300476D01*
X33728095Y-75300476D01*
X33870952Y-75348095D01*
X34442380Y-75919523D01*
X34442380Y-75300476D01*
X33537619Y-74919523D02*
X33490000Y-74871904D01*
X33442380Y-74776666D01*
X33442380Y-74538571D01*
X33490000Y-74443333D01*
X33537619Y-74395714D01*
X33632857Y-74348095D01*
X33728095Y-74348095D01*
X33870952Y-74395714D01*
X34442380Y-74967142D01*
X34442380Y-74348095D01*
X32452380Y-78214285D02*
X31452380Y-78214285D01*
X31452380Y-77833333D01*
X31500000Y-77738095D01*
X31547619Y-77690476D01*
X31642857Y-77642857D01*
X31785714Y-77642857D01*
X31880952Y-77690476D01*
X31928571Y-77738095D01*
X31976190Y-77833333D01*
X31976190Y-78214285D01*
X31928571Y-76880952D02*
X31976190Y-76738095D01*
X32023809Y-76690476D01*
X32119047Y-76642857D01*
X32261904Y-76642857D01*
X32357142Y-76690476D01*
X32404761Y-76738095D01*
X32452380Y-76833333D01*
X32452380Y-77214285D01*
X31452380Y-77214285D01*
X31452380Y-76880952D01*
X31500000Y-76785714D01*
X31547619Y-76738095D01*
X31642857Y-76690476D01*
X31738095Y-76690476D01*
X31833333Y-76738095D01*
X31880952Y-76785714D01*
X31928571Y-76880952D01*
X31928571Y-77214285D01*
X32452380Y-75690476D02*
X32452380Y-76261904D01*
X32452380Y-75976190D02*
X31452380Y-75976190D01*
X31595238Y-76071428D01*
X31690476Y-76166666D01*
X31738095Y-76261904D01*
X31452380Y-75071428D02*
X31452380Y-74976190D01*
X31500000Y-74880952D01*
X31547619Y-74833333D01*
X31642857Y-74785714D01*
X31833333Y-74738095D01*
X32071428Y-74738095D01*
X32261904Y-74785714D01*
X32357142Y-74833333D01*
X32404761Y-74880952D01*
X32452380Y-74976190D01*
X32452380Y-75071428D01*
X32404761Y-75166666D01*
X32357142Y-75214285D01*
X32261904Y-75261904D01*
X32071428Y-75309523D01*
X31833333Y-75309523D01*
X31642857Y-75261904D01*
X31547619Y-75214285D01*
X31500000Y-75166666D01*
X31452380Y-75071428D01*
X62835714Y-89277380D02*
X62835714Y-88277380D01*
X63216666Y-88277380D01*
X63311904Y-88325000D01*
X63359523Y-88372619D01*
X63407142Y-88467857D01*
X63407142Y-88610714D01*
X63359523Y-88705952D01*
X63311904Y-88753571D01*
X63216666Y-88801190D01*
X62835714Y-88801190D01*
X63788095Y-88372619D02*
X63835714Y-88325000D01*
X63930952Y-88277380D01*
X64169047Y-88277380D01*
X64264285Y-88325000D01*
X64311904Y-88372619D01*
X64359523Y-88467857D01*
X64359523Y-88563095D01*
X64311904Y-88705952D01*
X63740476Y-89277380D01*
X64359523Y-89277380D01*
X64692857Y-88277380D02*
X65311904Y-88277380D01*
X64978571Y-88658333D01*
X65121428Y-88658333D01*
X65216666Y-88705952D01*
X65264285Y-88753571D01*
X65311904Y-88848809D01*
X65311904Y-89086904D01*
X65264285Y-89182142D01*
X65216666Y-89229761D01*
X65121428Y-89277380D01*
X64835714Y-89277380D01*
X64740476Y-89229761D01*
X64692857Y-89182142D01*
X59083333Y-86127380D02*
X59654761Y-86127380D01*
X59369047Y-87127380D02*
X59369047Y-86127380D01*
X59940476Y-86841666D02*
X60416666Y-86841666D01*
X59845238Y-87127380D02*
X60178571Y-86127380D01*
X60511904Y-87127380D01*
X61369047Y-87127380D02*
X60797619Y-87127380D01*
X61083333Y-87127380D02*
X61083333Y-86127380D01*
X60988095Y-86270238D01*
X60892857Y-86365476D01*
X60797619Y-86413095D01*
X61988095Y-86127380D02*
X62083333Y-86127380D01*
X62178571Y-86175000D01*
X62226190Y-86222619D01*
X62273809Y-86317857D01*
X62321428Y-86508333D01*
X62321428Y-86746428D01*
X62273809Y-86936904D01*
X62226190Y-87032142D01*
X62178571Y-87079761D01*
X62083333Y-87127380D01*
X61988095Y-87127380D01*
X61892857Y-87079761D01*
X61845238Y-87032142D01*
X61797619Y-86936904D01*
X61750000Y-86746428D01*
X61750000Y-86508333D01*
X61797619Y-86317857D01*
X61845238Y-86222619D01*
X61892857Y-86175000D01*
X61988095Y-86127380D01*
X80408607Y-28659486D02*
X80408607Y-27659486D01*
X80789559Y-27659486D01*
X80884797Y-27707106D01*
X80932416Y-27754725D01*
X80980035Y-27849963D01*
X80980035Y-27992820D01*
X80932416Y-28088058D01*
X80884797Y-28135677D01*
X80789559Y-28183296D01*
X80408607Y-28183296D01*
X81360988Y-27754725D02*
X81408607Y-27707106D01*
X81503845Y-27659486D01*
X81741940Y-27659486D01*
X81837178Y-27707106D01*
X81884797Y-27754725D01*
X81932416Y-27849963D01*
X81932416Y-27945201D01*
X81884797Y-28088058D01*
X81313369Y-28659486D01*
X81932416Y-28659486D01*
X82789559Y-27992820D02*
X82789559Y-28659486D01*
X82551464Y-27611867D02*
X82313369Y-28326153D01*
X82932416Y-28326153D01*
X81060988Y-26611867D02*
X81203845Y-26659486D01*
X81441940Y-26659486D01*
X81537178Y-26611867D01*
X81584797Y-26564248D01*
X81632416Y-26469010D01*
X81632416Y-26373772D01*
X81584797Y-26278534D01*
X81537178Y-26230915D01*
X81441940Y-26183296D01*
X81251464Y-26135677D01*
X81156226Y-26088058D01*
X81108607Y-26040439D01*
X81060988Y-25945201D01*
X81060988Y-25849963D01*
X81108607Y-25754725D01*
X81156226Y-25707106D01*
X81251464Y-25659486D01*
X81489559Y-25659486D01*
X81632416Y-25707106D01*
X82013369Y-25754725D02*
X82060988Y-25707106D01*
X82156226Y-25659486D01*
X82394321Y-25659486D01*
X82489559Y-25707106D01*
X82537178Y-25754725D01*
X82584797Y-25849963D01*
X82584797Y-25945201D01*
X82537178Y-26088058D01*
X81965750Y-26659486D01*
X82584797Y-26659486D01*
X67895714Y-56962380D02*
X67895714Y-55962380D01*
X68276666Y-55962380D01*
X68371904Y-56010000D01*
X68419523Y-56057619D01*
X68467142Y-56152857D01*
X68467142Y-56295714D01*
X68419523Y-56390952D01*
X68371904Y-56438571D01*
X68276666Y-56486190D01*
X67895714Y-56486190D01*
X68848095Y-56057619D02*
X68895714Y-56010000D01*
X68990952Y-55962380D01*
X69229047Y-55962380D01*
X69324285Y-56010000D01*
X69371904Y-56057619D01*
X69419523Y-56152857D01*
X69419523Y-56248095D01*
X69371904Y-56390952D01*
X68800476Y-56962380D01*
X69419523Y-56962380D01*
X70324285Y-55962380D02*
X69848095Y-55962380D01*
X69800476Y-56438571D01*
X69848095Y-56390952D01*
X69943333Y-56343333D01*
X70181428Y-56343333D01*
X70276666Y-56390952D01*
X70324285Y-56438571D01*
X70371904Y-56533809D01*
X70371904Y-56771904D01*
X70324285Y-56867142D01*
X70276666Y-56914761D01*
X70181428Y-56962380D01*
X69943333Y-56962380D01*
X69848095Y-56914761D01*
X69800476Y-56867142D01*
X67285714Y-58452380D02*
X67285714Y-57452380D01*
X67666666Y-57452380D01*
X67761904Y-57500000D01*
X67809523Y-57547619D01*
X67857142Y-57642857D01*
X67857142Y-57785714D01*
X67809523Y-57880952D01*
X67761904Y-57928571D01*
X67666666Y-57976190D01*
X67285714Y-57976190D01*
X68619047Y-57928571D02*
X68761904Y-57976190D01*
X68809523Y-58023809D01*
X68857142Y-58119047D01*
X68857142Y-58261904D01*
X68809523Y-58357142D01*
X68761904Y-58404761D01*
X68666666Y-58452380D01*
X68285714Y-58452380D01*
X68285714Y-57452380D01*
X68619047Y-57452380D01*
X68714285Y-57500000D01*
X68761904Y-57547619D01*
X68809523Y-57642857D01*
X68809523Y-57738095D01*
X68761904Y-57833333D01*
X68714285Y-57880952D01*
X68619047Y-57928571D01*
X68285714Y-57928571D01*
X69809523Y-58452380D02*
X69238095Y-58452380D01*
X69523809Y-58452380D02*
X69523809Y-57452380D01*
X69428571Y-57595238D01*
X69333333Y-57690476D01*
X69238095Y-57738095D01*
X70761904Y-58452380D02*
X70190476Y-58452380D01*
X70476190Y-58452380D02*
X70476190Y-57452380D01*
X70380952Y-57595238D01*
X70285714Y-57690476D01*
X70190476Y-57738095D01*
X83688607Y-28729487D02*
X83688607Y-27729487D01*
X84069559Y-27729487D01*
X84164797Y-27777107D01*
X84212416Y-27824726D01*
X84260035Y-27919964D01*
X84260035Y-28062821D01*
X84212416Y-28158059D01*
X84164797Y-28205678D01*
X84069559Y-28253297D01*
X83688607Y-28253297D01*
X84640988Y-27824726D02*
X84688607Y-27777107D01*
X84783845Y-27729487D01*
X85021940Y-27729487D01*
X85117178Y-27777107D01*
X85164797Y-27824726D01*
X85212416Y-27919964D01*
X85212416Y-28015202D01*
X85164797Y-28158059D01*
X84593369Y-28729487D01*
X85212416Y-28729487D01*
X86069559Y-27729487D02*
X85879083Y-27729487D01*
X85783845Y-27777107D01*
X85736226Y-27824726D01*
X85640988Y-27967583D01*
X85593369Y-28158059D01*
X85593369Y-28539011D01*
X85640988Y-28634249D01*
X85688607Y-28681868D01*
X85783845Y-28729487D01*
X85974321Y-28729487D01*
X86069559Y-28681868D01*
X86117178Y-28634249D01*
X86164797Y-28539011D01*
X86164797Y-28300916D01*
X86117178Y-28205678D01*
X86069559Y-28158059D01*
X85974321Y-28110440D01*
X85783845Y-28110440D01*
X85688607Y-28158059D01*
X85640988Y-28205678D01*
X85593369Y-28300916D01*
X83920988Y-26611868D02*
X84063845Y-26659487D01*
X84301940Y-26659487D01*
X84397178Y-26611868D01*
X84444797Y-26564249D01*
X84492416Y-26469011D01*
X84492416Y-26373773D01*
X84444797Y-26278535D01*
X84397178Y-26230916D01*
X84301940Y-26183297D01*
X84111464Y-26135678D01*
X84016226Y-26088059D01*
X83968607Y-26040440D01*
X83920988Y-25945202D01*
X83920988Y-25849964D01*
X83968607Y-25754726D01*
X84016226Y-25707107D01*
X84111464Y-25659487D01*
X84349559Y-25659487D01*
X84492416Y-25707107D01*
X85444797Y-26659487D02*
X84873369Y-26659487D01*
X85159083Y-26659487D02*
X85159083Y-25659487D01*
X85063845Y-25802345D01*
X84968607Y-25897583D01*
X84873369Y-25945202D01*
X67895714Y-60962380D02*
X67895714Y-59962380D01*
X68276666Y-59962380D01*
X68371904Y-60010000D01*
X68419523Y-60057619D01*
X68467142Y-60152857D01*
X68467142Y-60295714D01*
X68419523Y-60390952D01*
X68371904Y-60438571D01*
X68276666Y-60486190D01*
X67895714Y-60486190D01*
X68848095Y-60057619D02*
X68895714Y-60010000D01*
X68990952Y-59962380D01*
X69229047Y-59962380D01*
X69324285Y-60010000D01*
X69371904Y-60057619D01*
X69419523Y-60152857D01*
X69419523Y-60248095D01*
X69371904Y-60390952D01*
X68800476Y-60962380D01*
X69419523Y-60962380D01*
X69752857Y-59962380D02*
X70419523Y-59962380D01*
X69990952Y-60962380D01*
X67285714Y-62452380D02*
X67285714Y-61452380D01*
X67666666Y-61452380D01*
X67761904Y-61500000D01*
X67809523Y-61547619D01*
X67857142Y-61642857D01*
X67857142Y-61785714D01*
X67809523Y-61880952D01*
X67761904Y-61928571D01*
X67666666Y-61976190D01*
X67285714Y-61976190D01*
X68619047Y-61928571D02*
X68761904Y-61976190D01*
X68809523Y-62023809D01*
X68857142Y-62119047D01*
X68857142Y-62261904D01*
X68809523Y-62357142D01*
X68761904Y-62404761D01*
X68666666Y-62452380D01*
X68285714Y-62452380D01*
X68285714Y-61452380D01*
X68619047Y-61452380D01*
X68714285Y-61500000D01*
X68761904Y-61547619D01*
X68809523Y-61642857D01*
X68809523Y-61738095D01*
X68761904Y-61833333D01*
X68714285Y-61880952D01*
X68619047Y-61928571D01*
X68285714Y-61928571D01*
X69809523Y-62452380D02*
X69238095Y-62452380D01*
X69523809Y-62452380D02*
X69523809Y-61452380D01*
X69428571Y-61595238D01*
X69333333Y-61690476D01*
X69238095Y-61738095D01*
X70190476Y-61547619D02*
X70238095Y-61500000D01*
X70333333Y-61452380D01*
X70571428Y-61452380D01*
X70666666Y-61500000D01*
X70714285Y-61547619D01*
X70761904Y-61642857D01*
X70761904Y-61738095D01*
X70714285Y-61880952D01*
X70142857Y-62452380D01*
X70761904Y-62452380D01*
X87008607Y-28659487D02*
X87008607Y-27659487D01*
X87389559Y-27659487D01*
X87484797Y-27707107D01*
X87532416Y-27754726D01*
X87580035Y-27849964D01*
X87580035Y-27992821D01*
X87532416Y-28088059D01*
X87484797Y-28135678D01*
X87389559Y-28183297D01*
X87008607Y-28183297D01*
X87960988Y-27754726D02*
X88008607Y-27707107D01*
X88103845Y-27659487D01*
X88341940Y-27659487D01*
X88437178Y-27707107D01*
X88484797Y-27754726D01*
X88532416Y-27849964D01*
X88532416Y-27945202D01*
X88484797Y-28088059D01*
X87913369Y-28659487D01*
X88532416Y-28659487D01*
X89103845Y-28088059D02*
X89008607Y-28040440D01*
X88960988Y-27992821D01*
X88913369Y-27897583D01*
X88913369Y-27849964D01*
X88960988Y-27754726D01*
X89008607Y-27707107D01*
X89103845Y-27659487D01*
X89294321Y-27659487D01*
X89389559Y-27707107D01*
X89437178Y-27754726D01*
X89484797Y-27849964D01*
X89484797Y-27897583D01*
X89437178Y-27992821D01*
X89389559Y-28040440D01*
X89294321Y-28088059D01*
X89103845Y-28088059D01*
X89008607Y-28135678D01*
X88960988Y-28183297D01*
X88913369Y-28278535D01*
X88913369Y-28469011D01*
X88960988Y-28564249D01*
X89008607Y-28611868D01*
X89103845Y-28659487D01*
X89294321Y-28659487D01*
X89389559Y-28611868D01*
X89437178Y-28564249D01*
X89484797Y-28469011D01*
X89484797Y-28278535D01*
X89437178Y-28183297D01*
X89389559Y-28135678D01*
X89294321Y-28088059D01*
X87060988Y-26591868D02*
X87203845Y-26639487D01*
X87441940Y-26639487D01*
X87537178Y-26591868D01*
X87584797Y-26544249D01*
X87632416Y-26449011D01*
X87632416Y-26353773D01*
X87584797Y-26258535D01*
X87537178Y-26210916D01*
X87441940Y-26163297D01*
X87251464Y-26115678D01*
X87156226Y-26068059D01*
X87108607Y-26020440D01*
X87060988Y-25925202D01*
X87060988Y-25829964D01*
X87108607Y-25734726D01*
X87156226Y-25687107D01*
X87251464Y-25639487D01*
X87489559Y-25639487D01*
X87632416Y-25687107D01*
X88251464Y-25639487D02*
X88346702Y-25639487D01*
X88441940Y-25687107D01*
X88489559Y-25734726D01*
X88537178Y-25829964D01*
X88584797Y-26020440D01*
X88584797Y-26258535D01*
X88537178Y-26449011D01*
X88489559Y-26544249D01*
X88441940Y-26591868D01*
X88346702Y-26639487D01*
X88251464Y-26639487D01*
X88156226Y-26591868D01*
X88108607Y-26544249D01*
X88060988Y-26449011D01*
X88013369Y-26258535D01*
X88013369Y-26020440D01*
X88060988Y-25829964D01*
X88108607Y-25734726D01*
X88156226Y-25687107D01*
X88251464Y-25639487D01*
X67895714Y-64962380D02*
X67895714Y-63962380D01*
X68276666Y-63962380D01*
X68371904Y-64010000D01*
X68419523Y-64057619D01*
X68467142Y-64152857D01*
X68467142Y-64295714D01*
X68419523Y-64390952D01*
X68371904Y-64438571D01*
X68276666Y-64486190D01*
X67895714Y-64486190D01*
X68848095Y-64057619D02*
X68895714Y-64010000D01*
X68990952Y-63962380D01*
X69229047Y-63962380D01*
X69324285Y-64010000D01*
X69371904Y-64057619D01*
X69419523Y-64152857D01*
X69419523Y-64248095D01*
X69371904Y-64390952D01*
X68800476Y-64962380D01*
X69419523Y-64962380D01*
X69895714Y-64962380D02*
X70086190Y-64962380D01*
X70181428Y-64914761D01*
X70229047Y-64867142D01*
X70324285Y-64724285D01*
X70371904Y-64533809D01*
X70371904Y-64152857D01*
X70324285Y-64057619D01*
X70276666Y-64010000D01*
X70181428Y-63962380D01*
X69990952Y-63962380D01*
X69895714Y-64010000D01*
X69848095Y-64057619D01*
X69800476Y-64152857D01*
X69800476Y-64390952D01*
X69848095Y-64486190D01*
X69895714Y-64533809D01*
X69990952Y-64581428D01*
X70181428Y-64581428D01*
X70276666Y-64533809D01*
X70324285Y-64486190D01*
X70371904Y-64390952D01*
X67285714Y-66452380D02*
X67285714Y-65452380D01*
X67666666Y-65452380D01*
X67761904Y-65500000D01*
X67809523Y-65547619D01*
X67857142Y-65642857D01*
X67857142Y-65785714D01*
X67809523Y-65880952D01*
X67761904Y-65928571D01*
X67666666Y-65976190D01*
X67285714Y-65976190D01*
X68619047Y-65928571D02*
X68761904Y-65976190D01*
X68809523Y-66023809D01*
X68857142Y-66119047D01*
X68857142Y-66261904D01*
X68809523Y-66357142D01*
X68761904Y-66404761D01*
X68666666Y-66452380D01*
X68285714Y-66452380D01*
X68285714Y-65452380D01*
X68619047Y-65452380D01*
X68714285Y-65500000D01*
X68761904Y-65547619D01*
X68809523Y-65642857D01*
X68809523Y-65738095D01*
X68761904Y-65833333D01*
X68714285Y-65880952D01*
X68619047Y-65928571D01*
X68285714Y-65928571D01*
X69809523Y-66452380D02*
X69238095Y-66452380D01*
X69523809Y-66452380D02*
X69523809Y-65452380D01*
X69428571Y-65595238D01*
X69333333Y-65690476D01*
X69238095Y-65738095D01*
X70142857Y-65452380D02*
X70761904Y-65452380D01*
X70428571Y-65833333D01*
X70571428Y-65833333D01*
X70666666Y-65880952D01*
X70714285Y-65928571D01*
X70761904Y-66023809D01*
X70761904Y-66261904D01*
X70714285Y-66357142D01*
X70666666Y-66404761D01*
X70571428Y-66452380D01*
X70285714Y-66452380D01*
X70190476Y-66404761D01*
X70142857Y-66357142D01*
X67895714Y-68962380D02*
X67895714Y-67962380D01*
X68276666Y-67962380D01*
X68371904Y-68010000D01*
X68419523Y-68057619D01*
X68467142Y-68152857D01*
X68467142Y-68295714D01*
X68419523Y-68390952D01*
X68371904Y-68438571D01*
X68276666Y-68486190D01*
X67895714Y-68486190D01*
X68800476Y-67962380D02*
X69419523Y-67962380D01*
X69086190Y-68343333D01*
X69229047Y-68343333D01*
X69324285Y-68390952D01*
X69371904Y-68438571D01*
X69419523Y-68533809D01*
X69419523Y-68771904D01*
X69371904Y-68867142D01*
X69324285Y-68914761D01*
X69229047Y-68962380D01*
X68943333Y-68962380D01*
X68848095Y-68914761D01*
X68800476Y-68867142D01*
X70038571Y-67962380D02*
X70133809Y-67962380D01*
X70229047Y-68010000D01*
X70276666Y-68057619D01*
X70324285Y-68152857D01*
X70371904Y-68343333D01*
X70371904Y-68581428D01*
X70324285Y-68771904D01*
X70276666Y-68867142D01*
X70229047Y-68914761D01*
X70133809Y-68962380D01*
X70038571Y-68962380D01*
X69943333Y-68914761D01*
X69895714Y-68867142D01*
X69848095Y-68771904D01*
X69800476Y-68581428D01*
X69800476Y-68343333D01*
X69848095Y-68152857D01*
X69895714Y-68057619D01*
X69943333Y-68010000D01*
X70038571Y-67962380D01*
X67285714Y-70452380D02*
X67285714Y-69452380D01*
X67666666Y-69452380D01*
X67761904Y-69500000D01*
X67809523Y-69547619D01*
X67857142Y-69642857D01*
X67857142Y-69785714D01*
X67809523Y-69880952D01*
X67761904Y-69928571D01*
X67666666Y-69976190D01*
X67285714Y-69976190D01*
X68619047Y-69928571D02*
X68761904Y-69976190D01*
X68809523Y-70023809D01*
X68857142Y-70119047D01*
X68857142Y-70261904D01*
X68809523Y-70357142D01*
X68761904Y-70404761D01*
X68666666Y-70452380D01*
X68285714Y-70452380D01*
X68285714Y-69452380D01*
X68619047Y-69452380D01*
X68714285Y-69500000D01*
X68761904Y-69547619D01*
X68809523Y-69642857D01*
X68809523Y-69738095D01*
X68761904Y-69833333D01*
X68714285Y-69880952D01*
X68619047Y-69928571D01*
X68285714Y-69928571D01*
X69809523Y-70452380D02*
X69238095Y-70452380D01*
X69523809Y-70452380D02*
X69523809Y-69452380D01*
X69428571Y-69595238D01*
X69333333Y-69690476D01*
X69238095Y-69738095D01*
X70666666Y-69785714D02*
X70666666Y-70452380D01*
X70428571Y-69404761D02*
X70190476Y-70119047D01*
X70809523Y-70119047D01*
X67895714Y-72962380D02*
X67895714Y-71962380D01*
X68276666Y-71962380D01*
X68371904Y-72010000D01*
X68419523Y-72057619D01*
X68467142Y-72152857D01*
X68467142Y-72295714D01*
X68419523Y-72390952D01*
X68371904Y-72438571D01*
X68276666Y-72486190D01*
X67895714Y-72486190D01*
X68800476Y-71962380D02*
X69419523Y-71962380D01*
X69086190Y-72343333D01*
X69229047Y-72343333D01*
X69324285Y-72390952D01*
X69371904Y-72438571D01*
X69419523Y-72533809D01*
X69419523Y-72771904D01*
X69371904Y-72867142D01*
X69324285Y-72914761D01*
X69229047Y-72962380D01*
X68943333Y-72962380D01*
X68848095Y-72914761D01*
X68800476Y-72867142D01*
X70371904Y-72962380D02*
X69800476Y-72962380D01*
X70086190Y-72962380D02*
X70086190Y-71962380D01*
X69990952Y-72105238D01*
X69895714Y-72200476D01*
X69800476Y-72248095D01*
X67285714Y-74452380D02*
X67285714Y-73452380D01*
X67666666Y-73452380D01*
X67761904Y-73500000D01*
X67809523Y-73547619D01*
X67857142Y-73642857D01*
X67857142Y-73785714D01*
X67809523Y-73880952D01*
X67761904Y-73928571D01*
X67666666Y-73976190D01*
X67285714Y-73976190D01*
X68619047Y-73928571D02*
X68761904Y-73976190D01*
X68809523Y-74023809D01*
X68857142Y-74119047D01*
X68857142Y-74261904D01*
X68809523Y-74357142D01*
X68761904Y-74404761D01*
X68666666Y-74452380D01*
X68285714Y-74452380D01*
X68285714Y-73452380D01*
X68619047Y-73452380D01*
X68714285Y-73500000D01*
X68761904Y-73547619D01*
X68809523Y-73642857D01*
X68809523Y-73738095D01*
X68761904Y-73833333D01*
X68714285Y-73880952D01*
X68619047Y-73928571D01*
X68285714Y-73928571D01*
X69809523Y-74452380D02*
X69238095Y-74452380D01*
X69523809Y-74452380D02*
X69523809Y-73452380D01*
X69428571Y-73595238D01*
X69333333Y-73690476D01*
X69238095Y-73738095D01*
X70714285Y-73452380D02*
X70238095Y-73452380D01*
X70190476Y-73928571D01*
X70238095Y-73880952D01*
X70333333Y-73833333D01*
X70571428Y-73833333D01*
X70666666Y-73880952D01*
X70714285Y-73928571D01*
X70761904Y-74023809D01*
X70761904Y-74261904D01*
X70714285Y-74357142D01*
X70666666Y-74404761D01*
X70571428Y-74452380D01*
X70333333Y-74452380D01*
X70238095Y-74404761D01*
X70190476Y-74357142D01*
X44835714Y-89077380D02*
X44835714Y-88077380D01*
X45216666Y-88077380D01*
X45311904Y-88125000D01*
X45359523Y-88172619D01*
X45407142Y-88267857D01*
X45407142Y-88410714D01*
X45359523Y-88505952D01*
X45311904Y-88553571D01*
X45216666Y-88601190D01*
X44835714Y-88601190D01*
X45740476Y-88077380D02*
X46359523Y-88077380D01*
X46026190Y-88458333D01*
X46169047Y-88458333D01*
X46264285Y-88505952D01*
X46311904Y-88553571D01*
X46359523Y-88648809D01*
X46359523Y-88886904D01*
X46311904Y-88982142D01*
X46264285Y-89029761D01*
X46169047Y-89077380D01*
X45883333Y-89077380D01*
X45788095Y-89029761D01*
X45740476Y-88982142D01*
X46740476Y-88172619D02*
X46788095Y-88125000D01*
X46883333Y-88077380D01*
X47121428Y-88077380D01*
X47216666Y-88125000D01*
X47264285Y-88172619D01*
X47311904Y-88267857D01*
X47311904Y-88363095D01*
X47264285Y-88505952D01*
X46692857Y-89077380D01*
X47311904Y-89077380D01*
X41559523Y-86152380D02*
X42130952Y-86152380D01*
X41845238Y-87152380D02*
X41845238Y-86152380D01*
X42416666Y-86866666D02*
X42892857Y-86866666D01*
X42321428Y-87152380D02*
X42654761Y-86152380D01*
X42988095Y-87152380D01*
X43464285Y-86580952D02*
X43369047Y-86533333D01*
X43321428Y-86485714D01*
X43273809Y-86390476D01*
X43273809Y-86342857D01*
X43321428Y-86247619D01*
X43369047Y-86200000D01*
X43464285Y-86152380D01*
X43654761Y-86152380D01*
X43750000Y-86200000D01*
X43797619Y-86247619D01*
X43845238Y-86342857D01*
X43845238Y-86390476D01*
X43797619Y-86485714D01*
X43750000Y-86533333D01*
X43654761Y-86580952D01*
X43464285Y-86580952D01*
X43369047Y-86628571D01*
X43321428Y-86676190D01*
X43273809Y-86771428D01*
X43273809Y-86961904D01*
X43321428Y-87057142D01*
X43369047Y-87104761D01*
X43464285Y-87152380D01*
X43654761Y-87152380D01*
X43750000Y-87104761D01*
X43797619Y-87057142D01*
X43845238Y-86961904D01*
X43845238Y-86771428D01*
X43797619Y-86676190D01*
X43750000Y-86628571D01*
X43654761Y-86580952D01*
X53710714Y-89252380D02*
X53710714Y-88252380D01*
X54091666Y-88252380D01*
X54186904Y-88300000D01*
X54234523Y-88347619D01*
X54282142Y-88442857D01*
X54282142Y-88585714D01*
X54234523Y-88680952D01*
X54186904Y-88728571D01*
X54091666Y-88776190D01*
X53710714Y-88776190D01*
X54615476Y-88252380D02*
X55234523Y-88252380D01*
X54901190Y-88633333D01*
X55044047Y-88633333D01*
X55139285Y-88680952D01*
X55186904Y-88728571D01*
X55234523Y-88823809D01*
X55234523Y-89061904D01*
X55186904Y-89157142D01*
X55139285Y-89204761D01*
X55044047Y-89252380D01*
X54758333Y-89252380D01*
X54663095Y-89204761D01*
X54615476Y-89157142D01*
X55567857Y-88252380D02*
X56186904Y-88252380D01*
X55853571Y-88633333D01*
X55996428Y-88633333D01*
X56091666Y-88680952D01*
X56139285Y-88728571D01*
X56186904Y-88823809D01*
X56186904Y-89061904D01*
X56139285Y-89157142D01*
X56091666Y-89204761D01*
X55996428Y-89252380D01*
X55710714Y-89252380D01*
X55615476Y-89204761D01*
X55567857Y-89157142D01*
X50784523Y-86127380D02*
X51355952Y-86127380D01*
X51070238Y-87127380D02*
X51070238Y-86127380D01*
X51641666Y-86841666D02*
X52117857Y-86841666D01*
X51546428Y-87127380D02*
X51879761Y-86127380D01*
X52213095Y-87127380D01*
X52594047Y-87127380D02*
X52784523Y-87127380D01*
X52879761Y-87079761D01*
X52927380Y-87032142D01*
X53022619Y-86889285D01*
X53070238Y-86698809D01*
X53070238Y-86317857D01*
X53022619Y-86222619D01*
X52975000Y-86175000D01*
X52879761Y-86127380D01*
X52689285Y-86127380D01*
X52594047Y-86175000D01*
X52546428Y-86222619D01*
X52498809Y-86317857D01*
X52498809Y-86555952D01*
X52546428Y-86651190D01*
X52594047Y-86698809D01*
X52689285Y-86746428D01*
X52879761Y-86746428D01*
X52975000Y-86698809D01*
X53022619Y-86651190D01*
X53070238Y-86555952D01*
X89458333Y-68227380D02*
X89125000Y-67751190D01*
X88886904Y-68227380D02*
X88886904Y-67227380D01*
X89267857Y-67227380D01*
X89363095Y-67275000D01*
X89410714Y-67322619D01*
X89458333Y-67417857D01*
X89458333Y-67560714D01*
X89410714Y-67655952D01*
X89363095Y-67703571D01*
X89267857Y-67751190D01*
X88886904Y-67751190D01*
X90410714Y-68227380D02*
X89839285Y-68227380D01*
X90125000Y-68227380D02*
X90125000Y-67227380D01*
X90029761Y-67370238D01*
X89934523Y-67465476D01*
X89839285Y-67513095D01*
X89029761Y-64927380D02*
X88458333Y-64927380D01*
X88744047Y-64927380D02*
X88744047Y-63927380D01*
X88648809Y-64070238D01*
X88553571Y-64165476D01*
X88458333Y-64213095D01*
X89648809Y-63927380D02*
X89744047Y-63927380D01*
X89839285Y-63975000D01*
X89886904Y-64022619D01*
X89934523Y-64117857D01*
X89982142Y-64308333D01*
X89982142Y-64546428D01*
X89934523Y-64736904D01*
X89886904Y-64832142D01*
X89839285Y-64879761D01*
X89744047Y-64927380D01*
X89648809Y-64927380D01*
X89553571Y-64879761D01*
X89505952Y-64832142D01*
X89458333Y-64736904D01*
X89410714Y-64546428D01*
X89410714Y-64308333D01*
X89458333Y-64117857D01*
X89505952Y-64022619D01*
X89553571Y-63975000D01*
X89648809Y-63927380D01*
X90410714Y-64927380D02*
X90410714Y-63927380D01*
X90505952Y-64546428D02*
X90791666Y-64927380D01*
X90791666Y-64260714D02*
X90410714Y-64641666D01*
X77102380Y-64141666D02*
X76626190Y-64475000D01*
X77102380Y-64713095D02*
X76102380Y-64713095D01*
X76102380Y-64332142D01*
X76150000Y-64236904D01*
X76197619Y-64189285D01*
X76292857Y-64141666D01*
X76435714Y-64141666D01*
X76530952Y-64189285D01*
X76578571Y-64236904D01*
X76626190Y-64332142D01*
X76626190Y-64713095D01*
X76197619Y-63760714D02*
X76150000Y-63713095D01*
X76102380Y-63617857D01*
X76102380Y-63379761D01*
X76150000Y-63284523D01*
X76197619Y-63236904D01*
X76292857Y-63189285D01*
X76388095Y-63189285D01*
X76530952Y-63236904D01*
X77102380Y-63808333D01*
X77102380Y-63189285D01*
X73802380Y-65046428D02*
X73802380Y-65617857D01*
X73802380Y-65332142D02*
X72802380Y-65332142D01*
X72945238Y-65427380D01*
X73040476Y-65522619D01*
X73088095Y-65617857D01*
X72802380Y-64427380D02*
X72802380Y-64332142D01*
X72850000Y-64236904D01*
X72897619Y-64189285D01*
X72992857Y-64141666D01*
X73183333Y-64094047D01*
X73421428Y-64094047D01*
X73611904Y-64141666D01*
X73707142Y-64189285D01*
X73754761Y-64236904D01*
X73802380Y-64332142D01*
X73802380Y-64427380D01*
X73754761Y-64522619D01*
X73707142Y-64570238D01*
X73611904Y-64617857D01*
X73421428Y-64665476D01*
X73183333Y-64665476D01*
X72992857Y-64617857D01*
X72897619Y-64570238D01*
X72850000Y-64522619D01*
X72802380Y-64427380D01*
X72802380Y-63475000D02*
X72802380Y-63379761D01*
X72850000Y-63284523D01*
X72897619Y-63236904D01*
X72992857Y-63189285D01*
X73183333Y-63141666D01*
X73421428Y-63141666D01*
X73611904Y-63189285D01*
X73707142Y-63236904D01*
X73754761Y-63284523D01*
X73802380Y-63379761D01*
X73802380Y-63475000D01*
X73754761Y-63570238D01*
X73707142Y-63617857D01*
X73611904Y-63665476D01*
X73421428Y-63713095D01*
X73183333Y-63713095D01*
X72992857Y-63665476D01*
X72897619Y-63617857D01*
X72850000Y-63570238D01*
X72802380Y-63475000D01*
X73802380Y-62713095D02*
X72802380Y-62713095D01*
X73421428Y-62617857D02*
X73802380Y-62332142D01*
X73135714Y-62332142D02*
X73516666Y-62713095D01*
X73803993Y-70785304D02*
X73905008Y-70212884D01*
X73399932Y-70381243D02*
X74107038Y-69674136D01*
X74376413Y-69943510D01*
X74410084Y-70044525D01*
X74410084Y-70111869D01*
X74376413Y-70212884D01*
X74275397Y-70313899D01*
X74174382Y-70347571D01*
X74107038Y-70347571D01*
X74006023Y-70313899D01*
X73736649Y-70044525D01*
X74746802Y-70313899D02*
X75184535Y-70751632D01*
X74679458Y-70785304D01*
X74780474Y-70886319D01*
X74814145Y-70987335D01*
X74814145Y-71054678D01*
X74780474Y-71155693D01*
X74612115Y-71324052D01*
X74511100Y-71357724D01*
X74443756Y-71357724D01*
X74342741Y-71324052D01*
X74140710Y-71122022D01*
X74107038Y-71021006D01*
X74107038Y-70953663D01*
X71386361Y-73034577D02*
X70982300Y-72630516D01*
X71184331Y-72832546D02*
X71891438Y-72125439D01*
X71723079Y-72159111D01*
X71588392Y-72159111D01*
X71487377Y-72125439D01*
X71689407Y-73337622D02*
X72396514Y-72630516D01*
X72127140Y-73371294D01*
X72867918Y-73101920D01*
X72160812Y-73809027D01*
X85210601Y-57788097D02*
X85783021Y-58360517D01*
X85884036Y-58394189D01*
X85951380Y-58394189D01*
X86052395Y-58360517D01*
X86187082Y-58225830D01*
X86220754Y-58124815D01*
X86220754Y-58057471D01*
X86187082Y-57956456D01*
X85614662Y-57384036D01*
X87028876Y-57384036D02*
X86624815Y-57788097D01*
X86826845Y-57586067D02*
X86119739Y-56878960D01*
X86153410Y-57047319D01*
X86153410Y-57182006D01*
X86119739Y-57283021D01*
X74041681Y-53757588D02*
X74176368Y-53690245D01*
X74344726Y-53521886D01*
X74378398Y-53420871D01*
X74378398Y-53353527D01*
X74344726Y-53252512D01*
X74277383Y-53185168D01*
X74176368Y-53151497D01*
X74109024Y-53151497D01*
X74008009Y-53185168D01*
X73839650Y-53286184D01*
X73738635Y-53319855D01*
X73671291Y-53319855D01*
X73570276Y-53286184D01*
X73502933Y-53218840D01*
X73469261Y-53117825D01*
X73469261Y-53050481D01*
X73502933Y-52949466D01*
X73671291Y-52781107D01*
X73805978Y-52713764D01*
X73974337Y-52478062D02*
X74378398Y-52074000D01*
X74883474Y-52983138D02*
X74176368Y-52276031D01*
X75321207Y-52545405D02*
X74614100Y-51838298D01*
X75354879Y-52107672D01*
X75085505Y-51366894D01*
X75792612Y-52074000D01*
X75354879Y-51097520D02*
X75792612Y-50659787D01*
X75826284Y-51164863D01*
X75927299Y-51063848D01*
X76028314Y-51030176D01*
X76095658Y-51030176D01*
X76196673Y-51063848D01*
X76365032Y-51232207D01*
X76398703Y-51333222D01*
X76398703Y-51400565D01*
X76365032Y-51501581D01*
X76163001Y-51703611D01*
X76061986Y-51737283D01*
X75994642Y-51737283D01*
X76129329Y-50457756D02*
X76129329Y-50390413D01*
X76163001Y-50289398D01*
X76331360Y-50121039D01*
X76432375Y-50087367D01*
X76499719Y-50087367D01*
X76600734Y-50121039D01*
X76668077Y-50188382D01*
X76735421Y-50323069D01*
X76735421Y-51131191D01*
X77173154Y-50693459D01*
X77341512Y-49784321D02*
X77105810Y-50020024D01*
X77476199Y-50390413D02*
X76769093Y-49683306D01*
X77105810Y-49346589D01*
X77509871Y-48942528D02*
X77577215Y-48875184D01*
X77678230Y-48841512D01*
X77745573Y-48841512D01*
X77846589Y-48875184D01*
X78014947Y-48976199D01*
X78183306Y-49144558D01*
X78284321Y-49312917D01*
X78317993Y-49413932D01*
X78317993Y-49481276D01*
X78284321Y-49582291D01*
X78216978Y-49649634D01*
X78115963Y-49683306D01*
X78048619Y-49683306D01*
X77947604Y-49649634D01*
X77779245Y-49548619D01*
X77610886Y-49380260D01*
X77509871Y-49211902D01*
X77476199Y-49110886D01*
X77476199Y-49043543D01*
X77509871Y-48942528D01*
X78587367Y-48336436D02*
X79058772Y-48807841D01*
X78149634Y-48235421D02*
X78486352Y-48908856D01*
X78924085Y-48471123D01*
X78755726Y-47831360D02*
X78755726Y-47764016D01*
X78789398Y-47663001D01*
X78957756Y-47494642D01*
X79058772Y-47460971D01*
X79126115Y-47460971D01*
X79227130Y-47494642D01*
X79294474Y-47561986D01*
X79361817Y-47696673D01*
X79361817Y-48504795D01*
X79799550Y-48067062D01*
X80439313Y-47292612D02*
X80439313Y-47359955D01*
X80371970Y-47494642D01*
X80304626Y-47561986D01*
X80169939Y-47629329D01*
X80035252Y-47629329D01*
X79934237Y-47595658D01*
X79765878Y-47494642D01*
X79664863Y-47393627D01*
X79563848Y-47225268D01*
X79530176Y-47124253D01*
X79530176Y-46989566D01*
X79597520Y-46854879D01*
X79664863Y-46787536D01*
X79799550Y-46720192D01*
X79866894Y-46720192D01*
X80641344Y-46282459D02*
X81112749Y-46753864D01*
X80203611Y-46181444D02*
X80540329Y-46854879D01*
X80978062Y-46417146D01*
X80675016Y-45777383D02*
X81079077Y-45373322D01*
X81584153Y-46282459D02*
X80877046Y-45575352D01*
X81954542Y-45912070D02*
X81853527Y-45070276D01*
X81483138Y-45440665D02*
X82324932Y-45541681D01*
X91304761Y-61333333D02*
X91352380Y-61190476D01*
X91352380Y-60952380D01*
X91304761Y-60857142D01*
X91257142Y-60809523D01*
X91161904Y-60761904D01*
X91066666Y-60761904D01*
X90971428Y-60809523D01*
X90923809Y-60857142D01*
X90876190Y-60952380D01*
X90828571Y-61142857D01*
X90780952Y-61238095D01*
X90733333Y-61285714D01*
X90638095Y-61333333D01*
X90542857Y-61333333D01*
X90447619Y-61285714D01*
X90400000Y-61238095D01*
X90352380Y-61142857D01*
X90352380Y-60904761D01*
X90400000Y-60761904D01*
X90352380Y-60428571D02*
X91352380Y-60190476D01*
X90638095Y-60000000D01*
X91352380Y-59809523D01*
X90352380Y-59571428D01*
X91352380Y-58666666D02*
X91352380Y-59238095D01*
X91352380Y-58952380D02*
X90352380Y-58952380D01*
X90495238Y-59047619D01*
X90590476Y-59142857D01*
X90638095Y-59238095D01*
X98552380Y-62690476D02*
X98552380Y-62119047D01*
X99552380Y-62404761D02*
X98552380Y-62404761D01*
X99266666Y-61833333D02*
X99266666Y-61357142D01*
X99552380Y-61928571D02*
X98552380Y-61595238D01*
X99552380Y-61261904D01*
X99457142Y-60357142D02*
X99504761Y-60404761D01*
X99552380Y-60547619D01*
X99552380Y-60642857D01*
X99504761Y-60785714D01*
X99409523Y-60880952D01*
X99314285Y-60928571D01*
X99123809Y-60976190D01*
X98980952Y-60976190D01*
X98790476Y-60928571D01*
X98695238Y-60880952D01*
X98600000Y-60785714D01*
X98552380Y-60642857D01*
X98552380Y-60547619D01*
X98600000Y-60404761D01*
X98647619Y-60357142D01*
X98552380Y-60071428D02*
X98552380Y-59500000D01*
X99552380Y-59785714D02*
X98552380Y-59785714D01*
X99552380Y-59166666D02*
X98552380Y-59166666D01*
X99552380Y-58214285D02*
X99552380Y-58690476D01*
X98552380Y-58690476D01*
X99028571Y-57880952D02*
X99028571Y-57547619D01*
X99552380Y-57404761D02*
X99552380Y-57880952D01*
X98552380Y-57880952D01*
X98552380Y-57404761D01*
X96728095Y-78642380D02*
X96728095Y-79451904D01*
X96775714Y-79547142D01*
X96823333Y-79594761D01*
X96918571Y-79642380D01*
X97109047Y-79642380D01*
X97204285Y-79594761D01*
X97251904Y-79547142D01*
X97299523Y-79451904D01*
X97299523Y-78642380D01*
X97728095Y-78737619D02*
X97775714Y-78690000D01*
X97870952Y-78642380D01*
X98109047Y-78642380D01*
X98204285Y-78690000D01*
X98251904Y-78737619D01*
X98299523Y-78832857D01*
X98299523Y-78928095D01*
X98251904Y-79070952D01*
X97680476Y-79642380D01*
X98299523Y-79642380D01*
X93061428Y-88356666D02*
X93537619Y-88356666D01*
X92966190Y-88642380D02*
X93299523Y-87642380D01*
X93632857Y-88642380D01*
X93870952Y-87642380D02*
X94537619Y-87642380D01*
X93870952Y-88642380D01*
X94537619Y-88642380D01*
X95442380Y-88642380D02*
X94870952Y-88642380D01*
X95156666Y-88642380D02*
X95156666Y-87642380D01*
X95061428Y-87785238D01*
X94966190Y-87880476D01*
X94870952Y-87928095D01*
X96394761Y-88642380D02*
X95823333Y-88642380D01*
X96109047Y-88642380D02*
X96109047Y-87642380D01*
X96013809Y-87785238D01*
X95918571Y-87880476D01*
X95823333Y-87928095D01*
X97347142Y-88642380D02*
X96775714Y-88642380D01*
X97061428Y-88642380D02*
X97061428Y-87642380D01*
X96966190Y-87785238D01*
X96870952Y-87880476D01*
X96775714Y-87928095D01*
X97680476Y-87642380D02*
X98347142Y-87642380D01*
X97918571Y-88642380D01*
X98728095Y-88261428D02*
X99490000Y-88261428D01*
X99870952Y-87642380D02*
X100490000Y-87642380D01*
X100156666Y-88023333D01*
X100299523Y-88023333D01*
X100394761Y-88070952D01*
X100442380Y-88118571D01*
X100490000Y-88213809D01*
X100490000Y-88451904D01*
X100442380Y-88547142D01*
X100394761Y-88594761D01*
X100299523Y-88642380D01*
X100013809Y-88642380D01*
X99918571Y-88594761D01*
X99870952Y-88547142D01*
X100918571Y-88547142D02*
X100966190Y-88594761D01*
X100918571Y-88642380D01*
X100870952Y-88594761D01*
X100918571Y-88547142D01*
X100918571Y-88642380D01*
X101299523Y-87642380D02*
X101918571Y-87642380D01*
X101585238Y-88023333D01*
X101728095Y-88023333D01*
X101823333Y-88070952D01*
X101870952Y-88118571D01*
X101918571Y-88213809D01*
X101918571Y-88451904D01*
X101870952Y-88547142D01*
X101823333Y-88594761D01*
X101728095Y-88642380D01*
X101442380Y-88642380D01*
X101347142Y-88594761D01*
X101299523Y-88547142D01*
X98639880Y-73453333D02*
X99354166Y-73453333D01*
X99497023Y-73500952D01*
X99592261Y-73596190D01*
X99639880Y-73739047D01*
X99639880Y-73834285D01*
X98735119Y-73024761D02*
X98687500Y-72977142D01*
X98639880Y-72881904D01*
X98639880Y-72643809D01*
X98687500Y-72548571D01*
X98735119Y-72500952D01*
X98830357Y-72453333D01*
X98925595Y-72453333D01*
X99068452Y-72500952D01*
X99639880Y-73072380D01*
X99639880Y-72453333D01*
X94766190Y-67022380D02*
X94766190Y-67831904D01*
X94813809Y-67927142D01*
X94861428Y-67974761D01*
X94956666Y-68022380D01*
X95147142Y-68022380D01*
X95242380Y-67974761D01*
X95290000Y-67927142D01*
X95337619Y-67831904D01*
X95337619Y-67022380D01*
X95766190Y-67974761D02*
X95909047Y-68022380D01*
X96147142Y-68022380D01*
X96242380Y-67974761D01*
X96290000Y-67927142D01*
X96337619Y-67831904D01*
X96337619Y-67736666D01*
X96290000Y-67641428D01*
X96242380Y-67593809D01*
X96147142Y-67546190D01*
X95956666Y-67498571D01*
X95861428Y-67450952D01*
X95813809Y-67403333D01*
X95766190Y-67308095D01*
X95766190Y-67212857D01*
X95813809Y-67117619D01*
X95861428Y-67070000D01*
X95956666Y-67022380D01*
X96194761Y-67022380D01*
X96337619Y-67070000D01*
X97099523Y-67498571D02*
X97242380Y-67546190D01*
X97290000Y-67593809D01*
X97337619Y-67689047D01*
X97337619Y-67831904D01*
X97290000Y-67927142D01*
X97242380Y-67974761D01*
X97147142Y-68022380D01*
X96766190Y-68022380D01*
X96766190Y-67022380D01*
X97099523Y-67022380D01*
X97194761Y-67070000D01*
X97242380Y-67117619D01*
X97290000Y-67212857D01*
X97290000Y-67308095D01*
X97242380Y-67403333D01*
X97194761Y-67450952D01*
X97099523Y-67498571D01*
X96766190Y-67498571D01*
X97528095Y-68117619D02*
X98290000Y-68117619D01*
X98861428Y-67498571D02*
X99004285Y-67546190D01*
X99051904Y-67593809D01*
X99099523Y-67689047D01*
X99099523Y-67831904D01*
X99051904Y-67927142D01*
X99004285Y-67974761D01*
X98909047Y-68022380D01*
X98528095Y-68022380D01*
X98528095Y-67022380D01*
X98861428Y-67022380D01*
X98956666Y-67070000D01*
X99004285Y-67117619D01*
X99051904Y-67212857D01*
X99051904Y-67308095D01*
X99004285Y-67403333D01*
X98956666Y-67450952D01*
X98861428Y-67498571D01*
X98528095Y-67498571D01*
X99290000Y-68117619D02*
X100051904Y-68117619D01*
X100290000Y-68022380D02*
X100290000Y-67022380D01*
X100623333Y-67736666D01*
X100956666Y-67022380D01*
X100956666Y-68022380D01*
X101432857Y-68022380D02*
X101432857Y-67355714D01*
X101432857Y-67022380D02*
X101385238Y-67070000D01*
X101432857Y-67117619D01*
X101480476Y-67070000D01*
X101432857Y-67022380D01*
X101432857Y-67117619D01*
X102337619Y-67974761D02*
X102242380Y-68022380D01*
X102051904Y-68022380D01*
X101956666Y-67974761D01*
X101909047Y-67927142D01*
X101861428Y-67831904D01*
X101861428Y-67546190D01*
X101909047Y-67450952D01*
X101956666Y-67403333D01*
X102051904Y-67355714D01*
X102242380Y-67355714D01*
X102337619Y-67403333D01*
X102766190Y-68022380D02*
X102766190Y-67355714D01*
X102766190Y-67546190D02*
X102813809Y-67450952D01*
X102861428Y-67403333D01*
X102956666Y-67355714D01*
X103051904Y-67355714D01*
X103528095Y-68022380D02*
X103432857Y-67974761D01*
X103385238Y-67927142D01*
X103337619Y-67831904D01*
X103337619Y-67546190D01*
X103385238Y-67450952D01*
X103432857Y-67403333D01*
X103528095Y-67355714D01*
X103670952Y-67355714D01*
X103766190Y-67403333D01*
X103813809Y-67450952D01*
X103861428Y-67546190D01*
X103861428Y-67831904D01*
X103813809Y-67927142D01*
X103766190Y-67974761D01*
X103670952Y-68022380D01*
X103528095Y-68022380D01*
X91738095Y-69052380D02*
X91738095Y-69861904D01*
X91785714Y-69957142D01*
X91833333Y-70004761D01*
X91928571Y-70052380D01*
X92119047Y-70052380D01*
X92214285Y-70004761D01*
X92261904Y-69957142D01*
X92309523Y-69861904D01*
X92309523Y-69052380D01*
X92690476Y-69052380D02*
X93309523Y-69052380D01*
X92976190Y-69433333D01*
X93119047Y-69433333D01*
X93214285Y-69480952D01*
X93261904Y-69528571D01*
X93309523Y-69623809D01*
X93309523Y-69861904D01*
X93261904Y-69957142D01*
X93214285Y-70004761D01*
X93119047Y-70052380D01*
X92833333Y-70052380D01*
X92738095Y-70004761D01*
X92690476Y-69957142D01*
X86333333Y-74852380D02*
X86333333Y-75661904D01*
X86380952Y-75757142D01*
X86428571Y-75804761D01*
X86523809Y-75852380D01*
X86714285Y-75852380D01*
X86809523Y-75804761D01*
X86857142Y-75757142D01*
X86904761Y-75661904D01*
X86904761Y-74852380D01*
X87333333Y-75804761D02*
X87476190Y-75852380D01*
X87714285Y-75852380D01*
X87809523Y-75804761D01*
X87857142Y-75757142D01*
X87904761Y-75661904D01*
X87904761Y-75566666D01*
X87857142Y-75471428D01*
X87809523Y-75423809D01*
X87714285Y-75376190D01*
X87523809Y-75328571D01*
X87428571Y-75280952D01*
X87380952Y-75233333D01*
X87333333Y-75138095D01*
X87333333Y-75042857D01*
X87380952Y-74947619D01*
X87428571Y-74900000D01*
X87523809Y-74852380D01*
X87761904Y-74852380D01*
X87904761Y-74900000D01*
X88666666Y-75328571D02*
X88809523Y-75376190D01*
X88857142Y-75423809D01*
X88904761Y-75519047D01*
X88904761Y-75661904D01*
X88857142Y-75757142D01*
X88809523Y-75804761D01*
X88714285Y-75852380D01*
X88333333Y-75852380D01*
X88333333Y-74852380D01*
X88666666Y-74852380D01*
X88761904Y-74900000D01*
X88809523Y-74947619D01*
X88857142Y-75042857D01*
X88857142Y-75138095D01*
X88809523Y-75233333D01*
X88761904Y-75280952D01*
X88666666Y-75328571D01*
X88333333Y-75328571D01*
X89095238Y-75947619D02*
X89857142Y-75947619D01*
X90095238Y-75852380D02*
X90095238Y-74852380D01*
X90476190Y-74852380D01*
X90571428Y-74900000D01*
X90619047Y-74947619D01*
X90666666Y-75042857D01*
X90666666Y-75185714D01*
X90619047Y-75280952D01*
X90571428Y-75328571D01*
X90476190Y-75376190D01*
X90095238Y-75376190D01*
X91666666Y-75852380D02*
X91333333Y-75376190D01*
X91095238Y-75852380D02*
X91095238Y-74852380D01*
X91476190Y-74852380D01*
X91571428Y-74900000D01*
X91619047Y-74947619D01*
X91666666Y-75042857D01*
X91666666Y-75185714D01*
X91619047Y-75280952D01*
X91571428Y-75328571D01*
X91476190Y-75376190D01*
X91095238Y-75376190D01*
X92285714Y-74852380D02*
X92476190Y-74852380D01*
X92571428Y-74900000D01*
X92666666Y-74995238D01*
X92714285Y-75185714D01*
X92714285Y-75519047D01*
X92666666Y-75709523D01*
X92571428Y-75804761D01*
X92476190Y-75852380D01*
X92285714Y-75852380D01*
X92190476Y-75804761D01*
X92095238Y-75709523D01*
X92047619Y-75519047D01*
X92047619Y-75185714D01*
X92095238Y-74995238D01*
X92190476Y-74900000D01*
X92285714Y-74852380D01*
X93000000Y-74852380D02*
X93571428Y-74852380D01*
X93285714Y-75852380D02*
X93285714Y-74852380D01*
X93904761Y-75328571D02*
X94238095Y-75328571D01*
X94380952Y-75852380D02*
X93904761Y-75852380D01*
X93904761Y-74852380D01*
X94380952Y-74852380D01*
X95380952Y-75757142D02*
X95333333Y-75804761D01*
X95190476Y-75852380D01*
X95095238Y-75852380D01*
X94952380Y-75804761D01*
X94857142Y-75709523D01*
X94809523Y-75614285D01*
X94761904Y-75423809D01*
X94761904Y-75280952D01*
X94809523Y-75090476D01*
X94857142Y-74995238D01*
X94952380Y-74900000D01*
X95095238Y-74852380D01*
X95190476Y-74852380D01*
X95333333Y-74900000D01*
X95380952Y-74947619D01*
X95666666Y-74852380D02*
X96238095Y-74852380D01*
X95952380Y-75852380D02*
X95952380Y-74852380D01*
X96571428Y-75852380D02*
X96571428Y-74852380D01*
X97238095Y-74852380D02*
X97428571Y-74852380D01*
X97523809Y-74900000D01*
X97619047Y-74995238D01*
X97666666Y-75185714D01*
X97666666Y-75519047D01*
X97619047Y-75709523D01*
X97523809Y-75804761D01*
X97428571Y-75852380D01*
X97238095Y-75852380D01*
X97142857Y-75804761D01*
X97047619Y-75709523D01*
X97000000Y-75519047D01*
X97000000Y-75185714D01*
X97047619Y-74995238D01*
X97142857Y-74900000D01*
X97238095Y-74852380D01*
X98095238Y-75852380D02*
X98095238Y-74852380D01*
X98666666Y-75852380D01*
X98666666Y-74852380D01*
X33785714Y-26252380D02*
X33785714Y-25252380D01*
X34166666Y-25252380D01*
X34261904Y-25300000D01*
X34309523Y-25347619D01*
X34357142Y-25442857D01*
X34357142Y-25585714D01*
X34309523Y-25680952D01*
X34261904Y-25728571D01*
X34166666Y-25776190D01*
X33785714Y-25776190D01*
X34690476Y-25252380D02*
X35309523Y-25252380D01*
X34976190Y-25633333D01*
X35119047Y-25633333D01*
X35214285Y-25680952D01*
X35261904Y-25728571D01*
X35309523Y-25823809D01*
X35309523Y-26061904D01*
X35261904Y-26157142D01*
X35214285Y-26204761D01*
X35119047Y-26252380D01*
X34833333Y-26252380D01*
X34738095Y-26204761D01*
X34690476Y-26157142D01*
X36166666Y-25585714D02*
X36166666Y-26252380D01*
X35928571Y-25204761D02*
X35690476Y-25919047D01*
X36309523Y-25919047D01*
X98785714Y-26252380D02*
X98785714Y-25252380D01*
X99166666Y-25252380D01*
X99261904Y-25300000D01*
X99309523Y-25347619D01*
X99357142Y-25442857D01*
X99357142Y-25585714D01*
X99309523Y-25680952D01*
X99261904Y-25728571D01*
X99166666Y-25776190D01*
X98785714Y-25776190D01*
X99690476Y-25252380D02*
X100309523Y-25252380D01*
X99976190Y-25633333D01*
X100119047Y-25633333D01*
X100214285Y-25680952D01*
X100261904Y-25728571D01*
X100309523Y-25823809D01*
X100309523Y-26061904D01*
X100261904Y-26157142D01*
X100214285Y-26204761D01*
X100119047Y-26252380D01*
X99833333Y-26252380D01*
X99738095Y-26204761D01*
X99690476Y-26157142D01*
X101214285Y-25252380D02*
X100738095Y-25252380D01*
X100690476Y-25728571D01*
X100738095Y-25680952D01*
X100833333Y-25633333D01*
X101071428Y-25633333D01*
X101166666Y-25680952D01*
X101214285Y-25728571D01*
X101261904Y-25823809D01*
X101261904Y-26061904D01*
X101214285Y-26157142D01*
X101166666Y-26204761D01*
X101071428Y-26252380D01*
X100833333Y-26252380D01*
X100738095Y-26204761D01*
X100690476Y-26157142D01*
X33785714Y-91252380D02*
X33785714Y-90252380D01*
X34166666Y-90252380D01*
X34261904Y-90300000D01*
X34309523Y-90347619D01*
X34357142Y-90442857D01*
X34357142Y-90585714D01*
X34309523Y-90680952D01*
X34261904Y-90728571D01*
X34166666Y-90776190D01*
X33785714Y-90776190D01*
X34690476Y-90252380D02*
X35309523Y-90252380D01*
X34976190Y-90633333D01*
X35119047Y-90633333D01*
X35214285Y-90680952D01*
X35261904Y-90728571D01*
X35309523Y-90823809D01*
X35309523Y-91061904D01*
X35261904Y-91157142D01*
X35214285Y-91204761D01*
X35119047Y-91252380D01*
X34833333Y-91252380D01*
X34738095Y-91204761D01*
X34690476Y-91157142D01*
X36166666Y-90252380D02*
X35976190Y-90252380D01*
X35880952Y-90300000D01*
X35833333Y-90347619D01*
X35738095Y-90490476D01*
X35690476Y-90680952D01*
X35690476Y-91061904D01*
X35738095Y-91157142D01*
X35785714Y-91204761D01*
X35880952Y-91252380D01*
X36071428Y-91252380D01*
X36166666Y-91204761D01*
X36214285Y-91157142D01*
X36261904Y-91061904D01*
X36261904Y-90823809D01*
X36214285Y-90728571D01*
X36166666Y-90680952D01*
X36071428Y-90633333D01*
X35880952Y-90633333D01*
X35785714Y-90680952D01*
X35738095Y-90728571D01*
X35690476Y-90823809D01*
X98785714Y-91252380D02*
X98785714Y-90252380D01*
X99166666Y-90252380D01*
X99261904Y-90300000D01*
X99309523Y-90347619D01*
X99357142Y-90442857D01*
X99357142Y-90585714D01*
X99309523Y-90680952D01*
X99261904Y-90728571D01*
X99166666Y-90776190D01*
X98785714Y-90776190D01*
X99690476Y-90252380D02*
X100309523Y-90252380D01*
X99976190Y-90633333D01*
X100119047Y-90633333D01*
X100214285Y-90680952D01*
X100261904Y-90728571D01*
X100309523Y-90823809D01*
X100309523Y-91061904D01*
X100261904Y-91157142D01*
X100214285Y-91204761D01*
X100119047Y-91252380D01*
X99833333Y-91252380D01*
X99738095Y-91204761D01*
X99690476Y-91157142D01*
X100642857Y-90252380D02*
X101309523Y-90252380D01*
X100880952Y-91252380D01*
X102273333Y-62617142D02*
X102225714Y-62664761D01*
X102082857Y-62712380D01*
X101987619Y-62712380D01*
X101844761Y-62664761D01*
X101749523Y-62569523D01*
X101701904Y-62474285D01*
X101654285Y-62283809D01*
X101654285Y-62140952D01*
X101701904Y-61950476D01*
X101749523Y-61855238D01*
X101844761Y-61760000D01*
X101987619Y-61712380D01*
X102082857Y-61712380D01*
X102225714Y-61760000D01*
X102273333Y-61807619D01*
X103178095Y-61712380D02*
X102701904Y-61712380D01*
X102654285Y-62188571D01*
X102701904Y-62140952D01*
X102797142Y-62093333D01*
X103035238Y-62093333D01*
X103130476Y-62140952D01*
X103178095Y-62188571D01*
X103225714Y-62283809D01*
X103225714Y-62521904D01*
X103178095Y-62617142D01*
X103130476Y-62664761D01*
X103035238Y-62712380D01*
X102797142Y-62712380D01*
X102701904Y-62664761D01*
X102654285Y-62617142D01*
X101082857Y-65917142D02*
X101130476Y-65964761D01*
X101082857Y-66012380D01*
X101035238Y-65964761D01*
X101082857Y-65917142D01*
X101082857Y-66012380D01*
X102082857Y-66012380D02*
X101511428Y-66012380D01*
X101797142Y-66012380D02*
X101797142Y-65012380D01*
X101701904Y-65155238D01*
X101606666Y-65250476D01*
X101511428Y-65298095D01*
X102940000Y-65345714D02*
X102940000Y-66012380D01*
X102511428Y-65345714D02*
X102511428Y-65869523D01*
X102559047Y-65964761D01*
X102654285Y-66012380D01*
X102797142Y-66012380D01*
X102892380Y-65964761D01*
X102940000Y-65917142D01*
X103749523Y-65488571D02*
X103416190Y-65488571D01*
X103416190Y-66012380D02*
X103416190Y-65012380D01*
X103892380Y-65012380D01*
X102727142Y-42891665D02*
X102774761Y-42939284D01*
X102822380Y-43082141D01*
X102822380Y-43177379D01*
X102774761Y-43320237D01*
X102679523Y-43415475D01*
X102584285Y-43463094D01*
X102393809Y-43510713D01*
X102250952Y-43510713D01*
X102060476Y-43463094D01*
X101965238Y-43415475D01*
X101870000Y-43320237D01*
X101822380Y-43177379D01*
X101822380Y-43082141D01*
X101870000Y-42939284D01*
X101917619Y-42891665D01*
X101822380Y-42034522D02*
X101822380Y-42224999D01*
X101870000Y-42320237D01*
X101917619Y-42367856D01*
X102060476Y-42463094D01*
X102250952Y-42510713D01*
X102631904Y-42510713D01*
X102727142Y-42463094D01*
X102774761Y-42415475D01*
X102822380Y-42320237D01*
X102822380Y-42129760D01*
X102774761Y-42034522D01*
X102727142Y-41986903D01*
X102631904Y-41939284D01*
X102393809Y-41939284D01*
X102298571Y-41986903D01*
X102250952Y-42034522D01*
X102203333Y-42129760D01*
X102203333Y-42320237D01*
X102250952Y-42415475D01*
X102298571Y-42463094D01*
X102393809Y-42510713D01*
X103357142Y-41357142D02*
X103404761Y-41309523D01*
X103452380Y-41357142D01*
X103404761Y-41404761D01*
X103357142Y-41357142D01*
X103452380Y-41357142D01*
X103452380Y-40357142D02*
X103452380Y-40928571D01*
X103452380Y-40642857D02*
X102452380Y-40642857D01*
X102595238Y-40738095D01*
X102690476Y-40833333D01*
X102738095Y-40928571D01*
X102785714Y-39500000D02*
X103452380Y-39500000D01*
X102785714Y-39928571D02*
X103309523Y-39928571D01*
X103404761Y-39880952D01*
X103452380Y-39785714D01*
X103452380Y-39642857D01*
X103404761Y-39547619D01*
X103357142Y-39500000D01*
X102928571Y-38690476D02*
X102928571Y-39023809D01*
X103452380Y-39023809D02*
X102452380Y-39023809D01*
X102452380Y-38547619D01*
X84519521Y-36841790D02*
X85226628Y-36134684D01*
X84957254Y-36875462D01*
X85698032Y-36606088D01*
X84990926Y-37313195D01*
X85698032Y-38020302D02*
X85293971Y-37616241D01*
X85496002Y-37818271D02*
X86203109Y-37111164D01*
X86034750Y-37144836D01*
X85900063Y-37144836D01*
X85799048Y-37111164D01*
X77245412Y-38440862D02*
X77582130Y-38777580D01*
X76976038Y-38575549D02*
X77918847Y-38104145D01*
X77447443Y-39046954D01*
X77683145Y-39282656D02*
X78390252Y-38575549D01*
X78120878Y-39316328D01*
X78861656Y-39046954D01*
X78154550Y-39754061D01*
X79265717Y-39922420D02*
X78794313Y-40393824D01*
X79366733Y-39484687D02*
X78693298Y-39821404D01*
X79131030Y-40259137D01*
X79804465Y-39989763D02*
X80242198Y-40427496D01*
X79737122Y-40461168D01*
X79838137Y-40562183D01*
X79871809Y-40663198D01*
X79871809Y-40730542D01*
X79838137Y-40831557D01*
X79669778Y-40999916D01*
X79568763Y-41033587D01*
X79501420Y-41033587D01*
X79400404Y-40999916D01*
X79198374Y-40797885D01*
X79164702Y-40696870D01*
X79164702Y-40629526D01*
X80208526Y-41808038D02*
X79804465Y-41403977D01*
X80006496Y-41606007D02*
X80713603Y-40898900D01*
X80545244Y-40932572D01*
X80410557Y-40932572D01*
X80309542Y-40898900D01*
X80881961Y-42481473D02*
X80477900Y-42077412D01*
X80679931Y-42279442D02*
X81387038Y-41572335D01*
X81218679Y-41606007D01*
X81083992Y-41606007D01*
X80982977Y-41572335D01*
X81791099Y-41976396D02*
X82195160Y-42380457D01*
X81286022Y-42885534D02*
X81993129Y-42178427D01*
X82498205Y-43154908D02*
X82026801Y-43626312D01*
X82599221Y-42717175D02*
X81925786Y-43053892D01*
X82363518Y-43491625D01*
X83003282Y-43323266D02*
X83070625Y-43323266D01*
X83171640Y-43356938D01*
X83339999Y-43525297D01*
X83373671Y-43626312D01*
X83373671Y-43693656D01*
X83339999Y-43794671D01*
X83272656Y-43862014D01*
X83137969Y-43929358D01*
X82329847Y-43929358D01*
X82767579Y-44367091D01*
X83238984Y-44434434D02*
X83575701Y-44771152D01*
X82969610Y-44569121D02*
X83912419Y-44097717D01*
X83441014Y-45040526D01*
X84518511Y-44703808D02*
X84585854Y-44771152D01*
X84619526Y-44872167D01*
X84619526Y-44939511D01*
X84585854Y-45040526D01*
X84484839Y-45208885D01*
X84316480Y-45377243D01*
X84148121Y-45478259D01*
X84047106Y-45511930D01*
X83979763Y-45511930D01*
X83878747Y-45478259D01*
X83811404Y-45410915D01*
X83777732Y-45309900D01*
X83777732Y-45242556D01*
X83811404Y-45141541D01*
X83912419Y-44973182D01*
X84080778Y-44804824D01*
X84249137Y-44703808D01*
X84350152Y-44670137D01*
X84417495Y-44670137D01*
X84518511Y-44703808D01*
X91743333Y-45072380D02*
X91410000Y-44596190D01*
X91171904Y-45072380D02*
X91171904Y-44072380D01*
X91552857Y-44072380D01*
X91648095Y-44120000D01*
X91695714Y-44167619D01*
X91743333Y-44262857D01*
X91743333Y-44405714D01*
X91695714Y-44500952D01*
X91648095Y-44548571D01*
X91552857Y-44596190D01*
X91171904Y-44596190D01*
X92600476Y-44405714D02*
X92600476Y-45072380D01*
X92362380Y-44024761D02*
X92124285Y-44739047D01*
X92743333Y-44739047D01*
X90774761Y-43402380D02*
X90203333Y-43402380D01*
X90489047Y-43402380D02*
X90489047Y-42402380D01*
X90393809Y-42545238D01*
X90298571Y-42640476D01*
X90203333Y-42688095D01*
X91393809Y-42402380D02*
X91489047Y-42402380D01*
X91584285Y-42450000D01*
X91631904Y-42497619D01*
X91679523Y-42592857D01*
X91727142Y-42783333D01*
X91727142Y-43021428D01*
X91679523Y-43211904D01*
X91631904Y-43307142D01*
X91584285Y-43354761D01*
X91489047Y-43402380D01*
X91393809Y-43402380D01*
X91298571Y-43354761D01*
X91250952Y-43307142D01*
X91203333Y-43211904D01*
X91155714Y-43021428D01*
X91155714Y-42783333D01*
X91203333Y-42592857D01*
X91250952Y-42497619D01*
X91298571Y-42450000D01*
X91393809Y-42402380D01*
X92155714Y-43402380D02*
X92155714Y-42402380D01*
X92250952Y-43021428D02*
X92536666Y-43402380D01*
X92536666Y-42735714D02*
X92155714Y-43116666D01*
X102003333Y-54852380D02*
X101670000Y-54376190D01*
X101431904Y-54852380D02*
X101431904Y-53852380D01*
X101812857Y-53852380D01*
X101908095Y-53900000D01*
X101955714Y-53947619D01*
X102003333Y-54042857D01*
X102003333Y-54185714D01*
X101955714Y-54280952D01*
X101908095Y-54328571D01*
X101812857Y-54376190D01*
X101431904Y-54376190D01*
X102908095Y-53852380D02*
X102431904Y-53852380D01*
X102384285Y-54328571D01*
X102431904Y-54280952D01*
X102527142Y-54233333D01*
X102765238Y-54233333D01*
X102860476Y-54280952D01*
X102908095Y-54328571D01*
X102955714Y-54423809D01*
X102955714Y-54661904D01*
X102908095Y-54757142D01*
X102860476Y-54804761D01*
X102765238Y-54852380D01*
X102527142Y-54852380D01*
X102431904Y-54804761D01*
X102384285Y-54757142D01*
X101574761Y-58152380D02*
X101003333Y-58152380D01*
X101289047Y-58152380D02*
X101289047Y-57152380D01*
X101193809Y-57295238D01*
X101098571Y-57390476D01*
X101003333Y-57438095D01*
X102193809Y-57152380D02*
X102289047Y-57152380D01*
X102384285Y-57200000D01*
X102431904Y-57247619D01*
X102479523Y-57342857D01*
X102527142Y-57533333D01*
X102527142Y-57771428D01*
X102479523Y-57961904D01*
X102431904Y-58057142D01*
X102384285Y-58104761D01*
X102289047Y-58152380D01*
X102193809Y-58152380D01*
X102098571Y-58104761D01*
X102050952Y-58057142D01*
X102003333Y-57961904D01*
X101955714Y-57771428D01*
X101955714Y-57533333D01*
X102003333Y-57342857D01*
X102050952Y-57247619D01*
X102098571Y-57200000D01*
X102193809Y-57152380D01*
X102955714Y-58152380D02*
X102955714Y-57152380D01*
X103050952Y-57771428D02*
X103336666Y-58152380D01*
X103336666Y-57485714D02*
X102955714Y-57866666D01*
X98352380Y-40911904D02*
X99161904Y-40911904D01*
X99257142Y-40864285D01*
X99304761Y-40816666D01*
X99352380Y-40721428D01*
X99352380Y-40530952D01*
X99304761Y-40435714D01*
X99257142Y-40388095D01*
X99161904Y-40340476D01*
X98352380Y-40340476D01*
X98685714Y-39435714D02*
X99352380Y-39435714D01*
X98304761Y-39673809D02*
X99019047Y-39911904D01*
X99019047Y-39292857D01*
X89732380Y-37272380D02*
X89256190Y-37272380D01*
X89256190Y-36272380D01*
X89922857Y-36272380D02*
X90494285Y-36272380D01*
X90208571Y-37272380D02*
X90208571Y-36272380D01*
X91399047Y-37272380D02*
X91065714Y-36796190D01*
X90827619Y-37272380D02*
X90827619Y-36272380D01*
X91208571Y-36272380D01*
X91303809Y-36320000D01*
X91351428Y-36367619D01*
X91399047Y-36462857D01*
X91399047Y-36605714D01*
X91351428Y-36700952D01*
X91303809Y-36748571D01*
X91208571Y-36796190D01*
X90827619Y-36796190D01*
X91827619Y-36891428D02*
X92589523Y-36891428D01*
X93541904Y-36272380D02*
X93065714Y-36272380D01*
X93018095Y-36748571D01*
X93065714Y-36700952D01*
X93160952Y-36653333D01*
X93399047Y-36653333D01*
X93494285Y-36700952D01*
X93541904Y-36748571D01*
X93589523Y-36843809D01*
X93589523Y-37081904D01*
X93541904Y-37177142D01*
X93494285Y-37224761D01*
X93399047Y-37272380D01*
X93160952Y-37272380D01*
X93065714Y-37224761D01*
X93018095Y-37177142D01*
X94494285Y-36272380D02*
X94018095Y-36272380D01*
X93970476Y-36748571D01*
X94018095Y-36700952D01*
X94113333Y-36653333D01*
X94351428Y-36653333D01*
X94446666Y-36700952D01*
X94494285Y-36748571D01*
X94541904Y-36843809D01*
X94541904Y-37081904D01*
X94494285Y-37177142D01*
X94446666Y-37224761D01*
X94351428Y-37272380D01*
X94113333Y-37272380D01*
X94018095Y-37224761D01*
X93970476Y-37177142D01*
X94875238Y-36272380D02*
X95494285Y-36272380D01*
X95160952Y-36653333D01*
X95303809Y-36653333D01*
X95399047Y-36700952D01*
X95446666Y-36748571D01*
X95494285Y-36843809D01*
X95494285Y-37081904D01*
X95446666Y-37177142D01*
X95399047Y-37224761D01*
X95303809Y-37272380D01*
X95018095Y-37272380D01*
X94922857Y-37224761D01*
X94875238Y-37177142D01*
X95875238Y-36986666D02*
X96351428Y-36986666D01*
X95780000Y-37272380D02*
X96113333Y-36272380D01*
X96446666Y-37272380D01*
X97256190Y-37272380D02*
X96780000Y-37272380D01*
X96780000Y-36272380D01*
X97541904Y-37224761D02*
X97684761Y-37272380D01*
X97922857Y-37272380D01*
X98018095Y-37224761D01*
X98065714Y-37177142D01*
X98113333Y-37081904D01*
X98113333Y-36986666D01*
X98065714Y-36891428D01*
X98018095Y-36843809D01*
X97922857Y-36796190D01*
X97732380Y-36748571D01*
X97637142Y-36700952D01*
X97589523Y-36653333D01*
X97541904Y-36558095D01*
X97541904Y-36462857D01*
X97589523Y-36367619D01*
X97637142Y-36320000D01*
X97732380Y-36272380D01*
X97970476Y-36272380D01*
X98113333Y-36320000D01*
X98541904Y-36891428D02*
X99303809Y-36891428D01*
X99684761Y-36272380D02*
X99922857Y-37272380D01*
X100113333Y-36558095D01*
X100303809Y-37272380D01*
X100541904Y-36272380D01*
X100875238Y-36986666D02*
X101351428Y-36986666D01*
X100780000Y-37272380D02*
X101113333Y-36272380D01*
X101446666Y-37272380D01*
X97566666Y-44087380D02*
X97566666Y-44801666D01*
X97519047Y-44944523D01*
X97423809Y-45039761D01*
X97280952Y-45087380D01*
X97185714Y-45087380D01*
X97947619Y-44087380D02*
X98566666Y-44087380D01*
X98233333Y-44468333D01*
X98376190Y-44468333D01*
X98471428Y-44515952D01*
X98519047Y-44563571D01*
X98566666Y-44658809D01*
X98566666Y-44896904D01*
X98519047Y-44992142D01*
X98471428Y-45039761D01*
X98376190Y-45087380D01*
X98090476Y-45087380D01*
X97995238Y-45039761D01*
X97947619Y-44992142D01*
X96828571Y-53453571D02*
X97161904Y-53453571D01*
X97304761Y-53977380D02*
X96828571Y-53977380D01*
X96828571Y-52977380D01*
X97304761Y-52977380D01*
X97638095Y-52977380D02*
X98304761Y-53977380D01*
X98304761Y-52977380D02*
X97638095Y-53977380D01*
X98542857Y-52977380D02*
X99114285Y-52977380D01*
X98828571Y-53977380D02*
X98828571Y-52977380D01*
X82558333Y-87127380D02*
X82225000Y-86651190D01*
X81986904Y-87127380D02*
X81986904Y-86127380D01*
X82367857Y-86127380D01*
X82463095Y-86175000D01*
X82510714Y-86222619D01*
X82558333Y-86317857D01*
X82558333Y-86460714D01*
X82510714Y-86555952D01*
X82463095Y-86603571D01*
X82367857Y-86651190D01*
X81986904Y-86651190D01*
X83415476Y-86127380D02*
X83225000Y-86127380D01*
X83129761Y-86175000D01*
X83082142Y-86222619D01*
X82986904Y-86365476D01*
X82939285Y-86555952D01*
X82939285Y-86936904D01*
X82986904Y-87032142D01*
X83034523Y-87079761D01*
X83129761Y-87127380D01*
X83320238Y-87127380D01*
X83415476Y-87079761D01*
X83463095Y-87032142D01*
X83510714Y-86936904D01*
X83510714Y-86698809D01*
X83463095Y-86603571D01*
X83415476Y-86555952D01*
X83320238Y-86508333D01*
X83129761Y-86508333D01*
X83034523Y-86555952D01*
X82986904Y-86603571D01*
X82939285Y-86698809D01*
X82129761Y-90427380D02*
X81558333Y-90427380D01*
X81844047Y-90427380D02*
X81844047Y-89427380D01*
X81748809Y-89570238D01*
X81653571Y-89665476D01*
X81558333Y-89713095D01*
X82748809Y-89427380D02*
X82844047Y-89427380D01*
X82939285Y-89475000D01*
X82986904Y-89522619D01*
X83034523Y-89617857D01*
X83082142Y-89808333D01*
X83082142Y-90046428D01*
X83034523Y-90236904D01*
X82986904Y-90332142D01*
X82939285Y-90379761D01*
X82844047Y-90427380D01*
X82748809Y-90427380D01*
X82653571Y-90379761D01*
X82605952Y-90332142D01*
X82558333Y-90236904D01*
X82510714Y-90046428D01*
X82510714Y-89808333D01*
X82558333Y-89617857D01*
X82605952Y-89522619D01*
X82653571Y-89475000D01*
X82748809Y-89427380D01*
X83510714Y-90427380D02*
X83510714Y-89427380D01*
X83605952Y-90046428D02*
X83891666Y-90427380D01*
X83891666Y-89760714D02*
X83510714Y-90141666D01*
M02*
