G04 #@! TF.GenerationSoftware,KiCad,Pcbnew,5.1.5-52549c5~84~ubuntu18.04.1*
G04 #@! TF.CreationDate,2020-03-15T21:10:30-07:00*
G04 #@! TF.ProjectId,stm32f042cXt6_demo,73746d33-3266-4303-9432-635874365f64,rev?*
G04 #@! TF.SameCoordinates,Original*
G04 #@! TF.FileFunction,Soldermask,Top*
G04 #@! TF.FilePolarity,Negative*
%FSLAX46Y46*%
G04 Gerber Fmt 4.6, Leading zero omitted, Abs format (unit mm)*
G04 Created by KiCad (PCBNEW 5.1.5-52549c5~84~ubuntu18.04.1) date 2020-03-15 21:10:30*
%MOMM*%
%LPD*%
G04 APERTURE LIST*
%ADD10C,0.100000*%
G04 APERTURE END LIST*
D10*
G36*
X100939240Y-91903743D02*
G01*
X101134573Y-91984653D01*
X101525242Y-92146473D01*
X102050848Y-92497672D01*
X102052633Y-92498865D01*
X102501135Y-92947367D01*
X102501137Y-92947370D01*
X102853527Y-93474758D01*
X103096257Y-94060761D01*
X103220000Y-94682858D01*
X103220000Y-95317142D01*
X103096257Y-95939239D01*
X102853527Y-96525242D01*
X102711084Y-96738422D01*
X102501135Y-97052633D01*
X102052633Y-97501135D01*
X102052630Y-97501137D01*
X101525242Y-97853527D01*
X101134573Y-98015347D01*
X100939240Y-98096257D01*
X100317142Y-98220000D01*
X99682858Y-98220000D01*
X99060760Y-98096257D01*
X98865427Y-98015347D01*
X98474758Y-97853527D01*
X97947370Y-97501137D01*
X97947367Y-97501135D01*
X97498865Y-97052633D01*
X97288916Y-96738422D01*
X97146473Y-96525242D01*
X96903743Y-95939239D01*
X96780000Y-95317142D01*
X96780000Y-94682858D01*
X96903743Y-94060761D01*
X97146473Y-93474758D01*
X97498863Y-92947370D01*
X97498865Y-92947367D01*
X97947367Y-92498865D01*
X97949152Y-92497672D01*
X98474758Y-92146473D01*
X98865427Y-91984653D01*
X99060760Y-91903743D01*
X99682858Y-91780000D01*
X100317142Y-91780000D01*
X100939240Y-91903743D01*
G37*
G36*
X35939240Y-91903743D02*
G01*
X36134573Y-91984653D01*
X36525242Y-92146473D01*
X37050848Y-92497672D01*
X37052633Y-92498865D01*
X37501135Y-92947367D01*
X37501137Y-92947370D01*
X37853527Y-93474758D01*
X38096257Y-94060761D01*
X38220000Y-94682858D01*
X38220000Y-95317142D01*
X38096257Y-95939239D01*
X37853527Y-96525242D01*
X37711084Y-96738422D01*
X37501135Y-97052633D01*
X37052633Y-97501135D01*
X37052630Y-97501137D01*
X36525242Y-97853527D01*
X36134573Y-98015347D01*
X35939240Y-98096257D01*
X35317142Y-98220000D01*
X34682858Y-98220000D01*
X34060760Y-98096257D01*
X33865427Y-98015347D01*
X33474758Y-97853527D01*
X32947370Y-97501137D01*
X32947367Y-97501135D01*
X32498865Y-97052633D01*
X32288916Y-96738422D01*
X32146473Y-96525242D01*
X31903743Y-95939239D01*
X31780000Y-95317142D01*
X31780000Y-94682858D01*
X31903743Y-94060761D01*
X32146473Y-93474758D01*
X32498863Y-92947370D01*
X32498865Y-92947367D01*
X32947367Y-92498865D01*
X32949152Y-92497672D01*
X33474758Y-92146473D01*
X33865427Y-91984653D01*
X34060760Y-91903743D01*
X34682858Y-91780000D01*
X35317142Y-91780000D01*
X35939240Y-91903743D01*
G37*
G36*
X88490000Y-97570000D02*
G01*
X86950000Y-97570000D01*
X86950000Y-96530000D01*
X88490000Y-96530000D01*
X88490000Y-97570000D01*
G37*
G36*
X70490000Y-97570000D02*
G01*
X68950000Y-97570000D01*
X68950000Y-96530000D01*
X70490000Y-96530000D01*
X70490000Y-97570000D01*
G37*
G36*
X57390000Y-97570000D02*
G01*
X55850000Y-97570000D01*
X55850000Y-96530000D01*
X57390000Y-96530000D01*
X57390000Y-97570000D01*
G37*
G36*
X66390000Y-97570000D02*
G01*
X64850000Y-97570000D01*
X64850000Y-96530000D01*
X66390000Y-96530000D01*
X66390000Y-97570000D01*
G37*
G36*
X52490000Y-97570000D02*
G01*
X50950000Y-97570000D01*
X50950000Y-96530000D01*
X52490000Y-96530000D01*
X52490000Y-97570000D01*
G37*
G36*
X61490000Y-97570000D02*
G01*
X59950000Y-97570000D01*
X59950000Y-96530000D01*
X61490000Y-96530000D01*
X61490000Y-97570000D01*
G37*
G36*
X75390000Y-97570000D02*
G01*
X73850000Y-97570000D01*
X73850000Y-96530000D01*
X75390000Y-96530000D01*
X75390000Y-97570000D01*
G37*
G36*
X43490000Y-97570000D02*
G01*
X41950000Y-97570000D01*
X41950000Y-96530000D01*
X43490000Y-96530000D01*
X43490000Y-97570000D01*
G37*
G36*
X84390000Y-97570000D02*
G01*
X82850000Y-97570000D01*
X82850000Y-96530000D01*
X84390000Y-96530000D01*
X84390000Y-97570000D01*
G37*
G36*
X79490000Y-97570000D02*
G01*
X77950000Y-97570000D01*
X77950000Y-96530000D01*
X79490000Y-96530000D01*
X79490000Y-97570000D01*
G37*
G36*
X93390000Y-97570000D02*
G01*
X91850000Y-97570000D01*
X91850000Y-96530000D01*
X93390000Y-96530000D01*
X93390000Y-97570000D01*
G37*
G36*
X48390000Y-97570000D02*
G01*
X46850000Y-97570000D01*
X46850000Y-96530000D01*
X48390000Y-96530000D01*
X48390000Y-97570000D01*
G37*
G36*
X84390000Y-94370000D02*
G01*
X82850000Y-94370000D01*
X82850000Y-93330000D01*
X84390000Y-93330000D01*
X84390000Y-94370000D01*
G37*
G36*
X43490000Y-94370000D02*
G01*
X41950000Y-94370000D01*
X41950000Y-93330000D01*
X43490000Y-93330000D01*
X43490000Y-94370000D01*
G37*
G36*
X48390000Y-94370000D02*
G01*
X46850000Y-94370000D01*
X46850000Y-93330000D01*
X48390000Y-93330000D01*
X48390000Y-94370000D01*
G37*
G36*
X52490000Y-94370000D02*
G01*
X50950000Y-94370000D01*
X50950000Y-93330000D01*
X52490000Y-93330000D01*
X52490000Y-94370000D01*
G37*
G36*
X66390000Y-94370000D02*
G01*
X64850000Y-94370000D01*
X64850000Y-93330000D01*
X66390000Y-93330000D01*
X66390000Y-94370000D01*
G37*
G36*
X61490000Y-94370000D02*
G01*
X59950000Y-94370000D01*
X59950000Y-93330000D01*
X61490000Y-93330000D01*
X61490000Y-94370000D01*
G37*
G36*
X75390000Y-94370000D02*
G01*
X73850000Y-94370000D01*
X73850000Y-93330000D01*
X75390000Y-93330000D01*
X75390000Y-94370000D01*
G37*
G36*
X70490000Y-94370000D02*
G01*
X68950000Y-94370000D01*
X68950000Y-93330000D01*
X70490000Y-93330000D01*
X70490000Y-94370000D01*
G37*
G36*
X79490000Y-94370000D02*
G01*
X77950000Y-94370000D01*
X77950000Y-93330000D01*
X79490000Y-93330000D01*
X79490000Y-94370000D01*
G37*
G36*
X93390000Y-94370000D02*
G01*
X91850000Y-94370000D01*
X91850000Y-93330000D01*
X93390000Y-93330000D01*
X93390000Y-94370000D01*
G37*
G36*
X57390000Y-94370000D02*
G01*
X55850000Y-94370000D01*
X55850000Y-93330000D01*
X57390000Y-93330000D01*
X57390000Y-94370000D01*
G37*
G36*
X88490000Y-94370000D02*
G01*
X86950000Y-94370000D01*
X86950000Y-93330000D01*
X88490000Y-93330000D01*
X88490000Y-94370000D01*
G37*
G36*
X75104879Y-87784054D02*
G01*
X75137360Y-87793907D01*
X75167305Y-87809914D01*
X75193549Y-87831451D01*
X75215086Y-87857695D01*
X75231093Y-87887640D01*
X75240946Y-87920121D01*
X75245000Y-87961286D01*
X75245000Y-89038714D01*
X75240946Y-89079879D01*
X75231093Y-89112360D01*
X75215086Y-89142305D01*
X75193549Y-89168549D01*
X75167305Y-89190086D01*
X75137360Y-89206093D01*
X75104879Y-89215946D01*
X75063714Y-89220000D01*
X74236286Y-89220000D01*
X74195121Y-89215946D01*
X74162640Y-89206093D01*
X74132695Y-89190086D01*
X74106451Y-89168549D01*
X74084914Y-89142305D01*
X74068907Y-89112360D01*
X74059054Y-89079879D01*
X74055000Y-89038714D01*
X74055000Y-87961286D01*
X74059054Y-87920121D01*
X74068907Y-87887640D01*
X74084914Y-87857695D01*
X74106451Y-87831451D01*
X74132695Y-87809914D01*
X74162640Y-87793907D01*
X74195121Y-87784054D01*
X74236286Y-87780000D01*
X75063714Y-87780000D01*
X75104879Y-87784054D01*
G37*
G36*
X77154879Y-87784054D02*
G01*
X77187360Y-87793907D01*
X77217305Y-87809914D01*
X77243549Y-87831451D01*
X77265086Y-87857695D01*
X77281093Y-87887640D01*
X77290946Y-87920121D01*
X77295000Y-87961286D01*
X77295000Y-89038714D01*
X77290946Y-89079879D01*
X77281093Y-89112360D01*
X77265086Y-89142305D01*
X77243549Y-89168549D01*
X77217305Y-89190086D01*
X77187360Y-89206093D01*
X77154879Y-89215946D01*
X77113714Y-89220000D01*
X76286286Y-89220000D01*
X76245121Y-89215946D01*
X76212640Y-89206093D01*
X76182695Y-89190086D01*
X76156451Y-89168549D01*
X76134914Y-89142305D01*
X76118907Y-89112360D01*
X76109054Y-89079879D01*
X76105000Y-89038714D01*
X76105000Y-87961286D01*
X76109054Y-87920121D01*
X76118907Y-87887640D01*
X76134914Y-87857695D01*
X76156451Y-87831451D01*
X76182695Y-87809914D01*
X76212640Y-87793907D01*
X76245121Y-87784054D01*
X76286286Y-87780000D01*
X77113714Y-87780000D01*
X77154879Y-87784054D01*
G37*
G36*
X82154879Y-87609054D02*
G01*
X82187360Y-87618907D01*
X82217305Y-87634914D01*
X82243549Y-87656451D01*
X82265086Y-87682695D01*
X82281093Y-87712640D01*
X82290946Y-87745121D01*
X82295000Y-87786286D01*
X82295000Y-88863714D01*
X82290946Y-88904879D01*
X82281093Y-88937360D01*
X82265086Y-88967305D01*
X82243549Y-88993549D01*
X82217305Y-89015086D01*
X82187360Y-89031093D01*
X82154879Y-89040946D01*
X82113714Y-89045000D01*
X81286286Y-89045000D01*
X81245121Y-89040946D01*
X81212640Y-89031093D01*
X81182695Y-89015086D01*
X81156451Y-88993549D01*
X81134914Y-88967305D01*
X81118907Y-88937360D01*
X81109054Y-88904879D01*
X81105000Y-88863714D01*
X81105000Y-87786286D01*
X81109054Y-87745121D01*
X81118907Y-87712640D01*
X81134914Y-87682695D01*
X81156451Y-87656451D01*
X81182695Y-87634914D01*
X81212640Y-87618907D01*
X81245121Y-87609054D01*
X81286286Y-87605000D01*
X82113714Y-87605000D01*
X82154879Y-87609054D01*
G37*
G36*
X84204879Y-87609054D02*
G01*
X84237360Y-87618907D01*
X84267305Y-87634914D01*
X84293549Y-87656451D01*
X84315086Y-87682695D01*
X84331093Y-87712640D01*
X84340946Y-87745121D01*
X84345000Y-87786286D01*
X84345000Y-88863714D01*
X84340946Y-88904879D01*
X84331093Y-88937360D01*
X84315086Y-88967305D01*
X84293549Y-88993549D01*
X84267305Y-89015086D01*
X84237360Y-89031093D01*
X84204879Y-89040946D01*
X84163714Y-89045000D01*
X83336286Y-89045000D01*
X83295121Y-89040946D01*
X83262640Y-89031093D01*
X83232695Y-89015086D01*
X83206451Y-88993549D01*
X83184914Y-88967305D01*
X83168907Y-88937360D01*
X83159054Y-88904879D01*
X83155000Y-88863714D01*
X83155000Y-87786286D01*
X83159054Y-87745121D01*
X83168907Y-87712640D01*
X83184914Y-87682695D01*
X83206451Y-87656451D01*
X83232695Y-87634914D01*
X83262640Y-87618907D01*
X83295121Y-87609054D01*
X83336286Y-87605000D01*
X84163714Y-87605000D01*
X84204879Y-87609054D01*
G37*
G36*
X95360000Y-86760000D02*
G01*
X93320000Y-86760000D01*
X93320000Y-85220000D01*
X95360000Y-85220000D01*
X95360000Y-86760000D01*
G37*
G36*
X101660000Y-85610000D02*
G01*
X99620000Y-85610000D01*
X99620000Y-81770000D01*
X101660000Y-81770000D01*
X101660000Y-85610000D01*
G37*
G36*
X95360000Y-84460000D02*
G01*
X93320000Y-84460000D01*
X93320000Y-82920000D01*
X95360000Y-82920000D01*
X95360000Y-84460000D01*
G37*
G36*
X95360000Y-82160000D02*
G01*
X93320000Y-82160000D01*
X93320000Y-80620000D01*
X95360000Y-80620000D01*
X95360000Y-82160000D01*
G37*
G36*
X91004879Y-79459054D02*
G01*
X91037360Y-79468907D01*
X91067305Y-79484914D01*
X91093549Y-79506451D01*
X91115086Y-79532695D01*
X91131093Y-79562640D01*
X91140946Y-79595121D01*
X91145000Y-79636286D01*
X91145000Y-80463714D01*
X91140946Y-80504879D01*
X91131093Y-80537360D01*
X91115086Y-80567305D01*
X91093549Y-80593549D01*
X91067305Y-80615086D01*
X91037360Y-80631093D01*
X91004879Y-80640946D01*
X90963714Y-80645000D01*
X89886286Y-80645000D01*
X89845121Y-80640946D01*
X89812640Y-80631093D01*
X89782695Y-80615086D01*
X89756451Y-80593549D01*
X89734914Y-80567305D01*
X89718907Y-80537360D01*
X89709054Y-80504879D01*
X89705000Y-80463714D01*
X89705000Y-79636286D01*
X89709054Y-79595121D01*
X89718907Y-79562640D01*
X89734914Y-79532695D01*
X89756451Y-79506451D01*
X89782695Y-79484914D01*
X89812640Y-79468907D01*
X89845121Y-79459054D01*
X89886286Y-79455000D01*
X90963714Y-79455000D01*
X91004879Y-79459054D01*
G37*
G36*
X82253770Y-77663433D02*
G01*
X82412100Y-77729016D01*
X82554593Y-77824227D01*
X82675773Y-77945407D01*
X82770984Y-78087900D01*
X82836567Y-78246230D01*
X82870000Y-78414312D01*
X82870000Y-78585688D01*
X82836567Y-78753770D01*
X82770984Y-78912100D01*
X82675773Y-79054593D01*
X82554593Y-79175773D01*
X82412100Y-79270984D01*
X82253770Y-79336567D01*
X82085688Y-79370000D01*
X81914312Y-79370000D01*
X81746230Y-79336567D01*
X81587900Y-79270984D01*
X81445407Y-79175773D01*
X81324227Y-79054593D01*
X81229016Y-78912100D01*
X81163433Y-78753770D01*
X81130000Y-78585688D01*
X81130000Y-78414312D01*
X81163433Y-78246230D01*
X81229016Y-78087900D01*
X81324227Y-77945407D01*
X81445407Y-77824227D01*
X81587900Y-77729016D01*
X81746230Y-77663433D01*
X81914312Y-77630000D01*
X82085688Y-77630000D01*
X82253770Y-77663433D01*
G37*
G36*
X79713770Y-77663433D02*
G01*
X79872100Y-77729016D01*
X80014593Y-77824227D01*
X80135773Y-77945407D01*
X80230984Y-78087900D01*
X80296567Y-78246230D01*
X80330000Y-78414312D01*
X80330000Y-78585688D01*
X80296567Y-78753770D01*
X80230984Y-78912100D01*
X80135773Y-79054593D01*
X80014593Y-79175773D01*
X79872100Y-79270984D01*
X79713770Y-79336567D01*
X79545688Y-79370000D01*
X79374312Y-79370000D01*
X79206230Y-79336567D01*
X79047900Y-79270984D01*
X78905407Y-79175773D01*
X78784227Y-79054593D01*
X78689016Y-78912100D01*
X78623433Y-78753770D01*
X78590000Y-78585688D01*
X78590000Y-78414312D01*
X78623433Y-78246230D01*
X78689016Y-78087900D01*
X78784227Y-77945407D01*
X78905407Y-77824227D01*
X79047900Y-77729016D01*
X79206230Y-77663433D01*
X79374312Y-77630000D01*
X79545688Y-77630000D01*
X79713770Y-77663433D01*
G37*
G36*
X84793770Y-77663433D02*
G01*
X84952100Y-77729016D01*
X85094593Y-77824227D01*
X85215773Y-77945407D01*
X85310984Y-78087900D01*
X85376567Y-78246230D01*
X85410000Y-78414312D01*
X85410000Y-78585688D01*
X85376567Y-78753770D01*
X85310984Y-78912100D01*
X85215773Y-79054593D01*
X85094593Y-79175773D01*
X84952100Y-79270984D01*
X84793770Y-79336567D01*
X84625688Y-79370000D01*
X84454312Y-79370000D01*
X84286230Y-79336567D01*
X84127900Y-79270984D01*
X83985407Y-79175773D01*
X83864227Y-79054593D01*
X83769016Y-78912100D01*
X83703433Y-78753770D01*
X83670000Y-78585688D01*
X83670000Y-78414312D01*
X83703433Y-78246230D01*
X83769016Y-78087900D01*
X83864227Y-77945407D01*
X83985407Y-77824227D01*
X84127900Y-77729016D01*
X84286230Y-77663433D01*
X84454312Y-77630000D01*
X84625688Y-77630000D01*
X84793770Y-77663433D01*
G37*
G36*
X75250000Y-79370000D02*
G01*
X73510000Y-79370000D01*
X73510000Y-77630000D01*
X75250000Y-77630000D01*
X75250000Y-79370000D01*
G37*
G36*
X77173770Y-77663433D02*
G01*
X77332100Y-77729016D01*
X77474593Y-77824227D01*
X77595773Y-77945407D01*
X77690984Y-78087900D01*
X77756567Y-78246230D01*
X77790000Y-78414312D01*
X77790000Y-78585688D01*
X77756567Y-78753770D01*
X77690984Y-78912100D01*
X77595773Y-79054593D01*
X77474593Y-79175773D01*
X77332100Y-79270984D01*
X77173770Y-79336567D01*
X77005688Y-79370000D01*
X76834312Y-79370000D01*
X76666230Y-79336567D01*
X76507900Y-79270984D01*
X76365407Y-79175773D01*
X76244227Y-79054593D01*
X76149016Y-78912100D01*
X76083433Y-78753770D01*
X76050000Y-78585688D01*
X76050000Y-78414312D01*
X76083433Y-78246230D01*
X76149016Y-78087900D01*
X76244227Y-77945407D01*
X76365407Y-77824227D01*
X76507900Y-77729016D01*
X76666230Y-77663433D01*
X76834312Y-77630000D01*
X77005688Y-77630000D01*
X77173770Y-77663433D01*
G37*
G36*
X91004879Y-77409054D02*
G01*
X91037360Y-77418907D01*
X91067305Y-77434914D01*
X91093549Y-77456451D01*
X91115086Y-77482695D01*
X91131093Y-77512640D01*
X91140946Y-77545121D01*
X91145000Y-77586286D01*
X91145000Y-78413714D01*
X91140946Y-78454879D01*
X91131093Y-78487360D01*
X91115086Y-78517305D01*
X91093549Y-78543549D01*
X91067305Y-78565086D01*
X91037360Y-78581093D01*
X91004879Y-78590946D01*
X90963714Y-78595000D01*
X89886286Y-78595000D01*
X89845121Y-78590946D01*
X89812640Y-78581093D01*
X89782695Y-78565086D01*
X89756451Y-78543549D01*
X89734914Y-78517305D01*
X89718907Y-78487360D01*
X89709054Y-78454879D01*
X89705000Y-78413714D01*
X89705000Y-77586286D01*
X89709054Y-77545121D01*
X89718907Y-77512640D01*
X89734914Y-77482695D01*
X89756451Y-77456451D01*
X89782695Y-77434914D01*
X89812640Y-77418907D01*
X89845121Y-77409054D01*
X89886286Y-77405000D01*
X90963714Y-77405000D01*
X91004879Y-77409054D01*
G37*
G36*
X104507500Y-76582180D02*
G01*
X104508222Y-76596883D01*
X104510499Y-76620000D01*
X104508222Y-76643117D01*
X104507500Y-76657820D01*
X104507500Y-76722299D01*
X104501996Y-76732597D01*
X104497037Y-76746457D01*
X104463076Y-76858412D01*
X104405506Y-76966119D01*
X104328027Y-77060527D01*
X104233619Y-77138006D01*
X104125912Y-77195576D01*
X104009044Y-77231028D01*
X103940722Y-77237757D01*
X103917949Y-77240000D01*
X103157051Y-77240000D01*
X103134278Y-77237757D01*
X103065956Y-77231028D01*
X102949088Y-77195576D01*
X102841381Y-77138006D01*
X102746973Y-77060527D01*
X102669494Y-76966119D01*
X102611924Y-76858412D01*
X102577963Y-76746457D01*
X102567500Y-76721196D01*
X102567500Y-76657820D01*
X102566778Y-76643117D01*
X102564501Y-76620000D01*
X102566778Y-76596883D01*
X102567500Y-76582180D01*
X102567500Y-75400000D01*
X104507500Y-75400000D01*
X104507500Y-76582180D01*
G37*
G36*
X101054810Y-69903630D02*
G01*
X101190388Y-69959788D01*
X101190390Y-69959789D01*
X101310782Y-70040233D01*
X101312413Y-70041323D01*
X101416177Y-70145087D01*
X101416179Y-70145090D01*
X101473602Y-70231028D01*
X101497712Y-70267112D01*
X101553870Y-70402690D01*
X101582500Y-70546624D01*
X101582500Y-70693376D01*
X101553870Y-70837310D01*
X101498651Y-70970620D01*
X101497711Y-70972890D01*
X101437411Y-71063135D01*
X101416177Y-71094913D01*
X101312413Y-71198677D01*
X101312410Y-71198679D01*
X101190390Y-71280211D01*
X101115044Y-71311420D01*
X101089111Y-71325281D01*
X101066381Y-71343936D01*
X101047726Y-71366666D01*
X101033865Y-71392599D01*
X101025329Y-71420738D01*
X101022447Y-71450001D01*
X101025329Y-71479264D01*
X101033865Y-71507403D01*
X101047726Y-71533336D01*
X101066381Y-71556066D01*
X101089111Y-71574721D01*
X101115044Y-71588582D01*
X101143183Y-71597118D01*
X101172446Y-71600000D01*
X101532500Y-71600000D01*
X101532500Y-74640000D01*
X101172446Y-74640000D01*
X101143183Y-74642882D01*
X101115044Y-74651418D01*
X101089111Y-74665279D01*
X101066381Y-74683934D01*
X101047726Y-74706664D01*
X101033865Y-74732597D01*
X101025329Y-74760736D01*
X101022447Y-74789999D01*
X101025329Y-74819262D01*
X101033865Y-74847401D01*
X101047726Y-74873334D01*
X101066381Y-74896064D01*
X101089111Y-74914719D01*
X101115043Y-74928580D01*
X101190390Y-74959789D01*
X101311998Y-75041046D01*
X101312413Y-75041323D01*
X101416177Y-75145087D01*
X101497712Y-75267112D01*
X101552756Y-75400000D01*
X101553870Y-75402691D01*
X101582500Y-75546624D01*
X101582500Y-75693376D01*
X101553870Y-75837309D01*
X101497711Y-75972890D01*
X101449913Y-76044424D01*
X101416177Y-76094913D01*
X101312413Y-76198677D01*
X101312410Y-76198679D01*
X101190390Y-76280211D01*
X101190389Y-76280212D01*
X101190388Y-76280212D01*
X101054810Y-76336370D01*
X100910876Y-76365000D01*
X100764124Y-76365000D01*
X100620190Y-76336370D01*
X100484612Y-76280212D01*
X100484611Y-76280212D01*
X100484610Y-76280211D01*
X100362590Y-76198679D01*
X100362587Y-76198677D01*
X100258823Y-76094913D01*
X100225087Y-76044424D01*
X100177289Y-75972890D01*
X100121130Y-75837309D01*
X100092500Y-75693376D01*
X100092500Y-75546624D01*
X100121130Y-75402691D01*
X100122245Y-75400000D01*
X100177288Y-75267112D01*
X100258823Y-75145087D01*
X100362587Y-75041323D01*
X100363002Y-75041046D01*
X100484610Y-74959789D01*
X100559957Y-74928580D01*
X100585889Y-74914719D01*
X100608619Y-74896064D01*
X100627274Y-74873334D01*
X100641135Y-74847401D01*
X100649671Y-74819262D01*
X100652553Y-74789999D01*
X100649671Y-74760736D01*
X100641135Y-74732597D01*
X100627274Y-74706664D01*
X100608619Y-74683934D01*
X100585889Y-74665279D01*
X100559956Y-74651418D01*
X100531817Y-74642882D01*
X100502554Y-74640000D01*
X100142500Y-74640000D01*
X100142500Y-71600000D01*
X100502554Y-71600000D01*
X100531817Y-71597118D01*
X100559956Y-71588582D01*
X100585889Y-71574721D01*
X100608619Y-71556066D01*
X100627274Y-71533336D01*
X100641135Y-71507403D01*
X100649671Y-71479264D01*
X100652553Y-71450001D01*
X100649671Y-71420738D01*
X100641135Y-71392599D01*
X100627274Y-71366666D01*
X100608619Y-71343936D01*
X100585889Y-71325281D01*
X100559956Y-71311420D01*
X100484610Y-71280211D01*
X100362590Y-71198679D01*
X100362587Y-71198677D01*
X100258823Y-71094913D01*
X100237589Y-71063135D01*
X100177289Y-70972890D01*
X100176349Y-70970620D01*
X100121130Y-70837310D01*
X100092500Y-70693376D01*
X100092500Y-70546624D01*
X100121130Y-70402690D01*
X100177288Y-70267112D01*
X100201399Y-70231028D01*
X100258821Y-70145090D01*
X100258823Y-70145087D01*
X100362587Y-70041323D01*
X100364218Y-70040233D01*
X100484610Y-69959789D01*
X100484612Y-69959788D01*
X100620190Y-69903630D01*
X100764124Y-69875000D01*
X100910876Y-69875000D01*
X101054810Y-69903630D01*
G37*
G36*
X104507500Y-74890000D02*
G01*
X102567500Y-74890000D01*
X102567500Y-73350000D01*
X104507500Y-73350000D01*
X104507500Y-74890000D01*
G37*
G36*
X91950000Y-73795000D02*
G01*
X90350000Y-73795000D01*
X90350000Y-71205000D01*
X91950000Y-71205000D01*
X91950000Y-73795000D01*
G37*
G36*
X94650000Y-73795000D02*
G01*
X93050000Y-73795000D01*
X93050000Y-71205000D01*
X94650000Y-71205000D01*
X94650000Y-73795000D01*
G37*
G36*
X73921964Y-71621030D02*
G01*
X73954445Y-71630883D01*
X73984390Y-71646890D01*
X74016359Y-71673126D01*
X74601442Y-72258209D01*
X74627678Y-72290178D01*
X74643685Y-72320123D01*
X74653538Y-72352604D01*
X74656866Y-72386396D01*
X74653538Y-72420188D01*
X74643685Y-72452669D01*
X74627678Y-72482614D01*
X74601442Y-72514583D01*
X73839583Y-73276442D01*
X73807614Y-73302678D01*
X73777669Y-73318685D01*
X73745188Y-73328538D01*
X73711396Y-73331866D01*
X73677604Y-73328538D01*
X73645123Y-73318685D01*
X73615178Y-73302678D01*
X73583209Y-73276442D01*
X72998126Y-72691359D01*
X72971890Y-72659390D01*
X72955883Y-72629445D01*
X72946030Y-72596964D01*
X72942702Y-72563172D01*
X72946030Y-72529380D01*
X72955883Y-72496899D01*
X72971890Y-72466954D01*
X72998126Y-72434985D01*
X73759985Y-71673126D01*
X73791954Y-71646890D01*
X73821899Y-71630883D01*
X73854380Y-71621030D01*
X73888172Y-71617702D01*
X73921964Y-71621030D01*
G37*
G36*
X104507500Y-72890000D02*
G01*
X102567500Y-72890000D01*
X102567500Y-71350000D01*
X104507500Y-71350000D01*
X104507500Y-72890000D01*
G37*
G36*
X72472396Y-70171462D02*
G01*
X72504877Y-70181315D01*
X72534822Y-70197322D01*
X72566791Y-70223558D01*
X73151874Y-70808641D01*
X73178110Y-70840610D01*
X73194117Y-70870555D01*
X73203970Y-70903036D01*
X73207298Y-70936828D01*
X73203970Y-70970620D01*
X73194117Y-71003101D01*
X73178110Y-71033046D01*
X73151874Y-71065015D01*
X72390015Y-71826874D01*
X72358046Y-71853110D01*
X72328101Y-71869117D01*
X72295620Y-71878970D01*
X72261828Y-71882298D01*
X72228036Y-71878970D01*
X72195555Y-71869117D01*
X72165610Y-71853110D01*
X72133641Y-71826874D01*
X71548558Y-71241791D01*
X71522322Y-71209822D01*
X71506315Y-71179877D01*
X71496462Y-71147396D01*
X71493134Y-71113604D01*
X71496462Y-71079812D01*
X71506315Y-71047331D01*
X71522322Y-71017386D01*
X71548558Y-70985417D01*
X72310417Y-70223558D01*
X72342386Y-70197322D01*
X72372331Y-70181315D01*
X72404812Y-70171462D01*
X72438604Y-70168134D01*
X72472396Y-70171462D01*
G37*
G36*
X103940722Y-69002243D02*
G01*
X104009044Y-69008972D01*
X104125912Y-69044424D01*
X104233619Y-69101994D01*
X104328027Y-69179473D01*
X104405506Y-69273881D01*
X104463076Y-69381588D01*
X104497037Y-69493543D01*
X104507500Y-69518804D01*
X104507500Y-69582180D01*
X104508222Y-69596883D01*
X104510499Y-69620000D01*
X104508222Y-69643117D01*
X104507500Y-69657820D01*
X104507500Y-70840000D01*
X102567500Y-70840000D01*
X102567500Y-69657820D01*
X102566778Y-69643117D01*
X102564501Y-69620000D01*
X102566778Y-69596883D01*
X102567500Y-69582180D01*
X102567500Y-69517701D01*
X102573004Y-69507403D01*
X102577963Y-69493543D01*
X102611924Y-69381588D01*
X102669494Y-69273881D01*
X102746973Y-69179473D01*
X102841381Y-69101994D01*
X102949088Y-69044424D01*
X103065956Y-69008972D01*
X103134278Y-69002243D01*
X103157051Y-69000000D01*
X103917949Y-69000000D01*
X103940722Y-69002243D01*
G37*
G36*
X91104879Y-65409054D02*
G01*
X91137360Y-65418907D01*
X91167305Y-65434914D01*
X91193549Y-65456451D01*
X91215086Y-65482695D01*
X91231093Y-65512640D01*
X91240946Y-65545121D01*
X91245000Y-65586286D01*
X91245000Y-66663714D01*
X91240946Y-66704879D01*
X91231093Y-66737360D01*
X91215086Y-66767305D01*
X91193549Y-66793549D01*
X91167305Y-66815086D01*
X91137360Y-66831093D01*
X91104879Y-66840946D01*
X91063714Y-66845000D01*
X90236286Y-66845000D01*
X90195121Y-66840946D01*
X90162640Y-66831093D01*
X90132695Y-66815086D01*
X90106451Y-66793549D01*
X90084914Y-66767305D01*
X90068907Y-66737360D01*
X90059054Y-66704879D01*
X90055000Y-66663714D01*
X90055000Y-65586286D01*
X90059054Y-65545121D01*
X90068907Y-65512640D01*
X90084914Y-65482695D01*
X90106451Y-65456451D01*
X90132695Y-65434914D01*
X90162640Y-65418907D01*
X90195121Y-65409054D01*
X90236286Y-65405000D01*
X91063714Y-65405000D01*
X91104879Y-65409054D01*
G37*
G36*
X89054879Y-65409054D02*
G01*
X89087360Y-65418907D01*
X89117305Y-65434914D01*
X89143549Y-65456451D01*
X89165086Y-65482695D01*
X89181093Y-65512640D01*
X89190946Y-65545121D01*
X89195000Y-65586286D01*
X89195000Y-66663714D01*
X89190946Y-66704879D01*
X89181093Y-66737360D01*
X89165086Y-66767305D01*
X89143549Y-66793549D01*
X89117305Y-66815086D01*
X89087360Y-66831093D01*
X89054879Y-66840946D01*
X89013714Y-66845000D01*
X88186286Y-66845000D01*
X88145121Y-66840946D01*
X88112640Y-66831093D01*
X88082695Y-66815086D01*
X88056451Y-66793549D01*
X88034914Y-66767305D01*
X88018907Y-66737360D01*
X88009054Y-66704879D01*
X88005000Y-66663714D01*
X88005000Y-65586286D01*
X88009054Y-65545121D01*
X88018907Y-65512640D01*
X88034914Y-65482695D01*
X88056451Y-65456451D01*
X88082695Y-65434914D01*
X88112640Y-65418907D01*
X88145121Y-65409054D01*
X88186286Y-65405000D01*
X89013714Y-65405000D01*
X89054879Y-65409054D01*
G37*
G36*
X75579879Y-64409054D02*
G01*
X75612360Y-64418907D01*
X75642305Y-64434914D01*
X75668549Y-64456451D01*
X75690086Y-64482695D01*
X75706093Y-64512640D01*
X75715946Y-64545121D01*
X75720000Y-64586286D01*
X75720000Y-65413714D01*
X75715946Y-65454879D01*
X75706093Y-65487360D01*
X75690086Y-65517305D01*
X75668549Y-65543549D01*
X75642305Y-65565086D01*
X75612360Y-65581093D01*
X75579879Y-65590946D01*
X75538714Y-65595000D01*
X74461286Y-65595000D01*
X74420121Y-65590946D01*
X74387640Y-65581093D01*
X74357695Y-65565086D01*
X74331451Y-65543549D01*
X74309914Y-65517305D01*
X74293907Y-65487360D01*
X74284054Y-65454879D01*
X74280000Y-65413714D01*
X74280000Y-64586286D01*
X74284054Y-64545121D01*
X74293907Y-64512640D01*
X74309914Y-64482695D01*
X74331451Y-64456451D01*
X74357695Y-64434914D01*
X74387640Y-64418907D01*
X74420121Y-64409054D01*
X74461286Y-64405000D01*
X75538714Y-64405000D01*
X75579879Y-64409054D01*
G37*
G36*
X93420000Y-65120000D02*
G01*
X92080000Y-65120000D01*
X92080000Y-63080000D01*
X93420000Y-63080000D01*
X93420000Y-65120000D01*
G37*
G36*
X97920000Y-65120000D02*
G01*
X96580000Y-65120000D01*
X96580000Y-63080000D01*
X97920000Y-63080000D01*
X97920000Y-65120000D01*
G37*
G36*
X103919879Y-63194054D02*
G01*
X103952360Y-63203907D01*
X103982305Y-63219914D01*
X104008549Y-63241451D01*
X104030086Y-63267695D01*
X104046093Y-63297640D01*
X104055946Y-63330121D01*
X104060000Y-63371286D01*
X104060000Y-64448714D01*
X104055946Y-64489879D01*
X104046093Y-64522360D01*
X104030086Y-64552305D01*
X104008549Y-64578549D01*
X103982305Y-64600086D01*
X103952360Y-64616093D01*
X103919879Y-64625946D01*
X103878714Y-64630000D01*
X103051286Y-64630000D01*
X103010121Y-64625946D01*
X102977640Y-64616093D01*
X102947695Y-64600086D01*
X102921451Y-64578549D01*
X102899914Y-64552305D01*
X102883907Y-64522360D01*
X102874054Y-64489879D01*
X102870000Y-64448714D01*
X102870000Y-63371286D01*
X102874054Y-63330121D01*
X102883907Y-63297640D01*
X102899914Y-63267695D01*
X102921451Y-63241451D01*
X102947695Y-63219914D01*
X102977640Y-63203907D01*
X103010121Y-63194054D01*
X103051286Y-63190000D01*
X103878714Y-63190000D01*
X103919879Y-63194054D01*
G37*
G36*
X101869879Y-63194054D02*
G01*
X101902360Y-63203907D01*
X101932305Y-63219914D01*
X101958549Y-63241451D01*
X101980086Y-63267695D01*
X101996093Y-63297640D01*
X102005946Y-63330121D01*
X102010000Y-63371286D01*
X102010000Y-64448714D01*
X102005946Y-64489879D01*
X101996093Y-64522360D01*
X101980086Y-64552305D01*
X101958549Y-64578549D01*
X101932305Y-64600086D01*
X101902360Y-64616093D01*
X101869879Y-64625946D01*
X101828714Y-64630000D01*
X101001286Y-64630000D01*
X100960121Y-64625946D01*
X100927640Y-64616093D01*
X100897695Y-64600086D01*
X100871451Y-64578549D01*
X100849914Y-64552305D01*
X100833907Y-64522360D01*
X100824054Y-64489879D01*
X100820000Y-64448714D01*
X100820000Y-63371286D01*
X100824054Y-63330121D01*
X100833907Y-63297640D01*
X100849914Y-63267695D01*
X100871451Y-63241451D01*
X100897695Y-63219914D01*
X100927640Y-63203907D01*
X100960121Y-63194054D01*
X101001286Y-63190000D01*
X101828714Y-63190000D01*
X101869879Y-63194054D01*
G37*
G36*
X75579879Y-62359054D02*
G01*
X75612360Y-62368907D01*
X75642305Y-62384914D01*
X75668549Y-62406451D01*
X75690086Y-62432695D01*
X75706093Y-62462640D01*
X75715946Y-62495121D01*
X75720000Y-62536286D01*
X75720000Y-63363714D01*
X75715946Y-63404879D01*
X75706093Y-63437360D01*
X75690086Y-63467305D01*
X75668549Y-63493549D01*
X75642305Y-63515086D01*
X75612360Y-63531093D01*
X75579879Y-63540946D01*
X75538714Y-63545000D01*
X74461286Y-63545000D01*
X74420121Y-63540946D01*
X74387640Y-63531093D01*
X74357695Y-63515086D01*
X74331451Y-63493549D01*
X74309914Y-63467305D01*
X74293907Y-63437360D01*
X74284054Y-63404879D01*
X74280000Y-63363714D01*
X74280000Y-62536286D01*
X74284054Y-62495121D01*
X74293907Y-62462640D01*
X74309914Y-62432695D01*
X74331451Y-62406451D01*
X74357695Y-62384914D01*
X74387640Y-62368907D01*
X74420121Y-62359054D01*
X74461286Y-62355000D01*
X75538714Y-62355000D01*
X75579879Y-62359054D01*
G37*
G36*
X81070620Y-60946030D02*
G01*
X81103101Y-60955883D01*
X81133046Y-60971890D01*
X81165015Y-60998126D01*
X81926874Y-61759985D01*
X81953110Y-61791954D01*
X81969117Y-61821899D01*
X81978970Y-61854380D01*
X81982298Y-61888172D01*
X81978970Y-61921964D01*
X81969117Y-61954445D01*
X81953110Y-61984390D01*
X81926874Y-62016359D01*
X81341791Y-62601442D01*
X81309822Y-62627678D01*
X81279877Y-62643685D01*
X81247396Y-62653538D01*
X81213604Y-62656866D01*
X81179812Y-62653538D01*
X81147331Y-62643685D01*
X81117386Y-62627678D01*
X81085417Y-62601442D01*
X80323558Y-61839583D01*
X80297322Y-61807614D01*
X80281315Y-61777669D01*
X80271462Y-61745188D01*
X80268134Y-61711396D01*
X80271462Y-61677604D01*
X80281315Y-61645123D01*
X80297322Y-61615178D01*
X80323558Y-61583209D01*
X80908641Y-60998126D01*
X80940610Y-60971890D01*
X80970555Y-60955883D01*
X81003036Y-60946030D01*
X81036828Y-60942702D01*
X81070620Y-60946030D01*
G37*
G36*
X82520188Y-59496462D02*
G01*
X82552669Y-59506315D01*
X82582614Y-59522322D01*
X82614583Y-59548558D01*
X83376442Y-60310417D01*
X83402678Y-60342386D01*
X83418685Y-60372331D01*
X83428538Y-60404812D01*
X83431866Y-60438604D01*
X83428538Y-60472396D01*
X83418685Y-60504877D01*
X83402678Y-60534822D01*
X83376442Y-60566791D01*
X82791359Y-61151874D01*
X82759390Y-61178110D01*
X82729445Y-61194117D01*
X82696964Y-61203970D01*
X82663172Y-61207298D01*
X82629380Y-61203970D01*
X82596899Y-61194117D01*
X82566954Y-61178110D01*
X82534985Y-61151874D01*
X81773126Y-60390015D01*
X81746890Y-60358046D01*
X81730883Y-60328101D01*
X81721030Y-60295620D01*
X81717702Y-60261828D01*
X81721030Y-60228036D01*
X81730883Y-60195555D01*
X81746890Y-60165610D01*
X81773126Y-60133641D01*
X82358209Y-59548558D01*
X82390178Y-59522322D01*
X82420123Y-59506315D01*
X82452604Y-59496462D01*
X82486396Y-59493134D01*
X82520188Y-59496462D01*
G37*
G36*
X86474261Y-53847993D02*
G01*
X86475999Y-53848520D01*
X86477604Y-53849378D01*
X86484732Y-53855228D01*
X87531436Y-54901932D01*
X87537286Y-54909060D01*
X87538144Y-54910665D01*
X87538671Y-54912403D01*
X87538849Y-54914213D01*
X87538671Y-54916023D01*
X87538144Y-54917761D01*
X87537286Y-54919366D01*
X87531436Y-54926494D01*
X87315582Y-55142348D01*
X87308454Y-55148198D01*
X87306849Y-55149056D01*
X87292310Y-55153466D01*
X87289509Y-55154024D01*
X87262345Y-55165283D01*
X87237900Y-55181626D01*
X87217113Y-55202423D01*
X87200782Y-55226876D01*
X87189536Y-55254046D01*
X87188979Y-55256844D01*
X87184590Y-55271315D01*
X87183732Y-55272920D01*
X87177882Y-55280048D01*
X86962028Y-55495902D01*
X86954900Y-55501752D01*
X86953295Y-55502610D01*
X86938746Y-55507023D01*
X86935946Y-55507581D01*
X86908783Y-55518842D01*
X86884339Y-55535186D01*
X86863553Y-55555985D01*
X86847224Y-55580440D01*
X86835980Y-55607610D01*
X86835424Y-55610405D01*
X86831037Y-55624868D01*
X86830179Y-55626473D01*
X86824329Y-55633601D01*
X86608475Y-55849455D01*
X86601347Y-55855305D01*
X86599742Y-55856163D01*
X86585203Y-55860573D01*
X86582402Y-55861131D01*
X86555238Y-55872390D01*
X86530793Y-55888733D01*
X86510006Y-55909530D01*
X86493675Y-55933983D01*
X86482429Y-55961153D01*
X86481872Y-55963951D01*
X86477483Y-55978422D01*
X86476625Y-55980027D01*
X86470775Y-55987155D01*
X86254921Y-56203009D01*
X86247793Y-56208859D01*
X86246188Y-56209717D01*
X86231639Y-56214130D01*
X86228839Y-56214688D01*
X86201676Y-56225949D01*
X86177232Y-56242293D01*
X86156446Y-56263092D01*
X86140117Y-56287547D01*
X86128873Y-56314717D01*
X86128317Y-56317512D01*
X86123930Y-56331975D01*
X86123072Y-56333580D01*
X86117222Y-56340708D01*
X85901368Y-56556562D01*
X85894240Y-56562412D01*
X85892635Y-56563270D01*
X85878086Y-56567683D01*
X85875286Y-56568241D01*
X85848123Y-56579502D01*
X85823679Y-56595846D01*
X85802893Y-56616645D01*
X85786564Y-56641100D01*
X85775320Y-56668270D01*
X85774764Y-56671065D01*
X85770377Y-56685528D01*
X85769519Y-56687133D01*
X85763669Y-56694261D01*
X85547815Y-56910115D01*
X85540687Y-56915965D01*
X85539082Y-56916823D01*
X85524543Y-56921233D01*
X85521742Y-56921791D01*
X85494578Y-56933050D01*
X85470133Y-56949393D01*
X85449346Y-56970190D01*
X85433015Y-56994643D01*
X85421769Y-57021813D01*
X85421212Y-57024611D01*
X85416823Y-57039082D01*
X85415965Y-57040687D01*
X85410115Y-57047815D01*
X85194261Y-57263669D01*
X85187133Y-57269519D01*
X85185528Y-57270377D01*
X85170979Y-57274790D01*
X85168179Y-57275348D01*
X85141016Y-57286609D01*
X85116572Y-57302953D01*
X85095786Y-57323752D01*
X85079457Y-57348207D01*
X85068213Y-57375377D01*
X85067657Y-57378172D01*
X85063270Y-57392635D01*
X85062412Y-57394240D01*
X85056562Y-57401368D01*
X84840708Y-57617222D01*
X84833580Y-57623072D01*
X84831975Y-57623930D01*
X84817426Y-57628343D01*
X84814626Y-57628901D01*
X84787463Y-57640162D01*
X84763019Y-57656506D01*
X84742233Y-57677305D01*
X84725904Y-57701760D01*
X84714660Y-57728930D01*
X84714104Y-57731725D01*
X84709717Y-57746188D01*
X84708859Y-57747793D01*
X84703009Y-57754921D01*
X84487155Y-57970775D01*
X84480027Y-57976625D01*
X84478422Y-57977483D01*
X84463883Y-57981893D01*
X84461082Y-57982451D01*
X84433918Y-57993710D01*
X84409473Y-58010053D01*
X84388686Y-58030850D01*
X84372355Y-58055303D01*
X84361109Y-58082473D01*
X84360552Y-58085271D01*
X84356163Y-58099742D01*
X84355305Y-58101347D01*
X84349455Y-58108475D01*
X84133601Y-58324329D01*
X84126473Y-58330179D01*
X84124868Y-58331037D01*
X84110319Y-58335450D01*
X84107519Y-58336008D01*
X84080356Y-58347269D01*
X84055912Y-58363613D01*
X84035126Y-58384412D01*
X84018797Y-58408867D01*
X84007553Y-58436037D01*
X84006997Y-58438832D01*
X84002610Y-58453295D01*
X84001752Y-58454900D01*
X83995902Y-58462028D01*
X83780048Y-58677882D01*
X83772920Y-58683732D01*
X83771315Y-58684590D01*
X83756776Y-58689000D01*
X83753975Y-58689558D01*
X83726811Y-58700817D01*
X83702366Y-58717160D01*
X83681579Y-58737957D01*
X83665248Y-58762410D01*
X83654002Y-58789580D01*
X83653445Y-58792378D01*
X83649056Y-58806849D01*
X83648198Y-58808454D01*
X83642348Y-58815582D01*
X83426494Y-59031436D01*
X83419366Y-59037286D01*
X83417761Y-59038144D01*
X83416023Y-59038671D01*
X83414213Y-59038849D01*
X83412403Y-59038671D01*
X83410665Y-59038144D01*
X83409060Y-59037286D01*
X83401932Y-59031436D01*
X82355228Y-57984732D01*
X82349378Y-57977604D01*
X82348520Y-57975999D01*
X82347993Y-57974261D01*
X82347815Y-57972451D01*
X82347993Y-57970641D01*
X82348520Y-57968903D01*
X82349378Y-57967298D01*
X82355228Y-57960170D01*
X82571082Y-57744316D01*
X82578210Y-57738466D01*
X82579815Y-57737608D01*
X82594354Y-57733198D01*
X82597155Y-57732640D01*
X82624319Y-57721381D01*
X82648764Y-57705038D01*
X82669551Y-57684241D01*
X82685882Y-57659788D01*
X82697128Y-57632618D01*
X82697685Y-57629820D01*
X82702074Y-57615349D01*
X82702932Y-57613744D01*
X82708782Y-57606616D01*
X82924636Y-57390762D01*
X82931764Y-57384912D01*
X82933369Y-57384054D01*
X82947918Y-57379641D01*
X82950718Y-57379083D01*
X82977881Y-57367822D01*
X83002325Y-57351478D01*
X83023111Y-57330679D01*
X83039440Y-57306224D01*
X83050684Y-57279054D01*
X83051240Y-57276259D01*
X83055627Y-57261796D01*
X83056485Y-57260191D01*
X83062335Y-57253063D01*
X83278189Y-57037209D01*
X83285317Y-57031359D01*
X83286922Y-57030501D01*
X83301461Y-57026091D01*
X83304262Y-57025533D01*
X83331426Y-57014274D01*
X83355871Y-56997931D01*
X83376658Y-56977134D01*
X83392989Y-56952681D01*
X83404235Y-56925511D01*
X83404792Y-56922713D01*
X83409181Y-56908242D01*
X83410039Y-56906637D01*
X83415889Y-56899509D01*
X83631743Y-56683655D01*
X83638871Y-56677805D01*
X83640476Y-56676947D01*
X83655025Y-56672534D01*
X83657825Y-56671976D01*
X83684988Y-56660715D01*
X83709432Y-56644371D01*
X83730218Y-56623572D01*
X83746547Y-56599117D01*
X83757791Y-56571947D01*
X83758347Y-56569152D01*
X83762734Y-56554689D01*
X83763592Y-56553084D01*
X83769442Y-56545956D01*
X83985296Y-56330102D01*
X83992424Y-56324252D01*
X83994029Y-56323394D01*
X84008578Y-56318981D01*
X84011378Y-56318423D01*
X84038541Y-56307162D01*
X84062985Y-56290818D01*
X84083771Y-56270019D01*
X84100100Y-56245564D01*
X84111344Y-56218394D01*
X84111900Y-56215599D01*
X84116287Y-56201136D01*
X84117145Y-56199531D01*
X84122995Y-56192403D01*
X84338849Y-55976549D01*
X84345977Y-55970699D01*
X84347582Y-55969841D01*
X84362121Y-55965431D01*
X84364922Y-55964873D01*
X84392086Y-55953614D01*
X84416531Y-55937271D01*
X84437318Y-55916474D01*
X84453649Y-55892021D01*
X84464895Y-55864851D01*
X84465452Y-55862053D01*
X84469841Y-55847582D01*
X84470699Y-55845977D01*
X84476549Y-55838849D01*
X84692403Y-55622995D01*
X84699531Y-55617145D01*
X84701136Y-55616287D01*
X84715685Y-55611874D01*
X84718485Y-55611316D01*
X84745648Y-55600055D01*
X84770092Y-55583711D01*
X84790878Y-55562912D01*
X84807207Y-55538457D01*
X84818451Y-55511287D01*
X84819007Y-55508492D01*
X84823394Y-55494029D01*
X84824252Y-55492424D01*
X84830102Y-55485296D01*
X85045956Y-55269442D01*
X85053084Y-55263592D01*
X85054689Y-55262734D01*
X85069238Y-55258321D01*
X85072038Y-55257763D01*
X85099201Y-55246502D01*
X85123645Y-55230158D01*
X85144431Y-55209359D01*
X85160760Y-55184904D01*
X85172004Y-55157734D01*
X85172560Y-55154939D01*
X85176947Y-55140476D01*
X85177805Y-55138871D01*
X85183655Y-55131743D01*
X85399509Y-54915889D01*
X85406637Y-54910039D01*
X85408242Y-54909181D01*
X85422781Y-54904771D01*
X85425582Y-54904213D01*
X85452746Y-54892954D01*
X85477191Y-54876611D01*
X85497978Y-54855814D01*
X85514309Y-54831361D01*
X85525555Y-54804191D01*
X85526112Y-54801393D01*
X85530501Y-54786922D01*
X85531359Y-54785317D01*
X85537209Y-54778189D01*
X85753063Y-54562335D01*
X85760191Y-54556485D01*
X85761796Y-54555627D01*
X85776345Y-54551214D01*
X85779145Y-54550656D01*
X85806308Y-54539395D01*
X85830752Y-54523051D01*
X85851538Y-54502252D01*
X85867867Y-54477797D01*
X85879111Y-54450627D01*
X85879667Y-54447832D01*
X85884054Y-54433369D01*
X85884912Y-54431764D01*
X85890762Y-54424636D01*
X86106616Y-54208782D01*
X86113744Y-54202932D01*
X86115349Y-54202074D01*
X86129888Y-54197664D01*
X86132689Y-54197106D01*
X86159853Y-54185847D01*
X86184298Y-54169504D01*
X86205085Y-54148707D01*
X86221416Y-54124254D01*
X86232662Y-54097084D01*
X86233219Y-54094286D01*
X86237608Y-54079815D01*
X86238466Y-54078210D01*
X86244316Y-54071082D01*
X86460170Y-53855228D01*
X86467298Y-53849378D01*
X86468903Y-53848520D01*
X86470641Y-53847993D01*
X86472451Y-53847815D01*
X86474261Y-53847993D01*
G37*
G36*
X77529359Y-53847993D02*
G01*
X77531097Y-53848520D01*
X77532702Y-53849378D01*
X77539830Y-53855228D01*
X77755684Y-54071082D01*
X77761534Y-54078210D01*
X77762392Y-54079815D01*
X77766802Y-54094354D01*
X77767360Y-54097155D01*
X77778619Y-54124319D01*
X77794962Y-54148764D01*
X77815759Y-54169551D01*
X77840212Y-54185882D01*
X77867382Y-54197128D01*
X77870180Y-54197685D01*
X77884651Y-54202074D01*
X77886256Y-54202932D01*
X77893384Y-54208782D01*
X78109238Y-54424636D01*
X78115088Y-54431764D01*
X78115946Y-54433369D01*
X78120359Y-54447918D01*
X78120917Y-54450718D01*
X78132178Y-54477881D01*
X78148522Y-54502325D01*
X78169321Y-54523111D01*
X78193776Y-54539440D01*
X78220946Y-54550684D01*
X78223741Y-54551240D01*
X78238204Y-54555627D01*
X78239809Y-54556485D01*
X78246937Y-54562335D01*
X78462791Y-54778189D01*
X78468641Y-54785317D01*
X78469499Y-54786922D01*
X78473909Y-54801461D01*
X78474467Y-54804262D01*
X78485726Y-54831426D01*
X78502069Y-54855871D01*
X78522866Y-54876658D01*
X78547319Y-54892989D01*
X78574489Y-54904235D01*
X78577287Y-54904792D01*
X78591758Y-54909181D01*
X78593363Y-54910039D01*
X78600491Y-54915889D01*
X78816345Y-55131743D01*
X78822195Y-55138871D01*
X78823053Y-55140476D01*
X78827466Y-55155025D01*
X78828024Y-55157825D01*
X78839285Y-55184988D01*
X78855629Y-55209432D01*
X78876428Y-55230218D01*
X78900883Y-55246547D01*
X78928053Y-55257791D01*
X78930848Y-55258347D01*
X78945311Y-55262734D01*
X78946916Y-55263592D01*
X78954044Y-55269442D01*
X79169898Y-55485296D01*
X79175748Y-55492424D01*
X79176606Y-55494029D01*
X79181019Y-55508578D01*
X79181577Y-55511378D01*
X79192838Y-55538541D01*
X79209182Y-55562985D01*
X79229981Y-55583771D01*
X79254436Y-55600100D01*
X79281606Y-55611344D01*
X79284401Y-55611900D01*
X79298864Y-55616287D01*
X79300469Y-55617145D01*
X79307597Y-55622995D01*
X79523451Y-55838849D01*
X79529301Y-55845977D01*
X79530159Y-55847582D01*
X79534569Y-55862121D01*
X79535127Y-55864922D01*
X79546386Y-55892086D01*
X79562729Y-55916531D01*
X79583526Y-55937318D01*
X79607979Y-55953649D01*
X79635149Y-55964895D01*
X79637947Y-55965452D01*
X79652418Y-55969841D01*
X79654023Y-55970699D01*
X79661151Y-55976549D01*
X79877005Y-56192403D01*
X79882855Y-56199531D01*
X79883713Y-56201136D01*
X79888126Y-56215685D01*
X79888684Y-56218485D01*
X79899945Y-56245648D01*
X79916289Y-56270092D01*
X79937088Y-56290878D01*
X79961543Y-56307207D01*
X79988713Y-56318451D01*
X79991508Y-56319007D01*
X80005971Y-56323394D01*
X80007576Y-56324252D01*
X80014704Y-56330102D01*
X80230558Y-56545956D01*
X80236408Y-56553084D01*
X80237266Y-56554689D01*
X80241679Y-56569238D01*
X80242237Y-56572038D01*
X80253498Y-56599201D01*
X80269842Y-56623645D01*
X80290641Y-56644431D01*
X80315096Y-56660760D01*
X80342266Y-56672004D01*
X80345061Y-56672560D01*
X80359524Y-56676947D01*
X80361129Y-56677805D01*
X80368257Y-56683655D01*
X80584111Y-56899509D01*
X80589961Y-56906637D01*
X80590819Y-56908242D01*
X80595229Y-56922781D01*
X80595787Y-56925582D01*
X80607046Y-56952746D01*
X80623389Y-56977191D01*
X80644186Y-56997978D01*
X80668639Y-57014309D01*
X80695809Y-57025555D01*
X80698607Y-57026112D01*
X80713078Y-57030501D01*
X80714683Y-57031359D01*
X80721811Y-57037209D01*
X80937665Y-57253063D01*
X80943515Y-57260191D01*
X80944373Y-57261796D01*
X80948786Y-57276345D01*
X80949344Y-57279145D01*
X80960605Y-57306308D01*
X80976949Y-57330752D01*
X80997748Y-57351538D01*
X81022203Y-57367867D01*
X81049373Y-57379111D01*
X81052168Y-57379667D01*
X81066631Y-57384054D01*
X81068236Y-57384912D01*
X81075364Y-57390762D01*
X81291218Y-57606616D01*
X81297068Y-57613744D01*
X81297926Y-57615349D01*
X81302336Y-57629888D01*
X81302894Y-57632689D01*
X81314153Y-57659853D01*
X81330496Y-57684298D01*
X81351293Y-57705085D01*
X81375746Y-57721416D01*
X81402916Y-57732662D01*
X81405714Y-57733219D01*
X81420185Y-57737608D01*
X81421790Y-57738466D01*
X81428918Y-57744316D01*
X81644772Y-57960170D01*
X81650622Y-57967298D01*
X81651480Y-57968903D01*
X81652007Y-57970641D01*
X81652185Y-57972451D01*
X81652007Y-57974261D01*
X81651480Y-57975999D01*
X81650622Y-57977604D01*
X81644772Y-57984732D01*
X80598068Y-59031436D01*
X80590940Y-59037286D01*
X80589335Y-59038144D01*
X80587597Y-59038671D01*
X80585787Y-59038849D01*
X80583977Y-59038671D01*
X80582239Y-59038144D01*
X80580634Y-59037286D01*
X80573506Y-59031436D01*
X80357652Y-58815582D01*
X80351802Y-58808454D01*
X80350944Y-58806849D01*
X80346534Y-58792310D01*
X80345976Y-58789509D01*
X80334717Y-58762345D01*
X80318374Y-58737900D01*
X80297577Y-58717113D01*
X80273124Y-58700782D01*
X80245954Y-58689536D01*
X80243156Y-58688979D01*
X80228685Y-58684590D01*
X80227080Y-58683732D01*
X80219952Y-58677882D01*
X80004098Y-58462028D01*
X79998248Y-58454900D01*
X79997390Y-58453295D01*
X79992977Y-58438746D01*
X79992419Y-58435946D01*
X79981158Y-58408783D01*
X79964814Y-58384339D01*
X79944015Y-58363553D01*
X79919560Y-58347224D01*
X79892390Y-58335980D01*
X79889595Y-58335424D01*
X79875132Y-58331037D01*
X79873527Y-58330179D01*
X79866399Y-58324329D01*
X79650545Y-58108475D01*
X79644695Y-58101347D01*
X79643837Y-58099742D01*
X79639427Y-58085203D01*
X79638869Y-58082402D01*
X79627610Y-58055238D01*
X79611267Y-58030793D01*
X79590470Y-58010006D01*
X79566017Y-57993675D01*
X79538847Y-57982429D01*
X79536049Y-57981872D01*
X79521578Y-57977483D01*
X79519973Y-57976625D01*
X79512845Y-57970775D01*
X79296991Y-57754921D01*
X79291141Y-57747793D01*
X79290283Y-57746188D01*
X79285870Y-57731639D01*
X79285312Y-57728839D01*
X79274051Y-57701676D01*
X79257707Y-57677232D01*
X79236908Y-57656446D01*
X79212453Y-57640117D01*
X79185283Y-57628873D01*
X79182488Y-57628317D01*
X79168025Y-57623930D01*
X79166420Y-57623072D01*
X79159292Y-57617222D01*
X78943438Y-57401368D01*
X78937588Y-57394240D01*
X78936730Y-57392635D01*
X78932317Y-57378086D01*
X78931759Y-57375286D01*
X78920498Y-57348123D01*
X78904154Y-57323679D01*
X78883355Y-57302893D01*
X78858900Y-57286564D01*
X78831730Y-57275320D01*
X78828935Y-57274764D01*
X78814472Y-57270377D01*
X78812867Y-57269519D01*
X78805739Y-57263669D01*
X78589885Y-57047815D01*
X78584035Y-57040687D01*
X78583177Y-57039082D01*
X78578767Y-57024543D01*
X78578209Y-57021742D01*
X78566950Y-56994578D01*
X78550607Y-56970133D01*
X78529810Y-56949346D01*
X78505357Y-56933015D01*
X78478187Y-56921769D01*
X78475389Y-56921212D01*
X78460918Y-56916823D01*
X78459313Y-56915965D01*
X78452185Y-56910115D01*
X78236331Y-56694261D01*
X78230481Y-56687133D01*
X78229623Y-56685528D01*
X78225210Y-56670979D01*
X78224652Y-56668179D01*
X78213391Y-56641016D01*
X78197047Y-56616572D01*
X78176248Y-56595786D01*
X78151793Y-56579457D01*
X78124623Y-56568213D01*
X78121828Y-56567657D01*
X78107365Y-56563270D01*
X78105760Y-56562412D01*
X78098632Y-56556562D01*
X77882778Y-56340708D01*
X77876928Y-56333580D01*
X77876070Y-56331975D01*
X77871657Y-56317426D01*
X77871099Y-56314626D01*
X77859838Y-56287463D01*
X77843494Y-56263019D01*
X77822695Y-56242233D01*
X77798240Y-56225904D01*
X77771070Y-56214660D01*
X77768275Y-56214104D01*
X77753812Y-56209717D01*
X77752207Y-56208859D01*
X77745079Y-56203009D01*
X77529225Y-55987155D01*
X77523375Y-55980027D01*
X77522517Y-55978422D01*
X77518107Y-55963883D01*
X77517549Y-55961082D01*
X77506290Y-55933918D01*
X77489947Y-55909473D01*
X77469150Y-55888686D01*
X77444697Y-55872355D01*
X77417527Y-55861109D01*
X77414729Y-55860552D01*
X77400258Y-55856163D01*
X77398653Y-55855305D01*
X77391525Y-55849455D01*
X77175671Y-55633601D01*
X77169821Y-55626473D01*
X77168963Y-55624868D01*
X77164550Y-55610319D01*
X77163992Y-55607519D01*
X77152731Y-55580356D01*
X77136387Y-55555912D01*
X77115588Y-55535126D01*
X77091133Y-55518797D01*
X77063963Y-55507553D01*
X77061168Y-55506997D01*
X77046705Y-55502610D01*
X77045100Y-55501752D01*
X77037972Y-55495902D01*
X76822118Y-55280048D01*
X76816268Y-55272920D01*
X76815410Y-55271315D01*
X76811000Y-55256776D01*
X76810442Y-55253975D01*
X76799183Y-55226811D01*
X76782840Y-55202366D01*
X76762043Y-55181579D01*
X76737590Y-55165248D01*
X76710420Y-55154002D01*
X76707622Y-55153445D01*
X76693151Y-55149056D01*
X76691546Y-55148198D01*
X76684418Y-55142348D01*
X76468564Y-54926494D01*
X76462714Y-54919366D01*
X76461856Y-54917761D01*
X76461329Y-54916023D01*
X76461151Y-54914213D01*
X76461329Y-54912403D01*
X76461856Y-54910665D01*
X76462714Y-54909060D01*
X76468564Y-54901932D01*
X77515268Y-53855228D01*
X77522396Y-53849378D01*
X77524001Y-53848520D01*
X77525739Y-53847993D01*
X77527549Y-53847815D01*
X77529359Y-53847993D01*
G37*
G36*
X97920000Y-56920000D02*
G01*
X96580000Y-56920000D01*
X96580000Y-54880000D01*
X97920000Y-54880000D01*
X97920000Y-56920000D01*
G37*
G36*
X93420000Y-56920000D02*
G01*
X92080000Y-56920000D01*
X92080000Y-54880000D01*
X93420000Y-54880000D01*
X93420000Y-56920000D01*
G37*
G36*
X101599879Y-55334054D02*
G01*
X101632360Y-55343907D01*
X101662305Y-55359914D01*
X101688549Y-55381451D01*
X101710086Y-55407695D01*
X101726093Y-55437640D01*
X101735946Y-55470121D01*
X101740000Y-55511286D01*
X101740000Y-56588714D01*
X101735946Y-56629879D01*
X101726093Y-56662360D01*
X101710086Y-56692305D01*
X101688549Y-56718549D01*
X101662305Y-56740086D01*
X101632360Y-56756093D01*
X101599879Y-56765946D01*
X101558714Y-56770000D01*
X100731286Y-56770000D01*
X100690121Y-56765946D01*
X100657640Y-56756093D01*
X100627695Y-56740086D01*
X100601451Y-56718549D01*
X100579914Y-56692305D01*
X100563907Y-56662360D01*
X100554054Y-56629879D01*
X100550000Y-56588714D01*
X100550000Y-55511286D01*
X100554054Y-55470121D01*
X100563907Y-55437640D01*
X100579914Y-55407695D01*
X100601451Y-55381451D01*
X100627695Y-55359914D01*
X100657640Y-55343907D01*
X100690121Y-55334054D01*
X100731286Y-55330000D01*
X101558714Y-55330000D01*
X101599879Y-55334054D01*
G37*
G36*
X103649879Y-55334054D02*
G01*
X103682360Y-55343907D01*
X103712305Y-55359914D01*
X103738549Y-55381451D01*
X103760086Y-55407695D01*
X103776093Y-55437640D01*
X103785946Y-55470121D01*
X103790000Y-55511286D01*
X103790000Y-56588714D01*
X103785946Y-56629879D01*
X103776093Y-56662360D01*
X103760086Y-56692305D01*
X103738549Y-56718549D01*
X103712305Y-56740086D01*
X103682360Y-56756093D01*
X103649879Y-56765946D01*
X103608714Y-56770000D01*
X102781286Y-56770000D01*
X102740121Y-56765946D01*
X102707640Y-56756093D01*
X102677695Y-56740086D01*
X102651451Y-56718549D01*
X102629914Y-56692305D01*
X102613907Y-56662360D01*
X102604054Y-56629879D01*
X102600000Y-56588714D01*
X102600000Y-55511286D01*
X102604054Y-55470121D01*
X102613907Y-55437640D01*
X102629914Y-55407695D01*
X102651451Y-55381451D01*
X102677695Y-55359914D01*
X102707640Y-55343907D01*
X102740121Y-55334054D01*
X102781286Y-55330000D01*
X103608714Y-55330000D01*
X103649879Y-55334054D01*
G37*
G36*
X80587597Y-47961329D02*
G01*
X80589335Y-47961856D01*
X80590940Y-47962714D01*
X80598068Y-47968564D01*
X81644772Y-49015268D01*
X81650622Y-49022396D01*
X81651480Y-49024001D01*
X81652007Y-49025739D01*
X81652185Y-49027549D01*
X81652007Y-49029359D01*
X81651480Y-49031097D01*
X81650622Y-49032702D01*
X81644772Y-49039830D01*
X81428918Y-49255684D01*
X81421790Y-49261534D01*
X81420185Y-49262392D01*
X81405646Y-49266802D01*
X81402845Y-49267360D01*
X81375681Y-49278619D01*
X81351236Y-49294962D01*
X81330449Y-49315759D01*
X81314118Y-49340212D01*
X81302872Y-49367382D01*
X81302315Y-49370180D01*
X81297926Y-49384651D01*
X81297068Y-49386256D01*
X81291218Y-49393384D01*
X81075364Y-49609238D01*
X81068236Y-49615088D01*
X81066631Y-49615946D01*
X81052082Y-49620359D01*
X81049282Y-49620917D01*
X81022119Y-49632178D01*
X80997675Y-49648522D01*
X80976889Y-49669321D01*
X80960560Y-49693776D01*
X80949316Y-49720946D01*
X80948760Y-49723741D01*
X80944373Y-49738204D01*
X80943515Y-49739809D01*
X80937665Y-49746937D01*
X80721811Y-49962791D01*
X80714683Y-49968641D01*
X80713078Y-49969499D01*
X80698539Y-49973909D01*
X80695738Y-49974467D01*
X80668574Y-49985726D01*
X80644129Y-50002069D01*
X80623342Y-50022866D01*
X80607011Y-50047319D01*
X80595765Y-50074489D01*
X80595208Y-50077287D01*
X80590819Y-50091758D01*
X80589961Y-50093363D01*
X80584111Y-50100491D01*
X80368257Y-50316345D01*
X80361129Y-50322195D01*
X80359524Y-50323053D01*
X80344975Y-50327466D01*
X80342175Y-50328024D01*
X80315012Y-50339285D01*
X80290568Y-50355629D01*
X80269782Y-50376428D01*
X80253453Y-50400883D01*
X80242209Y-50428053D01*
X80241653Y-50430848D01*
X80237266Y-50445311D01*
X80236408Y-50446916D01*
X80230558Y-50454044D01*
X80014704Y-50669898D01*
X80007576Y-50675748D01*
X80005971Y-50676606D01*
X79991422Y-50681019D01*
X79988622Y-50681577D01*
X79961459Y-50692838D01*
X79937015Y-50709182D01*
X79916229Y-50729981D01*
X79899900Y-50754436D01*
X79888656Y-50781606D01*
X79888100Y-50784401D01*
X79883713Y-50798864D01*
X79882855Y-50800469D01*
X79877005Y-50807597D01*
X79661151Y-51023451D01*
X79654023Y-51029301D01*
X79652418Y-51030159D01*
X79637879Y-51034569D01*
X79635078Y-51035127D01*
X79607914Y-51046386D01*
X79583469Y-51062729D01*
X79562682Y-51083526D01*
X79546351Y-51107979D01*
X79535105Y-51135149D01*
X79534548Y-51137947D01*
X79530159Y-51152418D01*
X79529301Y-51154023D01*
X79523451Y-51161151D01*
X79307597Y-51377005D01*
X79300469Y-51382855D01*
X79298864Y-51383713D01*
X79284315Y-51388126D01*
X79281515Y-51388684D01*
X79254352Y-51399945D01*
X79229908Y-51416289D01*
X79209122Y-51437088D01*
X79192793Y-51461543D01*
X79181549Y-51488713D01*
X79180993Y-51491508D01*
X79176606Y-51505971D01*
X79175748Y-51507576D01*
X79169898Y-51514704D01*
X78954044Y-51730558D01*
X78946916Y-51736408D01*
X78945311Y-51737266D01*
X78930762Y-51741679D01*
X78927962Y-51742237D01*
X78900799Y-51753498D01*
X78876355Y-51769842D01*
X78855569Y-51790641D01*
X78839240Y-51815096D01*
X78827996Y-51842266D01*
X78827440Y-51845061D01*
X78823053Y-51859524D01*
X78822195Y-51861129D01*
X78816345Y-51868257D01*
X78600491Y-52084111D01*
X78593363Y-52089961D01*
X78591758Y-52090819D01*
X78577219Y-52095229D01*
X78574418Y-52095787D01*
X78547254Y-52107046D01*
X78522809Y-52123389D01*
X78502022Y-52144186D01*
X78485691Y-52168639D01*
X78474445Y-52195809D01*
X78473888Y-52198607D01*
X78469499Y-52213078D01*
X78468641Y-52214683D01*
X78462791Y-52221811D01*
X78246937Y-52437665D01*
X78239809Y-52443515D01*
X78238204Y-52444373D01*
X78223655Y-52448786D01*
X78220855Y-52449344D01*
X78193692Y-52460605D01*
X78169248Y-52476949D01*
X78148462Y-52497748D01*
X78132133Y-52522203D01*
X78120889Y-52549373D01*
X78120333Y-52552168D01*
X78115946Y-52566631D01*
X78115088Y-52568236D01*
X78109238Y-52575364D01*
X77893384Y-52791218D01*
X77886256Y-52797068D01*
X77884651Y-52797926D01*
X77870112Y-52802336D01*
X77867311Y-52802894D01*
X77840147Y-52814153D01*
X77815702Y-52830496D01*
X77794915Y-52851293D01*
X77778584Y-52875746D01*
X77767338Y-52902916D01*
X77766781Y-52905714D01*
X77762392Y-52920185D01*
X77761534Y-52921790D01*
X77755684Y-52928918D01*
X77539830Y-53144772D01*
X77532702Y-53150622D01*
X77531097Y-53151480D01*
X77529359Y-53152007D01*
X77527549Y-53152185D01*
X77525739Y-53152007D01*
X77524001Y-53151480D01*
X77522396Y-53150622D01*
X77515268Y-53144772D01*
X76468564Y-52098068D01*
X76462714Y-52090940D01*
X76461856Y-52089335D01*
X76461329Y-52087597D01*
X76461151Y-52085787D01*
X76461329Y-52083977D01*
X76461856Y-52082239D01*
X76462714Y-52080634D01*
X76468564Y-52073506D01*
X76684418Y-51857652D01*
X76691546Y-51851802D01*
X76693151Y-51850944D01*
X76707690Y-51846534D01*
X76710491Y-51845976D01*
X76737655Y-51834717D01*
X76762100Y-51818374D01*
X76782887Y-51797577D01*
X76799218Y-51773124D01*
X76810464Y-51745954D01*
X76811021Y-51743156D01*
X76815410Y-51728685D01*
X76816268Y-51727080D01*
X76822118Y-51719952D01*
X77037972Y-51504098D01*
X77045100Y-51498248D01*
X77046705Y-51497390D01*
X77061254Y-51492977D01*
X77064054Y-51492419D01*
X77091217Y-51481158D01*
X77115661Y-51464814D01*
X77136447Y-51444015D01*
X77152776Y-51419560D01*
X77164020Y-51392390D01*
X77164576Y-51389595D01*
X77168963Y-51375132D01*
X77169821Y-51373527D01*
X77175671Y-51366399D01*
X77391525Y-51150545D01*
X77398653Y-51144695D01*
X77400258Y-51143837D01*
X77414797Y-51139427D01*
X77417598Y-51138869D01*
X77444762Y-51127610D01*
X77469207Y-51111267D01*
X77489994Y-51090470D01*
X77506325Y-51066017D01*
X77517571Y-51038847D01*
X77518128Y-51036049D01*
X77522517Y-51021578D01*
X77523375Y-51019973D01*
X77529225Y-51012845D01*
X77745079Y-50796991D01*
X77752207Y-50791141D01*
X77753812Y-50790283D01*
X77768361Y-50785870D01*
X77771161Y-50785312D01*
X77798324Y-50774051D01*
X77822768Y-50757707D01*
X77843554Y-50736908D01*
X77859883Y-50712453D01*
X77871127Y-50685283D01*
X77871683Y-50682488D01*
X77876070Y-50668025D01*
X77876928Y-50666420D01*
X77882778Y-50659292D01*
X78098632Y-50443438D01*
X78105760Y-50437588D01*
X78107365Y-50436730D01*
X78121914Y-50432317D01*
X78124714Y-50431759D01*
X78151877Y-50420498D01*
X78176321Y-50404154D01*
X78197107Y-50383355D01*
X78213436Y-50358900D01*
X78224680Y-50331730D01*
X78225236Y-50328935D01*
X78229623Y-50314472D01*
X78230481Y-50312867D01*
X78236331Y-50305739D01*
X78452185Y-50089885D01*
X78459313Y-50084035D01*
X78460918Y-50083177D01*
X78475457Y-50078767D01*
X78478258Y-50078209D01*
X78505422Y-50066950D01*
X78529867Y-50050607D01*
X78550654Y-50029810D01*
X78566985Y-50005357D01*
X78578231Y-49978187D01*
X78578788Y-49975389D01*
X78583177Y-49960918D01*
X78584035Y-49959313D01*
X78589885Y-49952185D01*
X78805739Y-49736331D01*
X78812867Y-49730481D01*
X78814472Y-49729623D01*
X78829021Y-49725210D01*
X78831821Y-49724652D01*
X78858984Y-49713391D01*
X78883428Y-49697047D01*
X78904214Y-49676248D01*
X78920543Y-49651793D01*
X78931787Y-49624623D01*
X78932343Y-49621828D01*
X78936730Y-49607365D01*
X78937588Y-49605760D01*
X78943438Y-49598632D01*
X79159292Y-49382778D01*
X79166420Y-49376928D01*
X79168025Y-49376070D01*
X79182574Y-49371657D01*
X79185374Y-49371099D01*
X79212537Y-49359838D01*
X79236981Y-49343494D01*
X79257767Y-49322695D01*
X79274096Y-49298240D01*
X79285340Y-49271070D01*
X79285896Y-49268275D01*
X79290283Y-49253812D01*
X79291141Y-49252207D01*
X79296991Y-49245079D01*
X79512845Y-49029225D01*
X79519973Y-49023375D01*
X79521578Y-49022517D01*
X79536117Y-49018107D01*
X79538918Y-49017549D01*
X79566082Y-49006290D01*
X79590527Y-48989947D01*
X79611314Y-48969150D01*
X79627645Y-48944697D01*
X79638891Y-48917527D01*
X79639448Y-48914729D01*
X79643837Y-48900258D01*
X79644695Y-48898653D01*
X79650545Y-48891525D01*
X79866399Y-48675671D01*
X79873527Y-48669821D01*
X79875132Y-48668963D01*
X79889681Y-48664550D01*
X79892481Y-48663992D01*
X79919644Y-48652731D01*
X79944088Y-48636387D01*
X79964874Y-48615588D01*
X79981203Y-48591133D01*
X79992447Y-48563963D01*
X79993003Y-48561168D01*
X79997390Y-48546705D01*
X79998248Y-48545100D01*
X80004098Y-48537972D01*
X80219952Y-48322118D01*
X80227080Y-48316268D01*
X80228685Y-48315410D01*
X80243224Y-48311000D01*
X80246025Y-48310442D01*
X80273189Y-48299183D01*
X80297634Y-48282840D01*
X80318421Y-48262043D01*
X80334752Y-48237590D01*
X80345998Y-48210420D01*
X80346555Y-48207622D01*
X80350944Y-48193151D01*
X80351802Y-48191546D01*
X80357652Y-48184418D01*
X80573506Y-47968564D01*
X80580634Y-47962714D01*
X80582239Y-47961856D01*
X80583977Y-47961329D01*
X80585787Y-47961151D01*
X80587597Y-47961329D01*
G37*
G36*
X83416023Y-47961329D02*
G01*
X83417761Y-47961856D01*
X83419366Y-47962714D01*
X83426494Y-47968564D01*
X83642348Y-48184418D01*
X83648198Y-48191546D01*
X83649056Y-48193151D01*
X83653466Y-48207690D01*
X83654024Y-48210491D01*
X83665283Y-48237655D01*
X83681626Y-48262100D01*
X83702423Y-48282887D01*
X83726876Y-48299218D01*
X83754046Y-48310464D01*
X83756844Y-48311021D01*
X83771315Y-48315410D01*
X83772920Y-48316268D01*
X83780048Y-48322118D01*
X83995902Y-48537972D01*
X84001752Y-48545100D01*
X84002610Y-48546705D01*
X84007023Y-48561254D01*
X84007581Y-48564054D01*
X84018842Y-48591217D01*
X84035186Y-48615661D01*
X84055985Y-48636447D01*
X84080440Y-48652776D01*
X84107610Y-48664020D01*
X84110405Y-48664576D01*
X84124868Y-48668963D01*
X84126473Y-48669821D01*
X84133601Y-48675671D01*
X84349455Y-48891525D01*
X84355305Y-48898653D01*
X84356163Y-48900258D01*
X84360573Y-48914797D01*
X84361131Y-48917598D01*
X84372390Y-48944762D01*
X84388733Y-48969207D01*
X84409530Y-48989994D01*
X84433983Y-49006325D01*
X84461153Y-49017571D01*
X84463951Y-49018128D01*
X84478422Y-49022517D01*
X84480027Y-49023375D01*
X84487155Y-49029225D01*
X84703009Y-49245079D01*
X84708859Y-49252207D01*
X84709717Y-49253812D01*
X84714130Y-49268361D01*
X84714688Y-49271161D01*
X84725949Y-49298324D01*
X84742293Y-49322768D01*
X84763092Y-49343554D01*
X84787547Y-49359883D01*
X84814717Y-49371127D01*
X84817512Y-49371683D01*
X84831975Y-49376070D01*
X84833580Y-49376928D01*
X84840708Y-49382778D01*
X85056562Y-49598632D01*
X85062412Y-49605760D01*
X85063270Y-49607365D01*
X85067683Y-49621914D01*
X85068241Y-49624714D01*
X85079502Y-49651877D01*
X85095846Y-49676321D01*
X85116645Y-49697107D01*
X85141100Y-49713436D01*
X85168270Y-49724680D01*
X85171065Y-49725236D01*
X85185528Y-49729623D01*
X85187133Y-49730481D01*
X85194261Y-49736331D01*
X85410115Y-49952185D01*
X85415965Y-49959313D01*
X85416823Y-49960918D01*
X85421233Y-49975457D01*
X85421791Y-49978258D01*
X85433050Y-50005422D01*
X85449393Y-50029867D01*
X85470190Y-50050654D01*
X85494643Y-50066985D01*
X85521813Y-50078231D01*
X85524611Y-50078788D01*
X85539082Y-50083177D01*
X85540687Y-50084035D01*
X85547815Y-50089885D01*
X85763669Y-50305739D01*
X85769519Y-50312867D01*
X85770377Y-50314472D01*
X85774790Y-50329021D01*
X85775348Y-50331821D01*
X85786609Y-50358984D01*
X85802953Y-50383428D01*
X85823752Y-50404214D01*
X85848207Y-50420543D01*
X85875377Y-50431787D01*
X85878172Y-50432343D01*
X85892635Y-50436730D01*
X85894240Y-50437588D01*
X85901368Y-50443438D01*
X86117222Y-50659292D01*
X86123072Y-50666420D01*
X86123930Y-50668025D01*
X86128343Y-50682574D01*
X86128901Y-50685374D01*
X86140162Y-50712537D01*
X86156506Y-50736981D01*
X86177305Y-50757767D01*
X86201760Y-50774096D01*
X86228930Y-50785340D01*
X86231725Y-50785896D01*
X86246188Y-50790283D01*
X86247793Y-50791141D01*
X86254921Y-50796991D01*
X86470775Y-51012845D01*
X86476625Y-51019973D01*
X86477483Y-51021578D01*
X86481893Y-51036117D01*
X86482451Y-51038918D01*
X86493710Y-51066082D01*
X86510053Y-51090527D01*
X86530850Y-51111314D01*
X86555303Y-51127645D01*
X86582473Y-51138891D01*
X86585271Y-51139448D01*
X86599742Y-51143837D01*
X86601347Y-51144695D01*
X86608475Y-51150545D01*
X86824329Y-51366399D01*
X86830179Y-51373527D01*
X86831037Y-51375132D01*
X86835450Y-51389681D01*
X86836008Y-51392481D01*
X86847269Y-51419644D01*
X86863613Y-51444088D01*
X86884412Y-51464874D01*
X86908867Y-51481203D01*
X86936037Y-51492447D01*
X86938832Y-51493003D01*
X86953295Y-51497390D01*
X86954900Y-51498248D01*
X86962028Y-51504098D01*
X87177882Y-51719952D01*
X87183732Y-51727080D01*
X87184590Y-51728685D01*
X87189000Y-51743224D01*
X87189558Y-51746025D01*
X87200817Y-51773189D01*
X87217160Y-51797634D01*
X87237957Y-51818421D01*
X87262410Y-51834752D01*
X87289580Y-51845998D01*
X87292378Y-51846555D01*
X87306849Y-51850944D01*
X87308454Y-51851802D01*
X87315582Y-51857652D01*
X87531436Y-52073506D01*
X87537286Y-52080634D01*
X87538144Y-52082239D01*
X87538671Y-52083977D01*
X87538849Y-52085787D01*
X87538671Y-52087597D01*
X87538144Y-52089335D01*
X87537286Y-52090940D01*
X87531436Y-52098068D01*
X86484732Y-53144772D01*
X86477604Y-53150622D01*
X86475999Y-53151480D01*
X86474261Y-53152007D01*
X86472451Y-53152185D01*
X86470641Y-53152007D01*
X86468903Y-53151480D01*
X86467298Y-53150622D01*
X86460170Y-53144772D01*
X86244316Y-52928918D01*
X86238466Y-52921790D01*
X86237608Y-52920185D01*
X86233198Y-52905646D01*
X86232640Y-52902845D01*
X86221381Y-52875681D01*
X86205038Y-52851236D01*
X86184241Y-52830449D01*
X86159788Y-52814118D01*
X86132618Y-52802872D01*
X86129820Y-52802315D01*
X86115349Y-52797926D01*
X86113744Y-52797068D01*
X86106616Y-52791218D01*
X85890762Y-52575364D01*
X85884912Y-52568236D01*
X85884054Y-52566631D01*
X85879641Y-52552082D01*
X85879083Y-52549282D01*
X85867822Y-52522119D01*
X85851478Y-52497675D01*
X85830679Y-52476889D01*
X85806224Y-52460560D01*
X85779054Y-52449316D01*
X85776259Y-52448760D01*
X85761796Y-52444373D01*
X85760191Y-52443515D01*
X85753063Y-52437665D01*
X85537209Y-52221811D01*
X85531359Y-52214683D01*
X85530501Y-52213078D01*
X85526091Y-52198539D01*
X85525533Y-52195738D01*
X85514274Y-52168574D01*
X85497931Y-52144129D01*
X85477134Y-52123342D01*
X85452681Y-52107011D01*
X85425511Y-52095765D01*
X85422713Y-52095208D01*
X85408242Y-52090819D01*
X85406637Y-52089961D01*
X85399509Y-52084111D01*
X85183655Y-51868257D01*
X85177805Y-51861129D01*
X85176947Y-51859524D01*
X85172534Y-51844975D01*
X85171976Y-51842175D01*
X85160715Y-51815012D01*
X85144371Y-51790568D01*
X85123572Y-51769782D01*
X85099117Y-51753453D01*
X85071947Y-51742209D01*
X85069152Y-51741653D01*
X85054689Y-51737266D01*
X85053084Y-51736408D01*
X85045956Y-51730558D01*
X84830102Y-51514704D01*
X84824252Y-51507576D01*
X84823394Y-51505971D01*
X84818981Y-51491422D01*
X84818423Y-51488622D01*
X84807162Y-51461459D01*
X84790818Y-51437015D01*
X84770019Y-51416229D01*
X84745564Y-51399900D01*
X84718394Y-51388656D01*
X84715599Y-51388100D01*
X84701136Y-51383713D01*
X84699531Y-51382855D01*
X84692403Y-51377005D01*
X84476549Y-51161151D01*
X84470699Y-51154023D01*
X84469841Y-51152418D01*
X84465431Y-51137879D01*
X84464873Y-51135078D01*
X84453614Y-51107914D01*
X84437271Y-51083469D01*
X84416474Y-51062682D01*
X84392021Y-51046351D01*
X84364851Y-51035105D01*
X84362053Y-51034548D01*
X84347582Y-51030159D01*
X84345977Y-51029301D01*
X84338849Y-51023451D01*
X84122995Y-50807597D01*
X84117145Y-50800469D01*
X84116287Y-50798864D01*
X84111874Y-50784315D01*
X84111316Y-50781515D01*
X84100055Y-50754352D01*
X84083711Y-50729908D01*
X84062912Y-50709122D01*
X84038457Y-50692793D01*
X84011287Y-50681549D01*
X84008492Y-50680993D01*
X83994029Y-50676606D01*
X83992424Y-50675748D01*
X83985296Y-50669898D01*
X83769442Y-50454044D01*
X83763592Y-50446916D01*
X83762734Y-50445311D01*
X83758321Y-50430762D01*
X83757763Y-50427962D01*
X83746502Y-50400799D01*
X83730158Y-50376355D01*
X83709359Y-50355569D01*
X83684904Y-50339240D01*
X83657734Y-50327996D01*
X83654939Y-50327440D01*
X83640476Y-50323053D01*
X83638871Y-50322195D01*
X83631743Y-50316345D01*
X83415889Y-50100491D01*
X83410039Y-50093363D01*
X83409181Y-50091758D01*
X83404771Y-50077219D01*
X83404213Y-50074418D01*
X83392954Y-50047254D01*
X83376611Y-50022809D01*
X83355814Y-50002022D01*
X83331361Y-49985691D01*
X83304191Y-49974445D01*
X83301393Y-49973888D01*
X83286922Y-49969499D01*
X83285317Y-49968641D01*
X83278189Y-49962791D01*
X83062335Y-49746937D01*
X83056485Y-49739809D01*
X83055627Y-49738204D01*
X83051214Y-49723655D01*
X83050656Y-49720855D01*
X83039395Y-49693692D01*
X83023051Y-49669248D01*
X83002252Y-49648462D01*
X82977797Y-49632133D01*
X82950627Y-49620889D01*
X82947832Y-49620333D01*
X82933369Y-49615946D01*
X82931764Y-49615088D01*
X82924636Y-49609238D01*
X82708782Y-49393384D01*
X82702932Y-49386256D01*
X82702074Y-49384651D01*
X82697664Y-49370112D01*
X82697106Y-49367311D01*
X82685847Y-49340147D01*
X82669504Y-49315702D01*
X82648707Y-49294915D01*
X82624254Y-49278584D01*
X82597084Y-49267338D01*
X82594286Y-49266781D01*
X82579815Y-49262392D01*
X82578210Y-49261534D01*
X82571082Y-49255684D01*
X82355228Y-49039830D01*
X82349378Y-49032702D01*
X82348520Y-49031097D01*
X82347993Y-49029359D01*
X82347815Y-49027549D01*
X82347993Y-49025739D01*
X82348520Y-49024001D01*
X82349378Y-49022396D01*
X82355228Y-49015268D01*
X83401932Y-47968564D01*
X83409060Y-47962714D01*
X83410665Y-47961856D01*
X83412403Y-47961329D01*
X83414213Y-47961151D01*
X83416023Y-47961329D01*
G37*
G36*
X102428500Y-52122600D02*
G01*
X99365900Y-52122600D01*
X99365900Y-51117400D01*
X102428500Y-51117400D01*
X102428500Y-52122600D01*
G37*
G36*
X96891300Y-52122600D02*
G01*
X93828700Y-52122600D01*
X93828700Y-51117400D01*
X96891300Y-51117400D01*
X96891300Y-52122600D01*
G37*
G36*
X102428500Y-49582600D02*
G01*
X99365900Y-49582600D01*
X99365900Y-48577400D01*
X102428500Y-48577400D01*
X102428500Y-49582600D01*
G37*
G36*
X96891300Y-49582600D02*
G01*
X93828700Y-49582600D01*
X93828700Y-48577400D01*
X96891300Y-48577400D01*
X96891300Y-49582600D01*
G37*
G36*
X87846964Y-46871030D02*
G01*
X87879445Y-46880883D01*
X87909390Y-46896890D01*
X87941359Y-46923126D01*
X88526442Y-47508209D01*
X88552678Y-47540178D01*
X88568685Y-47570123D01*
X88578538Y-47602604D01*
X88581866Y-47636396D01*
X88578538Y-47670188D01*
X88568685Y-47702669D01*
X88552678Y-47732614D01*
X88526442Y-47764583D01*
X87764583Y-48526442D01*
X87732614Y-48552678D01*
X87702669Y-48568685D01*
X87670188Y-48578538D01*
X87636396Y-48581866D01*
X87602604Y-48578538D01*
X87570123Y-48568685D01*
X87540178Y-48552678D01*
X87508209Y-48526442D01*
X86923126Y-47941359D01*
X86896890Y-47909390D01*
X86880883Y-47879445D01*
X86871030Y-47846964D01*
X86867702Y-47813172D01*
X86871030Y-47779380D01*
X86880883Y-47746899D01*
X86896890Y-47716954D01*
X86923126Y-47684985D01*
X87684985Y-46923126D01*
X87716954Y-46896890D01*
X87746899Y-46880883D01*
X87779380Y-46871030D01*
X87813172Y-46867702D01*
X87846964Y-46871030D01*
G37*
G36*
X86397396Y-45421462D02*
G01*
X86429877Y-45431315D01*
X86459822Y-45447322D01*
X86491791Y-45473558D01*
X87076874Y-46058641D01*
X87103110Y-46090610D01*
X87119117Y-46120555D01*
X87128970Y-46153036D01*
X87132298Y-46186828D01*
X87128970Y-46220620D01*
X87119117Y-46253101D01*
X87103110Y-46283046D01*
X87076874Y-46315015D01*
X86315015Y-47076874D01*
X86283046Y-47103110D01*
X86253101Y-47119117D01*
X86220620Y-47128970D01*
X86186828Y-47132298D01*
X86153036Y-47128970D01*
X86120555Y-47119117D01*
X86090610Y-47103110D01*
X86058641Y-47076874D01*
X85473558Y-46491791D01*
X85447322Y-46459822D01*
X85431315Y-46429877D01*
X85421462Y-46397396D01*
X85418134Y-46363604D01*
X85421462Y-46329812D01*
X85431315Y-46297331D01*
X85447322Y-46267386D01*
X85473558Y-46235417D01*
X86235417Y-45473558D01*
X86267386Y-45447322D01*
X86297331Y-45431315D01*
X86329812Y-45421462D01*
X86363604Y-45418134D01*
X86397396Y-45421462D01*
G37*
G36*
X96891300Y-47042600D02*
G01*
X93828700Y-47042600D01*
X93828700Y-46037400D01*
X96891300Y-46037400D01*
X96891300Y-47042600D01*
G37*
G36*
X102428500Y-47042600D02*
G01*
X99365900Y-47042600D01*
X99365900Y-46037400D01*
X102428500Y-46037400D01*
X102428500Y-47042600D01*
G37*
G36*
X94104878Y-43604054D02*
G01*
X94137359Y-43613907D01*
X94167304Y-43629914D01*
X94193548Y-43651451D01*
X94215085Y-43677695D01*
X94231092Y-43707640D01*
X94240945Y-43740121D01*
X94244999Y-43781286D01*
X94244999Y-44858714D01*
X94240945Y-44899879D01*
X94231092Y-44932360D01*
X94215085Y-44962305D01*
X94193548Y-44988549D01*
X94167304Y-45010086D01*
X94137359Y-45026093D01*
X94104878Y-45035946D01*
X94063713Y-45040000D01*
X93236285Y-45040000D01*
X93195120Y-45035946D01*
X93162639Y-45026093D01*
X93132694Y-45010086D01*
X93106450Y-44988549D01*
X93084913Y-44962305D01*
X93068906Y-44932360D01*
X93059053Y-44899879D01*
X93054999Y-44858714D01*
X93054999Y-43781286D01*
X93059053Y-43740121D01*
X93068906Y-43707640D01*
X93084913Y-43677695D01*
X93106450Y-43651451D01*
X93132694Y-43629914D01*
X93162639Y-43613907D01*
X93195120Y-43604054D01*
X93236285Y-43600000D01*
X94063713Y-43600000D01*
X94104878Y-43604054D01*
G37*
G36*
X96154878Y-43604054D02*
G01*
X96187359Y-43613907D01*
X96217304Y-43629914D01*
X96243548Y-43651451D01*
X96265085Y-43677695D01*
X96281092Y-43707640D01*
X96290945Y-43740121D01*
X96294999Y-43781286D01*
X96294999Y-44858714D01*
X96290945Y-44899879D01*
X96281092Y-44932360D01*
X96265085Y-44962305D01*
X96243548Y-44988549D01*
X96217304Y-45010086D01*
X96187359Y-45026093D01*
X96154878Y-45035946D01*
X96113713Y-45040000D01*
X95286285Y-45040000D01*
X95245120Y-45035946D01*
X95212639Y-45026093D01*
X95182694Y-45010086D01*
X95156450Y-44988549D01*
X95134913Y-44962305D01*
X95118906Y-44932360D01*
X95109053Y-44899879D01*
X95104999Y-44858714D01*
X95104999Y-43781286D01*
X95109053Y-43740121D01*
X95118906Y-43707640D01*
X95134913Y-43677695D01*
X95156450Y-43651451D01*
X95182694Y-43629914D01*
X95212639Y-43613907D01*
X95245120Y-43604054D01*
X95286285Y-43600000D01*
X96113713Y-43600000D01*
X96154878Y-43604054D01*
G37*
G36*
X101299879Y-43159053D02*
G01*
X101332360Y-43168906D01*
X101362305Y-43184913D01*
X101388549Y-43206450D01*
X101410086Y-43232694D01*
X101426093Y-43262639D01*
X101435946Y-43295120D01*
X101440000Y-43336285D01*
X101440000Y-44163713D01*
X101435946Y-44204878D01*
X101426093Y-44237359D01*
X101410086Y-44267304D01*
X101388549Y-44293548D01*
X101362305Y-44315085D01*
X101332360Y-44331092D01*
X101299879Y-44340945D01*
X101258714Y-44344999D01*
X100181286Y-44344999D01*
X100140121Y-44340945D01*
X100107640Y-44331092D01*
X100077695Y-44315085D01*
X100051451Y-44293548D01*
X100029914Y-44267304D01*
X100013907Y-44237359D01*
X100004054Y-44204878D01*
X100000000Y-44163713D01*
X100000000Y-43336285D01*
X100004054Y-43295120D01*
X100013907Y-43262639D01*
X100029914Y-43232694D01*
X100051451Y-43206450D01*
X100077695Y-43184913D01*
X100107640Y-43168906D01*
X100140121Y-43159053D01*
X100181286Y-43154999D01*
X101258714Y-43154999D01*
X101299879Y-43159053D01*
G37*
G36*
X101299879Y-41109053D02*
G01*
X101332360Y-41118906D01*
X101362305Y-41134913D01*
X101388549Y-41156450D01*
X101410086Y-41182694D01*
X101426093Y-41212639D01*
X101435946Y-41245120D01*
X101440000Y-41286285D01*
X101440000Y-42113713D01*
X101435946Y-42154878D01*
X101426093Y-42187359D01*
X101410086Y-42217304D01*
X101388549Y-42243548D01*
X101362305Y-42265085D01*
X101332360Y-42281092D01*
X101299879Y-42290945D01*
X101258714Y-42294999D01*
X100181286Y-42294999D01*
X100140121Y-42290945D01*
X100107640Y-42281092D01*
X100077695Y-42265085D01*
X100051451Y-42243548D01*
X100029914Y-42217304D01*
X100013907Y-42187359D01*
X100004054Y-42154878D01*
X100000000Y-42113713D01*
X100000000Y-41286285D01*
X100004054Y-41245120D01*
X100013907Y-41212639D01*
X100029914Y-41182694D01*
X100051451Y-41156450D01*
X100077695Y-41134913D01*
X100107640Y-41118906D01*
X100140121Y-41109053D01*
X100181286Y-41104999D01*
X101258714Y-41104999D01*
X101299879Y-41109053D01*
G37*
G36*
X94568993Y-40540972D02*
G01*
X94571390Y-40541699D01*
X94573596Y-40542878D01*
X94574841Y-40543900D01*
X94599290Y-40560237D01*
X94626457Y-40571490D01*
X94655297Y-40577227D01*
X94684702Y-40577227D01*
X94713542Y-40571490D01*
X94740708Y-40560238D01*
X94765159Y-40543900D01*
X94766404Y-40542878D01*
X94768610Y-40541699D01*
X94771007Y-40540972D01*
X94780874Y-40540000D01*
X95529126Y-40540000D01*
X95538993Y-40540972D01*
X95541390Y-40541699D01*
X95543596Y-40542878D01*
X95544841Y-40543900D01*
X95569290Y-40560237D01*
X95596457Y-40571490D01*
X95625297Y-40577227D01*
X95654702Y-40577227D01*
X95683542Y-40571490D01*
X95710708Y-40560238D01*
X95735159Y-40543900D01*
X95736404Y-40542878D01*
X95738610Y-40541699D01*
X95741007Y-40540972D01*
X95750874Y-40540000D01*
X96499126Y-40540000D01*
X96508993Y-40540972D01*
X96511390Y-40541699D01*
X96513596Y-40542878D01*
X96514841Y-40543900D01*
X96539290Y-40560237D01*
X96566457Y-40571490D01*
X96595297Y-40577227D01*
X96624702Y-40577227D01*
X96653542Y-40571490D01*
X96680708Y-40560238D01*
X96705159Y-40543900D01*
X96706404Y-40542878D01*
X96708610Y-40541699D01*
X96711007Y-40540972D01*
X96720874Y-40540000D01*
X97469126Y-40540000D01*
X97478993Y-40540972D01*
X97481390Y-40541699D01*
X97483596Y-40542878D01*
X97485532Y-40544468D01*
X97487122Y-40546404D01*
X97488301Y-40548610D01*
X97489028Y-40551007D01*
X97490000Y-40560874D01*
X97490000Y-41959126D01*
X97489028Y-41968993D01*
X97488301Y-41971390D01*
X97487122Y-41973596D01*
X97485532Y-41975532D01*
X97483596Y-41977122D01*
X97481390Y-41978301D01*
X97478993Y-41979028D01*
X97469126Y-41980000D01*
X96720874Y-41980000D01*
X96711007Y-41979028D01*
X96708610Y-41978301D01*
X96706404Y-41977122D01*
X96705159Y-41976100D01*
X96680710Y-41959763D01*
X96653543Y-41948510D01*
X96624703Y-41942773D01*
X96595298Y-41942773D01*
X96566458Y-41948510D01*
X96539292Y-41959762D01*
X96514841Y-41976100D01*
X96513596Y-41977122D01*
X96511390Y-41978301D01*
X96508993Y-41979028D01*
X96499126Y-41980000D01*
X95750874Y-41980000D01*
X95741007Y-41979028D01*
X95738610Y-41978301D01*
X95736404Y-41977122D01*
X95735159Y-41976100D01*
X95710710Y-41959763D01*
X95683543Y-41948510D01*
X95654703Y-41942773D01*
X95625298Y-41942773D01*
X95596458Y-41948510D01*
X95569292Y-41959762D01*
X95544841Y-41976100D01*
X95543596Y-41977122D01*
X95541390Y-41978301D01*
X95538993Y-41979028D01*
X95529126Y-41980000D01*
X94780874Y-41980000D01*
X94771007Y-41979028D01*
X94768610Y-41978301D01*
X94766404Y-41977122D01*
X94765159Y-41976100D01*
X94740710Y-41959763D01*
X94713543Y-41948510D01*
X94684703Y-41942773D01*
X94655298Y-41942773D01*
X94626458Y-41948510D01*
X94599292Y-41959762D01*
X94574841Y-41976100D01*
X94573596Y-41977122D01*
X94571390Y-41978301D01*
X94568993Y-41979028D01*
X94559126Y-41980000D01*
X93810874Y-41980000D01*
X93801007Y-41979028D01*
X93798610Y-41978301D01*
X93796404Y-41977122D01*
X93794468Y-41975532D01*
X93792878Y-41973596D01*
X93791699Y-41971390D01*
X93790972Y-41968993D01*
X93790000Y-41959126D01*
X93790000Y-40560874D01*
X93790972Y-40551007D01*
X93791699Y-40548610D01*
X93792878Y-40546404D01*
X93794468Y-40544468D01*
X93796404Y-40542878D01*
X93798610Y-40541699D01*
X93801007Y-40540972D01*
X93810874Y-40540000D01*
X94559126Y-40540000D01*
X94568993Y-40540972D01*
G37*
G36*
X83193808Y-40416923D02*
G01*
X83193813Y-40416924D01*
X83270242Y-40448581D01*
X83339035Y-40494548D01*
X83397533Y-40553046D01*
X83443500Y-40621839D01*
X83475157Y-40698268D01*
X83491299Y-40779417D01*
X83491299Y-40862147D01*
X83475157Y-40943296D01*
X83443500Y-41019725D01*
X83397533Y-41088518D01*
X83339035Y-41147016D01*
X83270242Y-41192983D01*
X83193813Y-41224640D01*
X83193808Y-41224641D01*
X83112665Y-41240782D01*
X83029933Y-41240782D01*
X82948790Y-41224641D01*
X82948785Y-41224640D01*
X82872356Y-41192983D01*
X82803563Y-41147016D01*
X82745065Y-41088518D01*
X82699098Y-41019725D01*
X82667441Y-40943296D01*
X82651299Y-40862147D01*
X82651299Y-40779417D01*
X82667441Y-40698268D01*
X82699098Y-40621839D01*
X82745065Y-40553046D01*
X82803563Y-40494548D01*
X82872356Y-40448581D01*
X82948785Y-40416924D01*
X82948790Y-40416923D01*
X83029933Y-40400782D01*
X83112665Y-40400782D01*
X83193808Y-40416923D01*
G37*
G36*
X81991727Y-39214842D02*
G01*
X81991732Y-39214843D01*
X82068161Y-39246500D01*
X82136954Y-39292467D01*
X82195452Y-39350965D01*
X82241419Y-39419758D01*
X82273076Y-39496187D01*
X82289218Y-39577336D01*
X82289218Y-39660066D01*
X82273076Y-39741215D01*
X82241419Y-39817644D01*
X82195452Y-39886437D01*
X82136954Y-39944935D01*
X82068161Y-39990902D01*
X81991732Y-40022559D01*
X81991727Y-40022560D01*
X81910584Y-40038701D01*
X81827852Y-40038701D01*
X81746709Y-40022560D01*
X81746704Y-40022559D01*
X81670275Y-39990902D01*
X81601482Y-39944935D01*
X81542984Y-39886437D01*
X81497017Y-39817644D01*
X81465360Y-39741215D01*
X81449218Y-39660066D01*
X81449218Y-39577336D01*
X81465360Y-39496187D01*
X81497017Y-39419758D01*
X81542984Y-39350965D01*
X81601482Y-39292467D01*
X81670275Y-39246500D01*
X81746704Y-39214843D01*
X81746709Y-39214842D01*
X81827852Y-39198701D01*
X81910584Y-39198701D01*
X81991727Y-39214842D01*
G37*
G36*
X94568993Y-38340972D02*
G01*
X94571390Y-38341699D01*
X94573596Y-38342878D01*
X94574841Y-38343900D01*
X94599290Y-38360237D01*
X94626457Y-38371490D01*
X94655297Y-38377227D01*
X94684702Y-38377227D01*
X94713542Y-38371490D01*
X94740708Y-38360238D01*
X94765159Y-38343900D01*
X94766404Y-38342878D01*
X94768610Y-38341699D01*
X94771007Y-38340972D01*
X94780874Y-38340000D01*
X95529126Y-38340000D01*
X95538993Y-38340972D01*
X95541390Y-38341699D01*
X95543596Y-38342878D01*
X95544841Y-38343900D01*
X95569290Y-38360237D01*
X95596457Y-38371490D01*
X95625297Y-38377227D01*
X95654702Y-38377227D01*
X95683542Y-38371490D01*
X95710708Y-38360238D01*
X95735159Y-38343900D01*
X95736404Y-38342878D01*
X95738610Y-38341699D01*
X95741007Y-38340972D01*
X95750874Y-38340000D01*
X96499126Y-38340000D01*
X96508993Y-38340972D01*
X96511390Y-38341699D01*
X96513596Y-38342878D01*
X96514841Y-38343900D01*
X96539290Y-38360237D01*
X96566457Y-38371490D01*
X96595297Y-38377227D01*
X96624702Y-38377227D01*
X96653542Y-38371490D01*
X96680708Y-38360238D01*
X96705159Y-38343900D01*
X96706404Y-38342878D01*
X96708610Y-38341699D01*
X96711007Y-38340972D01*
X96720874Y-38340000D01*
X97469126Y-38340000D01*
X97478993Y-38340972D01*
X97481390Y-38341699D01*
X97483596Y-38342878D01*
X97485532Y-38344468D01*
X97487122Y-38346404D01*
X97488301Y-38348610D01*
X97489028Y-38351007D01*
X97490000Y-38360874D01*
X97490000Y-39759126D01*
X97489028Y-39768993D01*
X97488301Y-39771390D01*
X97487122Y-39773596D01*
X97485532Y-39775532D01*
X97483596Y-39777122D01*
X97481390Y-39778301D01*
X97478993Y-39779028D01*
X97469126Y-39780000D01*
X96720874Y-39780000D01*
X96711007Y-39779028D01*
X96708610Y-39778301D01*
X96706404Y-39777122D01*
X96705159Y-39776100D01*
X96680710Y-39759763D01*
X96653543Y-39748510D01*
X96624703Y-39742773D01*
X96595298Y-39742773D01*
X96566458Y-39748510D01*
X96539292Y-39759762D01*
X96514841Y-39776100D01*
X96513596Y-39777122D01*
X96511390Y-39778301D01*
X96508993Y-39779028D01*
X96499126Y-39780000D01*
X95750874Y-39780000D01*
X95741007Y-39779028D01*
X95738610Y-39778301D01*
X95736404Y-39777122D01*
X95735159Y-39776100D01*
X95710710Y-39759763D01*
X95683543Y-39748510D01*
X95654703Y-39742773D01*
X95625298Y-39742773D01*
X95596458Y-39748510D01*
X95569292Y-39759762D01*
X95544841Y-39776100D01*
X95543596Y-39777122D01*
X95541390Y-39778301D01*
X95538993Y-39779028D01*
X95529126Y-39780000D01*
X94780874Y-39780000D01*
X94771007Y-39779028D01*
X94768610Y-39778301D01*
X94766404Y-39777122D01*
X94765159Y-39776100D01*
X94740710Y-39759763D01*
X94713543Y-39748510D01*
X94684703Y-39742773D01*
X94655298Y-39742773D01*
X94626458Y-39748510D01*
X94599292Y-39759762D01*
X94574841Y-39776100D01*
X94573596Y-39777122D01*
X94571390Y-39778301D01*
X94568993Y-39779028D01*
X94559126Y-39780000D01*
X93810874Y-39780000D01*
X93801007Y-39779028D01*
X93798610Y-39778301D01*
X93796404Y-39777122D01*
X93794468Y-39775532D01*
X93792878Y-39773596D01*
X93791699Y-39771390D01*
X93790972Y-39768993D01*
X93790000Y-39759126D01*
X93790000Y-38360874D01*
X93790972Y-38351007D01*
X93791699Y-38348610D01*
X93792878Y-38346404D01*
X93794468Y-38344468D01*
X93796404Y-38342878D01*
X93798610Y-38341699D01*
X93801007Y-38340972D01*
X93810874Y-38340000D01*
X94559126Y-38340000D01*
X94568993Y-38340972D01*
G37*
G36*
X84933291Y-38677440D02*
G01*
X84933296Y-38677441D01*
X85009725Y-38709098D01*
X85078518Y-38755065D01*
X85137016Y-38813563D01*
X85182983Y-38882356D01*
X85214640Y-38958785D01*
X85230782Y-39039934D01*
X85230782Y-39122664D01*
X85214640Y-39203813D01*
X85182983Y-39280242D01*
X85137016Y-39349035D01*
X85078518Y-39407533D01*
X85009725Y-39453500D01*
X84933296Y-39485157D01*
X84933291Y-39485158D01*
X84852148Y-39501299D01*
X84769416Y-39501299D01*
X84688273Y-39485158D01*
X84688268Y-39485157D01*
X84611839Y-39453500D01*
X84543046Y-39407533D01*
X84484548Y-39349035D01*
X84438581Y-39280242D01*
X84406924Y-39203813D01*
X84390782Y-39122664D01*
X84390782Y-39039934D01*
X84406924Y-38958785D01*
X84438581Y-38882356D01*
X84484548Y-38813563D01*
X84543046Y-38755065D01*
X84611839Y-38709098D01*
X84688268Y-38677441D01*
X84688273Y-38677440D01*
X84769416Y-38661299D01*
X84852148Y-38661299D01*
X84933291Y-38677440D01*
G37*
G36*
X83731210Y-37475359D02*
G01*
X83731215Y-37475360D01*
X83807644Y-37507017D01*
X83876437Y-37552984D01*
X83934935Y-37611482D01*
X83980902Y-37680275D01*
X84012559Y-37756704D01*
X84028701Y-37837853D01*
X84028701Y-37920583D01*
X84012559Y-38001732D01*
X83980902Y-38078161D01*
X83934935Y-38146954D01*
X83876437Y-38205452D01*
X83807644Y-38251419D01*
X83731215Y-38283076D01*
X83731210Y-38283077D01*
X83650067Y-38299218D01*
X83567335Y-38299218D01*
X83486192Y-38283077D01*
X83486187Y-38283076D01*
X83409758Y-38251419D01*
X83340965Y-38205452D01*
X83282467Y-38146954D01*
X83236500Y-38078161D01*
X83204843Y-38001732D01*
X83188701Y-37920583D01*
X83188701Y-37837853D01*
X83204843Y-37756704D01*
X83236500Y-37680275D01*
X83282467Y-37611482D01*
X83340965Y-37552984D01*
X83409758Y-37507017D01*
X83486187Y-37475360D01*
X83486192Y-37475359D01*
X83567335Y-37459218D01*
X83650067Y-37459218D01*
X83731210Y-37475359D01*
G37*
G36*
X100939240Y-26903743D02*
G01*
X101134573Y-26984653D01*
X101525242Y-27146473D01*
X102050848Y-27497672D01*
X102052633Y-27498865D01*
X102501135Y-27947367D01*
X102501137Y-27947370D01*
X102853527Y-28474758D01*
X103096257Y-29060761D01*
X103220000Y-29682858D01*
X103220000Y-30317142D01*
X103096257Y-30939239D01*
X102853527Y-31525242D01*
X102711084Y-31738422D01*
X102501135Y-32052633D01*
X102052633Y-32501135D01*
X102052630Y-32501137D01*
X101525242Y-32853527D01*
X101134573Y-33015347D01*
X100939240Y-33096257D01*
X100317142Y-33220000D01*
X99682858Y-33220000D01*
X99060760Y-33096257D01*
X98865427Y-33015347D01*
X98474758Y-32853527D01*
X97947370Y-32501137D01*
X97947367Y-32501135D01*
X97498865Y-32052633D01*
X97288916Y-31738422D01*
X97146473Y-31525242D01*
X96903743Y-30939239D01*
X96780000Y-30317142D01*
X96780000Y-29682858D01*
X96903743Y-29060761D01*
X97146473Y-28474758D01*
X97498863Y-27947370D01*
X97498865Y-27947367D01*
X97947367Y-27498865D01*
X97949152Y-27497672D01*
X98474758Y-27146473D01*
X98865427Y-26984653D01*
X99060760Y-26903743D01*
X99682858Y-26780000D01*
X100317142Y-26780000D01*
X100939240Y-26903743D01*
G37*
G36*
X35939240Y-26903743D02*
G01*
X36134573Y-26984653D01*
X36525242Y-27146473D01*
X37050848Y-27497672D01*
X37052633Y-27498865D01*
X37501135Y-27947367D01*
X37501137Y-27947370D01*
X37853527Y-28474758D01*
X38096257Y-29060761D01*
X38220000Y-29682858D01*
X38220000Y-30317142D01*
X38096257Y-30939239D01*
X37853527Y-31525242D01*
X37711084Y-31738422D01*
X37501135Y-32052633D01*
X37052633Y-32501135D01*
X37052630Y-32501137D01*
X36525242Y-32853527D01*
X36134573Y-33015347D01*
X35939240Y-33096257D01*
X35317142Y-33220000D01*
X34682858Y-33220000D01*
X34060760Y-33096257D01*
X33865427Y-33015347D01*
X33474758Y-32853527D01*
X32947370Y-32501137D01*
X32947367Y-32501135D01*
X32498865Y-32052633D01*
X32288916Y-31738422D01*
X32146473Y-31525242D01*
X31903743Y-30939239D01*
X31780000Y-30317142D01*
X31780000Y-29682858D01*
X31903743Y-29060761D01*
X32146473Y-28474758D01*
X32498863Y-27947370D01*
X32498865Y-27947367D01*
X32947367Y-27498865D01*
X32949152Y-27497672D01*
X33474758Y-27146473D01*
X33865427Y-26984653D01*
X34060760Y-26903743D01*
X34682858Y-26780000D01*
X35317142Y-26780000D01*
X35939240Y-26903743D01*
G37*
M02*
