G04 #@! TF.GenerationSoftware,KiCad,Pcbnew,5.1.5-52549c5~84~ubuntu18.04.1*
G04 #@! TF.CreationDate,2020-03-15T21:10:30-07:00*
G04 #@! TF.ProjectId,stm32f042cXt6_demo,73746d33-3266-4303-9432-635874365f64,rev?*
G04 #@! TF.SameCoordinates,Original*
G04 #@! TF.FileFunction,Paste,Top*
G04 #@! TF.FilePolarity,Positive*
%FSLAX46Y46*%
G04 Gerber Fmt 4.6, Leading zero omitted, Abs format (unit mm)*
G04 Created by KiCad (PCBNEW 5.1.5-52549c5~84~ubuntu18.04.1) date 2020-03-15 21:10:30*
%MOMM*%
%LPD*%
G04 APERTURE LIST*
%ADD10C,0.100000*%
%ADD11R,1.500000X1.000000*%
%ADD12R,1.300000X2.000000*%
%ADD13R,2.000000X1.500000*%
%ADD14R,2.000000X3.800000*%
%ADD15R,1.900000X1.500000*%
%ADD16R,1.350000X0.400000*%
%ADD17R,1.560000X0.650000*%
%ADD18C,0.800000*%
%ADD19R,3.022600X0.965200*%
G04 APERTURE END LIST*
D10*
G36*
X77049505Y-87801204D02*
G01*
X77073773Y-87804804D01*
X77097572Y-87810765D01*
X77120671Y-87819030D01*
X77142850Y-87829520D01*
X77163893Y-87842132D01*
X77183599Y-87856747D01*
X77201777Y-87873223D01*
X77218253Y-87891401D01*
X77232868Y-87911107D01*
X77245480Y-87932150D01*
X77255970Y-87954329D01*
X77264235Y-87977428D01*
X77270196Y-88001227D01*
X77273796Y-88025495D01*
X77275000Y-88049999D01*
X77275000Y-88950001D01*
X77273796Y-88974505D01*
X77270196Y-88998773D01*
X77264235Y-89022572D01*
X77255970Y-89045671D01*
X77245480Y-89067850D01*
X77232868Y-89088893D01*
X77218253Y-89108599D01*
X77201777Y-89126777D01*
X77183599Y-89143253D01*
X77163893Y-89157868D01*
X77142850Y-89170480D01*
X77120671Y-89180970D01*
X77097572Y-89189235D01*
X77073773Y-89195196D01*
X77049505Y-89198796D01*
X77025001Y-89200000D01*
X76374999Y-89200000D01*
X76350495Y-89198796D01*
X76326227Y-89195196D01*
X76302428Y-89189235D01*
X76279329Y-89180970D01*
X76257150Y-89170480D01*
X76236107Y-89157868D01*
X76216401Y-89143253D01*
X76198223Y-89126777D01*
X76181747Y-89108599D01*
X76167132Y-89088893D01*
X76154520Y-89067850D01*
X76144030Y-89045671D01*
X76135765Y-89022572D01*
X76129804Y-88998773D01*
X76126204Y-88974505D01*
X76125000Y-88950001D01*
X76125000Y-88049999D01*
X76126204Y-88025495D01*
X76129804Y-88001227D01*
X76135765Y-87977428D01*
X76144030Y-87954329D01*
X76154520Y-87932150D01*
X76167132Y-87911107D01*
X76181747Y-87891401D01*
X76198223Y-87873223D01*
X76216401Y-87856747D01*
X76236107Y-87842132D01*
X76257150Y-87829520D01*
X76279329Y-87819030D01*
X76302428Y-87810765D01*
X76326227Y-87804804D01*
X76350495Y-87801204D01*
X76374999Y-87800000D01*
X77025001Y-87800000D01*
X77049505Y-87801204D01*
G37*
G36*
X74999505Y-87801204D02*
G01*
X75023773Y-87804804D01*
X75047572Y-87810765D01*
X75070671Y-87819030D01*
X75092850Y-87829520D01*
X75113893Y-87842132D01*
X75133599Y-87856747D01*
X75151777Y-87873223D01*
X75168253Y-87891401D01*
X75182868Y-87911107D01*
X75195480Y-87932150D01*
X75205970Y-87954329D01*
X75214235Y-87977428D01*
X75220196Y-88001227D01*
X75223796Y-88025495D01*
X75225000Y-88049999D01*
X75225000Y-88950001D01*
X75223796Y-88974505D01*
X75220196Y-88998773D01*
X75214235Y-89022572D01*
X75205970Y-89045671D01*
X75195480Y-89067850D01*
X75182868Y-89088893D01*
X75168253Y-89108599D01*
X75151777Y-89126777D01*
X75133599Y-89143253D01*
X75113893Y-89157868D01*
X75092850Y-89170480D01*
X75070671Y-89180970D01*
X75047572Y-89189235D01*
X75023773Y-89195196D01*
X74999505Y-89198796D01*
X74975001Y-89200000D01*
X74324999Y-89200000D01*
X74300495Y-89198796D01*
X74276227Y-89195196D01*
X74252428Y-89189235D01*
X74229329Y-89180970D01*
X74207150Y-89170480D01*
X74186107Y-89157868D01*
X74166401Y-89143253D01*
X74148223Y-89126777D01*
X74131747Y-89108599D01*
X74117132Y-89088893D01*
X74104520Y-89067850D01*
X74094030Y-89045671D01*
X74085765Y-89022572D01*
X74079804Y-88998773D01*
X74076204Y-88974505D01*
X74075000Y-88950001D01*
X74075000Y-88049999D01*
X74076204Y-88025495D01*
X74079804Y-88001227D01*
X74085765Y-87977428D01*
X74094030Y-87954329D01*
X74104520Y-87932150D01*
X74117132Y-87911107D01*
X74131747Y-87891401D01*
X74148223Y-87873223D01*
X74166401Y-87856747D01*
X74186107Y-87842132D01*
X74207150Y-87829520D01*
X74229329Y-87819030D01*
X74252428Y-87810765D01*
X74276227Y-87804804D01*
X74300495Y-87801204D01*
X74324999Y-87800000D01*
X74975001Y-87800000D01*
X74999505Y-87801204D01*
G37*
G36*
X81061332Y-61002980D02*
G01*
X81085600Y-61006580D01*
X81109399Y-61012541D01*
X81132498Y-61020806D01*
X81154677Y-61031296D01*
X81175720Y-61043908D01*
X81195426Y-61058523D01*
X81213604Y-61074999D01*
X81850001Y-61711396D01*
X81866477Y-61729574D01*
X81881092Y-61749280D01*
X81893704Y-61770323D01*
X81904194Y-61792502D01*
X81912459Y-61815601D01*
X81918420Y-61839400D01*
X81922020Y-61863668D01*
X81923224Y-61888172D01*
X81922020Y-61912676D01*
X81918420Y-61936944D01*
X81912459Y-61960743D01*
X81904194Y-61983842D01*
X81893704Y-62006021D01*
X81881092Y-62027064D01*
X81866477Y-62046770D01*
X81850001Y-62064948D01*
X81390380Y-62524569D01*
X81372202Y-62541045D01*
X81352496Y-62555660D01*
X81331453Y-62568272D01*
X81309274Y-62578762D01*
X81286175Y-62587027D01*
X81262376Y-62592988D01*
X81238108Y-62596588D01*
X81213604Y-62597792D01*
X81189100Y-62596588D01*
X81164832Y-62592988D01*
X81141033Y-62587027D01*
X81117934Y-62578762D01*
X81095755Y-62568272D01*
X81074712Y-62555660D01*
X81055006Y-62541045D01*
X81036828Y-62524569D01*
X80400431Y-61888172D01*
X80383955Y-61869994D01*
X80369340Y-61850288D01*
X80356728Y-61829245D01*
X80346238Y-61807066D01*
X80337973Y-61783967D01*
X80332012Y-61760168D01*
X80328412Y-61735900D01*
X80327208Y-61711396D01*
X80328412Y-61686892D01*
X80332012Y-61662624D01*
X80337973Y-61638825D01*
X80346238Y-61615726D01*
X80356728Y-61593547D01*
X80369340Y-61572504D01*
X80383955Y-61552798D01*
X80400431Y-61534620D01*
X80860052Y-61074999D01*
X80878230Y-61058523D01*
X80897936Y-61043908D01*
X80918979Y-61031296D01*
X80941158Y-61020806D01*
X80964257Y-61012541D01*
X80988056Y-61006580D01*
X81012324Y-61002980D01*
X81036828Y-61001776D01*
X81061332Y-61002980D01*
G37*
G36*
X82510900Y-59553412D02*
G01*
X82535168Y-59557012D01*
X82558967Y-59562973D01*
X82582066Y-59571238D01*
X82604245Y-59581728D01*
X82625288Y-59594340D01*
X82644994Y-59608955D01*
X82663172Y-59625431D01*
X83299569Y-60261828D01*
X83316045Y-60280006D01*
X83330660Y-60299712D01*
X83343272Y-60320755D01*
X83353762Y-60342934D01*
X83362027Y-60366033D01*
X83367988Y-60389832D01*
X83371588Y-60414100D01*
X83372792Y-60438604D01*
X83371588Y-60463108D01*
X83367988Y-60487376D01*
X83362027Y-60511175D01*
X83353762Y-60534274D01*
X83343272Y-60556453D01*
X83330660Y-60577496D01*
X83316045Y-60597202D01*
X83299569Y-60615380D01*
X82839948Y-61075001D01*
X82821770Y-61091477D01*
X82802064Y-61106092D01*
X82781021Y-61118704D01*
X82758842Y-61129194D01*
X82735743Y-61137459D01*
X82711944Y-61143420D01*
X82687676Y-61147020D01*
X82663172Y-61148224D01*
X82638668Y-61147020D01*
X82614400Y-61143420D01*
X82590601Y-61137459D01*
X82567502Y-61129194D01*
X82545323Y-61118704D01*
X82524280Y-61106092D01*
X82504574Y-61091477D01*
X82486396Y-61075001D01*
X81849999Y-60438604D01*
X81833523Y-60420426D01*
X81818908Y-60400720D01*
X81806296Y-60379677D01*
X81795806Y-60357498D01*
X81787541Y-60334399D01*
X81781580Y-60310600D01*
X81777980Y-60286332D01*
X81776776Y-60261828D01*
X81777980Y-60237324D01*
X81781580Y-60213056D01*
X81787541Y-60189257D01*
X81795806Y-60166158D01*
X81806296Y-60143979D01*
X81818908Y-60122936D01*
X81833523Y-60103230D01*
X81849999Y-60085052D01*
X82309620Y-59625431D01*
X82327798Y-59608955D01*
X82347504Y-59594340D01*
X82368547Y-59581728D01*
X82390726Y-59571238D01*
X82413825Y-59562973D01*
X82437624Y-59557012D01*
X82461892Y-59553412D01*
X82486396Y-59552208D01*
X82510900Y-59553412D01*
G37*
G36*
X87837676Y-46927980D02*
G01*
X87861944Y-46931580D01*
X87885743Y-46937541D01*
X87908842Y-46945806D01*
X87931021Y-46956296D01*
X87952064Y-46968908D01*
X87971770Y-46983523D01*
X87989948Y-46999999D01*
X88449569Y-47459620D01*
X88466045Y-47477798D01*
X88480660Y-47497504D01*
X88493272Y-47518547D01*
X88503762Y-47540726D01*
X88512027Y-47563825D01*
X88517988Y-47587624D01*
X88521588Y-47611892D01*
X88522792Y-47636396D01*
X88521588Y-47660900D01*
X88517988Y-47685168D01*
X88512027Y-47708967D01*
X88503762Y-47732066D01*
X88493272Y-47754245D01*
X88480660Y-47775288D01*
X88466045Y-47794994D01*
X88449569Y-47813172D01*
X87813172Y-48449569D01*
X87794994Y-48466045D01*
X87775288Y-48480660D01*
X87754245Y-48493272D01*
X87732066Y-48503762D01*
X87708967Y-48512027D01*
X87685168Y-48517988D01*
X87660900Y-48521588D01*
X87636396Y-48522792D01*
X87611892Y-48521588D01*
X87587624Y-48517988D01*
X87563825Y-48512027D01*
X87540726Y-48503762D01*
X87518547Y-48493272D01*
X87497504Y-48480660D01*
X87477798Y-48466045D01*
X87459620Y-48449569D01*
X86999999Y-47989948D01*
X86983523Y-47971770D01*
X86968908Y-47952064D01*
X86956296Y-47931021D01*
X86945806Y-47908842D01*
X86937541Y-47885743D01*
X86931580Y-47861944D01*
X86927980Y-47837676D01*
X86926776Y-47813172D01*
X86927980Y-47788668D01*
X86931580Y-47764400D01*
X86937541Y-47740601D01*
X86945806Y-47717502D01*
X86956296Y-47695323D01*
X86968908Y-47674280D01*
X86983523Y-47654574D01*
X86999999Y-47636396D01*
X87636396Y-46999999D01*
X87654574Y-46983523D01*
X87674280Y-46968908D01*
X87695323Y-46956296D01*
X87717502Y-46945806D01*
X87740601Y-46937541D01*
X87764400Y-46931580D01*
X87788668Y-46927980D01*
X87813172Y-46926776D01*
X87837676Y-46927980D01*
G37*
G36*
X86388108Y-45478412D02*
G01*
X86412376Y-45482012D01*
X86436175Y-45487973D01*
X86459274Y-45496238D01*
X86481453Y-45506728D01*
X86502496Y-45519340D01*
X86522202Y-45533955D01*
X86540380Y-45550431D01*
X87000001Y-46010052D01*
X87016477Y-46028230D01*
X87031092Y-46047936D01*
X87043704Y-46068979D01*
X87054194Y-46091158D01*
X87062459Y-46114257D01*
X87068420Y-46138056D01*
X87072020Y-46162324D01*
X87073224Y-46186828D01*
X87072020Y-46211332D01*
X87068420Y-46235600D01*
X87062459Y-46259399D01*
X87054194Y-46282498D01*
X87043704Y-46304677D01*
X87031092Y-46325720D01*
X87016477Y-46345426D01*
X87000001Y-46363604D01*
X86363604Y-47000001D01*
X86345426Y-47016477D01*
X86325720Y-47031092D01*
X86304677Y-47043704D01*
X86282498Y-47054194D01*
X86259399Y-47062459D01*
X86235600Y-47068420D01*
X86211332Y-47072020D01*
X86186828Y-47073224D01*
X86162324Y-47072020D01*
X86138056Y-47068420D01*
X86114257Y-47062459D01*
X86091158Y-47054194D01*
X86068979Y-47043704D01*
X86047936Y-47031092D01*
X86028230Y-47016477D01*
X86010052Y-47000001D01*
X85550431Y-46540380D01*
X85533955Y-46522202D01*
X85519340Y-46502496D01*
X85506728Y-46481453D01*
X85496238Y-46459274D01*
X85487973Y-46436175D01*
X85482012Y-46412376D01*
X85478412Y-46388108D01*
X85477208Y-46363604D01*
X85478412Y-46339100D01*
X85482012Y-46314832D01*
X85487973Y-46291033D01*
X85496238Y-46267934D01*
X85506728Y-46245755D01*
X85519340Y-46224712D01*
X85533955Y-46205006D01*
X85550431Y-46186828D01*
X86186828Y-45550431D01*
X86205006Y-45533955D01*
X86224712Y-45519340D01*
X86245755Y-45506728D01*
X86267934Y-45496238D01*
X86291033Y-45487973D01*
X86314832Y-45482012D01*
X86339100Y-45478412D01*
X86363604Y-45477208D01*
X86388108Y-45478412D01*
G37*
G36*
X90899505Y-77426204D02*
G01*
X90923773Y-77429804D01*
X90947572Y-77435765D01*
X90970671Y-77444030D01*
X90992850Y-77454520D01*
X91013893Y-77467132D01*
X91033599Y-77481747D01*
X91051777Y-77498223D01*
X91068253Y-77516401D01*
X91082868Y-77536107D01*
X91095480Y-77557150D01*
X91105970Y-77579329D01*
X91114235Y-77602428D01*
X91120196Y-77626227D01*
X91123796Y-77650495D01*
X91125000Y-77674999D01*
X91125000Y-78325001D01*
X91123796Y-78349505D01*
X91120196Y-78373773D01*
X91114235Y-78397572D01*
X91105970Y-78420671D01*
X91095480Y-78442850D01*
X91082868Y-78463893D01*
X91068253Y-78483599D01*
X91051777Y-78501777D01*
X91033599Y-78518253D01*
X91013893Y-78532868D01*
X90992850Y-78545480D01*
X90970671Y-78555970D01*
X90947572Y-78564235D01*
X90923773Y-78570196D01*
X90899505Y-78573796D01*
X90875001Y-78575000D01*
X89974999Y-78575000D01*
X89950495Y-78573796D01*
X89926227Y-78570196D01*
X89902428Y-78564235D01*
X89879329Y-78555970D01*
X89857150Y-78545480D01*
X89836107Y-78532868D01*
X89816401Y-78518253D01*
X89798223Y-78501777D01*
X89781747Y-78483599D01*
X89767132Y-78463893D01*
X89754520Y-78442850D01*
X89744030Y-78420671D01*
X89735765Y-78397572D01*
X89729804Y-78373773D01*
X89726204Y-78349505D01*
X89725000Y-78325001D01*
X89725000Y-77674999D01*
X89726204Y-77650495D01*
X89729804Y-77626227D01*
X89735765Y-77602428D01*
X89744030Y-77579329D01*
X89754520Y-77557150D01*
X89767132Y-77536107D01*
X89781747Y-77516401D01*
X89798223Y-77498223D01*
X89816401Y-77481747D01*
X89836107Y-77467132D01*
X89857150Y-77454520D01*
X89879329Y-77444030D01*
X89902428Y-77435765D01*
X89926227Y-77429804D01*
X89950495Y-77426204D01*
X89974999Y-77425000D01*
X90875001Y-77425000D01*
X90899505Y-77426204D01*
G37*
G36*
X90899505Y-79476204D02*
G01*
X90923773Y-79479804D01*
X90947572Y-79485765D01*
X90970671Y-79494030D01*
X90992850Y-79504520D01*
X91013893Y-79517132D01*
X91033599Y-79531747D01*
X91051777Y-79548223D01*
X91068253Y-79566401D01*
X91082868Y-79586107D01*
X91095480Y-79607150D01*
X91105970Y-79629329D01*
X91114235Y-79652428D01*
X91120196Y-79676227D01*
X91123796Y-79700495D01*
X91125000Y-79724999D01*
X91125000Y-80375001D01*
X91123796Y-80399505D01*
X91120196Y-80423773D01*
X91114235Y-80447572D01*
X91105970Y-80470671D01*
X91095480Y-80492850D01*
X91082868Y-80513893D01*
X91068253Y-80533599D01*
X91051777Y-80551777D01*
X91033599Y-80568253D01*
X91013893Y-80582868D01*
X90992850Y-80595480D01*
X90970671Y-80605970D01*
X90947572Y-80614235D01*
X90923773Y-80620196D01*
X90899505Y-80623796D01*
X90875001Y-80625000D01*
X89974999Y-80625000D01*
X89950495Y-80623796D01*
X89926227Y-80620196D01*
X89902428Y-80614235D01*
X89879329Y-80605970D01*
X89857150Y-80595480D01*
X89836107Y-80582868D01*
X89816401Y-80568253D01*
X89798223Y-80551777D01*
X89781747Y-80533599D01*
X89767132Y-80513893D01*
X89754520Y-80492850D01*
X89744030Y-80470671D01*
X89735765Y-80447572D01*
X89729804Y-80423773D01*
X89726204Y-80399505D01*
X89725000Y-80375001D01*
X89725000Y-79724999D01*
X89726204Y-79700495D01*
X89729804Y-79676227D01*
X89735765Y-79652428D01*
X89744030Y-79629329D01*
X89754520Y-79607150D01*
X89767132Y-79586107D01*
X89781747Y-79566401D01*
X89798223Y-79548223D01*
X89816401Y-79531747D01*
X89836107Y-79517132D01*
X89857150Y-79504520D01*
X89879329Y-79494030D01*
X89902428Y-79485765D01*
X89926227Y-79479804D01*
X89950495Y-79476204D01*
X89974999Y-79475000D01*
X90875001Y-79475000D01*
X90899505Y-79476204D01*
G37*
D11*
X47620000Y-97050000D03*
X47620000Y-93850000D03*
X42720000Y-97050000D03*
X42720000Y-93850000D03*
X56620000Y-97050000D03*
X56620000Y-93850000D03*
X51720000Y-97050000D03*
X51720000Y-93850000D03*
X65620000Y-97050000D03*
X65620000Y-93850000D03*
X60720000Y-97050000D03*
X60720000Y-93850000D03*
X74620000Y-97050000D03*
X74620000Y-93850000D03*
X69720000Y-97050000D03*
X69720000Y-93850000D03*
X83620000Y-97050000D03*
X83620000Y-93850000D03*
X78720000Y-97050000D03*
X78720000Y-93850000D03*
X92620000Y-97050000D03*
X92620000Y-93850000D03*
X87720000Y-97050000D03*
X87720000Y-93850000D03*
D10*
G36*
X88949505Y-65426204D02*
G01*
X88973773Y-65429804D01*
X88997572Y-65435765D01*
X89020671Y-65444030D01*
X89042850Y-65454520D01*
X89063893Y-65467132D01*
X89083599Y-65481747D01*
X89101777Y-65498223D01*
X89118253Y-65516401D01*
X89132868Y-65536107D01*
X89145480Y-65557150D01*
X89155970Y-65579329D01*
X89164235Y-65602428D01*
X89170196Y-65626227D01*
X89173796Y-65650495D01*
X89175000Y-65674999D01*
X89175000Y-66575001D01*
X89173796Y-66599505D01*
X89170196Y-66623773D01*
X89164235Y-66647572D01*
X89155970Y-66670671D01*
X89145480Y-66692850D01*
X89132868Y-66713893D01*
X89118253Y-66733599D01*
X89101777Y-66751777D01*
X89083599Y-66768253D01*
X89063893Y-66782868D01*
X89042850Y-66795480D01*
X89020671Y-66805970D01*
X88997572Y-66814235D01*
X88973773Y-66820196D01*
X88949505Y-66823796D01*
X88925001Y-66825000D01*
X88274999Y-66825000D01*
X88250495Y-66823796D01*
X88226227Y-66820196D01*
X88202428Y-66814235D01*
X88179329Y-66805970D01*
X88157150Y-66795480D01*
X88136107Y-66782868D01*
X88116401Y-66768253D01*
X88098223Y-66751777D01*
X88081747Y-66733599D01*
X88067132Y-66713893D01*
X88054520Y-66692850D01*
X88044030Y-66670671D01*
X88035765Y-66647572D01*
X88029804Y-66623773D01*
X88026204Y-66599505D01*
X88025000Y-66575001D01*
X88025000Y-65674999D01*
X88026204Y-65650495D01*
X88029804Y-65626227D01*
X88035765Y-65602428D01*
X88044030Y-65579329D01*
X88054520Y-65557150D01*
X88067132Y-65536107D01*
X88081747Y-65516401D01*
X88098223Y-65498223D01*
X88116401Y-65481747D01*
X88136107Y-65467132D01*
X88157150Y-65454520D01*
X88179329Y-65444030D01*
X88202428Y-65435765D01*
X88226227Y-65429804D01*
X88250495Y-65426204D01*
X88274999Y-65425000D01*
X88925001Y-65425000D01*
X88949505Y-65426204D01*
G37*
G36*
X90999505Y-65426204D02*
G01*
X91023773Y-65429804D01*
X91047572Y-65435765D01*
X91070671Y-65444030D01*
X91092850Y-65454520D01*
X91113893Y-65467132D01*
X91133599Y-65481747D01*
X91151777Y-65498223D01*
X91168253Y-65516401D01*
X91182868Y-65536107D01*
X91195480Y-65557150D01*
X91205970Y-65579329D01*
X91214235Y-65602428D01*
X91220196Y-65626227D01*
X91223796Y-65650495D01*
X91225000Y-65674999D01*
X91225000Y-66575001D01*
X91223796Y-66599505D01*
X91220196Y-66623773D01*
X91214235Y-66647572D01*
X91205970Y-66670671D01*
X91195480Y-66692850D01*
X91182868Y-66713893D01*
X91168253Y-66733599D01*
X91151777Y-66751777D01*
X91133599Y-66768253D01*
X91113893Y-66782868D01*
X91092850Y-66795480D01*
X91070671Y-66805970D01*
X91047572Y-66814235D01*
X91023773Y-66820196D01*
X90999505Y-66823796D01*
X90975001Y-66825000D01*
X90324999Y-66825000D01*
X90300495Y-66823796D01*
X90276227Y-66820196D01*
X90252428Y-66814235D01*
X90229329Y-66805970D01*
X90207150Y-66795480D01*
X90186107Y-66782868D01*
X90166401Y-66768253D01*
X90148223Y-66751777D01*
X90131747Y-66733599D01*
X90117132Y-66713893D01*
X90104520Y-66692850D01*
X90094030Y-66670671D01*
X90085765Y-66647572D01*
X90079804Y-66623773D01*
X90076204Y-66599505D01*
X90075000Y-66575001D01*
X90075000Y-65674999D01*
X90076204Y-65650495D01*
X90079804Y-65626227D01*
X90085765Y-65602428D01*
X90094030Y-65579329D01*
X90104520Y-65557150D01*
X90117132Y-65536107D01*
X90131747Y-65516401D01*
X90148223Y-65498223D01*
X90166401Y-65481747D01*
X90186107Y-65467132D01*
X90207150Y-65454520D01*
X90229329Y-65444030D01*
X90252428Y-65435765D01*
X90276227Y-65429804D01*
X90300495Y-65426204D01*
X90324999Y-65425000D01*
X90975001Y-65425000D01*
X90999505Y-65426204D01*
G37*
G36*
X75474505Y-64426204D02*
G01*
X75498773Y-64429804D01*
X75522572Y-64435765D01*
X75545671Y-64444030D01*
X75567850Y-64454520D01*
X75588893Y-64467132D01*
X75608599Y-64481747D01*
X75626777Y-64498223D01*
X75643253Y-64516401D01*
X75657868Y-64536107D01*
X75670480Y-64557150D01*
X75680970Y-64579329D01*
X75689235Y-64602428D01*
X75695196Y-64626227D01*
X75698796Y-64650495D01*
X75700000Y-64674999D01*
X75700000Y-65325001D01*
X75698796Y-65349505D01*
X75695196Y-65373773D01*
X75689235Y-65397572D01*
X75680970Y-65420671D01*
X75670480Y-65442850D01*
X75657868Y-65463893D01*
X75643253Y-65483599D01*
X75626777Y-65501777D01*
X75608599Y-65518253D01*
X75588893Y-65532868D01*
X75567850Y-65545480D01*
X75545671Y-65555970D01*
X75522572Y-65564235D01*
X75498773Y-65570196D01*
X75474505Y-65573796D01*
X75450001Y-65575000D01*
X74549999Y-65575000D01*
X74525495Y-65573796D01*
X74501227Y-65570196D01*
X74477428Y-65564235D01*
X74454329Y-65555970D01*
X74432150Y-65545480D01*
X74411107Y-65532868D01*
X74391401Y-65518253D01*
X74373223Y-65501777D01*
X74356747Y-65483599D01*
X74342132Y-65463893D01*
X74329520Y-65442850D01*
X74319030Y-65420671D01*
X74310765Y-65397572D01*
X74304804Y-65373773D01*
X74301204Y-65349505D01*
X74300000Y-65325001D01*
X74300000Y-64674999D01*
X74301204Y-64650495D01*
X74304804Y-64626227D01*
X74310765Y-64602428D01*
X74319030Y-64579329D01*
X74329520Y-64557150D01*
X74342132Y-64536107D01*
X74356747Y-64516401D01*
X74373223Y-64498223D01*
X74391401Y-64481747D01*
X74411107Y-64467132D01*
X74432150Y-64454520D01*
X74454329Y-64444030D01*
X74477428Y-64435765D01*
X74501227Y-64429804D01*
X74525495Y-64426204D01*
X74549999Y-64425000D01*
X75450001Y-64425000D01*
X75474505Y-64426204D01*
G37*
G36*
X75474505Y-62376204D02*
G01*
X75498773Y-62379804D01*
X75522572Y-62385765D01*
X75545671Y-62394030D01*
X75567850Y-62404520D01*
X75588893Y-62417132D01*
X75608599Y-62431747D01*
X75626777Y-62448223D01*
X75643253Y-62466401D01*
X75657868Y-62486107D01*
X75670480Y-62507150D01*
X75680970Y-62529329D01*
X75689235Y-62552428D01*
X75695196Y-62576227D01*
X75698796Y-62600495D01*
X75700000Y-62624999D01*
X75700000Y-63275001D01*
X75698796Y-63299505D01*
X75695196Y-63323773D01*
X75689235Y-63347572D01*
X75680970Y-63370671D01*
X75670480Y-63392850D01*
X75657868Y-63413893D01*
X75643253Y-63433599D01*
X75626777Y-63451777D01*
X75608599Y-63468253D01*
X75588893Y-63482868D01*
X75567850Y-63495480D01*
X75545671Y-63505970D01*
X75522572Y-63514235D01*
X75498773Y-63520196D01*
X75474505Y-63523796D01*
X75450001Y-63525000D01*
X74549999Y-63525000D01*
X74525495Y-63523796D01*
X74501227Y-63520196D01*
X74477428Y-63514235D01*
X74454329Y-63505970D01*
X74432150Y-63495480D01*
X74411107Y-63482868D01*
X74391401Y-63468253D01*
X74373223Y-63451777D01*
X74356747Y-63433599D01*
X74342132Y-63413893D01*
X74329520Y-63392850D01*
X74319030Y-63370671D01*
X74310765Y-63347572D01*
X74304804Y-63323773D01*
X74301204Y-63299505D01*
X74300000Y-63275001D01*
X74300000Y-62624999D01*
X74301204Y-62600495D01*
X74304804Y-62576227D01*
X74310765Y-62552428D01*
X74319030Y-62529329D01*
X74329520Y-62507150D01*
X74342132Y-62486107D01*
X74356747Y-62466401D01*
X74373223Y-62448223D01*
X74391401Y-62431747D01*
X74411107Y-62417132D01*
X74432150Y-62404520D01*
X74454329Y-62394030D01*
X74477428Y-62385765D01*
X74501227Y-62379804D01*
X74525495Y-62376204D01*
X74549999Y-62375000D01*
X75450001Y-62375000D01*
X75474505Y-62376204D01*
G37*
G36*
X73912676Y-71677980D02*
G01*
X73936944Y-71681580D01*
X73960743Y-71687541D01*
X73983842Y-71695806D01*
X74006021Y-71706296D01*
X74027064Y-71718908D01*
X74046770Y-71733523D01*
X74064948Y-71749999D01*
X74524569Y-72209620D01*
X74541045Y-72227798D01*
X74555660Y-72247504D01*
X74568272Y-72268547D01*
X74578762Y-72290726D01*
X74587027Y-72313825D01*
X74592988Y-72337624D01*
X74596588Y-72361892D01*
X74597792Y-72386396D01*
X74596588Y-72410900D01*
X74592988Y-72435168D01*
X74587027Y-72458967D01*
X74578762Y-72482066D01*
X74568272Y-72504245D01*
X74555660Y-72525288D01*
X74541045Y-72544994D01*
X74524569Y-72563172D01*
X73888172Y-73199569D01*
X73869994Y-73216045D01*
X73850288Y-73230660D01*
X73829245Y-73243272D01*
X73807066Y-73253762D01*
X73783967Y-73262027D01*
X73760168Y-73267988D01*
X73735900Y-73271588D01*
X73711396Y-73272792D01*
X73686892Y-73271588D01*
X73662624Y-73267988D01*
X73638825Y-73262027D01*
X73615726Y-73253762D01*
X73593547Y-73243272D01*
X73572504Y-73230660D01*
X73552798Y-73216045D01*
X73534620Y-73199569D01*
X73074999Y-72739948D01*
X73058523Y-72721770D01*
X73043908Y-72702064D01*
X73031296Y-72681021D01*
X73020806Y-72658842D01*
X73012541Y-72635743D01*
X73006580Y-72611944D01*
X73002980Y-72587676D01*
X73001776Y-72563172D01*
X73002980Y-72538668D01*
X73006580Y-72514400D01*
X73012541Y-72490601D01*
X73020806Y-72467502D01*
X73031296Y-72445323D01*
X73043908Y-72424280D01*
X73058523Y-72404574D01*
X73074999Y-72386396D01*
X73711396Y-71749999D01*
X73729574Y-71733523D01*
X73749280Y-71718908D01*
X73770323Y-71706296D01*
X73792502Y-71695806D01*
X73815601Y-71687541D01*
X73839400Y-71681580D01*
X73863668Y-71677980D01*
X73888172Y-71676776D01*
X73912676Y-71677980D01*
G37*
G36*
X72463108Y-70228412D02*
G01*
X72487376Y-70232012D01*
X72511175Y-70237973D01*
X72534274Y-70246238D01*
X72556453Y-70256728D01*
X72577496Y-70269340D01*
X72597202Y-70283955D01*
X72615380Y-70300431D01*
X73075001Y-70760052D01*
X73091477Y-70778230D01*
X73106092Y-70797936D01*
X73118704Y-70818979D01*
X73129194Y-70841158D01*
X73137459Y-70864257D01*
X73143420Y-70888056D01*
X73147020Y-70912324D01*
X73148224Y-70936828D01*
X73147020Y-70961332D01*
X73143420Y-70985600D01*
X73137459Y-71009399D01*
X73129194Y-71032498D01*
X73118704Y-71054677D01*
X73106092Y-71075720D01*
X73091477Y-71095426D01*
X73075001Y-71113604D01*
X72438604Y-71750001D01*
X72420426Y-71766477D01*
X72400720Y-71781092D01*
X72379677Y-71793704D01*
X72357498Y-71804194D01*
X72334399Y-71812459D01*
X72310600Y-71818420D01*
X72286332Y-71822020D01*
X72261828Y-71823224D01*
X72237324Y-71822020D01*
X72213056Y-71818420D01*
X72189257Y-71812459D01*
X72166158Y-71804194D01*
X72143979Y-71793704D01*
X72122936Y-71781092D01*
X72103230Y-71766477D01*
X72085052Y-71750001D01*
X71625431Y-71290380D01*
X71608955Y-71272202D01*
X71594340Y-71252496D01*
X71581728Y-71231453D01*
X71571238Y-71209274D01*
X71562973Y-71186175D01*
X71557012Y-71162376D01*
X71553412Y-71138108D01*
X71552208Y-71113604D01*
X71553412Y-71089100D01*
X71557012Y-71064832D01*
X71562973Y-71041033D01*
X71571238Y-71017934D01*
X71581728Y-70995755D01*
X71594340Y-70974712D01*
X71608955Y-70955006D01*
X71625431Y-70936828D01*
X72261828Y-70300431D01*
X72280006Y-70283955D01*
X72299712Y-70269340D01*
X72320755Y-70256728D01*
X72342934Y-70246238D01*
X72366033Y-70237973D01*
X72389832Y-70232012D01*
X72414100Y-70228412D01*
X72438604Y-70227208D01*
X72463108Y-70228412D01*
G37*
G36*
X86479802Y-53902658D02*
G01*
X86487083Y-53903738D01*
X86494222Y-53905526D01*
X86501152Y-53908006D01*
X86507806Y-53911153D01*
X86514119Y-53914937D01*
X86520030Y-53919321D01*
X86525484Y-53924264D01*
X87462400Y-54861180D01*
X87467343Y-54866634D01*
X87471727Y-54872545D01*
X87475511Y-54878858D01*
X87478658Y-54885512D01*
X87481138Y-54892442D01*
X87482926Y-54899581D01*
X87484006Y-54906862D01*
X87484367Y-54914213D01*
X87484006Y-54921564D01*
X87482926Y-54928845D01*
X87481138Y-54935984D01*
X87478658Y-54942914D01*
X87475511Y-54949568D01*
X87471727Y-54955881D01*
X87467343Y-54961792D01*
X87462400Y-54967246D01*
X87356334Y-55073312D01*
X87350880Y-55078255D01*
X87344969Y-55082639D01*
X87338656Y-55086423D01*
X87332002Y-55089570D01*
X87325072Y-55092050D01*
X87317933Y-55093838D01*
X87310652Y-55094918D01*
X87303301Y-55095279D01*
X87295950Y-55094918D01*
X87288669Y-55093838D01*
X87281530Y-55092050D01*
X87274600Y-55089570D01*
X87267946Y-55086423D01*
X87261633Y-55082639D01*
X87255722Y-55078255D01*
X87250268Y-55073312D01*
X86313352Y-54136396D01*
X86308409Y-54130942D01*
X86304025Y-54125031D01*
X86300241Y-54118718D01*
X86297094Y-54112064D01*
X86294614Y-54105134D01*
X86292826Y-54097995D01*
X86291746Y-54090714D01*
X86291385Y-54083363D01*
X86291746Y-54076012D01*
X86292826Y-54068731D01*
X86294614Y-54061592D01*
X86297094Y-54054662D01*
X86300241Y-54048008D01*
X86304025Y-54041695D01*
X86308409Y-54035784D01*
X86313352Y-54030330D01*
X86419418Y-53924264D01*
X86424872Y-53919321D01*
X86430783Y-53914937D01*
X86437096Y-53911153D01*
X86443750Y-53908006D01*
X86450680Y-53905526D01*
X86457819Y-53903738D01*
X86465100Y-53902658D01*
X86472451Y-53902297D01*
X86479802Y-53902658D01*
G37*
G36*
X86126248Y-54256212D02*
G01*
X86133529Y-54257292D01*
X86140668Y-54259080D01*
X86147598Y-54261560D01*
X86154252Y-54264707D01*
X86160565Y-54268491D01*
X86166476Y-54272875D01*
X86171930Y-54277818D01*
X87108846Y-55214734D01*
X87113789Y-55220188D01*
X87118173Y-55226099D01*
X87121957Y-55232412D01*
X87125104Y-55239066D01*
X87127584Y-55245996D01*
X87129372Y-55253135D01*
X87130452Y-55260416D01*
X87130813Y-55267767D01*
X87130452Y-55275118D01*
X87129372Y-55282399D01*
X87127584Y-55289538D01*
X87125104Y-55296468D01*
X87121957Y-55303122D01*
X87118173Y-55309435D01*
X87113789Y-55315346D01*
X87108846Y-55320800D01*
X87002780Y-55426866D01*
X86997326Y-55431809D01*
X86991415Y-55436193D01*
X86985102Y-55439977D01*
X86978448Y-55443124D01*
X86971518Y-55445604D01*
X86964379Y-55447392D01*
X86957098Y-55448472D01*
X86949747Y-55448833D01*
X86942396Y-55448472D01*
X86935115Y-55447392D01*
X86927976Y-55445604D01*
X86921046Y-55443124D01*
X86914392Y-55439977D01*
X86908079Y-55436193D01*
X86902168Y-55431809D01*
X86896714Y-55426866D01*
X85959798Y-54489950D01*
X85954855Y-54484496D01*
X85950471Y-54478585D01*
X85946687Y-54472272D01*
X85943540Y-54465618D01*
X85941060Y-54458688D01*
X85939272Y-54451549D01*
X85938192Y-54444268D01*
X85937831Y-54436917D01*
X85938192Y-54429566D01*
X85939272Y-54422285D01*
X85941060Y-54415146D01*
X85943540Y-54408216D01*
X85946687Y-54401562D01*
X85950471Y-54395249D01*
X85954855Y-54389338D01*
X85959798Y-54383884D01*
X86065864Y-54277818D01*
X86071318Y-54272875D01*
X86077229Y-54268491D01*
X86083542Y-54264707D01*
X86090196Y-54261560D01*
X86097126Y-54259080D01*
X86104265Y-54257292D01*
X86111546Y-54256212D01*
X86118897Y-54255851D01*
X86126248Y-54256212D01*
G37*
G36*
X85772695Y-54609765D02*
G01*
X85779976Y-54610845D01*
X85787115Y-54612633D01*
X85794045Y-54615113D01*
X85800699Y-54618260D01*
X85807012Y-54622044D01*
X85812923Y-54626428D01*
X85818377Y-54631371D01*
X86755293Y-55568287D01*
X86760236Y-55573741D01*
X86764620Y-55579652D01*
X86768404Y-55585965D01*
X86771551Y-55592619D01*
X86774031Y-55599549D01*
X86775819Y-55606688D01*
X86776899Y-55613969D01*
X86777260Y-55621320D01*
X86776899Y-55628671D01*
X86775819Y-55635952D01*
X86774031Y-55643091D01*
X86771551Y-55650021D01*
X86768404Y-55656675D01*
X86764620Y-55662988D01*
X86760236Y-55668899D01*
X86755293Y-55674353D01*
X86649227Y-55780419D01*
X86643773Y-55785362D01*
X86637862Y-55789746D01*
X86631549Y-55793530D01*
X86624895Y-55796677D01*
X86617965Y-55799157D01*
X86610826Y-55800945D01*
X86603545Y-55802025D01*
X86596194Y-55802386D01*
X86588843Y-55802025D01*
X86581562Y-55800945D01*
X86574423Y-55799157D01*
X86567493Y-55796677D01*
X86560839Y-55793530D01*
X86554526Y-55789746D01*
X86548615Y-55785362D01*
X86543161Y-55780419D01*
X85606245Y-54843503D01*
X85601302Y-54838049D01*
X85596918Y-54832138D01*
X85593134Y-54825825D01*
X85589987Y-54819171D01*
X85587507Y-54812241D01*
X85585719Y-54805102D01*
X85584639Y-54797821D01*
X85584278Y-54790470D01*
X85584639Y-54783119D01*
X85585719Y-54775838D01*
X85587507Y-54768699D01*
X85589987Y-54761769D01*
X85593134Y-54755115D01*
X85596918Y-54748802D01*
X85601302Y-54742891D01*
X85606245Y-54737437D01*
X85712311Y-54631371D01*
X85717765Y-54626428D01*
X85723676Y-54622044D01*
X85729989Y-54618260D01*
X85736643Y-54615113D01*
X85743573Y-54612633D01*
X85750712Y-54610845D01*
X85757993Y-54609765D01*
X85765344Y-54609404D01*
X85772695Y-54609765D01*
G37*
G36*
X85419141Y-54963319D02*
G01*
X85426422Y-54964399D01*
X85433561Y-54966187D01*
X85440491Y-54968667D01*
X85447145Y-54971814D01*
X85453458Y-54975598D01*
X85459369Y-54979982D01*
X85464823Y-54984925D01*
X86401739Y-55921841D01*
X86406682Y-55927295D01*
X86411066Y-55933206D01*
X86414850Y-55939519D01*
X86417997Y-55946173D01*
X86420477Y-55953103D01*
X86422265Y-55960242D01*
X86423345Y-55967523D01*
X86423706Y-55974874D01*
X86423345Y-55982225D01*
X86422265Y-55989506D01*
X86420477Y-55996645D01*
X86417997Y-56003575D01*
X86414850Y-56010229D01*
X86411066Y-56016542D01*
X86406682Y-56022453D01*
X86401739Y-56027907D01*
X86295673Y-56133973D01*
X86290219Y-56138916D01*
X86284308Y-56143300D01*
X86277995Y-56147084D01*
X86271341Y-56150231D01*
X86264411Y-56152711D01*
X86257272Y-56154499D01*
X86249991Y-56155579D01*
X86242640Y-56155940D01*
X86235289Y-56155579D01*
X86228008Y-56154499D01*
X86220869Y-56152711D01*
X86213939Y-56150231D01*
X86207285Y-56147084D01*
X86200972Y-56143300D01*
X86195061Y-56138916D01*
X86189607Y-56133973D01*
X85252691Y-55197057D01*
X85247748Y-55191603D01*
X85243364Y-55185692D01*
X85239580Y-55179379D01*
X85236433Y-55172725D01*
X85233953Y-55165795D01*
X85232165Y-55158656D01*
X85231085Y-55151375D01*
X85230724Y-55144024D01*
X85231085Y-55136673D01*
X85232165Y-55129392D01*
X85233953Y-55122253D01*
X85236433Y-55115323D01*
X85239580Y-55108669D01*
X85243364Y-55102356D01*
X85247748Y-55096445D01*
X85252691Y-55090991D01*
X85358757Y-54984925D01*
X85364211Y-54979982D01*
X85370122Y-54975598D01*
X85376435Y-54971814D01*
X85383089Y-54968667D01*
X85390019Y-54966187D01*
X85397158Y-54964399D01*
X85404439Y-54963319D01*
X85411790Y-54962958D01*
X85419141Y-54963319D01*
G37*
G36*
X85065588Y-55316872D02*
G01*
X85072869Y-55317952D01*
X85080008Y-55319740D01*
X85086938Y-55322220D01*
X85093592Y-55325367D01*
X85099905Y-55329151D01*
X85105816Y-55333535D01*
X85111270Y-55338478D01*
X86048186Y-56275394D01*
X86053129Y-56280848D01*
X86057513Y-56286759D01*
X86061297Y-56293072D01*
X86064444Y-56299726D01*
X86066924Y-56306656D01*
X86068712Y-56313795D01*
X86069792Y-56321076D01*
X86070153Y-56328427D01*
X86069792Y-56335778D01*
X86068712Y-56343059D01*
X86066924Y-56350198D01*
X86064444Y-56357128D01*
X86061297Y-56363782D01*
X86057513Y-56370095D01*
X86053129Y-56376006D01*
X86048186Y-56381460D01*
X85942120Y-56487526D01*
X85936666Y-56492469D01*
X85930755Y-56496853D01*
X85924442Y-56500637D01*
X85917788Y-56503784D01*
X85910858Y-56506264D01*
X85903719Y-56508052D01*
X85896438Y-56509132D01*
X85889087Y-56509493D01*
X85881736Y-56509132D01*
X85874455Y-56508052D01*
X85867316Y-56506264D01*
X85860386Y-56503784D01*
X85853732Y-56500637D01*
X85847419Y-56496853D01*
X85841508Y-56492469D01*
X85836054Y-56487526D01*
X84899138Y-55550610D01*
X84894195Y-55545156D01*
X84889811Y-55539245D01*
X84886027Y-55532932D01*
X84882880Y-55526278D01*
X84880400Y-55519348D01*
X84878612Y-55512209D01*
X84877532Y-55504928D01*
X84877171Y-55497577D01*
X84877532Y-55490226D01*
X84878612Y-55482945D01*
X84880400Y-55475806D01*
X84882880Y-55468876D01*
X84886027Y-55462222D01*
X84889811Y-55455909D01*
X84894195Y-55449998D01*
X84899138Y-55444544D01*
X85005204Y-55338478D01*
X85010658Y-55333535D01*
X85016569Y-55329151D01*
X85022882Y-55325367D01*
X85029536Y-55322220D01*
X85036466Y-55319740D01*
X85043605Y-55317952D01*
X85050886Y-55316872D01*
X85058237Y-55316511D01*
X85065588Y-55316872D01*
G37*
G36*
X84712035Y-55670425D02*
G01*
X84719316Y-55671505D01*
X84726455Y-55673293D01*
X84733385Y-55675773D01*
X84740039Y-55678920D01*
X84746352Y-55682704D01*
X84752263Y-55687088D01*
X84757717Y-55692031D01*
X85694633Y-56628947D01*
X85699576Y-56634401D01*
X85703960Y-56640312D01*
X85707744Y-56646625D01*
X85710891Y-56653279D01*
X85713371Y-56660209D01*
X85715159Y-56667348D01*
X85716239Y-56674629D01*
X85716600Y-56681980D01*
X85716239Y-56689331D01*
X85715159Y-56696612D01*
X85713371Y-56703751D01*
X85710891Y-56710681D01*
X85707744Y-56717335D01*
X85703960Y-56723648D01*
X85699576Y-56729559D01*
X85694633Y-56735013D01*
X85588567Y-56841079D01*
X85583113Y-56846022D01*
X85577202Y-56850406D01*
X85570889Y-56854190D01*
X85564235Y-56857337D01*
X85557305Y-56859817D01*
X85550166Y-56861605D01*
X85542885Y-56862685D01*
X85535534Y-56863046D01*
X85528183Y-56862685D01*
X85520902Y-56861605D01*
X85513763Y-56859817D01*
X85506833Y-56857337D01*
X85500179Y-56854190D01*
X85493866Y-56850406D01*
X85487955Y-56846022D01*
X85482501Y-56841079D01*
X84545585Y-55904163D01*
X84540642Y-55898709D01*
X84536258Y-55892798D01*
X84532474Y-55886485D01*
X84529327Y-55879831D01*
X84526847Y-55872901D01*
X84525059Y-55865762D01*
X84523979Y-55858481D01*
X84523618Y-55851130D01*
X84523979Y-55843779D01*
X84525059Y-55836498D01*
X84526847Y-55829359D01*
X84529327Y-55822429D01*
X84532474Y-55815775D01*
X84536258Y-55809462D01*
X84540642Y-55803551D01*
X84545585Y-55798097D01*
X84651651Y-55692031D01*
X84657105Y-55687088D01*
X84663016Y-55682704D01*
X84669329Y-55678920D01*
X84675983Y-55675773D01*
X84682913Y-55673293D01*
X84690052Y-55671505D01*
X84697333Y-55670425D01*
X84704684Y-55670064D01*
X84712035Y-55670425D01*
G37*
G36*
X84358481Y-56023979D02*
G01*
X84365762Y-56025059D01*
X84372901Y-56026847D01*
X84379831Y-56029327D01*
X84386485Y-56032474D01*
X84392798Y-56036258D01*
X84398709Y-56040642D01*
X84404163Y-56045585D01*
X85341079Y-56982501D01*
X85346022Y-56987955D01*
X85350406Y-56993866D01*
X85354190Y-57000179D01*
X85357337Y-57006833D01*
X85359817Y-57013763D01*
X85361605Y-57020902D01*
X85362685Y-57028183D01*
X85363046Y-57035534D01*
X85362685Y-57042885D01*
X85361605Y-57050166D01*
X85359817Y-57057305D01*
X85357337Y-57064235D01*
X85354190Y-57070889D01*
X85350406Y-57077202D01*
X85346022Y-57083113D01*
X85341079Y-57088567D01*
X85235013Y-57194633D01*
X85229559Y-57199576D01*
X85223648Y-57203960D01*
X85217335Y-57207744D01*
X85210681Y-57210891D01*
X85203751Y-57213371D01*
X85196612Y-57215159D01*
X85189331Y-57216239D01*
X85181980Y-57216600D01*
X85174629Y-57216239D01*
X85167348Y-57215159D01*
X85160209Y-57213371D01*
X85153279Y-57210891D01*
X85146625Y-57207744D01*
X85140312Y-57203960D01*
X85134401Y-57199576D01*
X85128947Y-57194633D01*
X84192031Y-56257717D01*
X84187088Y-56252263D01*
X84182704Y-56246352D01*
X84178920Y-56240039D01*
X84175773Y-56233385D01*
X84173293Y-56226455D01*
X84171505Y-56219316D01*
X84170425Y-56212035D01*
X84170064Y-56204684D01*
X84170425Y-56197333D01*
X84171505Y-56190052D01*
X84173293Y-56182913D01*
X84175773Y-56175983D01*
X84178920Y-56169329D01*
X84182704Y-56163016D01*
X84187088Y-56157105D01*
X84192031Y-56151651D01*
X84298097Y-56045585D01*
X84303551Y-56040642D01*
X84309462Y-56036258D01*
X84315775Y-56032474D01*
X84322429Y-56029327D01*
X84329359Y-56026847D01*
X84336498Y-56025059D01*
X84343779Y-56023979D01*
X84351130Y-56023618D01*
X84358481Y-56023979D01*
G37*
G36*
X84004928Y-56377532D02*
G01*
X84012209Y-56378612D01*
X84019348Y-56380400D01*
X84026278Y-56382880D01*
X84032932Y-56386027D01*
X84039245Y-56389811D01*
X84045156Y-56394195D01*
X84050610Y-56399138D01*
X84987526Y-57336054D01*
X84992469Y-57341508D01*
X84996853Y-57347419D01*
X85000637Y-57353732D01*
X85003784Y-57360386D01*
X85006264Y-57367316D01*
X85008052Y-57374455D01*
X85009132Y-57381736D01*
X85009493Y-57389087D01*
X85009132Y-57396438D01*
X85008052Y-57403719D01*
X85006264Y-57410858D01*
X85003784Y-57417788D01*
X85000637Y-57424442D01*
X84996853Y-57430755D01*
X84992469Y-57436666D01*
X84987526Y-57442120D01*
X84881460Y-57548186D01*
X84876006Y-57553129D01*
X84870095Y-57557513D01*
X84863782Y-57561297D01*
X84857128Y-57564444D01*
X84850198Y-57566924D01*
X84843059Y-57568712D01*
X84835778Y-57569792D01*
X84828427Y-57570153D01*
X84821076Y-57569792D01*
X84813795Y-57568712D01*
X84806656Y-57566924D01*
X84799726Y-57564444D01*
X84793072Y-57561297D01*
X84786759Y-57557513D01*
X84780848Y-57553129D01*
X84775394Y-57548186D01*
X83838478Y-56611270D01*
X83833535Y-56605816D01*
X83829151Y-56599905D01*
X83825367Y-56593592D01*
X83822220Y-56586938D01*
X83819740Y-56580008D01*
X83817952Y-56572869D01*
X83816872Y-56565588D01*
X83816511Y-56558237D01*
X83816872Y-56550886D01*
X83817952Y-56543605D01*
X83819740Y-56536466D01*
X83822220Y-56529536D01*
X83825367Y-56522882D01*
X83829151Y-56516569D01*
X83833535Y-56510658D01*
X83838478Y-56505204D01*
X83944544Y-56399138D01*
X83949998Y-56394195D01*
X83955909Y-56389811D01*
X83962222Y-56386027D01*
X83968876Y-56382880D01*
X83975806Y-56380400D01*
X83982945Y-56378612D01*
X83990226Y-56377532D01*
X83997577Y-56377171D01*
X84004928Y-56377532D01*
G37*
G36*
X83651375Y-56731085D02*
G01*
X83658656Y-56732165D01*
X83665795Y-56733953D01*
X83672725Y-56736433D01*
X83679379Y-56739580D01*
X83685692Y-56743364D01*
X83691603Y-56747748D01*
X83697057Y-56752691D01*
X84633973Y-57689607D01*
X84638916Y-57695061D01*
X84643300Y-57700972D01*
X84647084Y-57707285D01*
X84650231Y-57713939D01*
X84652711Y-57720869D01*
X84654499Y-57728008D01*
X84655579Y-57735289D01*
X84655940Y-57742640D01*
X84655579Y-57749991D01*
X84654499Y-57757272D01*
X84652711Y-57764411D01*
X84650231Y-57771341D01*
X84647084Y-57777995D01*
X84643300Y-57784308D01*
X84638916Y-57790219D01*
X84633973Y-57795673D01*
X84527907Y-57901739D01*
X84522453Y-57906682D01*
X84516542Y-57911066D01*
X84510229Y-57914850D01*
X84503575Y-57917997D01*
X84496645Y-57920477D01*
X84489506Y-57922265D01*
X84482225Y-57923345D01*
X84474874Y-57923706D01*
X84467523Y-57923345D01*
X84460242Y-57922265D01*
X84453103Y-57920477D01*
X84446173Y-57917997D01*
X84439519Y-57914850D01*
X84433206Y-57911066D01*
X84427295Y-57906682D01*
X84421841Y-57901739D01*
X83484925Y-56964823D01*
X83479982Y-56959369D01*
X83475598Y-56953458D01*
X83471814Y-56947145D01*
X83468667Y-56940491D01*
X83466187Y-56933561D01*
X83464399Y-56926422D01*
X83463319Y-56919141D01*
X83462958Y-56911790D01*
X83463319Y-56904439D01*
X83464399Y-56897158D01*
X83466187Y-56890019D01*
X83468667Y-56883089D01*
X83471814Y-56876435D01*
X83475598Y-56870122D01*
X83479982Y-56864211D01*
X83484925Y-56858757D01*
X83590991Y-56752691D01*
X83596445Y-56747748D01*
X83602356Y-56743364D01*
X83608669Y-56739580D01*
X83615323Y-56736433D01*
X83622253Y-56733953D01*
X83629392Y-56732165D01*
X83636673Y-56731085D01*
X83644024Y-56730724D01*
X83651375Y-56731085D01*
G37*
G36*
X83297821Y-57084639D02*
G01*
X83305102Y-57085719D01*
X83312241Y-57087507D01*
X83319171Y-57089987D01*
X83325825Y-57093134D01*
X83332138Y-57096918D01*
X83338049Y-57101302D01*
X83343503Y-57106245D01*
X84280419Y-58043161D01*
X84285362Y-58048615D01*
X84289746Y-58054526D01*
X84293530Y-58060839D01*
X84296677Y-58067493D01*
X84299157Y-58074423D01*
X84300945Y-58081562D01*
X84302025Y-58088843D01*
X84302386Y-58096194D01*
X84302025Y-58103545D01*
X84300945Y-58110826D01*
X84299157Y-58117965D01*
X84296677Y-58124895D01*
X84293530Y-58131549D01*
X84289746Y-58137862D01*
X84285362Y-58143773D01*
X84280419Y-58149227D01*
X84174353Y-58255293D01*
X84168899Y-58260236D01*
X84162988Y-58264620D01*
X84156675Y-58268404D01*
X84150021Y-58271551D01*
X84143091Y-58274031D01*
X84135952Y-58275819D01*
X84128671Y-58276899D01*
X84121320Y-58277260D01*
X84113969Y-58276899D01*
X84106688Y-58275819D01*
X84099549Y-58274031D01*
X84092619Y-58271551D01*
X84085965Y-58268404D01*
X84079652Y-58264620D01*
X84073741Y-58260236D01*
X84068287Y-58255293D01*
X83131371Y-57318377D01*
X83126428Y-57312923D01*
X83122044Y-57307012D01*
X83118260Y-57300699D01*
X83115113Y-57294045D01*
X83112633Y-57287115D01*
X83110845Y-57279976D01*
X83109765Y-57272695D01*
X83109404Y-57265344D01*
X83109765Y-57257993D01*
X83110845Y-57250712D01*
X83112633Y-57243573D01*
X83115113Y-57236643D01*
X83118260Y-57229989D01*
X83122044Y-57223676D01*
X83126428Y-57217765D01*
X83131371Y-57212311D01*
X83237437Y-57106245D01*
X83242891Y-57101302D01*
X83248802Y-57096918D01*
X83255115Y-57093134D01*
X83261769Y-57089987D01*
X83268699Y-57087507D01*
X83275838Y-57085719D01*
X83283119Y-57084639D01*
X83290470Y-57084278D01*
X83297821Y-57084639D01*
G37*
G36*
X82944268Y-57438192D02*
G01*
X82951549Y-57439272D01*
X82958688Y-57441060D01*
X82965618Y-57443540D01*
X82972272Y-57446687D01*
X82978585Y-57450471D01*
X82984496Y-57454855D01*
X82989950Y-57459798D01*
X83926866Y-58396714D01*
X83931809Y-58402168D01*
X83936193Y-58408079D01*
X83939977Y-58414392D01*
X83943124Y-58421046D01*
X83945604Y-58427976D01*
X83947392Y-58435115D01*
X83948472Y-58442396D01*
X83948833Y-58449747D01*
X83948472Y-58457098D01*
X83947392Y-58464379D01*
X83945604Y-58471518D01*
X83943124Y-58478448D01*
X83939977Y-58485102D01*
X83936193Y-58491415D01*
X83931809Y-58497326D01*
X83926866Y-58502780D01*
X83820800Y-58608846D01*
X83815346Y-58613789D01*
X83809435Y-58618173D01*
X83803122Y-58621957D01*
X83796468Y-58625104D01*
X83789538Y-58627584D01*
X83782399Y-58629372D01*
X83775118Y-58630452D01*
X83767767Y-58630813D01*
X83760416Y-58630452D01*
X83753135Y-58629372D01*
X83745996Y-58627584D01*
X83739066Y-58625104D01*
X83732412Y-58621957D01*
X83726099Y-58618173D01*
X83720188Y-58613789D01*
X83714734Y-58608846D01*
X82777818Y-57671930D01*
X82772875Y-57666476D01*
X82768491Y-57660565D01*
X82764707Y-57654252D01*
X82761560Y-57647598D01*
X82759080Y-57640668D01*
X82757292Y-57633529D01*
X82756212Y-57626248D01*
X82755851Y-57618897D01*
X82756212Y-57611546D01*
X82757292Y-57604265D01*
X82759080Y-57597126D01*
X82761560Y-57590196D01*
X82764707Y-57583542D01*
X82768491Y-57577229D01*
X82772875Y-57571318D01*
X82777818Y-57565864D01*
X82883884Y-57459798D01*
X82889338Y-57454855D01*
X82895249Y-57450471D01*
X82901562Y-57446687D01*
X82908216Y-57443540D01*
X82915146Y-57441060D01*
X82922285Y-57439272D01*
X82929566Y-57438192D01*
X82936917Y-57437831D01*
X82944268Y-57438192D01*
G37*
G36*
X82590714Y-57791746D02*
G01*
X82597995Y-57792826D01*
X82605134Y-57794614D01*
X82612064Y-57797094D01*
X82618718Y-57800241D01*
X82625031Y-57804025D01*
X82630942Y-57808409D01*
X82636396Y-57813352D01*
X83573312Y-58750268D01*
X83578255Y-58755722D01*
X83582639Y-58761633D01*
X83586423Y-58767946D01*
X83589570Y-58774600D01*
X83592050Y-58781530D01*
X83593838Y-58788669D01*
X83594918Y-58795950D01*
X83595279Y-58803301D01*
X83594918Y-58810652D01*
X83593838Y-58817933D01*
X83592050Y-58825072D01*
X83589570Y-58832002D01*
X83586423Y-58838656D01*
X83582639Y-58844969D01*
X83578255Y-58850880D01*
X83573312Y-58856334D01*
X83467246Y-58962400D01*
X83461792Y-58967343D01*
X83455881Y-58971727D01*
X83449568Y-58975511D01*
X83442914Y-58978658D01*
X83435984Y-58981138D01*
X83428845Y-58982926D01*
X83421564Y-58984006D01*
X83414213Y-58984367D01*
X83406862Y-58984006D01*
X83399581Y-58982926D01*
X83392442Y-58981138D01*
X83385512Y-58978658D01*
X83378858Y-58975511D01*
X83372545Y-58971727D01*
X83366634Y-58967343D01*
X83361180Y-58962400D01*
X82424264Y-58025484D01*
X82419321Y-58020030D01*
X82414937Y-58014119D01*
X82411153Y-58007806D01*
X82408006Y-58001152D01*
X82405526Y-57994222D01*
X82403738Y-57987083D01*
X82402658Y-57979802D01*
X82402297Y-57972451D01*
X82402658Y-57965100D01*
X82403738Y-57957819D01*
X82405526Y-57950680D01*
X82408006Y-57943750D01*
X82411153Y-57937096D01*
X82414937Y-57930783D01*
X82419321Y-57924872D01*
X82424264Y-57919418D01*
X82530330Y-57813352D01*
X82535784Y-57808409D01*
X82541695Y-57804025D01*
X82548008Y-57800241D01*
X82554662Y-57797094D01*
X82561592Y-57794614D01*
X82568731Y-57792826D01*
X82576012Y-57791746D01*
X82583363Y-57791385D01*
X82590714Y-57791746D01*
G37*
G36*
X81423988Y-57791746D02*
G01*
X81431269Y-57792826D01*
X81438408Y-57794614D01*
X81445338Y-57797094D01*
X81451992Y-57800241D01*
X81458305Y-57804025D01*
X81464216Y-57808409D01*
X81469670Y-57813352D01*
X81575736Y-57919418D01*
X81580679Y-57924872D01*
X81585063Y-57930783D01*
X81588847Y-57937096D01*
X81591994Y-57943750D01*
X81594474Y-57950680D01*
X81596262Y-57957819D01*
X81597342Y-57965100D01*
X81597703Y-57972451D01*
X81597342Y-57979802D01*
X81596262Y-57987083D01*
X81594474Y-57994222D01*
X81591994Y-58001152D01*
X81588847Y-58007806D01*
X81585063Y-58014119D01*
X81580679Y-58020030D01*
X81575736Y-58025484D01*
X80638820Y-58962400D01*
X80633366Y-58967343D01*
X80627455Y-58971727D01*
X80621142Y-58975511D01*
X80614488Y-58978658D01*
X80607558Y-58981138D01*
X80600419Y-58982926D01*
X80593138Y-58984006D01*
X80585787Y-58984367D01*
X80578436Y-58984006D01*
X80571155Y-58982926D01*
X80564016Y-58981138D01*
X80557086Y-58978658D01*
X80550432Y-58975511D01*
X80544119Y-58971727D01*
X80538208Y-58967343D01*
X80532754Y-58962400D01*
X80426688Y-58856334D01*
X80421745Y-58850880D01*
X80417361Y-58844969D01*
X80413577Y-58838656D01*
X80410430Y-58832002D01*
X80407950Y-58825072D01*
X80406162Y-58817933D01*
X80405082Y-58810652D01*
X80404721Y-58803301D01*
X80405082Y-58795950D01*
X80406162Y-58788669D01*
X80407950Y-58781530D01*
X80410430Y-58774600D01*
X80413577Y-58767946D01*
X80417361Y-58761633D01*
X80421745Y-58755722D01*
X80426688Y-58750268D01*
X81363604Y-57813352D01*
X81369058Y-57808409D01*
X81374969Y-57804025D01*
X81381282Y-57800241D01*
X81387936Y-57797094D01*
X81394866Y-57794614D01*
X81402005Y-57792826D01*
X81409286Y-57791746D01*
X81416637Y-57791385D01*
X81423988Y-57791746D01*
G37*
G36*
X81070434Y-57438192D02*
G01*
X81077715Y-57439272D01*
X81084854Y-57441060D01*
X81091784Y-57443540D01*
X81098438Y-57446687D01*
X81104751Y-57450471D01*
X81110662Y-57454855D01*
X81116116Y-57459798D01*
X81222182Y-57565864D01*
X81227125Y-57571318D01*
X81231509Y-57577229D01*
X81235293Y-57583542D01*
X81238440Y-57590196D01*
X81240920Y-57597126D01*
X81242708Y-57604265D01*
X81243788Y-57611546D01*
X81244149Y-57618897D01*
X81243788Y-57626248D01*
X81242708Y-57633529D01*
X81240920Y-57640668D01*
X81238440Y-57647598D01*
X81235293Y-57654252D01*
X81231509Y-57660565D01*
X81227125Y-57666476D01*
X81222182Y-57671930D01*
X80285266Y-58608846D01*
X80279812Y-58613789D01*
X80273901Y-58618173D01*
X80267588Y-58621957D01*
X80260934Y-58625104D01*
X80254004Y-58627584D01*
X80246865Y-58629372D01*
X80239584Y-58630452D01*
X80232233Y-58630813D01*
X80224882Y-58630452D01*
X80217601Y-58629372D01*
X80210462Y-58627584D01*
X80203532Y-58625104D01*
X80196878Y-58621957D01*
X80190565Y-58618173D01*
X80184654Y-58613789D01*
X80179200Y-58608846D01*
X80073134Y-58502780D01*
X80068191Y-58497326D01*
X80063807Y-58491415D01*
X80060023Y-58485102D01*
X80056876Y-58478448D01*
X80054396Y-58471518D01*
X80052608Y-58464379D01*
X80051528Y-58457098D01*
X80051167Y-58449747D01*
X80051528Y-58442396D01*
X80052608Y-58435115D01*
X80054396Y-58427976D01*
X80056876Y-58421046D01*
X80060023Y-58414392D01*
X80063807Y-58408079D01*
X80068191Y-58402168D01*
X80073134Y-58396714D01*
X81010050Y-57459798D01*
X81015504Y-57454855D01*
X81021415Y-57450471D01*
X81027728Y-57446687D01*
X81034382Y-57443540D01*
X81041312Y-57441060D01*
X81048451Y-57439272D01*
X81055732Y-57438192D01*
X81063083Y-57437831D01*
X81070434Y-57438192D01*
G37*
G36*
X80716881Y-57084639D02*
G01*
X80724162Y-57085719D01*
X80731301Y-57087507D01*
X80738231Y-57089987D01*
X80744885Y-57093134D01*
X80751198Y-57096918D01*
X80757109Y-57101302D01*
X80762563Y-57106245D01*
X80868629Y-57212311D01*
X80873572Y-57217765D01*
X80877956Y-57223676D01*
X80881740Y-57229989D01*
X80884887Y-57236643D01*
X80887367Y-57243573D01*
X80889155Y-57250712D01*
X80890235Y-57257993D01*
X80890596Y-57265344D01*
X80890235Y-57272695D01*
X80889155Y-57279976D01*
X80887367Y-57287115D01*
X80884887Y-57294045D01*
X80881740Y-57300699D01*
X80877956Y-57307012D01*
X80873572Y-57312923D01*
X80868629Y-57318377D01*
X79931713Y-58255293D01*
X79926259Y-58260236D01*
X79920348Y-58264620D01*
X79914035Y-58268404D01*
X79907381Y-58271551D01*
X79900451Y-58274031D01*
X79893312Y-58275819D01*
X79886031Y-58276899D01*
X79878680Y-58277260D01*
X79871329Y-58276899D01*
X79864048Y-58275819D01*
X79856909Y-58274031D01*
X79849979Y-58271551D01*
X79843325Y-58268404D01*
X79837012Y-58264620D01*
X79831101Y-58260236D01*
X79825647Y-58255293D01*
X79719581Y-58149227D01*
X79714638Y-58143773D01*
X79710254Y-58137862D01*
X79706470Y-58131549D01*
X79703323Y-58124895D01*
X79700843Y-58117965D01*
X79699055Y-58110826D01*
X79697975Y-58103545D01*
X79697614Y-58096194D01*
X79697975Y-58088843D01*
X79699055Y-58081562D01*
X79700843Y-58074423D01*
X79703323Y-58067493D01*
X79706470Y-58060839D01*
X79710254Y-58054526D01*
X79714638Y-58048615D01*
X79719581Y-58043161D01*
X80656497Y-57106245D01*
X80661951Y-57101302D01*
X80667862Y-57096918D01*
X80674175Y-57093134D01*
X80680829Y-57089987D01*
X80687759Y-57087507D01*
X80694898Y-57085719D01*
X80702179Y-57084639D01*
X80709530Y-57084278D01*
X80716881Y-57084639D01*
G37*
G36*
X80363327Y-56731085D02*
G01*
X80370608Y-56732165D01*
X80377747Y-56733953D01*
X80384677Y-56736433D01*
X80391331Y-56739580D01*
X80397644Y-56743364D01*
X80403555Y-56747748D01*
X80409009Y-56752691D01*
X80515075Y-56858757D01*
X80520018Y-56864211D01*
X80524402Y-56870122D01*
X80528186Y-56876435D01*
X80531333Y-56883089D01*
X80533813Y-56890019D01*
X80535601Y-56897158D01*
X80536681Y-56904439D01*
X80537042Y-56911790D01*
X80536681Y-56919141D01*
X80535601Y-56926422D01*
X80533813Y-56933561D01*
X80531333Y-56940491D01*
X80528186Y-56947145D01*
X80524402Y-56953458D01*
X80520018Y-56959369D01*
X80515075Y-56964823D01*
X79578159Y-57901739D01*
X79572705Y-57906682D01*
X79566794Y-57911066D01*
X79560481Y-57914850D01*
X79553827Y-57917997D01*
X79546897Y-57920477D01*
X79539758Y-57922265D01*
X79532477Y-57923345D01*
X79525126Y-57923706D01*
X79517775Y-57923345D01*
X79510494Y-57922265D01*
X79503355Y-57920477D01*
X79496425Y-57917997D01*
X79489771Y-57914850D01*
X79483458Y-57911066D01*
X79477547Y-57906682D01*
X79472093Y-57901739D01*
X79366027Y-57795673D01*
X79361084Y-57790219D01*
X79356700Y-57784308D01*
X79352916Y-57777995D01*
X79349769Y-57771341D01*
X79347289Y-57764411D01*
X79345501Y-57757272D01*
X79344421Y-57749991D01*
X79344060Y-57742640D01*
X79344421Y-57735289D01*
X79345501Y-57728008D01*
X79347289Y-57720869D01*
X79349769Y-57713939D01*
X79352916Y-57707285D01*
X79356700Y-57700972D01*
X79361084Y-57695061D01*
X79366027Y-57689607D01*
X80302943Y-56752691D01*
X80308397Y-56747748D01*
X80314308Y-56743364D01*
X80320621Y-56739580D01*
X80327275Y-56736433D01*
X80334205Y-56733953D01*
X80341344Y-56732165D01*
X80348625Y-56731085D01*
X80355976Y-56730724D01*
X80363327Y-56731085D01*
G37*
G36*
X80009774Y-56377532D02*
G01*
X80017055Y-56378612D01*
X80024194Y-56380400D01*
X80031124Y-56382880D01*
X80037778Y-56386027D01*
X80044091Y-56389811D01*
X80050002Y-56394195D01*
X80055456Y-56399138D01*
X80161522Y-56505204D01*
X80166465Y-56510658D01*
X80170849Y-56516569D01*
X80174633Y-56522882D01*
X80177780Y-56529536D01*
X80180260Y-56536466D01*
X80182048Y-56543605D01*
X80183128Y-56550886D01*
X80183489Y-56558237D01*
X80183128Y-56565588D01*
X80182048Y-56572869D01*
X80180260Y-56580008D01*
X80177780Y-56586938D01*
X80174633Y-56593592D01*
X80170849Y-56599905D01*
X80166465Y-56605816D01*
X80161522Y-56611270D01*
X79224606Y-57548186D01*
X79219152Y-57553129D01*
X79213241Y-57557513D01*
X79206928Y-57561297D01*
X79200274Y-57564444D01*
X79193344Y-57566924D01*
X79186205Y-57568712D01*
X79178924Y-57569792D01*
X79171573Y-57570153D01*
X79164222Y-57569792D01*
X79156941Y-57568712D01*
X79149802Y-57566924D01*
X79142872Y-57564444D01*
X79136218Y-57561297D01*
X79129905Y-57557513D01*
X79123994Y-57553129D01*
X79118540Y-57548186D01*
X79012474Y-57442120D01*
X79007531Y-57436666D01*
X79003147Y-57430755D01*
X78999363Y-57424442D01*
X78996216Y-57417788D01*
X78993736Y-57410858D01*
X78991948Y-57403719D01*
X78990868Y-57396438D01*
X78990507Y-57389087D01*
X78990868Y-57381736D01*
X78991948Y-57374455D01*
X78993736Y-57367316D01*
X78996216Y-57360386D01*
X78999363Y-57353732D01*
X79003147Y-57347419D01*
X79007531Y-57341508D01*
X79012474Y-57336054D01*
X79949390Y-56399138D01*
X79954844Y-56394195D01*
X79960755Y-56389811D01*
X79967068Y-56386027D01*
X79973722Y-56382880D01*
X79980652Y-56380400D01*
X79987791Y-56378612D01*
X79995072Y-56377532D01*
X80002423Y-56377171D01*
X80009774Y-56377532D01*
G37*
G36*
X79656221Y-56023979D02*
G01*
X79663502Y-56025059D01*
X79670641Y-56026847D01*
X79677571Y-56029327D01*
X79684225Y-56032474D01*
X79690538Y-56036258D01*
X79696449Y-56040642D01*
X79701903Y-56045585D01*
X79807969Y-56151651D01*
X79812912Y-56157105D01*
X79817296Y-56163016D01*
X79821080Y-56169329D01*
X79824227Y-56175983D01*
X79826707Y-56182913D01*
X79828495Y-56190052D01*
X79829575Y-56197333D01*
X79829936Y-56204684D01*
X79829575Y-56212035D01*
X79828495Y-56219316D01*
X79826707Y-56226455D01*
X79824227Y-56233385D01*
X79821080Y-56240039D01*
X79817296Y-56246352D01*
X79812912Y-56252263D01*
X79807969Y-56257717D01*
X78871053Y-57194633D01*
X78865599Y-57199576D01*
X78859688Y-57203960D01*
X78853375Y-57207744D01*
X78846721Y-57210891D01*
X78839791Y-57213371D01*
X78832652Y-57215159D01*
X78825371Y-57216239D01*
X78818020Y-57216600D01*
X78810669Y-57216239D01*
X78803388Y-57215159D01*
X78796249Y-57213371D01*
X78789319Y-57210891D01*
X78782665Y-57207744D01*
X78776352Y-57203960D01*
X78770441Y-57199576D01*
X78764987Y-57194633D01*
X78658921Y-57088567D01*
X78653978Y-57083113D01*
X78649594Y-57077202D01*
X78645810Y-57070889D01*
X78642663Y-57064235D01*
X78640183Y-57057305D01*
X78638395Y-57050166D01*
X78637315Y-57042885D01*
X78636954Y-57035534D01*
X78637315Y-57028183D01*
X78638395Y-57020902D01*
X78640183Y-57013763D01*
X78642663Y-57006833D01*
X78645810Y-57000179D01*
X78649594Y-56993866D01*
X78653978Y-56987955D01*
X78658921Y-56982501D01*
X79595837Y-56045585D01*
X79601291Y-56040642D01*
X79607202Y-56036258D01*
X79613515Y-56032474D01*
X79620169Y-56029327D01*
X79627099Y-56026847D01*
X79634238Y-56025059D01*
X79641519Y-56023979D01*
X79648870Y-56023618D01*
X79656221Y-56023979D01*
G37*
G36*
X79302667Y-55670425D02*
G01*
X79309948Y-55671505D01*
X79317087Y-55673293D01*
X79324017Y-55675773D01*
X79330671Y-55678920D01*
X79336984Y-55682704D01*
X79342895Y-55687088D01*
X79348349Y-55692031D01*
X79454415Y-55798097D01*
X79459358Y-55803551D01*
X79463742Y-55809462D01*
X79467526Y-55815775D01*
X79470673Y-55822429D01*
X79473153Y-55829359D01*
X79474941Y-55836498D01*
X79476021Y-55843779D01*
X79476382Y-55851130D01*
X79476021Y-55858481D01*
X79474941Y-55865762D01*
X79473153Y-55872901D01*
X79470673Y-55879831D01*
X79467526Y-55886485D01*
X79463742Y-55892798D01*
X79459358Y-55898709D01*
X79454415Y-55904163D01*
X78517499Y-56841079D01*
X78512045Y-56846022D01*
X78506134Y-56850406D01*
X78499821Y-56854190D01*
X78493167Y-56857337D01*
X78486237Y-56859817D01*
X78479098Y-56861605D01*
X78471817Y-56862685D01*
X78464466Y-56863046D01*
X78457115Y-56862685D01*
X78449834Y-56861605D01*
X78442695Y-56859817D01*
X78435765Y-56857337D01*
X78429111Y-56854190D01*
X78422798Y-56850406D01*
X78416887Y-56846022D01*
X78411433Y-56841079D01*
X78305367Y-56735013D01*
X78300424Y-56729559D01*
X78296040Y-56723648D01*
X78292256Y-56717335D01*
X78289109Y-56710681D01*
X78286629Y-56703751D01*
X78284841Y-56696612D01*
X78283761Y-56689331D01*
X78283400Y-56681980D01*
X78283761Y-56674629D01*
X78284841Y-56667348D01*
X78286629Y-56660209D01*
X78289109Y-56653279D01*
X78292256Y-56646625D01*
X78296040Y-56640312D01*
X78300424Y-56634401D01*
X78305367Y-56628947D01*
X79242283Y-55692031D01*
X79247737Y-55687088D01*
X79253648Y-55682704D01*
X79259961Y-55678920D01*
X79266615Y-55675773D01*
X79273545Y-55673293D01*
X79280684Y-55671505D01*
X79287965Y-55670425D01*
X79295316Y-55670064D01*
X79302667Y-55670425D01*
G37*
G36*
X78949114Y-55316872D02*
G01*
X78956395Y-55317952D01*
X78963534Y-55319740D01*
X78970464Y-55322220D01*
X78977118Y-55325367D01*
X78983431Y-55329151D01*
X78989342Y-55333535D01*
X78994796Y-55338478D01*
X79100862Y-55444544D01*
X79105805Y-55449998D01*
X79110189Y-55455909D01*
X79113973Y-55462222D01*
X79117120Y-55468876D01*
X79119600Y-55475806D01*
X79121388Y-55482945D01*
X79122468Y-55490226D01*
X79122829Y-55497577D01*
X79122468Y-55504928D01*
X79121388Y-55512209D01*
X79119600Y-55519348D01*
X79117120Y-55526278D01*
X79113973Y-55532932D01*
X79110189Y-55539245D01*
X79105805Y-55545156D01*
X79100862Y-55550610D01*
X78163946Y-56487526D01*
X78158492Y-56492469D01*
X78152581Y-56496853D01*
X78146268Y-56500637D01*
X78139614Y-56503784D01*
X78132684Y-56506264D01*
X78125545Y-56508052D01*
X78118264Y-56509132D01*
X78110913Y-56509493D01*
X78103562Y-56509132D01*
X78096281Y-56508052D01*
X78089142Y-56506264D01*
X78082212Y-56503784D01*
X78075558Y-56500637D01*
X78069245Y-56496853D01*
X78063334Y-56492469D01*
X78057880Y-56487526D01*
X77951814Y-56381460D01*
X77946871Y-56376006D01*
X77942487Y-56370095D01*
X77938703Y-56363782D01*
X77935556Y-56357128D01*
X77933076Y-56350198D01*
X77931288Y-56343059D01*
X77930208Y-56335778D01*
X77929847Y-56328427D01*
X77930208Y-56321076D01*
X77931288Y-56313795D01*
X77933076Y-56306656D01*
X77935556Y-56299726D01*
X77938703Y-56293072D01*
X77942487Y-56286759D01*
X77946871Y-56280848D01*
X77951814Y-56275394D01*
X78888730Y-55338478D01*
X78894184Y-55333535D01*
X78900095Y-55329151D01*
X78906408Y-55325367D01*
X78913062Y-55322220D01*
X78919992Y-55319740D01*
X78927131Y-55317952D01*
X78934412Y-55316872D01*
X78941763Y-55316511D01*
X78949114Y-55316872D01*
G37*
G36*
X78595561Y-54963319D02*
G01*
X78602842Y-54964399D01*
X78609981Y-54966187D01*
X78616911Y-54968667D01*
X78623565Y-54971814D01*
X78629878Y-54975598D01*
X78635789Y-54979982D01*
X78641243Y-54984925D01*
X78747309Y-55090991D01*
X78752252Y-55096445D01*
X78756636Y-55102356D01*
X78760420Y-55108669D01*
X78763567Y-55115323D01*
X78766047Y-55122253D01*
X78767835Y-55129392D01*
X78768915Y-55136673D01*
X78769276Y-55144024D01*
X78768915Y-55151375D01*
X78767835Y-55158656D01*
X78766047Y-55165795D01*
X78763567Y-55172725D01*
X78760420Y-55179379D01*
X78756636Y-55185692D01*
X78752252Y-55191603D01*
X78747309Y-55197057D01*
X77810393Y-56133973D01*
X77804939Y-56138916D01*
X77799028Y-56143300D01*
X77792715Y-56147084D01*
X77786061Y-56150231D01*
X77779131Y-56152711D01*
X77771992Y-56154499D01*
X77764711Y-56155579D01*
X77757360Y-56155940D01*
X77750009Y-56155579D01*
X77742728Y-56154499D01*
X77735589Y-56152711D01*
X77728659Y-56150231D01*
X77722005Y-56147084D01*
X77715692Y-56143300D01*
X77709781Y-56138916D01*
X77704327Y-56133973D01*
X77598261Y-56027907D01*
X77593318Y-56022453D01*
X77588934Y-56016542D01*
X77585150Y-56010229D01*
X77582003Y-56003575D01*
X77579523Y-55996645D01*
X77577735Y-55989506D01*
X77576655Y-55982225D01*
X77576294Y-55974874D01*
X77576655Y-55967523D01*
X77577735Y-55960242D01*
X77579523Y-55953103D01*
X77582003Y-55946173D01*
X77585150Y-55939519D01*
X77588934Y-55933206D01*
X77593318Y-55927295D01*
X77598261Y-55921841D01*
X78535177Y-54984925D01*
X78540631Y-54979982D01*
X78546542Y-54975598D01*
X78552855Y-54971814D01*
X78559509Y-54968667D01*
X78566439Y-54966187D01*
X78573578Y-54964399D01*
X78580859Y-54963319D01*
X78588210Y-54962958D01*
X78595561Y-54963319D01*
G37*
G36*
X78242007Y-54609765D02*
G01*
X78249288Y-54610845D01*
X78256427Y-54612633D01*
X78263357Y-54615113D01*
X78270011Y-54618260D01*
X78276324Y-54622044D01*
X78282235Y-54626428D01*
X78287689Y-54631371D01*
X78393755Y-54737437D01*
X78398698Y-54742891D01*
X78403082Y-54748802D01*
X78406866Y-54755115D01*
X78410013Y-54761769D01*
X78412493Y-54768699D01*
X78414281Y-54775838D01*
X78415361Y-54783119D01*
X78415722Y-54790470D01*
X78415361Y-54797821D01*
X78414281Y-54805102D01*
X78412493Y-54812241D01*
X78410013Y-54819171D01*
X78406866Y-54825825D01*
X78403082Y-54832138D01*
X78398698Y-54838049D01*
X78393755Y-54843503D01*
X77456839Y-55780419D01*
X77451385Y-55785362D01*
X77445474Y-55789746D01*
X77439161Y-55793530D01*
X77432507Y-55796677D01*
X77425577Y-55799157D01*
X77418438Y-55800945D01*
X77411157Y-55802025D01*
X77403806Y-55802386D01*
X77396455Y-55802025D01*
X77389174Y-55800945D01*
X77382035Y-55799157D01*
X77375105Y-55796677D01*
X77368451Y-55793530D01*
X77362138Y-55789746D01*
X77356227Y-55785362D01*
X77350773Y-55780419D01*
X77244707Y-55674353D01*
X77239764Y-55668899D01*
X77235380Y-55662988D01*
X77231596Y-55656675D01*
X77228449Y-55650021D01*
X77225969Y-55643091D01*
X77224181Y-55635952D01*
X77223101Y-55628671D01*
X77222740Y-55621320D01*
X77223101Y-55613969D01*
X77224181Y-55606688D01*
X77225969Y-55599549D01*
X77228449Y-55592619D01*
X77231596Y-55585965D01*
X77235380Y-55579652D01*
X77239764Y-55573741D01*
X77244707Y-55568287D01*
X78181623Y-54631371D01*
X78187077Y-54626428D01*
X78192988Y-54622044D01*
X78199301Y-54618260D01*
X78205955Y-54615113D01*
X78212885Y-54612633D01*
X78220024Y-54610845D01*
X78227305Y-54609765D01*
X78234656Y-54609404D01*
X78242007Y-54609765D01*
G37*
G36*
X77888454Y-54256212D02*
G01*
X77895735Y-54257292D01*
X77902874Y-54259080D01*
X77909804Y-54261560D01*
X77916458Y-54264707D01*
X77922771Y-54268491D01*
X77928682Y-54272875D01*
X77934136Y-54277818D01*
X78040202Y-54383884D01*
X78045145Y-54389338D01*
X78049529Y-54395249D01*
X78053313Y-54401562D01*
X78056460Y-54408216D01*
X78058940Y-54415146D01*
X78060728Y-54422285D01*
X78061808Y-54429566D01*
X78062169Y-54436917D01*
X78061808Y-54444268D01*
X78060728Y-54451549D01*
X78058940Y-54458688D01*
X78056460Y-54465618D01*
X78053313Y-54472272D01*
X78049529Y-54478585D01*
X78045145Y-54484496D01*
X78040202Y-54489950D01*
X77103286Y-55426866D01*
X77097832Y-55431809D01*
X77091921Y-55436193D01*
X77085608Y-55439977D01*
X77078954Y-55443124D01*
X77072024Y-55445604D01*
X77064885Y-55447392D01*
X77057604Y-55448472D01*
X77050253Y-55448833D01*
X77042902Y-55448472D01*
X77035621Y-55447392D01*
X77028482Y-55445604D01*
X77021552Y-55443124D01*
X77014898Y-55439977D01*
X77008585Y-55436193D01*
X77002674Y-55431809D01*
X76997220Y-55426866D01*
X76891154Y-55320800D01*
X76886211Y-55315346D01*
X76881827Y-55309435D01*
X76878043Y-55303122D01*
X76874896Y-55296468D01*
X76872416Y-55289538D01*
X76870628Y-55282399D01*
X76869548Y-55275118D01*
X76869187Y-55267767D01*
X76869548Y-55260416D01*
X76870628Y-55253135D01*
X76872416Y-55245996D01*
X76874896Y-55239066D01*
X76878043Y-55232412D01*
X76881827Y-55226099D01*
X76886211Y-55220188D01*
X76891154Y-55214734D01*
X77828070Y-54277818D01*
X77833524Y-54272875D01*
X77839435Y-54268491D01*
X77845748Y-54264707D01*
X77852402Y-54261560D01*
X77859332Y-54259080D01*
X77866471Y-54257292D01*
X77873752Y-54256212D01*
X77881103Y-54255851D01*
X77888454Y-54256212D01*
G37*
G36*
X77534900Y-53902658D02*
G01*
X77542181Y-53903738D01*
X77549320Y-53905526D01*
X77556250Y-53908006D01*
X77562904Y-53911153D01*
X77569217Y-53914937D01*
X77575128Y-53919321D01*
X77580582Y-53924264D01*
X77686648Y-54030330D01*
X77691591Y-54035784D01*
X77695975Y-54041695D01*
X77699759Y-54048008D01*
X77702906Y-54054662D01*
X77705386Y-54061592D01*
X77707174Y-54068731D01*
X77708254Y-54076012D01*
X77708615Y-54083363D01*
X77708254Y-54090714D01*
X77707174Y-54097995D01*
X77705386Y-54105134D01*
X77702906Y-54112064D01*
X77699759Y-54118718D01*
X77695975Y-54125031D01*
X77691591Y-54130942D01*
X77686648Y-54136396D01*
X76749732Y-55073312D01*
X76744278Y-55078255D01*
X76738367Y-55082639D01*
X76732054Y-55086423D01*
X76725400Y-55089570D01*
X76718470Y-55092050D01*
X76711331Y-55093838D01*
X76704050Y-55094918D01*
X76696699Y-55095279D01*
X76689348Y-55094918D01*
X76682067Y-55093838D01*
X76674928Y-55092050D01*
X76667998Y-55089570D01*
X76661344Y-55086423D01*
X76655031Y-55082639D01*
X76649120Y-55078255D01*
X76643666Y-55073312D01*
X76537600Y-54967246D01*
X76532657Y-54961792D01*
X76528273Y-54955881D01*
X76524489Y-54949568D01*
X76521342Y-54942914D01*
X76518862Y-54935984D01*
X76517074Y-54928845D01*
X76515994Y-54921564D01*
X76515633Y-54914213D01*
X76515994Y-54906862D01*
X76517074Y-54899581D01*
X76518862Y-54892442D01*
X76521342Y-54885512D01*
X76524489Y-54878858D01*
X76528273Y-54872545D01*
X76532657Y-54866634D01*
X76537600Y-54861180D01*
X77474516Y-53924264D01*
X77479970Y-53919321D01*
X77485881Y-53914937D01*
X77492194Y-53911153D01*
X77498848Y-53908006D01*
X77505778Y-53905526D01*
X77512917Y-53903738D01*
X77520198Y-53902658D01*
X77527549Y-53902297D01*
X77534900Y-53902658D01*
G37*
G36*
X76704050Y-51905082D02*
G01*
X76711331Y-51906162D01*
X76718470Y-51907950D01*
X76725400Y-51910430D01*
X76732054Y-51913577D01*
X76738367Y-51917361D01*
X76744278Y-51921745D01*
X76749732Y-51926688D01*
X77686648Y-52863604D01*
X77691591Y-52869058D01*
X77695975Y-52874969D01*
X77699759Y-52881282D01*
X77702906Y-52887936D01*
X77705386Y-52894866D01*
X77707174Y-52902005D01*
X77708254Y-52909286D01*
X77708615Y-52916637D01*
X77708254Y-52923988D01*
X77707174Y-52931269D01*
X77705386Y-52938408D01*
X77702906Y-52945338D01*
X77699759Y-52951992D01*
X77695975Y-52958305D01*
X77691591Y-52964216D01*
X77686648Y-52969670D01*
X77580582Y-53075736D01*
X77575128Y-53080679D01*
X77569217Y-53085063D01*
X77562904Y-53088847D01*
X77556250Y-53091994D01*
X77549320Y-53094474D01*
X77542181Y-53096262D01*
X77534900Y-53097342D01*
X77527549Y-53097703D01*
X77520198Y-53097342D01*
X77512917Y-53096262D01*
X77505778Y-53094474D01*
X77498848Y-53091994D01*
X77492194Y-53088847D01*
X77485881Y-53085063D01*
X77479970Y-53080679D01*
X77474516Y-53075736D01*
X76537600Y-52138820D01*
X76532657Y-52133366D01*
X76528273Y-52127455D01*
X76524489Y-52121142D01*
X76521342Y-52114488D01*
X76518862Y-52107558D01*
X76517074Y-52100419D01*
X76515994Y-52093138D01*
X76515633Y-52085787D01*
X76515994Y-52078436D01*
X76517074Y-52071155D01*
X76518862Y-52064016D01*
X76521342Y-52057086D01*
X76524489Y-52050432D01*
X76528273Y-52044119D01*
X76532657Y-52038208D01*
X76537600Y-52032754D01*
X76643666Y-51926688D01*
X76649120Y-51921745D01*
X76655031Y-51917361D01*
X76661344Y-51913577D01*
X76667998Y-51910430D01*
X76674928Y-51907950D01*
X76682067Y-51906162D01*
X76689348Y-51905082D01*
X76696699Y-51904721D01*
X76704050Y-51905082D01*
G37*
G36*
X77057604Y-51551528D02*
G01*
X77064885Y-51552608D01*
X77072024Y-51554396D01*
X77078954Y-51556876D01*
X77085608Y-51560023D01*
X77091921Y-51563807D01*
X77097832Y-51568191D01*
X77103286Y-51573134D01*
X78040202Y-52510050D01*
X78045145Y-52515504D01*
X78049529Y-52521415D01*
X78053313Y-52527728D01*
X78056460Y-52534382D01*
X78058940Y-52541312D01*
X78060728Y-52548451D01*
X78061808Y-52555732D01*
X78062169Y-52563083D01*
X78061808Y-52570434D01*
X78060728Y-52577715D01*
X78058940Y-52584854D01*
X78056460Y-52591784D01*
X78053313Y-52598438D01*
X78049529Y-52604751D01*
X78045145Y-52610662D01*
X78040202Y-52616116D01*
X77934136Y-52722182D01*
X77928682Y-52727125D01*
X77922771Y-52731509D01*
X77916458Y-52735293D01*
X77909804Y-52738440D01*
X77902874Y-52740920D01*
X77895735Y-52742708D01*
X77888454Y-52743788D01*
X77881103Y-52744149D01*
X77873752Y-52743788D01*
X77866471Y-52742708D01*
X77859332Y-52740920D01*
X77852402Y-52738440D01*
X77845748Y-52735293D01*
X77839435Y-52731509D01*
X77833524Y-52727125D01*
X77828070Y-52722182D01*
X76891154Y-51785266D01*
X76886211Y-51779812D01*
X76881827Y-51773901D01*
X76878043Y-51767588D01*
X76874896Y-51760934D01*
X76872416Y-51754004D01*
X76870628Y-51746865D01*
X76869548Y-51739584D01*
X76869187Y-51732233D01*
X76869548Y-51724882D01*
X76870628Y-51717601D01*
X76872416Y-51710462D01*
X76874896Y-51703532D01*
X76878043Y-51696878D01*
X76881827Y-51690565D01*
X76886211Y-51684654D01*
X76891154Y-51679200D01*
X76997220Y-51573134D01*
X77002674Y-51568191D01*
X77008585Y-51563807D01*
X77014898Y-51560023D01*
X77021552Y-51556876D01*
X77028482Y-51554396D01*
X77035621Y-51552608D01*
X77042902Y-51551528D01*
X77050253Y-51551167D01*
X77057604Y-51551528D01*
G37*
G36*
X77411157Y-51197975D02*
G01*
X77418438Y-51199055D01*
X77425577Y-51200843D01*
X77432507Y-51203323D01*
X77439161Y-51206470D01*
X77445474Y-51210254D01*
X77451385Y-51214638D01*
X77456839Y-51219581D01*
X78393755Y-52156497D01*
X78398698Y-52161951D01*
X78403082Y-52167862D01*
X78406866Y-52174175D01*
X78410013Y-52180829D01*
X78412493Y-52187759D01*
X78414281Y-52194898D01*
X78415361Y-52202179D01*
X78415722Y-52209530D01*
X78415361Y-52216881D01*
X78414281Y-52224162D01*
X78412493Y-52231301D01*
X78410013Y-52238231D01*
X78406866Y-52244885D01*
X78403082Y-52251198D01*
X78398698Y-52257109D01*
X78393755Y-52262563D01*
X78287689Y-52368629D01*
X78282235Y-52373572D01*
X78276324Y-52377956D01*
X78270011Y-52381740D01*
X78263357Y-52384887D01*
X78256427Y-52387367D01*
X78249288Y-52389155D01*
X78242007Y-52390235D01*
X78234656Y-52390596D01*
X78227305Y-52390235D01*
X78220024Y-52389155D01*
X78212885Y-52387367D01*
X78205955Y-52384887D01*
X78199301Y-52381740D01*
X78192988Y-52377956D01*
X78187077Y-52373572D01*
X78181623Y-52368629D01*
X77244707Y-51431713D01*
X77239764Y-51426259D01*
X77235380Y-51420348D01*
X77231596Y-51414035D01*
X77228449Y-51407381D01*
X77225969Y-51400451D01*
X77224181Y-51393312D01*
X77223101Y-51386031D01*
X77222740Y-51378680D01*
X77223101Y-51371329D01*
X77224181Y-51364048D01*
X77225969Y-51356909D01*
X77228449Y-51349979D01*
X77231596Y-51343325D01*
X77235380Y-51337012D01*
X77239764Y-51331101D01*
X77244707Y-51325647D01*
X77350773Y-51219581D01*
X77356227Y-51214638D01*
X77362138Y-51210254D01*
X77368451Y-51206470D01*
X77375105Y-51203323D01*
X77382035Y-51200843D01*
X77389174Y-51199055D01*
X77396455Y-51197975D01*
X77403806Y-51197614D01*
X77411157Y-51197975D01*
G37*
G36*
X77764711Y-50844421D02*
G01*
X77771992Y-50845501D01*
X77779131Y-50847289D01*
X77786061Y-50849769D01*
X77792715Y-50852916D01*
X77799028Y-50856700D01*
X77804939Y-50861084D01*
X77810393Y-50866027D01*
X78747309Y-51802943D01*
X78752252Y-51808397D01*
X78756636Y-51814308D01*
X78760420Y-51820621D01*
X78763567Y-51827275D01*
X78766047Y-51834205D01*
X78767835Y-51841344D01*
X78768915Y-51848625D01*
X78769276Y-51855976D01*
X78768915Y-51863327D01*
X78767835Y-51870608D01*
X78766047Y-51877747D01*
X78763567Y-51884677D01*
X78760420Y-51891331D01*
X78756636Y-51897644D01*
X78752252Y-51903555D01*
X78747309Y-51909009D01*
X78641243Y-52015075D01*
X78635789Y-52020018D01*
X78629878Y-52024402D01*
X78623565Y-52028186D01*
X78616911Y-52031333D01*
X78609981Y-52033813D01*
X78602842Y-52035601D01*
X78595561Y-52036681D01*
X78588210Y-52037042D01*
X78580859Y-52036681D01*
X78573578Y-52035601D01*
X78566439Y-52033813D01*
X78559509Y-52031333D01*
X78552855Y-52028186D01*
X78546542Y-52024402D01*
X78540631Y-52020018D01*
X78535177Y-52015075D01*
X77598261Y-51078159D01*
X77593318Y-51072705D01*
X77588934Y-51066794D01*
X77585150Y-51060481D01*
X77582003Y-51053827D01*
X77579523Y-51046897D01*
X77577735Y-51039758D01*
X77576655Y-51032477D01*
X77576294Y-51025126D01*
X77576655Y-51017775D01*
X77577735Y-51010494D01*
X77579523Y-51003355D01*
X77582003Y-50996425D01*
X77585150Y-50989771D01*
X77588934Y-50983458D01*
X77593318Y-50977547D01*
X77598261Y-50972093D01*
X77704327Y-50866027D01*
X77709781Y-50861084D01*
X77715692Y-50856700D01*
X77722005Y-50852916D01*
X77728659Y-50849769D01*
X77735589Y-50847289D01*
X77742728Y-50845501D01*
X77750009Y-50844421D01*
X77757360Y-50844060D01*
X77764711Y-50844421D01*
G37*
G36*
X78118264Y-50490868D02*
G01*
X78125545Y-50491948D01*
X78132684Y-50493736D01*
X78139614Y-50496216D01*
X78146268Y-50499363D01*
X78152581Y-50503147D01*
X78158492Y-50507531D01*
X78163946Y-50512474D01*
X79100862Y-51449390D01*
X79105805Y-51454844D01*
X79110189Y-51460755D01*
X79113973Y-51467068D01*
X79117120Y-51473722D01*
X79119600Y-51480652D01*
X79121388Y-51487791D01*
X79122468Y-51495072D01*
X79122829Y-51502423D01*
X79122468Y-51509774D01*
X79121388Y-51517055D01*
X79119600Y-51524194D01*
X79117120Y-51531124D01*
X79113973Y-51537778D01*
X79110189Y-51544091D01*
X79105805Y-51550002D01*
X79100862Y-51555456D01*
X78994796Y-51661522D01*
X78989342Y-51666465D01*
X78983431Y-51670849D01*
X78977118Y-51674633D01*
X78970464Y-51677780D01*
X78963534Y-51680260D01*
X78956395Y-51682048D01*
X78949114Y-51683128D01*
X78941763Y-51683489D01*
X78934412Y-51683128D01*
X78927131Y-51682048D01*
X78919992Y-51680260D01*
X78913062Y-51677780D01*
X78906408Y-51674633D01*
X78900095Y-51670849D01*
X78894184Y-51666465D01*
X78888730Y-51661522D01*
X77951814Y-50724606D01*
X77946871Y-50719152D01*
X77942487Y-50713241D01*
X77938703Y-50706928D01*
X77935556Y-50700274D01*
X77933076Y-50693344D01*
X77931288Y-50686205D01*
X77930208Y-50678924D01*
X77929847Y-50671573D01*
X77930208Y-50664222D01*
X77931288Y-50656941D01*
X77933076Y-50649802D01*
X77935556Y-50642872D01*
X77938703Y-50636218D01*
X77942487Y-50629905D01*
X77946871Y-50623994D01*
X77951814Y-50618540D01*
X78057880Y-50512474D01*
X78063334Y-50507531D01*
X78069245Y-50503147D01*
X78075558Y-50499363D01*
X78082212Y-50496216D01*
X78089142Y-50493736D01*
X78096281Y-50491948D01*
X78103562Y-50490868D01*
X78110913Y-50490507D01*
X78118264Y-50490868D01*
G37*
G36*
X78471817Y-50137315D02*
G01*
X78479098Y-50138395D01*
X78486237Y-50140183D01*
X78493167Y-50142663D01*
X78499821Y-50145810D01*
X78506134Y-50149594D01*
X78512045Y-50153978D01*
X78517499Y-50158921D01*
X79454415Y-51095837D01*
X79459358Y-51101291D01*
X79463742Y-51107202D01*
X79467526Y-51113515D01*
X79470673Y-51120169D01*
X79473153Y-51127099D01*
X79474941Y-51134238D01*
X79476021Y-51141519D01*
X79476382Y-51148870D01*
X79476021Y-51156221D01*
X79474941Y-51163502D01*
X79473153Y-51170641D01*
X79470673Y-51177571D01*
X79467526Y-51184225D01*
X79463742Y-51190538D01*
X79459358Y-51196449D01*
X79454415Y-51201903D01*
X79348349Y-51307969D01*
X79342895Y-51312912D01*
X79336984Y-51317296D01*
X79330671Y-51321080D01*
X79324017Y-51324227D01*
X79317087Y-51326707D01*
X79309948Y-51328495D01*
X79302667Y-51329575D01*
X79295316Y-51329936D01*
X79287965Y-51329575D01*
X79280684Y-51328495D01*
X79273545Y-51326707D01*
X79266615Y-51324227D01*
X79259961Y-51321080D01*
X79253648Y-51317296D01*
X79247737Y-51312912D01*
X79242283Y-51307969D01*
X78305367Y-50371053D01*
X78300424Y-50365599D01*
X78296040Y-50359688D01*
X78292256Y-50353375D01*
X78289109Y-50346721D01*
X78286629Y-50339791D01*
X78284841Y-50332652D01*
X78283761Y-50325371D01*
X78283400Y-50318020D01*
X78283761Y-50310669D01*
X78284841Y-50303388D01*
X78286629Y-50296249D01*
X78289109Y-50289319D01*
X78292256Y-50282665D01*
X78296040Y-50276352D01*
X78300424Y-50270441D01*
X78305367Y-50264987D01*
X78411433Y-50158921D01*
X78416887Y-50153978D01*
X78422798Y-50149594D01*
X78429111Y-50145810D01*
X78435765Y-50142663D01*
X78442695Y-50140183D01*
X78449834Y-50138395D01*
X78457115Y-50137315D01*
X78464466Y-50136954D01*
X78471817Y-50137315D01*
G37*
G36*
X78825371Y-49783761D02*
G01*
X78832652Y-49784841D01*
X78839791Y-49786629D01*
X78846721Y-49789109D01*
X78853375Y-49792256D01*
X78859688Y-49796040D01*
X78865599Y-49800424D01*
X78871053Y-49805367D01*
X79807969Y-50742283D01*
X79812912Y-50747737D01*
X79817296Y-50753648D01*
X79821080Y-50759961D01*
X79824227Y-50766615D01*
X79826707Y-50773545D01*
X79828495Y-50780684D01*
X79829575Y-50787965D01*
X79829936Y-50795316D01*
X79829575Y-50802667D01*
X79828495Y-50809948D01*
X79826707Y-50817087D01*
X79824227Y-50824017D01*
X79821080Y-50830671D01*
X79817296Y-50836984D01*
X79812912Y-50842895D01*
X79807969Y-50848349D01*
X79701903Y-50954415D01*
X79696449Y-50959358D01*
X79690538Y-50963742D01*
X79684225Y-50967526D01*
X79677571Y-50970673D01*
X79670641Y-50973153D01*
X79663502Y-50974941D01*
X79656221Y-50976021D01*
X79648870Y-50976382D01*
X79641519Y-50976021D01*
X79634238Y-50974941D01*
X79627099Y-50973153D01*
X79620169Y-50970673D01*
X79613515Y-50967526D01*
X79607202Y-50963742D01*
X79601291Y-50959358D01*
X79595837Y-50954415D01*
X78658921Y-50017499D01*
X78653978Y-50012045D01*
X78649594Y-50006134D01*
X78645810Y-49999821D01*
X78642663Y-49993167D01*
X78640183Y-49986237D01*
X78638395Y-49979098D01*
X78637315Y-49971817D01*
X78636954Y-49964466D01*
X78637315Y-49957115D01*
X78638395Y-49949834D01*
X78640183Y-49942695D01*
X78642663Y-49935765D01*
X78645810Y-49929111D01*
X78649594Y-49922798D01*
X78653978Y-49916887D01*
X78658921Y-49911433D01*
X78764987Y-49805367D01*
X78770441Y-49800424D01*
X78776352Y-49796040D01*
X78782665Y-49792256D01*
X78789319Y-49789109D01*
X78796249Y-49786629D01*
X78803388Y-49784841D01*
X78810669Y-49783761D01*
X78818020Y-49783400D01*
X78825371Y-49783761D01*
G37*
G36*
X79178924Y-49430208D02*
G01*
X79186205Y-49431288D01*
X79193344Y-49433076D01*
X79200274Y-49435556D01*
X79206928Y-49438703D01*
X79213241Y-49442487D01*
X79219152Y-49446871D01*
X79224606Y-49451814D01*
X80161522Y-50388730D01*
X80166465Y-50394184D01*
X80170849Y-50400095D01*
X80174633Y-50406408D01*
X80177780Y-50413062D01*
X80180260Y-50419992D01*
X80182048Y-50427131D01*
X80183128Y-50434412D01*
X80183489Y-50441763D01*
X80183128Y-50449114D01*
X80182048Y-50456395D01*
X80180260Y-50463534D01*
X80177780Y-50470464D01*
X80174633Y-50477118D01*
X80170849Y-50483431D01*
X80166465Y-50489342D01*
X80161522Y-50494796D01*
X80055456Y-50600862D01*
X80050002Y-50605805D01*
X80044091Y-50610189D01*
X80037778Y-50613973D01*
X80031124Y-50617120D01*
X80024194Y-50619600D01*
X80017055Y-50621388D01*
X80009774Y-50622468D01*
X80002423Y-50622829D01*
X79995072Y-50622468D01*
X79987791Y-50621388D01*
X79980652Y-50619600D01*
X79973722Y-50617120D01*
X79967068Y-50613973D01*
X79960755Y-50610189D01*
X79954844Y-50605805D01*
X79949390Y-50600862D01*
X79012474Y-49663946D01*
X79007531Y-49658492D01*
X79003147Y-49652581D01*
X78999363Y-49646268D01*
X78996216Y-49639614D01*
X78993736Y-49632684D01*
X78991948Y-49625545D01*
X78990868Y-49618264D01*
X78990507Y-49610913D01*
X78990868Y-49603562D01*
X78991948Y-49596281D01*
X78993736Y-49589142D01*
X78996216Y-49582212D01*
X78999363Y-49575558D01*
X79003147Y-49569245D01*
X79007531Y-49563334D01*
X79012474Y-49557880D01*
X79118540Y-49451814D01*
X79123994Y-49446871D01*
X79129905Y-49442487D01*
X79136218Y-49438703D01*
X79142872Y-49435556D01*
X79149802Y-49433076D01*
X79156941Y-49431288D01*
X79164222Y-49430208D01*
X79171573Y-49429847D01*
X79178924Y-49430208D01*
G37*
G36*
X79532477Y-49076655D02*
G01*
X79539758Y-49077735D01*
X79546897Y-49079523D01*
X79553827Y-49082003D01*
X79560481Y-49085150D01*
X79566794Y-49088934D01*
X79572705Y-49093318D01*
X79578159Y-49098261D01*
X80515075Y-50035177D01*
X80520018Y-50040631D01*
X80524402Y-50046542D01*
X80528186Y-50052855D01*
X80531333Y-50059509D01*
X80533813Y-50066439D01*
X80535601Y-50073578D01*
X80536681Y-50080859D01*
X80537042Y-50088210D01*
X80536681Y-50095561D01*
X80535601Y-50102842D01*
X80533813Y-50109981D01*
X80531333Y-50116911D01*
X80528186Y-50123565D01*
X80524402Y-50129878D01*
X80520018Y-50135789D01*
X80515075Y-50141243D01*
X80409009Y-50247309D01*
X80403555Y-50252252D01*
X80397644Y-50256636D01*
X80391331Y-50260420D01*
X80384677Y-50263567D01*
X80377747Y-50266047D01*
X80370608Y-50267835D01*
X80363327Y-50268915D01*
X80355976Y-50269276D01*
X80348625Y-50268915D01*
X80341344Y-50267835D01*
X80334205Y-50266047D01*
X80327275Y-50263567D01*
X80320621Y-50260420D01*
X80314308Y-50256636D01*
X80308397Y-50252252D01*
X80302943Y-50247309D01*
X79366027Y-49310393D01*
X79361084Y-49304939D01*
X79356700Y-49299028D01*
X79352916Y-49292715D01*
X79349769Y-49286061D01*
X79347289Y-49279131D01*
X79345501Y-49271992D01*
X79344421Y-49264711D01*
X79344060Y-49257360D01*
X79344421Y-49250009D01*
X79345501Y-49242728D01*
X79347289Y-49235589D01*
X79349769Y-49228659D01*
X79352916Y-49222005D01*
X79356700Y-49215692D01*
X79361084Y-49209781D01*
X79366027Y-49204327D01*
X79472093Y-49098261D01*
X79477547Y-49093318D01*
X79483458Y-49088934D01*
X79489771Y-49085150D01*
X79496425Y-49082003D01*
X79503355Y-49079523D01*
X79510494Y-49077735D01*
X79517775Y-49076655D01*
X79525126Y-49076294D01*
X79532477Y-49076655D01*
G37*
G36*
X79886031Y-48723101D02*
G01*
X79893312Y-48724181D01*
X79900451Y-48725969D01*
X79907381Y-48728449D01*
X79914035Y-48731596D01*
X79920348Y-48735380D01*
X79926259Y-48739764D01*
X79931713Y-48744707D01*
X80868629Y-49681623D01*
X80873572Y-49687077D01*
X80877956Y-49692988D01*
X80881740Y-49699301D01*
X80884887Y-49705955D01*
X80887367Y-49712885D01*
X80889155Y-49720024D01*
X80890235Y-49727305D01*
X80890596Y-49734656D01*
X80890235Y-49742007D01*
X80889155Y-49749288D01*
X80887367Y-49756427D01*
X80884887Y-49763357D01*
X80881740Y-49770011D01*
X80877956Y-49776324D01*
X80873572Y-49782235D01*
X80868629Y-49787689D01*
X80762563Y-49893755D01*
X80757109Y-49898698D01*
X80751198Y-49903082D01*
X80744885Y-49906866D01*
X80738231Y-49910013D01*
X80731301Y-49912493D01*
X80724162Y-49914281D01*
X80716881Y-49915361D01*
X80709530Y-49915722D01*
X80702179Y-49915361D01*
X80694898Y-49914281D01*
X80687759Y-49912493D01*
X80680829Y-49910013D01*
X80674175Y-49906866D01*
X80667862Y-49903082D01*
X80661951Y-49898698D01*
X80656497Y-49893755D01*
X79719581Y-48956839D01*
X79714638Y-48951385D01*
X79710254Y-48945474D01*
X79706470Y-48939161D01*
X79703323Y-48932507D01*
X79700843Y-48925577D01*
X79699055Y-48918438D01*
X79697975Y-48911157D01*
X79697614Y-48903806D01*
X79697975Y-48896455D01*
X79699055Y-48889174D01*
X79700843Y-48882035D01*
X79703323Y-48875105D01*
X79706470Y-48868451D01*
X79710254Y-48862138D01*
X79714638Y-48856227D01*
X79719581Y-48850773D01*
X79825647Y-48744707D01*
X79831101Y-48739764D01*
X79837012Y-48735380D01*
X79843325Y-48731596D01*
X79849979Y-48728449D01*
X79856909Y-48725969D01*
X79864048Y-48724181D01*
X79871329Y-48723101D01*
X79878680Y-48722740D01*
X79886031Y-48723101D01*
G37*
G36*
X80239584Y-48369548D02*
G01*
X80246865Y-48370628D01*
X80254004Y-48372416D01*
X80260934Y-48374896D01*
X80267588Y-48378043D01*
X80273901Y-48381827D01*
X80279812Y-48386211D01*
X80285266Y-48391154D01*
X81222182Y-49328070D01*
X81227125Y-49333524D01*
X81231509Y-49339435D01*
X81235293Y-49345748D01*
X81238440Y-49352402D01*
X81240920Y-49359332D01*
X81242708Y-49366471D01*
X81243788Y-49373752D01*
X81244149Y-49381103D01*
X81243788Y-49388454D01*
X81242708Y-49395735D01*
X81240920Y-49402874D01*
X81238440Y-49409804D01*
X81235293Y-49416458D01*
X81231509Y-49422771D01*
X81227125Y-49428682D01*
X81222182Y-49434136D01*
X81116116Y-49540202D01*
X81110662Y-49545145D01*
X81104751Y-49549529D01*
X81098438Y-49553313D01*
X81091784Y-49556460D01*
X81084854Y-49558940D01*
X81077715Y-49560728D01*
X81070434Y-49561808D01*
X81063083Y-49562169D01*
X81055732Y-49561808D01*
X81048451Y-49560728D01*
X81041312Y-49558940D01*
X81034382Y-49556460D01*
X81027728Y-49553313D01*
X81021415Y-49549529D01*
X81015504Y-49545145D01*
X81010050Y-49540202D01*
X80073134Y-48603286D01*
X80068191Y-48597832D01*
X80063807Y-48591921D01*
X80060023Y-48585608D01*
X80056876Y-48578954D01*
X80054396Y-48572024D01*
X80052608Y-48564885D01*
X80051528Y-48557604D01*
X80051167Y-48550253D01*
X80051528Y-48542902D01*
X80052608Y-48535621D01*
X80054396Y-48528482D01*
X80056876Y-48521552D01*
X80060023Y-48514898D01*
X80063807Y-48508585D01*
X80068191Y-48502674D01*
X80073134Y-48497220D01*
X80179200Y-48391154D01*
X80184654Y-48386211D01*
X80190565Y-48381827D01*
X80196878Y-48378043D01*
X80203532Y-48374896D01*
X80210462Y-48372416D01*
X80217601Y-48370628D01*
X80224882Y-48369548D01*
X80232233Y-48369187D01*
X80239584Y-48369548D01*
G37*
G36*
X80593138Y-48015994D02*
G01*
X80600419Y-48017074D01*
X80607558Y-48018862D01*
X80614488Y-48021342D01*
X80621142Y-48024489D01*
X80627455Y-48028273D01*
X80633366Y-48032657D01*
X80638820Y-48037600D01*
X81575736Y-48974516D01*
X81580679Y-48979970D01*
X81585063Y-48985881D01*
X81588847Y-48992194D01*
X81591994Y-48998848D01*
X81594474Y-49005778D01*
X81596262Y-49012917D01*
X81597342Y-49020198D01*
X81597703Y-49027549D01*
X81597342Y-49034900D01*
X81596262Y-49042181D01*
X81594474Y-49049320D01*
X81591994Y-49056250D01*
X81588847Y-49062904D01*
X81585063Y-49069217D01*
X81580679Y-49075128D01*
X81575736Y-49080582D01*
X81469670Y-49186648D01*
X81464216Y-49191591D01*
X81458305Y-49195975D01*
X81451992Y-49199759D01*
X81445338Y-49202906D01*
X81438408Y-49205386D01*
X81431269Y-49207174D01*
X81423988Y-49208254D01*
X81416637Y-49208615D01*
X81409286Y-49208254D01*
X81402005Y-49207174D01*
X81394866Y-49205386D01*
X81387936Y-49202906D01*
X81381282Y-49199759D01*
X81374969Y-49195975D01*
X81369058Y-49191591D01*
X81363604Y-49186648D01*
X80426688Y-48249732D01*
X80421745Y-48244278D01*
X80417361Y-48238367D01*
X80413577Y-48232054D01*
X80410430Y-48225400D01*
X80407950Y-48218470D01*
X80406162Y-48211331D01*
X80405082Y-48204050D01*
X80404721Y-48196699D01*
X80405082Y-48189348D01*
X80406162Y-48182067D01*
X80407950Y-48174928D01*
X80410430Y-48167998D01*
X80413577Y-48161344D01*
X80417361Y-48155031D01*
X80421745Y-48149120D01*
X80426688Y-48143666D01*
X80532754Y-48037600D01*
X80538208Y-48032657D01*
X80544119Y-48028273D01*
X80550432Y-48024489D01*
X80557086Y-48021342D01*
X80564016Y-48018862D01*
X80571155Y-48017074D01*
X80578436Y-48015994D01*
X80585787Y-48015633D01*
X80593138Y-48015994D01*
G37*
G36*
X83421564Y-48015994D02*
G01*
X83428845Y-48017074D01*
X83435984Y-48018862D01*
X83442914Y-48021342D01*
X83449568Y-48024489D01*
X83455881Y-48028273D01*
X83461792Y-48032657D01*
X83467246Y-48037600D01*
X83573312Y-48143666D01*
X83578255Y-48149120D01*
X83582639Y-48155031D01*
X83586423Y-48161344D01*
X83589570Y-48167998D01*
X83592050Y-48174928D01*
X83593838Y-48182067D01*
X83594918Y-48189348D01*
X83595279Y-48196699D01*
X83594918Y-48204050D01*
X83593838Y-48211331D01*
X83592050Y-48218470D01*
X83589570Y-48225400D01*
X83586423Y-48232054D01*
X83582639Y-48238367D01*
X83578255Y-48244278D01*
X83573312Y-48249732D01*
X82636396Y-49186648D01*
X82630942Y-49191591D01*
X82625031Y-49195975D01*
X82618718Y-49199759D01*
X82612064Y-49202906D01*
X82605134Y-49205386D01*
X82597995Y-49207174D01*
X82590714Y-49208254D01*
X82583363Y-49208615D01*
X82576012Y-49208254D01*
X82568731Y-49207174D01*
X82561592Y-49205386D01*
X82554662Y-49202906D01*
X82548008Y-49199759D01*
X82541695Y-49195975D01*
X82535784Y-49191591D01*
X82530330Y-49186648D01*
X82424264Y-49080582D01*
X82419321Y-49075128D01*
X82414937Y-49069217D01*
X82411153Y-49062904D01*
X82408006Y-49056250D01*
X82405526Y-49049320D01*
X82403738Y-49042181D01*
X82402658Y-49034900D01*
X82402297Y-49027549D01*
X82402658Y-49020198D01*
X82403738Y-49012917D01*
X82405526Y-49005778D01*
X82408006Y-48998848D01*
X82411153Y-48992194D01*
X82414937Y-48985881D01*
X82419321Y-48979970D01*
X82424264Y-48974516D01*
X83361180Y-48037600D01*
X83366634Y-48032657D01*
X83372545Y-48028273D01*
X83378858Y-48024489D01*
X83385512Y-48021342D01*
X83392442Y-48018862D01*
X83399581Y-48017074D01*
X83406862Y-48015994D01*
X83414213Y-48015633D01*
X83421564Y-48015994D01*
G37*
G36*
X83775118Y-48369548D02*
G01*
X83782399Y-48370628D01*
X83789538Y-48372416D01*
X83796468Y-48374896D01*
X83803122Y-48378043D01*
X83809435Y-48381827D01*
X83815346Y-48386211D01*
X83820800Y-48391154D01*
X83926866Y-48497220D01*
X83931809Y-48502674D01*
X83936193Y-48508585D01*
X83939977Y-48514898D01*
X83943124Y-48521552D01*
X83945604Y-48528482D01*
X83947392Y-48535621D01*
X83948472Y-48542902D01*
X83948833Y-48550253D01*
X83948472Y-48557604D01*
X83947392Y-48564885D01*
X83945604Y-48572024D01*
X83943124Y-48578954D01*
X83939977Y-48585608D01*
X83936193Y-48591921D01*
X83931809Y-48597832D01*
X83926866Y-48603286D01*
X82989950Y-49540202D01*
X82984496Y-49545145D01*
X82978585Y-49549529D01*
X82972272Y-49553313D01*
X82965618Y-49556460D01*
X82958688Y-49558940D01*
X82951549Y-49560728D01*
X82944268Y-49561808D01*
X82936917Y-49562169D01*
X82929566Y-49561808D01*
X82922285Y-49560728D01*
X82915146Y-49558940D01*
X82908216Y-49556460D01*
X82901562Y-49553313D01*
X82895249Y-49549529D01*
X82889338Y-49545145D01*
X82883884Y-49540202D01*
X82777818Y-49434136D01*
X82772875Y-49428682D01*
X82768491Y-49422771D01*
X82764707Y-49416458D01*
X82761560Y-49409804D01*
X82759080Y-49402874D01*
X82757292Y-49395735D01*
X82756212Y-49388454D01*
X82755851Y-49381103D01*
X82756212Y-49373752D01*
X82757292Y-49366471D01*
X82759080Y-49359332D01*
X82761560Y-49352402D01*
X82764707Y-49345748D01*
X82768491Y-49339435D01*
X82772875Y-49333524D01*
X82777818Y-49328070D01*
X83714734Y-48391154D01*
X83720188Y-48386211D01*
X83726099Y-48381827D01*
X83732412Y-48378043D01*
X83739066Y-48374896D01*
X83745996Y-48372416D01*
X83753135Y-48370628D01*
X83760416Y-48369548D01*
X83767767Y-48369187D01*
X83775118Y-48369548D01*
G37*
G36*
X84128671Y-48723101D02*
G01*
X84135952Y-48724181D01*
X84143091Y-48725969D01*
X84150021Y-48728449D01*
X84156675Y-48731596D01*
X84162988Y-48735380D01*
X84168899Y-48739764D01*
X84174353Y-48744707D01*
X84280419Y-48850773D01*
X84285362Y-48856227D01*
X84289746Y-48862138D01*
X84293530Y-48868451D01*
X84296677Y-48875105D01*
X84299157Y-48882035D01*
X84300945Y-48889174D01*
X84302025Y-48896455D01*
X84302386Y-48903806D01*
X84302025Y-48911157D01*
X84300945Y-48918438D01*
X84299157Y-48925577D01*
X84296677Y-48932507D01*
X84293530Y-48939161D01*
X84289746Y-48945474D01*
X84285362Y-48951385D01*
X84280419Y-48956839D01*
X83343503Y-49893755D01*
X83338049Y-49898698D01*
X83332138Y-49903082D01*
X83325825Y-49906866D01*
X83319171Y-49910013D01*
X83312241Y-49912493D01*
X83305102Y-49914281D01*
X83297821Y-49915361D01*
X83290470Y-49915722D01*
X83283119Y-49915361D01*
X83275838Y-49914281D01*
X83268699Y-49912493D01*
X83261769Y-49910013D01*
X83255115Y-49906866D01*
X83248802Y-49903082D01*
X83242891Y-49898698D01*
X83237437Y-49893755D01*
X83131371Y-49787689D01*
X83126428Y-49782235D01*
X83122044Y-49776324D01*
X83118260Y-49770011D01*
X83115113Y-49763357D01*
X83112633Y-49756427D01*
X83110845Y-49749288D01*
X83109765Y-49742007D01*
X83109404Y-49734656D01*
X83109765Y-49727305D01*
X83110845Y-49720024D01*
X83112633Y-49712885D01*
X83115113Y-49705955D01*
X83118260Y-49699301D01*
X83122044Y-49692988D01*
X83126428Y-49687077D01*
X83131371Y-49681623D01*
X84068287Y-48744707D01*
X84073741Y-48739764D01*
X84079652Y-48735380D01*
X84085965Y-48731596D01*
X84092619Y-48728449D01*
X84099549Y-48725969D01*
X84106688Y-48724181D01*
X84113969Y-48723101D01*
X84121320Y-48722740D01*
X84128671Y-48723101D01*
G37*
G36*
X84482225Y-49076655D02*
G01*
X84489506Y-49077735D01*
X84496645Y-49079523D01*
X84503575Y-49082003D01*
X84510229Y-49085150D01*
X84516542Y-49088934D01*
X84522453Y-49093318D01*
X84527907Y-49098261D01*
X84633973Y-49204327D01*
X84638916Y-49209781D01*
X84643300Y-49215692D01*
X84647084Y-49222005D01*
X84650231Y-49228659D01*
X84652711Y-49235589D01*
X84654499Y-49242728D01*
X84655579Y-49250009D01*
X84655940Y-49257360D01*
X84655579Y-49264711D01*
X84654499Y-49271992D01*
X84652711Y-49279131D01*
X84650231Y-49286061D01*
X84647084Y-49292715D01*
X84643300Y-49299028D01*
X84638916Y-49304939D01*
X84633973Y-49310393D01*
X83697057Y-50247309D01*
X83691603Y-50252252D01*
X83685692Y-50256636D01*
X83679379Y-50260420D01*
X83672725Y-50263567D01*
X83665795Y-50266047D01*
X83658656Y-50267835D01*
X83651375Y-50268915D01*
X83644024Y-50269276D01*
X83636673Y-50268915D01*
X83629392Y-50267835D01*
X83622253Y-50266047D01*
X83615323Y-50263567D01*
X83608669Y-50260420D01*
X83602356Y-50256636D01*
X83596445Y-50252252D01*
X83590991Y-50247309D01*
X83484925Y-50141243D01*
X83479982Y-50135789D01*
X83475598Y-50129878D01*
X83471814Y-50123565D01*
X83468667Y-50116911D01*
X83466187Y-50109981D01*
X83464399Y-50102842D01*
X83463319Y-50095561D01*
X83462958Y-50088210D01*
X83463319Y-50080859D01*
X83464399Y-50073578D01*
X83466187Y-50066439D01*
X83468667Y-50059509D01*
X83471814Y-50052855D01*
X83475598Y-50046542D01*
X83479982Y-50040631D01*
X83484925Y-50035177D01*
X84421841Y-49098261D01*
X84427295Y-49093318D01*
X84433206Y-49088934D01*
X84439519Y-49085150D01*
X84446173Y-49082003D01*
X84453103Y-49079523D01*
X84460242Y-49077735D01*
X84467523Y-49076655D01*
X84474874Y-49076294D01*
X84482225Y-49076655D01*
G37*
G36*
X84835778Y-49430208D02*
G01*
X84843059Y-49431288D01*
X84850198Y-49433076D01*
X84857128Y-49435556D01*
X84863782Y-49438703D01*
X84870095Y-49442487D01*
X84876006Y-49446871D01*
X84881460Y-49451814D01*
X84987526Y-49557880D01*
X84992469Y-49563334D01*
X84996853Y-49569245D01*
X85000637Y-49575558D01*
X85003784Y-49582212D01*
X85006264Y-49589142D01*
X85008052Y-49596281D01*
X85009132Y-49603562D01*
X85009493Y-49610913D01*
X85009132Y-49618264D01*
X85008052Y-49625545D01*
X85006264Y-49632684D01*
X85003784Y-49639614D01*
X85000637Y-49646268D01*
X84996853Y-49652581D01*
X84992469Y-49658492D01*
X84987526Y-49663946D01*
X84050610Y-50600862D01*
X84045156Y-50605805D01*
X84039245Y-50610189D01*
X84032932Y-50613973D01*
X84026278Y-50617120D01*
X84019348Y-50619600D01*
X84012209Y-50621388D01*
X84004928Y-50622468D01*
X83997577Y-50622829D01*
X83990226Y-50622468D01*
X83982945Y-50621388D01*
X83975806Y-50619600D01*
X83968876Y-50617120D01*
X83962222Y-50613973D01*
X83955909Y-50610189D01*
X83949998Y-50605805D01*
X83944544Y-50600862D01*
X83838478Y-50494796D01*
X83833535Y-50489342D01*
X83829151Y-50483431D01*
X83825367Y-50477118D01*
X83822220Y-50470464D01*
X83819740Y-50463534D01*
X83817952Y-50456395D01*
X83816872Y-50449114D01*
X83816511Y-50441763D01*
X83816872Y-50434412D01*
X83817952Y-50427131D01*
X83819740Y-50419992D01*
X83822220Y-50413062D01*
X83825367Y-50406408D01*
X83829151Y-50400095D01*
X83833535Y-50394184D01*
X83838478Y-50388730D01*
X84775394Y-49451814D01*
X84780848Y-49446871D01*
X84786759Y-49442487D01*
X84793072Y-49438703D01*
X84799726Y-49435556D01*
X84806656Y-49433076D01*
X84813795Y-49431288D01*
X84821076Y-49430208D01*
X84828427Y-49429847D01*
X84835778Y-49430208D01*
G37*
G36*
X85189331Y-49783761D02*
G01*
X85196612Y-49784841D01*
X85203751Y-49786629D01*
X85210681Y-49789109D01*
X85217335Y-49792256D01*
X85223648Y-49796040D01*
X85229559Y-49800424D01*
X85235013Y-49805367D01*
X85341079Y-49911433D01*
X85346022Y-49916887D01*
X85350406Y-49922798D01*
X85354190Y-49929111D01*
X85357337Y-49935765D01*
X85359817Y-49942695D01*
X85361605Y-49949834D01*
X85362685Y-49957115D01*
X85363046Y-49964466D01*
X85362685Y-49971817D01*
X85361605Y-49979098D01*
X85359817Y-49986237D01*
X85357337Y-49993167D01*
X85354190Y-49999821D01*
X85350406Y-50006134D01*
X85346022Y-50012045D01*
X85341079Y-50017499D01*
X84404163Y-50954415D01*
X84398709Y-50959358D01*
X84392798Y-50963742D01*
X84386485Y-50967526D01*
X84379831Y-50970673D01*
X84372901Y-50973153D01*
X84365762Y-50974941D01*
X84358481Y-50976021D01*
X84351130Y-50976382D01*
X84343779Y-50976021D01*
X84336498Y-50974941D01*
X84329359Y-50973153D01*
X84322429Y-50970673D01*
X84315775Y-50967526D01*
X84309462Y-50963742D01*
X84303551Y-50959358D01*
X84298097Y-50954415D01*
X84192031Y-50848349D01*
X84187088Y-50842895D01*
X84182704Y-50836984D01*
X84178920Y-50830671D01*
X84175773Y-50824017D01*
X84173293Y-50817087D01*
X84171505Y-50809948D01*
X84170425Y-50802667D01*
X84170064Y-50795316D01*
X84170425Y-50787965D01*
X84171505Y-50780684D01*
X84173293Y-50773545D01*
X84175773Y-50766615D01*
X84178920Y-50759961D01*
X84182704Y-50753648D01*
X84187088Y-50747737D01*
X84192031Y-50742283D01*
X85128947Y-49805367D01*
X85134401Y-49800424D01*
X85140312Y-49796040D01*
X85146625Y-49792256D01*
X85153279Y-49789109D01*
X85160209Y-49786629D01*
X85167348Y-49784841D01*
X85174629Y-49783761D01*
X85181980Y-49783400D01*
X85189331Y-49783761D01*
G37*
G36*
X85542885Y-50137315D02*
G01*
X85550166Y-50138395D01*
X85557305Y-50140183D01*
X85564235Y-50142663D01*
X85570889Y-50145810D01*
X85577202Y-50149594D01*
X85583113Y-50153978D01*
X85588567Y-50158921D01*
X85694633Y-50264987D01*
X85699576Y-50270441D01*
X85703960Y-50276352D01*
X85707744Y-50282665D01*
X85710891Y-50289319D01*
X85713371Y-50296249D01*
X85715159Y-50303388D01*
X85716239Y-50310669D01*
X85716600Y-50318020D01*
X85716239Y-50325371D01*
X85715159Y-50332652D01*
X85713371Y-50339791D01*
X85710891Y-50346721D01*
X85707744Y-50353375D01*
X85703960Y-50359688D01*
X85699576Y-50365599D01*
X85694633Y-50371053D01*
X84757717Y-51307969D01*
X84752263Y-51312912D01*
X84746352Y-51317296D01*
X84740039Y-51321080D01*
X84733385Y-51324227D01*
X84726455Y-51326707D01*
X84719316Y-51328495D01*
X84712035Y-51329575D01*
X84704684Y-51329936D01*
X84697333Y-51329575D01*
X84690052Y-51328495D01*
X84682913Y-51326707D01*
X84675983Y-51324227D01*
X84669329Y-51321080D01*
X84663016Y-51317296D01*
X84657105Y-51312912D01*
X84651651Y-51307969D01*
X84545585Y-51201903D01*
X84540642Y-51196449D01*
X84536258Y-51190538D01*
X84532474Y-51184225D01*
X84529327Y-51177571D01*
X84526847Y-51170641D01*
X84525059Y-51163502D01*
X84523979Y-51156221D01*
X84523618Y-51148870D01*
X84523979Y-51141519D01*
X84525059Y-51134238D01*
X84526847Y-51127099D01*
X84529327Y-51120169D01*
X84532474Y-51113515D01*
X84536258Y-51107202D01*
X84540642Y-51101291D01*
X84545585Y-51095837D01*
X85482501Y-50158921D01*
X85487955Y-50153978D01*
X85493866Y-50149594D01*
X85500179Y-50145810D01*
X85506833Y-50142663D01*
X85513763Y-50140183D01*
X85520902Y-50138395D01*
X85528183Y-50137315D01*
X85535534Y-50136954D01*
X85542885Y-50137315D01*
G37*
G36*
X85896438Y-50490868D02*
G01*
X85903719Y-50491948D01*
X85910858Y-50493736D01*
X85917788Y-50496216D01*
X85924442Y-50499363D01*
X85930755Y-50503147D01*
X85936666Y-50507531D01*
X85942120Y-50512474D01*
X86048186Y-50618540D01*
X86053129Y-50623994D01*
X86057513Y-50629905D01*
X86061297Y-50636218D01*
X86064444Y-50642872D01*
X86066924Y-50649802D01*
X86068712Y-50656941D01*
X86069792Y-50664222D01*
X86070153Y-50671573D01*
X86069792Y-50678924D01*
X86068712Y-50686205D01*
X86066924Y-50693344D01*
X86064444Y-50700274D01*
X86061297Y-50706928D01*
X86057513Y-50713241D01*
X86053129Y-50719152D01*
X86048186Y-50724606D01*
X85111270Y-51661522D01*
X85105816Y-51666465D01*
X85099905Y-51670849D01*
X85093592Y-51674633D01*
X85086938Y-51677780D01*
X85080008Y-51680260D01*
X85072869Y-51682048D01*
X85065588Y-51683128D01*
X85058237Y-51683489D01*
X85050886Y-51683128D01*
X85043605Y-51682048D01*
X85036466Y-51680260D01*
X85029536Y-51677780D01*
X85022882Y-51674633D01*
X85016569Y-51670849D01*
X85010658Y-51666465D01*
X85005204Y-51661522D01*
X84899138Y-51555456D01*
X84894195Y-51550002D01*
X84889811Y-51544091D01*
X84886027Y-51537778D01*
X84882880Y-51531124D01*
X84880400Y-51524194D01*
X84878612Y-51517055D01*
X84877532Y-51509774D01*
X84877171Y-51502423D01*
X84877532Y-51495072D01*
X84878612Y-51487791D01*
X84880400Y-51480652D01*
X84882880Y-51473722D01*
X84886027Y-51467068D01*
X84889811Y-51460755D01*
X84894195Y-51454844D01*
X84899138Y-51449390D01*
X85836054Y-50512474D01*
X85841508Y-50507531D01*
X85847419Y-50503147D01*
X85853732Y-50499363D01*
X85860386Y-50496216D01*
X85867316Y-50493736D01*
X85874455Y-50491948D01*
X85881736Y-50490868D01*
X85889087Y-50490507D01*
X85896438Y-50490868D01*
G37*
G36*
X86249991Y-50844421D02*
G01*
X86257272Y-50845501D01*
X86264411Y-50847289D01*
X86271341Y-50849769D01*
X86277995Y-50852916D01*
X86284308Y-50856700D01*
X86290219Y-50861084D01*
X86295673Y-50866027D01*
X86401739Y-50972093D01*
X86406682Y-50977547D01*
X86411066Y-50983458D01*
X86414850Y-50989771D01*
X86417997Y-50996425D01*
X86420477Y-51003355D01*
X86422265Y-51010494D01*
X86423345Y-51017775D01*
X86423706Y-51025126D01*
X86423345Y-51032477D01*
X86422265Y-51039758D01*
X86420477Y-51046897D01*
X86417997Y-51053827D01*
X86414850Y-51060481D01*
X86411066Y-51066794D01*
X86406682Y-51072705D01*
X86401739Y-51078159D01*
X85464823Y-52015075D01*
X85459369Y-52020018D01*
X85453458Y-52024402D01*
X85447145Y-52028186D01*
X85440491Y-52031333D01*
X85433561Y-52033813D01*
X85426422Y-52035601D01*
X85419141Y-52036681D01*
X85411790Y-52037042D01*
X85404439Y-52036681D01*
X85397158Y-52035601D01*
X85390019Y-52033813D01*
X85383089Y-52031333D01*
X85376435Y-52028186D01*
X85370122Y-52024402D01*
X85364211Y-52020018D01*
X85358757Y-52015075D01*
X85252691Y-51909009D01*
X85247748Y-51903555D01*
X85243364Y-51897644D01*
X85239580Y-51891331D01*
X85236433Y-51884677D01*
X85233953Y-51877747D01*
X85232165Y-51870608D01*
X85231085Y-51863327D01*
X85230724Y-51855976D01*
X85231085Y-51848625D01*
X85232165Y-51841344D01*
X85233953Y-51834205D01*
X85236433Y-51827275D01*
X85239580Y-51820621D01*
X85243364Y-51814308D01*
X85247748Y-51808397D01*
X85252691Y-51802943D01*
X86189607Y-50866027D01*
X86195061Y-50861084D01*
X86200972Y-50856700D01*
X86207285Y-50852916D01*
X86213939Y-50849769D01*
X86220869Y-50847289D01*
X86228008Y-50845501D01*
X86235289Y-50844421D01*
X86242640Y-50844060D01*
X86249991Y-50844421D01*
G37*
G36*
X86603545Y-51197975D02*
G01*
X86610826Y-51199055D01*
X86617965Y-51200843D01*
X86624895Y-51203323D01*
X86631549Y-51206470D01*
X86637862Y-51210254D01*
X86643773Y-51214638D01*
X86649227Y-51219581D01*
X86755293Y-51325647D01*
X86760236Y-51331101D01*
X86764620Y-51337012D01*
X86768404Y-51343325D01*
X86771551Y-51349979D01*
X86774031Y-51356909D01*
X86775819Y-51364048D01*
X86776899Y-51371329D01*
X86777260Y-51378680D01*
X86776899Y-51386031D01*
X86775819Y-51393312D01*
X86774031Y-51400451D01*
X86771551Y-51407381D01*
X86768404Y-51414035D01*
X86764620Y-51420348D01*
X86760236Y-51426259D01*
X86755293Y-51431713D01*
X85818377Y-52368629D01*
X85812923Y-52373572D01*
X85807012Y-52377956D01*
X85800699Y-52381740D01*
X85794045Y-52384887D01*
X85787115Y-52387367D01*
X85779976Y-52389155D01*
X85772695Y-52390235D01*
X85765344Y-52390596D01*
X85757993Y-52390235D01*
X85750712Y-52389155D01*
X85743573Y-52387367D01*
X85736643Y-52384887D01*
X85729989Y-52381740D01*
X85723676Y-52377956D01*
X85717765Y-52373572D01*
X85712311Y-52368629D01*
X85606245Y-52262563D01*
X85601302Y-52257109D01*
X85596918Y-52251198D01*
X85593134Y-52244885D01*
X85589987Y-52238231D01*
X85587507Y-52231301D01*
X85585719Y-52224162D01*
X85584639Y-52216881D01*
X85584278Y-52209530D01*
X85584639Y-52202179D01*
X85585719Y-52194898D01*
X85587507Y-52187759D01*
X85589987Y-52180829D01*
X85593134Y-52174175D01*
X85596918Y-52167862D01*
X85601302Y-52161951D01*
X85606245Y-52156497D01*
X86543161Y-51219581D01*
X86548615Y-51214638D01*
X86554526Y-51210254D01*
X86560839Y-51206470D01*
X86567493Y-51203323D01*
X86574423Y-51200843D01*
X86581562Y-51199055D01*
X86588843Y-51197975D01*
X86596194Y-51197614D01*
X86603545Y-51197975D01*
G37*
G36*
X86957098Y-51551528D02*
G01*
X86964379Y-51552608D01*
X86971518Y-51554396D01*
X86978448Y-51556876D01*
X86985102Y-51560023D01*
X86991415Y-51563807D01*
X86997326Y-51568191D01*
X87002780Y-51573134D01*
X87108846Y-51679200D01*
X87113789Y-51684654D01*
X87118173Y-51690565D01*
X87121957Y-51696878D01*
X87125104Y-51703532D01*
X87127584Y-51710462D01*
X87129372Y-51717601D01*
X87130452Y-51724882D01*
X87130813Y-51732233D01*
X87130452Y-51739584D01*
X87129372Y-51746865D01*
X87127584Y-51754004D01*
X87125104Y-51760934D01*
X87121957Y-51767588D01*
X87118173Y-51773901D01*
X87113789Y-51779812D01*
X87108846Y-51785266D01*
X86171930Y-52722182D01*
X86166476Y-52727125D01*
X86160565Y-52731509D01*
X86154252Y-52735293D01*
X86147598Y-52738440D01*
X86140668Y-52740920D01*
X86133529Y-52742708D01*
X86126248Y-52743788D01*
X86118897Y-52744149D01*
X86111546Y-52743788D01*
X86104265Y-52742708D01*
X86097126Y-52740920D01*
X86090196Y-52738440D01*
X86083542Y-52735293D01*
X86077229Y-52731509D01*
X86071318Y-52727125D01*
X86065864Y-52722182D01*
X85959798Y-52616116D01*
X85954855Y-52610662D01*
X85950471Y-52604751D01*
X85946687Y-52598438D01*
X85943540Y-52591784D01*
X85941060Y-52584854D01*
X85939272Y-52577715D01*
X85938192Y-52570434D01*
X85937831Y-52563083D01*
X85938192Y-52555732D01*
X85939272Y-52548451D01*
X85941060Y-52541312D01*
X85943540Y-52534382D01*
X85946687Y-52527728D01*
X85950471Y-52521415D01*
X85954855Y-52515504D01*
X85959798Y-52510050D01*
X86896714Y-51573134D01*
X86902168Y-51568191D01*
X86908079Y-51563807D01*
X86914392Y-51560023D01*
X86921046Y-51556876D01*
X86927976Y-51554396D01*
X86935115Y-51552608D01*
X86942396Y-51551528D01*
X86949747Y-51551167D01*
X86957098Y-51551528D01*
G37*
G36*
X87310652Y-51905082D02*
G01*
X87317933Y-51906162D01*
X87325072Y-51907950D01*
X87332002Y-51910430D01*
X87338656Y-51913577D01*
X87344969Y-51917361D01*
X87350880Y-51921745D01*
X87356334Y-51926688D01*
X87462400Y-52032754D01*
X87467343Y-52038208D01*
X87471727Y-52044119D01*
X87475511Y-52050432D01*
X87478658Y-52057086D01*
X87481138Y-52064016D01*
X87482926Y-52071155D01*
X87484006Y-52078436D01*
X87484367Y-52085787D01*
X87484006Y-52093138D01*
X87482926Y-52100419D01*
X87481138Y-52107558D01*
X87478658Y-52114488D01*
X87475511Y-52121142D01*
X87471727Y-52127455D01*
X87467343Y-52133366D01*
X87462400Y-52138820D01*
X86525484Y-53075736D01*
X86520030Y-53080679D01*
X86514119Y-53085063D01*
X86507806Y-53088847D01*
X86501152Y-53091994D01*
X86494222Y-53094474D01*
X86487083Y-53096262D01*
X86479802Y-53097342D01*
X86472451Y-53097703D01*
X86465100Y-53097342D01*
X86457819Y-53096262D01*
X86450680Y-53094474D01*
X86443750Y-53091994D01*
X86437096Y-53088847D01*
X86430783Y-53085063D01*
X86424872Y-53080679D01*
X86419418Y-53075736D01*
X86313352Y-52969670D01*
X86308409Y-52964216D01*
X86304025Y-52958305D01*
X86300241Y-52951992D01*
X86297094Y-52945338D01*
X86294614Y-52938408D01*
X86292826Y-52931269D01*
X86291746Y-52923988D01*
X86291385Y-52916637D01*
X86291746Y-52909286D01*
X86292826Y-52902005D01*
X86294614Y-52894866D01*
X86297094Y-52887936D01*
X86300241Y-52881282D01*
X86304025Y-52874969D01*
X86308409Y-52869058D01*
X86313352Y-52863604D01*
X87250268Y-51926688D01*
X87255722Y-51921745D01*
X87261633Y-51917361D01*
X87267946Y-51913577D01*
X87274600Y-51910430D01*
X87281530Y-51907950D01*
X87288669Y-51906162D01*
X87295950Y-51905082D01*
X87303301Y-51904721D01*
X87310652Y-51905082D01*
G37*
D12*
X92750000Y-55900000D03*
X97250000Y-55900000D03*
X97250000Y-64100000D03*
X92750000Y-64100000D03*
D13*
X94340000Y-81390000D03*
X94340000Y-85990000D03*
X94340000Y-83690000D03*
D14*
X100640000Y-83690000D03*
D15*
X103537500Y-74120000D03*
D16*
X100837500Y-73120000D03*
X100837500Y-72470000D03*
X100837500Y-71820000D03*
X100837500Y-74420000D03*
X100837500Y-73770000D03*
D15*
X103537500Y-72120000D03*
D17*
X93850000Y-72500000D03*
X93850000Y-71550000D03*
X93850000Y-73450000D03*
X91150000Y-73450000D03*
X91150000Y-72500000D03*
X91150000Y-71550000D03*
D10*
G36*
X103814505Y-63211204D02*
G01*
X103838773Y-63214804D01*
X103862572Y-63220765D01*
X103885671Y-63229030D01*
X103907850Y-63239520D01*
X103928893Y-63252132D01*
X103948599Y-63266747D01*
X103966777Y-63283223D01*
X103983253Y-63301401D01*
X103997868Y-63321107D01*
X104010480Y-63342150D01*
X104020970Y-63364329D01*
X104029235Y-63387428D01*
X104035196Y-63411227D01*
X104038796Y-63435495D01*
X104040000Y-63459999D01*
X104040000Y-64360001D01*
X104038796Y-64384505D01*
X104035196Y-64408773D01*
X104029235Y-64432572D01*
X104020970Y-64455671D01*
X104010480Y-64477850D01*
X103997868Y-64498893D01*
X103983253Y-64518599D01*
X103966777Y-64536777D01*
X103948599Y-64553253D01*
X103928893Y-64567868D01*
X103907850Y-64580480D01*
X103885671Y-64590970D01*
X103862572Y-64599235D01*
X103838773Y-64605196D01*
X103814505Y-64608796D01*
X103790001Y-64610000D01*
X103139999Y-64610000D01*
X103115495Y-64608796D01*
X103091227Y-64605196D01*
X103067428Y-64599235D01*
X103044329Y-64590970D01*
X103022150Y-64580480D01*
X103001107Y-64567868D01*
X102981401Y-64553253D01*
X102963223Y-64536777D01*
X102946747Y-64518599D01*
X102932132Y-64498893D01*
X102919520Y-64477850D01*
X102909030Y-64455671D01*
X102900765Y-64432572D01*
X102894804Y-64408773D01*
X102891204Y-64384505D01*
X102890000Y-64360001D01*
X102890000Y-63459999D01*
X102891204Y-63435495D01*
X102894804Y-63411227D01*
X102900765Y-63387428D01*
X102909030Y-63364329D01*
X102919520Y-63342150D01*
X102932132Y-63321107D01*
X102946747Y-63301401D01*
X102963223Y-63283223D01*
X102981401Y-63266747D01*
X103001107Y-63252132D01*
X103022150Y-63239520D01*
X103044329Y-63229030D01*
X103067428Y-63220765D01*
X103091227Y-63214804D01*
X103115495Y-63211204D01*
X103139999Y-63210000D01*
X103790001Y-63210000D01*
X103814505Y-63211204D01*
G37*
G36*
X101764505Y-63211204D02*
G01*
X101788773Y-63214804D01*
X101812572Y-63220765D01*
X101835671Y-63229030D01*
X101857850Y-63239520D01*
X101878893Y-63252132D01*
X101898599Y-63266747D01*
X101916777Y-63283223D01*
X101933253Y-63301401D01*
X101947868Y-63321107D01*
X101960480Y-63342150D01*
X101970970Y-63364329D01*
X101979235Y-63387428D01*
X101985196Y-63411227D01*
X101988796Y-63435495D01*
X101990000Y-63459999D01*
X101990000Y-64360001D01*
X101988796Y-64384505D01*
X101985196Y-64408773D01*
X101979235Y-64432572D01*
X101970970Y-64455671D01*
X101960480Y-64477850D01*
X101947868Y-64498893D01*
X101933253Y-64518599D01*
X101916777Y-64536777D01*
X101898599Y-64553253D01*
X101878893Y-64567868D01*
X101857850Y-64580480D01*
X101835671Y-64590970D01*
X101812572Y-64599235D01*
X101788773Y-64605196D01*
X101764505Y-64608796D01*
X101740001Y-64610000D01*
X101089999Y-64610000D01*
X101065495Y-64608796D01*
X101041227Y-64605196D01*
X101017428Y-64599235D01*
X100994329Y-64590970D01*
X100972150Y-64580480D01*
X100951107Y-64567868D01*
X100931401Y-64553253D01*
X100913223Y-64536777D01*
X100896747Y-64518599D01*
X100882132Y-64498893D01*
X100869520Y-64477850D01*
X100859030Y-64455671D01*
X100850765Y-64432572D01*
X100844804Y-64408773D01*
X100841204Y-64384505D01*
X100840000Y-64360001D01*
X100840000Y-63459999D01*
X100841204Y-63435495D01*
X100844804Y-63411227D01*
X100850765Y-63387428D01*
X100859030Y-63364329D01*
X100869520Y-63342150D01*
X100882132Y-63321107D01*
X100896747Y-63301401D01*
X100913223Y-63283223D01*
X100931401Y-63266747D01*
X100951107Y-63252132D01*
X100972150Y-63239520D01*
X100994329Y-63229030D01*
X101017428Y-63220765D01*
X101041227Y-63214804D01*
X101065495Y-63211204D01*
X101089999Y-63210000D01*
X101740001Y-63210000D01*
X101764505Y-63211204D01*
G37*
G36*
X101194505Y-43176203D02*
G01*
X101218773Y-43179803D01*
X101242572Y-43185764D01*
X101265671Y-43194029D01*
X101287850Y-43204519D01*
X101308893Y-43217131D01*
X101328599Y-43231746D01*
X101346777Y-43248222D01*
X101363253Y-43266400D01*
X101377868Y-43286106D01*
X101390480Y-43307149D01*
X101400970Y-43329328D01*
X101409235Y-43352427D01*
X101415196Y-43376226D01*
X101418796Y-43400494D01*
X101420000Y-43424998D01*
X101420000Y-44075000D01*
X101418796Y-44099504D01*
X101415196Y-44123772D01*
X101409235Y-44147571D01*
X101400970Y-44170670D01*
X101390480Y-44192849D01*
X101377868Y-44213892D01*
X101363253Y-44233598D01*
X101346777Y-44251776D01*
X101328599Y-44268252D01*
X101308893Y-44282867D01*
X101287850Y-44295479D01*
X101265671Y-44305969D01*
X101242572Y-44314234D01*
X101218773Y-44320195D01*
X101194505Y-44323795D01*
X101170001Y-44324999D01*
X100269999Y-44324999D01*
X100245495Y-44323795D01*
X100221227Y-44320195D01*
X100197428Y-44314234D01*
X100174329Y-44305969D01*
X100152150Y-44295479D01*
X100131107Y-44282867D01*
X100111401Y-44268252D01*
X100093223Y-44251776D01*
X100076747Y-44233598D01*
X100062132Y-44213892D01*
X100049520Y-44192849D01*
X100039030Y-44170670D01*
X100030765Y-44147571D01*
X100024804Y-44123772D01*
X100021204Y-44099504D01*
X100020000Y-44075000D01*
X100020000Y-43424998D01*
X100021204Y-43400494D01*
X100024804Y-43376226D01*
X100030765Y-43352427D01*
X100039030Y-43329328D01*
X100049520Y-43307149D01*
X100062132Y-43286106D01*
X100076747Y-43266400D01*
X100093223Y-43248222D01*
X100111401Y-43231746D01*
X100131107Y-43217131D01*
X100152150Y-43204519D01*
X100174329Y-43194029D01*
X100197428Y-43185764D01*
X100221227Y-43179803D01*
X100245495Y-43176203D01*
X100269999Y-43174999D01*
X101170001Y-43174999D01*
X101194505Y-43176203D01*
G37*
G36*
X101194505Y-41126203D02*
G01*
X101218773Y-41129803D01*
X101242572Y-41135764D01*
X101265671Y-41144029D01*
X101287850Y-41154519D01*
X101308893Y-41167131D01*
X101328599Y-41181746D01*
X101346777Y-41198222D01*
X101363253Y-41216400D01*
X101377868Y-41236106D01*
X101390480Y-41257149D01*
X101400970Y-41279328D01*
X101409235Y-41302427D01*
X101415196Y-41326226D01*
X101418796Y-41350494D01*
X101420000Y-41374998D01*
X101420000Y-42025000D01*
X101418796Y-42049504D01*
X101415196Y-42073772D01*
X101409235Y-42097571D01*
X101400970Y-42120670D01*
X101390480Y-42142849D01*
X101377868Y-42163892D01*
X101363253Y-42183598D01*
X101346777Y-42201776D01*
X101328599Y-42218252D01*
X101308893Y-42232867D01*
X101287850Y-42245479D01*
X101265671Y-42255969D01*
X101242572Y-42264234D01*
X101218773Y-42270195D01*
X101194505Y-42273795D01*
X101170001Y-42274999D01*
X100269999Y-42274999D01*
X100245495Y-42273795D01*
X100221227Y-42270195D01*
X100197428Y-42264234D01*
X100174329Y-42255969D01*
X100152150Y-42245479D01*
X100131107Y-42232867D01*
X100111401Y-42218252D01*
X100093223Y-42201776D01*
X100076747Y-42183598D01*
X100062132Y-42163892D01*
X100049520Y-42142849D01*
X100039030Y-42120670D01*
X100030765Y-42097571D01*
X100024804Y-42073772D01*
X100021204Y-42049504D01*
X100020000Y-42025000D01*
X100020000Y-41374998D01*
X100021204Y-41350494D01*
X100024804Y-41326226D01*
X100030765Y-41302427D01*
X100039030Y-41279328D01*
X100049520Y-41257149D01*
X100062132Y-41236106D01*
X100076747Y-41216400D01*
X100093223Y-41198222D01*
X100111401Y-41181746D01*
X100131107Y-41167131D01*
X100152150Y-41154519D01*
X100174329Y-41144029D01*
X100197428Y-41135764D01*
X100221227Y-41129803D01*
X100245495Y-41126203D01*
X100269999Y-41124999D01*
X101170001Y-41124999D01*
X101194505Y-41126203D01*
G37*
D18*
X81869218Y-39618701D03*
X83608701Y-37879218D03*
X84810782Y-39081299D03*
X83071299Y-40820782D03*
D10*
G36*
X93999504Y-43621204D02*
G01*
X94023772Y-43624804D01*
X94047571Y-43630765D01*
X94070670Y-43639030D01*
X94092849Y-43649520D01*
X94113892Y-43662132D01*
X94133598Y-43676747D01*
X94151776Y-43693223D01*
X94168252Y-43711401D01*
X94182867Y-43731107D01*
X94195479Y-43752150D01*
X94205969Y-43774329D01*
X94214234Y-43797428D01*
X94220195Y-43821227D01*
X94223795Y-43845495D01*
X94224999Y-43869999D01*
X94224999Y-44770001D01*
X94223795Y-44794505D01*
X94220195Y-44818773D01*
X94214234Y-44842572D01*
X94205969Y-44865671D01*
X94195479Y-44887850D01*
X94182867Y-44908893D01*
X94168252Y-44928599D01*
X94151776Y-44946777D01*
X94133598Y-44963253D01*
X94113892Y-44977868D01*
X94092849Y-44990480D01*
X94070670Y-45000970D01*
X94047571Y-45009235D01*
X94023772Y-45015196D01*
X93999504Y-45018796D01*
X93975000Y-45020000D01*
X93324998Y-45020000D01*
X93300494Y-45018796D01*
X93276226Y-45015196D01*
X93252427Y-45009235D01*
X93229328Y-45000970D01*
X93207149Y-44990480D01*
X93186106Y-44977868D01*
X93166400Y-44963253D01*
X93148222Y-44946777D01*
X93131746Y-44928599D01*
X93117131Y-44908893D01*
X93104519Y-44887850D01*
X93094029Y-44865671D01*
X93085764Y-44842572D01*
X93079803Y-44818773D01*
X93076203Y-44794505D01*
X93074999Y-44770001D01*
X93074999Y-43869999D01*
X93076203Y-43845495D01*
X93079803Y-43821227D01*
X93085764Y-43797428D01*
X93094029Y-43774329D01*
X93104519Y-43752150D01*
X93117131Y-43731107D01*
X93131746Y-43711401D01*
X93148222Y-43693223D01*
X93166400Y-43676747D01*
X93186106Y-43662132D01*
X93207149Y-43649520D01*
X93229328Y-43639030D01*
X93252427Y-43630765D01*
X93276226Y-43624804D01*
X93300494Y-43621204D01*
X93324998Y-43620000D01*
X93975000Y-43620000D01*
X93999504Y-43621204D01*
G37*
G36*
X96049504Y-43621204D02*
G01*
X96073772Y-43624804D01*
X96097571Y-43630765D01*
X96120670Y-43639030D01*
X96142849Y-43649520D01*
X96163892Y-43662132D01*
X96183598Y-43676747D01*
X96201776Y-43693223D01*
X96218252Y-43711401D01*
X96232867Y-43731107D01*
X96245479Y-43752150D01*
X96255969Y-43774329D01*
X96264234Y-43797428D01*
X96270195Y-43821227D01*
X96273795Y-43845495D01*
X96274999Y-43869999D01*
X96274999Y-44770001D01*
X96273795Y-44794505D01*
X96270195Y-44818773D01*
X96264234Y-44842572D01*
X96255969Y-44865671D01*
X96245479Y-44887850D01*
X96232867Y-44908893D01*
X96218252Y-44928599D01*
X96201776Y-44946777D01*
X96183598Y-44963253D01*
X96163892Y-44977868D01*
X96142849Y-44990480D01*
X96120670Y-45000970D01*
X96097571Y-45009235D01*
X96073772Y-45015196D01*
X96049504Y-45018796D01*
X96025000Y-45020000D01*
X95374998Y-45020000D01*
X95350494Y-45018796D01*
X95326226Y-45015196D01*
X95302427Y-45009235D01*
X95279328Y-45000970D01*
X95257149Y-44990480D01*
X95236106Y-44977868D01*
X95216400Y-44963253D01*
X95198222Y-44946777D01*
X95181746Y-44928599D01*
X95167131Y-44908893D01*
X95154519Y-44887850D01*
X95144029Y-44865671D01*
X95135764Y-44842572D01*
X95129803Y-44818773D01*
X95126203Y-44794505D01*
X95124999Y-44770001D01*
X95124999Y-43869999D01*
X95126203Y-43845495D01*
X95129803Y-43821227D01*
X95135764Y-43797428D01*
X95144029Y-43774329D01*
X95154519Y-43752150D01*
X95167131Y-43731107D01*
X95181746Y-43711401D01*
X95198222Y-43693223D01*
X95216400Y-43676747D01*
X95236106Y-43662132D01*
X95257149Y-43649520D01*
X95279328Y-43639030D01*
X95302427Y-43630765D01*
X95326226Y-43624804D01*
X95350494Y-43621204D01*
X95374998Y-43620000D01*
X96025000Y-43620000D01*
X96049504Y-43621204D01*
G37*
G36*
X103544505Y-55351204D02*
G01*
X103568773Y-55354804D01*
X103592572Y-55360765D01*
X103615671Y-55369030D01*
X103637850Y-55379520D01*
X103658893Y-55392132D01*
X103678599Y-55406747D01*
X103696777Y-55423223D01*
X103713253Y-55441401D01*
X103727868Y-55461107D01*
X103740480Y-55482150D01*
X103750970Y-55504329D01*
X103759235Y-55527428D01*
X103765196Y-55551227D01*
X103768796Y-55575495D01*
X103770000Y-55599999D01*
X103770000Y-56500001D01*
X103768796Y-56524505D01*
X103765196Y-56548773D01*
X103759235Y-56572572D01*
X103750970Y-56595671D01*
X103740480Y-56617850D01*
X103727868Y-56638893D01*
X103713253Y-56658599D01*
X103696777Y-56676777D01*
X103678599Y-56693253D01*
X103658893Y-56707868D01*
X103637850Y-56720480D01*
X103615671Y-56730970D01*
X103592572Y-56739235D01*
X103568773Y-56745196D01*
X103544505Y-56748796D01*
X103520001Y-56750000D01*
X102869999Y-56750000D01*
X102845495Y-56748796D01*
X102821227Y-56745196D01*
X102797428Y-56739235D01*
X102774329Y-56730970D01*
X102752150Y-56720480D01*
X102731107Y-56707868D01*
X102711401Y-56693253D01*
X102693223Y-56676777D01*
X102676747Y-56658599D01*
X102662132Y-56638893D01*
X102649520Y-56617850D01*
X102639030Y-56595671D01*
X102630765Y-56572572D01*
X102624804Y-56548773D01*
X102621204Y-56524505D01*
X102620000Y-56500001D01*
X102620000Y-55599999D01*
X102621204Y-55575495D01*
X102624804Y-55551227D01*
X102630765Y-55527428D01*
X102639030Y-55504329D01*
X102649520Y-55482150D01*
X102662132Y-55461107D01*
X102676747Y-55441401D01*
X102693223Y-55423223D01*
X102711401Y-55406747D01*
X102731107Y-55392132D01*
X102752150Y-55379520D01*
X102774329Y-55369030D01*
X102797428Y-55360765D01*
X102821227Y-55354804D01*
X102845495Y-55351204D01*
X102869999Y-55350000D01*
X103520001Y-55350000D01*
X103544505Y-55351204D01*
G37*
G36*
X101494505Y-55351204D02*
G01*
X101518773Y-55354804D01*
X101542572Y-55360765D01*
X101565671Y-55369030D01*
X101587850Y-55379520D01*
X101608893Y-55392132D01*
X101628599Y-55406747D01*
X101646777Y-55423223D01*
X101663253Y-55441401D01*
X101677868Y-55461107D01*
X101690480Y-55482150D01*
X101700970Y-55504329D01*
X101709235Y-55527428D01*
X101715196Y-55551227D01*
X101718796Y-55575495D01*
X101720000Y-55599999D01*
X101720000Y-56500001D01*
X101718796Y-56524505D01*
X101715196Y-56548773D01*
X101709235Y-56572572D01*
X101700970Y-56595671D01*
X101690480Y-56617850D01*
X101677868Y-56638893D01*
X101663253Y-56658599D01*
X101646777Y-56676777D01*
X101628599Y-56693253D01*
X101608893Y-56707868D01*
X101587850Y-56720480D01*
X101565671Y-56730970D01*
X101542572Y-56739235D01*
X101518773Y-56745196D01*
X101494505Y-56748796D01*
X101470001Y-56750000D01*
X100819999Y-56750000D01*
X100795495Y-56748796D01*
X100771227Y-56745196D01*
X100747428Y-56739235D01*
X100724329Y-56730970D01*
X100702150Y-56720480D01*
X100681107Y-56707868D01*
X100661401Y-56693253D01*
X100643223Y-56676777D01*
X100626747Y-56658599D01*
X100612132Y-56638893D01*
X100599520Y-56617850D01*
X100589030Y-56595671D01*
X100580765Y-56572572D01*
X100574804Y-56548773D01*
X100571204Y-56524505D01*
X100570000Y-56500001D01*
X100570000Y-55599999D01*
X100571204Y-55575495D01*
X100574804Y-55551227D01*
X100580765Y-55527428D01*
X100589030Y-55504329D01*
X100599520Y-55482150D01*
X100612132Y-55461107D01*
X100626747Y-55441401D01*
X100643223Y-55423223D01*
X100661401Y-55406747D01*
X100681107Y-55392132D01*
X100702150Y-55379520D01*
X100724329Y-55369030D01*
X100747428Y-55360765D01*
X100771227Y-55354804D01*
X100795495Y-55351204D01*
X100819999Y-55350000D01*
X101470001Y-55350000D01*
X101494505Y-55351204D01*
G37*
G36*
X94458527Y-40560542D02*
G01*
X94469448Y-40562162D01*
X94480157Y-40564844D01*
X94490552Y-40568564D01*
X94500532Y-40573284D01*
X94510002Y-40578960D01*
X94518869Y-40585536D01*
X94527050Y-40592950D01*
X94534464Y-40601131D01*
X94541040Y-40609998D01*
X94546716Y-40619468D01*
X94551436Y-40629448D01*
X94555156Y-40639843D01*
X94557838Y-40650552D01*
X94559458Y-40661473D01*
X94560000Y-40672500D01*
X94560000Y-41847500D01*
X94559458Y-41858527D01*
X94557838Y-41869448D01*
X94555156Y-41880157D01*
X94551436Y-41890552D01*
X94546716Y-41900532D01*
X94541040Y-41910002D01*
X94534464Y-41918869D01*
X94527050Y-41927050D01*
X94518869Y-41934464D01*
X94510002Y-41941040D01*
X94500532Y-41946716D01*
X94490552Y-41951436D01*
X94480157Y-41955156D01*
X94469448Y-41957838D01*
X94458527Y-41959458D01*
X94447500Y-41960000D01*
X93922500Y-41960000D01*
X93911473Y-41959458D01*
X93900552Y-41957838D01*
X93889843Y-41955156D01*
X93879448Y-41951436D01*
X93869468Y-41946716D01*
X93859998Y-41941040D01*
X93851131Y-41934464D01*
X93842950Y-41927050D01*
X93835536Y-41918869D01*
X93828960Y-41910002D01*
X93823284Y-41900532D01*
X93818564Y-41890552D01*
X93814844Y-41880157D01*
X93812162Y-41869448D01*
X93810542Y-41858527D01*
X93810000Y-41847500D01*
X93810000Y-40672500D01*
X93810542Y-40661473D01*
X93812162Y-40650552D01*
X93814844Y-40639843D01*
X93818564Y-40629448D01*
X93823284Y-40619468D01*
X93828960Y-40609998D01*
X93835536Y-40601131D01*
X93842950Y-40592950D01*
X93851131Y-40585536D01*
X93859998Y-40578960D01*
X93869468Y-40573284D01*
X93879448Y-40568564D01*
X93889843Y-40564844D01*
X93900552Y-40562162D01*
X93911473Y-40560542D01*
X93922500Y-40560000D01*
X94447500Y-40560000D01*
X94458527Y-40560542D01*
G37*
G36*
X95428527Y-40560542D02*
G01*
X95439448Y-40562162D01*
X95450157Y-40564844D01*
X95460552Y-40568564D01*
X95470532Y-40573284D01*
X95480002Y-40578960D01*
X95488869Y-40585536D01*
X95497050Y-40592950D01*
X95504464Y-40601131D01*
X95511040Y-40609998D01*
X95516716Y-40619468D01*
X95521436Y-40629448D01*
X95525156Y-40639843D01*
X95527838Y-40650552D01*
X95529458Y-40661473D01*
X95530000Y-40672500D01*
X95530000Y-41847500D01*
X95529458Y-41858527D01*
X95527838Y-41869448D01*
X95525156Y-41880157D01*
X95521436Y-41890552D01*
X95516716Y-41900532D01*
X95511040Y-41910002D01*
X95504464Y-41918869D01*
X95497050Y-41927050D01*
X95488869Y-41934464D01*
X95480002Y-41941040D01*
X95470532Y-41946716D01*
X95460552Y-41951436D01*
X95450157Y-41955156D01*
X95439448Y-41957838D01*
X95428527Y-41959458D01*
X95417500Y-41960000D01*
X94892500Y-41960000D01*
X94881473Y-41959458D01*
X94870552Y-41957838D01*
X94859843Y-41955156D01*
X94849448Y-41951436D01*
X94839468Y-41946716D01*
X94829998Y-41941040D01*
X94821131Y-41934464D01*
X94812950Y-41927050D01*
X94805536Y-41918869D01*
X94798960Y-41910002D01*
X94793284Y-41900532D01*
X94788564Y-41890552D01*
X94784844Y-41880157D01*
X94782162Y-41869448D01*
X94780542Y-41858527D01*
X94780000Y-41847500D01*
X94780000Y-40672500D01*
X94780542Y-40661473D01*
X94782162Y-40650552D01*
X94784844Y-40639843D01*
X94788564Y-40629448D01*
X94793284Y-40619468D01*
X94798960Y-40609998D01*
X94805536Y-40601131D01*
X94812950Y-40592950D01*
X94821131Y-40585536D01*
X94829998Y-40578960D01*
X94839468Y-40573284D01*
X94849448Y-40568564D01*
X94859843Y-40564844D01*
X94870552Y-40562162D01*
X94881473Y-40560542D01*
X94892500Y-40560000D01*
X95417500Y-40560000D01*
X95428527Y-40560542D01*
G37*
G36*
X96398527Y-40560542D02*
G01*
X96409448Y-40562162D01*
X96420157Y-40564844D01*
X96430552Y-40568564D01*
X96440532Y-40573284D01*
X96450002Y-40578960D01*
X96458869Y-40585536D01*
X96467050Y-40592950D01*
X96474464Y-40601131D01*
X96481040Y-40609998D01*
X96486716Y-40619468D01*
X96491436Y-40629448D01*
X96495156Y-40639843D01*
X96497838Y-40650552D01*
X96499458Y-40661473D01*
X96500000Y-40672500D01*
X96500000Y-41847500D01*
X96499458Y-41858527D01*
X96497838Y-41869448D01*
X96495156Y-41880157D01*
X96491436Y-41890552D01*
X96486716Y-41900532D01*
X96481040Y-41910002D01*
X96474464Y-41918869D01*
X96467050Y-41927050D01*
X96458869Y-41934464D01*
X96450002Y-41941040D01*
X96440532Y-41946716D01*
X96430552Y-41951436D01*
X96420157Y-41955156D01*
X96409448Y-41957838D01*
X96398527Y-41959458D01*
X96387500Y-41960000D01*
X95862500Y-41960000D01*
X95851473Y-41959458D01*
X95840552Y-41957838D01*
X95829843Y-41955156D01*
X95819448Y-41951436D01*
X95809468Y-41946716D01*
X95799998Y-41941040D01*
X95791131Y-41934464D01*
X95782950Y-41927050D01*
X95775536Y-41918869D01*
X95768960Y-41910002D01*
X95763284Y-41900532D01*
X95758564Y-41890552D01*
X95754844Y-41880157D01*
X95752162Y-41869448D01*
X95750542Y-41858527D01*
X95750000Y-41847500D01*
X95750000Y-40672500D01*
X95750542Y-40661473D01*
X95752162Y-40650552D01*
X95754844Y-40639843D01*
X95758564Y-40629448D01*
X95763284Y-40619468D01*
X95768960Y-40609998D01*
X95775536Y-40601131D01*
X95782950Y-40592950D01*
X95791131Y-40585536D01*
X95799998Y-40578960D01*
X95809468Y-40573284D01*
X95819448Y-40568564D01*
X95829843Y-40564844D01*
X95840552Y-40562162D01*
X95851473Y-40560542D01*
X95862500Y-40560000D01*
X96387500Y-40560000D01*
X96398527Y-40560542D01*
G37*
G36*
X97368527Y-40560542D02*
G01*
X97379448Y-40562162D01*
X97390157Y-40564844D01*
X97400552Y-40568564D01*
X97410532Y-40573284D01*
X97420002Y-40578960D01*
X97428869Y-40585536D01*
X97437050Y-40592950D01*
X97444464Y-40601131D01*
X97451040Y-40609998D01*
X97456716Y-40619468D01*
X97461436Y-40629448D01*
X97465156Y-40639843D01*
X97467838Y-40650552D01*
X97469458Y-40661473D01*
X97470000Y-40672500D01*
X97470000Y-41847500D01*
X97469458Y-41858527D01*
X97467838Y-41869448D01*
X97465156Y-41880157D01*
X97461436Y-41890552D01*
X97456716Y-41900532D01*
X97451040Y-41910002D01*
X97444464Y-41918869D01*
X97437050Y-41927050D01*
X97428869Y-41934464D01*
X97420002Y-41941040D01*
X97410532Y-41946716D01*
X97400552Y-41951436D01*
X97390157Y-41955156D01*
X97379448Y-41957838D01*
X97368527Y-41959458D01*
X97357500Y-41960000D01*
X96832500Y-41960000D01*
X96821473Y-41959458D01*
X96810552Y-41957838D01*
X96799843Y-41955156D01*
X96789448Y-41951436D01*
X96779468Y-41946716D01*
X96769998Y-41941040D01*
X96761131Y-41934464D01*
X96752950Y-41927050D01*
X96745536Y-41918869D01*
X96738960Y-41910002D01*
X96733284Y-41900532D01*
X96728564Y-41890552D01*
X96724844Y-41880157D01*
X96722162Y-41869448D01*
X96720542Y-41858527D01*
X96720000Y-41847500D01*
X96720000Y-40672500D01*
X96720542Y-40661473D01*
X96722162Y-40650552D01*
X96724844Y-40639843D01*
X96728564Y-40629448D01*
X96733284Y-40619468D01*
X96738960Y-40609998D01*
X96745536Y-40601131D01*
X96752950Y-40592950D01*
X96761131Y-40585536D01*
X96769998Y-40578960D01*
X96779468Y-40573284D01*
X96789448Y-40568564D01*
X96799843Y-40564844D01*
X96810552Y-40562162D01*
X96821473Y-40560542D01*
X96832500Y-40560000D01*
X97357500Y-40560000D01*
X97368527Y-40560542D01*
G37*
G36*
X97368527Y-38360542D02*
G01*
X97379448Y-38362162D01*
X97390157Y-38364844D01*
X97400552Y-38368564D01*
X97410532Y-38373284D01*
X97420002Y-38378960D01*
X97428869Y-38385536D01*
X97437050Y-38392950D01*
X97444464Y-38401131D01*
X97451040Y-38409998D01*
X97456716Y-38419468D01*
X97461436Y-38429448D01*
X97465156Y-38439843D01*
X97467838Y-38450552D01*
X97469458Y-38461473D01*
X97470000Y-38472500D01*
X97470000Y-39647500D01*
X97469458Y-39658527D01*
X97467838Y-39669448D01*
X97465156Y-39680157D01*
X97461436Y-39690552D01*
X97456716Y-39700532D01*
X97451040Y-39710002D01*
X97444464Y-39718869D01*
X97437050Y-39727050D01*
X97428869Y-39734464D01*
X97420002Y-39741040D01*
X97410532Y-39746716D01*
X97400552Y-39751436D01*
X97390157Y-39755156D01*
X97379448Y-39757838D01*
X97368527Y-39759458D01*
X97357500Y-39760000D01*
X96832500Y-39760000D01*
X96821473Y-39759458D01*
X96810552Y-39757838D01*
X96799843Y-39755156D01*
X96789448Y-39751436D01*
X96779468Y-39746716D01*
X96769998Y-39741040D01*
X96761131Y-39734464D01*
X96752950Y-39727050D01*
X96745536Y-39718869D01*
X96738960Y-39710002D01*
X96733284Y-39700532D01*
X96728564Y-39690552D01*
X96724844Y-39680157D01*
X96722162Y-39669448D01*
X96720542Y-39658527D01*
X96720000Y-39647500D01*
X96720000Y-38472500D01*
X96720542Y-38461473D01*
X96722162Y-38450552D01*
X96724844Y-38439843D01*
X96728564Y-38429448D01*
X96733284Y-38419468D01*
X96738960Y-38409998D01*
X96745536Y-38401131D01*
X96752950Y-38392950D01*
X96761131Y-38385536D01*
X96769998Y-38378960D01*
X96779468Y-38373284D01*
X96789448Y-38368564D01*
X96799843Y-38364844D01*
X96810552Y-38362162D01*
X96821473Y-38360542D01*
X96832500Y-38360000D01*
X97357500Y-38360000D01*
X97368527Y-38360542D01*
G37*
G36*
X96398527Y-38360542D02*
G01*
X96409448Y-38362162D01*
X96420157Y-38364844D01*
X96430552Y-38368564D01*
X96440532Y-38373284D01*
X96450002Y-38378960D01*
X96458869Y-38385536D01*
X96467050Y-38392950D01*
X96474464Y-38401131D01*
X96481040Y-38409998D01*
X96486716Y-38419468D01*
X96491436Y-38429448D01*
X96495156Y-38439843D01*
X96497838Y-38450552D01*
X96499458Y-38461473D01*
X96500000Y-38472500D01*
X96500000Y-39647500D01*
X96499458Y-39658527D01*
X96497838Y-39669448D01*
X96495156Y-39680157D01*
X96491436Y-39690552D01*
X96486716Y-39700532D01*
X96481040Y-39710002D01*
X96474464Y-39718869D01*
X96467050Y-39727050D01*
X96458869Y-39734464D01*
X96450002Y-39741040D01*
X96440532Y-39746716D01*
X96430552Y-39751436D01*
X96420157Y-39755156D01*
X96409448Y-39757838D01*
X96398527Y-39759458D01*
X96387500Y-39760000D01*
X95862500Y-39760000D01*
X95851473Y-39759458D01*
X95840552Y-39757838D01*
X95829843Y-39755156D01*
X95819448Y-39751436D01*
X95809468Y-39746716D01*
X95799998Y-39741040D01*
X95791131Y-39734464D01*
X95782950Y-39727050D01*
X95775536Y-39718869D01*
X95768960Y-39710002D01*
X95763284Y-39700532D01*
X95758564Y-39690552D01*
X95754844Y-39680157D01*
X95752162Y-39669448D01*
X95750542Y-39658527D01*
X95750000Y-39647500D01*
X95750000Y-38472500D01*
X95750542Y-38461473D01*
X95752162Y-38450552D01*
X95754844Y-38439843D01*
X95758564Y-38429448D01*
X95763284Y-38419468D01*
X95768960Y-38409998D01*
X95775536Y-38401131D01*
X95782950Y-38392950D01*
X95791131Y-38385536D01*
X95799998Y-38378960D01*
X95809468Y-38373284D01*
X95819448Y-38368564D01*
X95829843Y-38364844D01*
X95840552Y-38362162D01*
X95851473Y-38360542D01*
X95862500Y-38360000D01*
X96387500Y-38360000D01*
X96398527Y-38360542D01*
G37*
G36*
X95428527Y-38360542D02*
G01*
X95439448Y-38362162D01*
X95450157Y-38364844D01*
X95460552Y-38368564D01*
X95470532Y-38373284D01*
X95480002Y-38378960D01*
X95488869Y-38385536D01*
X95497050Y-38392950D01*
X95504464Y-38401131D01*
X95511040Y-38409998D01*
X95516716Y-38419468D01*
X95521436Y-38429448D01*
X95525156Y-38439843D01*
X95527838Y-38450552D01*
X95529458Y-38461473D01*
X95530000Y-38472500D01*
X95530000Y-39647500D01*
X95529458Y-39658527D01*
X95527838Y-39669448D01*
X95525156Y-39680157D01*
X95521436Y-39690552D01*
X95516716Y-39700532D01*
X95511040Y-39710002D01*
X95504464Y-39718869D01*
X95497050Y-39727050D01*
X95488869Y-39734464D01*
X95480002Y-39741040D01*
X95470532Y-39746716D01*
X95460552Y-39751436D01*
X95450157Y-39755156D01*
X95439448Y-39757838D01*
X95428527Y-39759458D01*
X95417500Y-39760000D01*
X94892500Y-39760000D01*
X94881473Y-39759458D01*
X94870552Y-39757838D01*
X94859843Y-39755156D01*
X94849448Y-39751436D01*
X94839468Y-39746716D01*
X94829998Y-39741040D01*
X94821131Y-39734464D01*
X94812950Y-39727050D01*
X94805536Y-39718869D01*
X94798960Y-39710002D01*
X94793284Y-39700532D01*
X94788564Y-39690552D01*
X94784844Y-39680157D01*
X94782162Y-39669448D01*
X94780542Y-39658527D01*
X94780000Y-39647500D01*
X94780000Y-38472500D01*
X94780542Y-38461473D01*
X94782162Y-38450552D01*
X94784844Y-38439843D01*
X94788564Y-38429448D01*
X94793284Y-38419468D01*
X94798960Y-38409998D01*
X94805536Y-38401131D01*
X94812950Y-38392950D01*
X94821131Y-38385536D01*
X94829998Y-38378960D01*
X94839468Y-38373284D01*
X94849448Y-38368564D01*
X94859843Y-38364844D01*
X94870552Y-38362162D01*
X94881473Y-38360542D01*
X94892500Y-38360000D01*
X95417500Y-38360000D01*
X95428527Y-38360542D01*
G37*
G36*
X94458527Y-38360542D02*
G01*
X94469448Y-38362162D01*
X94480157Y-38364844D01*
X94490552Y-38368564D01*
X94500532Y-38373284D01*
X94510002Y-38378960D01*
X94518869Y-38385536D01*
X94527050Y-38392950D01*
X94534464Y-38401131D01*
X94541040Y-38409998D01*
X94546716Y-38419468D01*
X94551436Y-38429448D01*
X94555156Y-38439843D01*
X94557838Y-38450552D01*
X94559458Y-38461473D01*
X94560000Y-38472500D01*
X94560000Y-39647500D01*
X94559458Y-39658527D01*
X94557838Y-39669448D01*
X94555156Y-39680157D01*
X94551436Y-39690552D01*
X94546716Y-39700532D01*
X94541040Y-39710002D01*
X94534464Y-39718869D01*
X94527050Y-39727050D01*
X94518869Y-39734464D01*
X94510002Y-39741040D01*
X94500532Y-39746716D01*
X94490552Y-39751436D01*
X94480157Y-39755156D01*
X94469448Y-39757838D01*
X94458527Y-39759458D01*
X94447500Y-39760000D01*
X93922500Y-39760000D01*
X93911473Y-39759458D01*
X93900552Y-39757838D01*
X93889843Y-39755156D01*
X93879448Y-39751436D01*
X93869468Y-39746716D01*
X93859998Y-39741040D01*
X93851131Y-39734464D01*
X93842950Y-39727050D01*
X93835536Y-39718869D01*
X93828960Y-39710002D01*
X93823284Y-39700532D01*
X93818564Y-39690552D01*
X93814844Y-39680157D01*
X93812162Y-39669448D01*
X93810542Y-39658527D01*
X93810000Y-39647500D01*
X93810000Y-38472500D01*
X93810542Y-38461473D01*
X93812162Y-38450552D01*
X93814844Y-38439843D01*
X93818564Y-38429448D01*
X93823284Y-38419468D01*
X93828960Y-38409998D01*
X93835536Y-38401131D01*
X93842950Y-38392950D01*
X93851131Y-38385536D01*
X93859998Y-38378960D01*
X93869468Y-38373284D01*
X93879448Y-38368564D01*
X93889843Y-38364844D01*
X93900552Y-38362162D01*
X93911473Y-38360542D01*
X93922500Y-38360000D01*
X94447500Y-38360000D01*
X94458527Y-38360542D01*
G37*
D19*
X100897200Y-46540000D03*
X100897200Y-49080000D03*
X100897200Y-51620000D03*
X95360000Y-46540000D03*
X95360000Y-49080000D03*
X95360000Y-51620000D03*
D10*
G36*
X84099505Y-87626204D02*
G01*
X84123773Y-87629804D01*
X84147572Y-87635765D01*
X84170671Y-87644030D01*
X84192850Y-87654520D01*
X84213893Y-87667132D01*
X84233599Y-87681747D01*
X84251777Y-87698223D01*
X84268253Y-87716401D01*
X84282868Y-87736107D01*
X84295480Y-87757150D01*
X84305970Y-87779329D01*
X84314235Y-87802428D01*
X84320196Y-87826227D01*
X84323796Y-87850495D01*
X84325000Y-87874999D01*
X84325000Y-88775001D01*
X84323796Y-88799505D01*
X84320196Y-88823773D01*
X84314235Y-88847572D01*
X84305970Y-88870671D01*
X84295480Y-88892850D01*
X84282868Y-88913893D01*
X84268253Y-88933599D01*
X84251777Y-88951777D01*
X84233599Y-88968253D01*
X84213893Y-88982868D01*
X84192850Y-88995480D01*
X84170671Y-89005970D01*
X84147572Y-89014235D01*
X84123773Y-89020196D01*
X84099505Y-89023796D01*
X84075001Y-89025000D01*
X83424999Y-89025000D01*
X83400495Y-89023796D01*
X83376227Y-89020196D01*
X83352428Y-89014235D01*
X83329329Y-89005970D01*
X83307150Y-88995480D01*
X83286107Y-88982868D01*
X83266401Y-88968253D01*
X83248223Y-88951777D01*
X83231747Y-88933599D01*
X83217132Y-88913893D01*
X83204520Y-88892850D01*
X83194030Y-88870671D01*
X83185765Y-88847572D01*
X83179804Y-88823773D01*
X83176204Y-88799505D01*
X83175000Y-88775001D01*
X83175000Y-87874999D01*
X83176204Y-87850495D01*
X83179804Y-87826227D01*
X83185765Y-87802428D01*
X83194030Y-87779329D01*
X83204520Y-87757150D01*
X83217132Y-87736107D01*
X83231747Y-87716401D01*
X83248223Y-87698223D01*
X83266401Y-87681747D01*
X83286107Y-87667132D01*
X83307150Y-87654520D01*
X83329329Y-87644030D01*
X83352428Y-87635765D01*
X83376227Y-87629804D01*
X83400495Y-87626204D01*
X83424999Y-87625000D01*
X84075001Y-87625000D01*
X84099505Y-87626204D01*
G37*
G36*
X82049505Y-87626204D02*
G01*
X82073773Y-87629804D01*
X82097572Y-87635765D01*
X82120671Y-87644030D01*
X82142850Y-87654520D01*
X82163893Y-87667132D01*
X82183599Y-87681747D01*
X82201777Y-87698223D01*
X82218253Y-87716401D01*
X82232868Y-87736107D01*
X82245480Y-87757150D01*
X82255970Y-87779329D01*
X82264235Y-87802428D01*
X82270196Y-87826227D01*
X82273796Y-87850495D01*
X82275000Y-87874999D01*
X82275000Y-88775001D01*
X82273796Y-88799505D01*
X82270196Y-88823773D01*
X82264235Y-88847572D01*
X82255970Y-88870671D01*
X82245480Y-88892850D01*
X82232868Y-88913893D01*
X82218253Y-88933599D01*
X82201777Y-88951777D01*
X82183599Y-88968253D01*
X82163893Y-88982868D01*
X82142850Y-88995480D01*
X82120671Y-89005970D01*
X82097572Y-89014235D01*
X82073773Y-89020196D01*
X82049505Y-89023796D01*
X82025001Y-89025000D01*
X81374999Y-89025000D01*
X81350495Y-89023796D01*
X81326227Y-89020196D01*
X81302428Y-89014235D01*
X81279329Y-89005970D01*
X81257150Y-88995480D01*
X81236107Y-88982868D01*
X81216401Y-88968253D01*
X81198223Y-88951777D01*
X81181747Y-88933599D01*
X81167132Y-88913893D01*
X81154520Y-88892850D01*
X81144030Y-88870671D01*
X81135765Y-88847572D01*
X81129804Y-88823773D01*
X81126204Y-88799505D01*
X81125000Y-88775001D01*
X81125000Y-87874999D01*
X81126204Y-87850495D01*
X81129804Y-87826227D01*
X81135765Y-87802428D01*
X81144030Y-87779329D01*
X81154520Y-87757150D01*
X81167132Y-87736107D01*
X81181747Y-87716401D01*
X81198223Y-87698223D01*
X81216401Y-87681747D01*
X81236107Y-87667132D01*
X81257150Y-87654520D01*
X81279329Y-87644030D01*
X81302428Y-87635765D01*
X81326227Y-87629804D01*
X81350495Y-87626204D01*
X81374999Y-87625000D01*
X82025001Y-87625000D01*
X82049505Y-87626204D01*
G37*
M02*
