%FSLAX45Y45*%
G04 Gerber Fmt 4.5, Leading zero omitted, Abs format (unit mm)*
G04 Created by KiCad (PCBNEW (5.1.4)-1) date 2020-03-13 16:18:48*
%MOMM*%
%LPD*%
G04 APERTURE LIST*
%ADD10C,0.050000*%
%ADD11C,0.200000*%
%ADD12C,0.300000*%
G04 APERTURE END LIST*
D10*
X10000000Y-10000000D02*
X3500000Y-10000000D01*
X3000000Y-3000000D02*
X3000000Y-9500000D01*
X10000000Y-2500000D02*
X3500000Y-2500000D01*
X10500000Y-9500000D02*
X10500000Y-3000000D01*
X3500000Y-10000000D02*
G75*
G02X3000000Y-9500000I0J500000D01*
G01*
X10500000Y-9500000D02*
G75*
G02X10000000Y-10000000I-500000J0D01*
G01*
X10000000Y-2500000D02*
G75*
G02X10500000Y-3000000I0J-500000D01*
G01*
X3000000Y-3000000D02*
G75*
G02X3500000Y-2500000I500000J0D01*
G01*
D11*
D12*
X3283928Y-10468214D02*
X3283928Y-10168214D01*
X3355357Y-10168214D01*
X3398214Y-10182500D01*
X3426786Y-10211072D01*
X3441071Y-10239643D01*
X3455357Y-10296786D01*
X3455357Y-10339643D01*
X3441071Y-10396786D01*
X3426786Y-10425357D01*
X3398214Y-10453929D01*
X3355357Y-10468214D01*
X3283928Y-10468214D01*
X3583928Y-10468214D02*
X3583928Y-10268214D01*
X3583928Y-10325357D02*
X3598214Y-10296786D01*
X3612500Y-10282500D01*
X3641071Y-10268214D01*
X3669643Y-10268214D01*
X3769643Y-10468214D02*
X3769643Y-10268214D01*
X3769643Y-10168214D02*
X3755357Y-10182500D01*
X3769643Y-10196786D01*
X3783928Y-10182500D01*
X3769643Y-10168214D01*
X3769643Y-10196786D01*
X3955357Y-10468214D02*
X3926786Y-10453929D01*
X3912500Y-10425357D01*
X3912500Y-10168214D01*
X4112500Y-10468214D02*
X4083928Y-10453929D01*
X4069643Y-10425357D01*
X4069643Y-10168214D01*
X4455357Y-10468214D02*
X4455357Y-10168214D01*
X4555357Y-10382500D01*
X4655357Y-10168214D01*
X4655357Y-10468214D01*
X4926786Y-10468214D02*
X4926786Y-10311072D01*
X4912500Y-10282500D01*
X4883928Y-10268214D01*
X4826786Y-10268214D01*
X4798214Y-10282500D01*
X4926786Y-10453929D02*
X4898214Y-10468214D01*
X4826786Y-10468214D01*
X4798214Y-10453929D01*
X4783928Y-10425357D01*
X4783928Y-10396786D01*
X4798214Y-10368214D01*
X4826786Y-10353929D01*
X4898214Y-10353929D01*
X4926786Y-10339643D01*
X5069643Y-10268214D02*
X5069643Y-10568214D01*
X5069643Y-10282500D02*
X5098214Y-10268214D01*
X5155357Y-10268214D01*
X5183928Y-10282500D01*
X5198214Y-10296786D01*
X5212500Y-10325357D01*
X5212500Y-10411072D01*
X5198214Y-10439643D01*
X5183928Y-10453929D01*
X5155357Y-10468214D01*
X5098214Y-10468214D01*
X5069643Y-10453929D01*
X5341071Y-10439643D02*
X5355357Y-10453929D01*
X5341071Y-10468214D01*
X5326786Y-10453929D01*
X5341071Y-10439643D01*
X5341071Y-10468214D01*
X5341071Y-10282500D02*
X5355357Y-10296786D01*
X5341071Y-10311072D01*
X5326786Y-10296786D01*
X5341071Y-10282500D01*
X5341071Y-10311072D01*
M02*
