M48
; DRILL file {KiCad 5.1.5-52549c5~84~ubuntu18.04.1} date Sun 15 Mar 2020 09:10:33 PM PDT
; FORMAT={-:-/ absolute / inch / decimal}
; #@! TF.CreationDate,2020-03-15T21:10:33-07:00
; #@! TF.GenerationSoftware,Kicad,Pcbnew,5.1.5-52549c5~84~ubuntu18.04.1
; #@! TF.FileFunction,Plated,1,2,PTH
FMAT,2
INCH
T1C0.0119
T2C0.0197
T3C0.0236
T4C0.0335
T5C0.0394
T6C0.1260
%
G90
G05
T1
X1.4173Y-1.752
X1.4173Y-1.9094
X1.4173Y-2.0669
X1.4173Y-2.2244
X1.4173Y-2.3819
X1.4173Y-2.5394
X1.4173Y-2.6969
X1.4173Y-2.8543
X1.5039Y-2.9124
X1.5571Y-3.0492
X1.5748Y-1.752
X1.5748Y-1.9094
X1.5748Y-2.0669
X1.5748Y-2.2244
X1.5748Y-2.3819
X1.5748Y-2.5394
X1.5748Y-2.6969
X1.5748Y-2.8543
X1.6545Y-2.9006
X1.6811Y-3.6417
X1.7323Y-1.752
X1.7323Y-1.9094
X1.7323Y-2.0669
X1.7323Y-2.2244
X1.7323Y-2.3819
X1.7323Y-2.5394
X1.7323Y-2.6969
X1.7323Y-2.8543
X1.811Y-2.9183
X1.8898Y-1.752
X1.8898Y-1.9094
X1.8898Y-2.0669
X1.8898Y-2.2244
X1.8898Y-2.3819
X1.8898Y-2.5394
X1.8898Y-2.6969
X1.8898Y-2.8543
X1.9025Y-1.2286
X1.9695Y-2.9183
X2.0324Y-1.2286
X2.0394Y-3.6398
X2.0472Y-1.752
X2.0472Y-1.9094
X2.0472Y-2.0669
X2.0472Y-2.2244
X2.0472Y-2.3819
X2.0472Y-2.5394
X2.0472Y-2.6969
X2.0472Y-2.8543
X2.1623Y-1.2286
X2.1791Y-2.9449
X2.2047Y-1.752
X2.2047Y-1.9094
X2.2047Y-2.0669
X2.2047Y-2.2244
X2.2047Y-2.3819
X2.2047Y-2.5394
X2.2047Y-2.6969
X2.2047Y-2.8543
X2.2894Y-2.9301
X2.2922Y-1.2286
X2.3622Y-1.752
X2.3622Y-1.9094
X2.3622Y-2.0669
X2.3622Y-2.2244
X2.3622Y-2.3819
X2.3622Y-2.5394
X2.3622Y-2.6969
X2.3622Y-2.8543
X2.4035Y-3.6407
X2.4222Y-1.2286
X2.5197Y-1.752
X2.5197Y-1.9094
X2.5197Y-2.0669
X2.5197Y-2.2244
X2.5197Y-2.3819
X2.5197Y-2.5394
X2.5197Y-2.6969
X2.5197Y-2.8543
X2.5521Y-1.2286
X2.5738Y-2.4626
X2.682Y-1.2286
X2.7224Y-3.6417
X2.7795Y-2.6585
X2.7864Y-2.94
X2.7913Y-1.3287
X2.7953Y-1.7264
X2.8002Y-1.2283
X2.9144Y-1.3376
X2.9203Y-2.7136
X2.9321Y-2.8996
X2.9469Y-1.7451
X2.9478Y-2.0069
X2.9478Y-2.6201
X2.9508Y-1.9193
X2.9724Y-2.3356
X3.0453Y-1.3406
X3.0571Y-2.6398
X3.0689Y-2.3091
X3.0814Y-2.3373
X3.0837Y-2.5876
X3.0846Y-3.6329
X3.0866Y-3.5118
X3.0935Y-1.8602
X3.1112Y-2.0856
X3.126Y-1.874
X3.1368Y-2.1496
X3.1604Y-1.3474
X3.1624Y-1.8445
X3.1654Y-2.5787
X3.1658Y-2.3646
X3.1662Y-1.2452
X3.2096Y-2.7608
X3.2116Y-2.6693
X3.2136Y-2.0965
X3.2165Y-2.2215
X3.2697Y-1.8199
X3.2825Y-2.0423
X3.3031Y-1.8002
X3.311Y-1.3543
X3.3316Y-1.2286
X3.3317Y-2.3829
X3.3317Y-2.4134
X3.3337Y-2.124
X3.3346Y-1.7913
X3.3484Y-3.2618
X3.3514Y-2.438
X3.3602Y-2.4675
X3.3819Y-2.4911
X3.3839Y-1.937
X3.4006Y-3.6476
X3.4114Y-1.3169
X3.4124Y-2.626
X3.438Y-2.2392
X3.4665Y-2.2303
X3.4705Y-1.7037
X3.4931Y-1.815
X3.5Y-2.2037
X3.5118Y-2.0394
X3.5207Y-2.8661
X3.5374Y-1.9941
X3.5719Y-3.3701
X3.5784Y-1.5653
X3.5817Y-1.7854
X3.6171Y-3.2175
X3.6191Y-1.9203
X3.624Y-1.7539
X3.6496Y-3.2677
X3.6634Y-1.8209
X3.6693Y-1.5709
X3.6791Y-3.4656
X3.7628Y-2.8583
X3.7657Y-2.9823
X3.7844Y-1.6791
X3.8159Y-2.93
X3.8179Y-3.4124
X3.8209Y-2.7795
X3.8602Y-1.8327
X3.8711Y-2.0502
X3.8809Y-2.9222
X3.8819Y-3.1004
X3.886Y-2.2961
X3.8907Y-1.7205
X3.8927Y-1.9882
X3.9469Y-2.1191
X4.0768Y-2.1073
X4.0807Y-2.3799
T2
X3.8425Y-3.7402
X3.8702Y-3.6733
X3.8702Y-3.807
X3.937Y-3.6457
X3.937Y-3.8346
X4.0038Y-3.6733
X4.0038Y-3.807
X4.0315Y-3.7402
X1.2835Y-1.1811
X1.3111Y-1.1143
X1.3111Y-1.2479
X1.378Y-1.0866
X1.378Y-1.2756
X1.4448Y-1.1143
X1.4448Y-1.2479
X1.4724Y-1.1811
X3.8425Y-1.1811
X3.8702Y-1.1143
X3.8702Y-1.2479
X3.937Y-1.0866
X3.937Y-1.2756
X4.0038Y-1.1143
X4.0038Y-1.2479
X4.0315Y-1.1811
X1.2835Y-3.7402
X1.3111Y-3.6733
X1.3111Y-3.807
X1.378Y-3.6457
X1.378Y-3.8346
X1.4448Y-3.6733
X1.4448Y-3.807
X1.4724Y-3.7402
T4
X3.97Y-2.7803
X3.97Y-2.9772
T5
X2.9283Y-3.0906
X3.0283Y-3.0906
X3.1283Y-3.0906
X3.2283Y-3.0906
X3.3283Y-3.0906
T6
X3.937Y-3.7402
X1.378Y-1.1811
X3.937Y-1.1811
X1.378Y-3.7402
T3
G00X4.0625Y-2.7409
M15
G01X4.0901Y-2.7409
M16
G05
G00X4.0901Y-3.0165
M15
G01X4.0625Y-3.0165
M16
G05
T0
M30
