%TF.GenerationSoftware,KiCad,Pcbnew,5.1.6-c6e7f7d~86~ubuntu18.04.1*%
%TF.CreationDate,2020-07-24T20:28:44-07:00*%
%TF.ProjectId,stm32f042_breakout,73746d33-3266-4303-9432-5f627265616b,rev?*%
%TF.SameCoordinates,Original*%
%TF.FileFunction,Copper,L2,Bot*%
%TF.FilePolarity,Positive*%
%FSLAX46Y46*%
G04 Gerber Fmt 4.6, Leading zero omitted, Abs format (unit mm)*
G04 Created by KiCad (PCBNEW 5.1.6-c6e7f7d~86~ubuntu18.04.1) date 2020-07-24 20:28:44*
%MOMM*%
%LPD*%
G01*
G04 APERTURE LIST*
%TA.AperFunction,ComponentPad*%
%ADD10C,1.200000*%
%TD*%
%TA.AperFunction,ViaPad*%
%ADD11C,0.800000*%
%TD*%
%TA.AperFunction,Conductor*%
%ADD12C,0.250000*%
%TD*%
%TA.AperFunction,Conductor*%
%ADD13C,0.254000*%
%TD*%
G04 APERTURE END LIST*
D10*
%TO.P,J7,~*%
%TO.N,N/C*%
X145000000Y-61933459D03*
X149000000Y-55005256D03*
%TD*%
%TO.P,J2,6*%
%TO.N,GND*%
%TA.AperFunction,ComponentPad*%
G36*
G01*
X195165839Y-60660657D02*
X195901961Y-60235657D01*
G75*
G02*
X196619124Y-60427820I262500J-454663D01*
G01*
X196619124Y-60427820D01*
G75*
G02*
X196426961Y-61144983I-454663J-262500D01*
G01*
X195690839Y-61569983D01*
G75*
G02*
X194973676Y-61377820I-262500J454663D01*
G01*
X194973676Y-61377820D01*
G75*
G02*
X195165839Y-60660657I454663J262500D01*
G01*
G37*
%TD.AperFunction*%
%TA.AperFunction,ComponentPad*%
G36*
G01*
X192851961Y-54952901D02*
X192115839Y-55377901D01*
G75*
G02*
X191398676Y-55185738I-262500J454663D01*
G01*
X191398676Y-55185738D01*
G75*
G02*
X191590839Y-54468575I454663J262500D01*
G01*
X192326961Y-54043575D01*
G75*
G02*
X193044124Y-54235738I262500J-454663D01*
G01*
X193044124Y-54235738D01*
G75*
G02*
X192851961Y-54952901I-454663J-262500D01*
G01*
G37*
%TD.AperFunction*%
%TD*%
D11*
%TO.N,GND*%
X159927616Y-63404424D03*
X153441400Y-94802960D03*
X148407120Y-86233000D03*
X160533080Y-81635600D03*
X153832560Y-78592680D03*
X156672280Y-56159400D03*
X185348880Y-64404240D03*
X178465480Y-57002680D03*
X188874400Y-58115200D03*
X171043042Y-73960278D03*
X150921720Y-71927720D03*
X151404320Y-68925440D03*
X171719240Y-82758280D03*
X170428920Y-83418680D03*
X175569880Y-58958480D03*
X191653160Y-81117440D03*
X192944376Y-78881344D03*
X139700000Y-66040000D03*
X153800000Y-52350000D03*
X180200000Y-47050000D03*
X161450000Y-78000000D03*
X181850000Y-80050000D03*
X183600000Y-75500000D03*
X178800000Y-82850000D03*
X155700000Y-81850000D03*
X158450000Y-85500000D03*
X158250000Y-89350000D03*
X167650000Y-90600000D03*
X191200000Y-71700000D03*
X181150000Y-61400000D03*
X178797310Y-67252690D03*
X179950000Y-71350000D03*
X159050000Y-47033400D03*
X176850000Y-47100000D03*
X174350000Y-47100000D03*
X171800000Y-47050000D03*
X169300000Y-47050000D03*
X166700000Y-47050000D03*
X161650000Y-47050000D03*
X164200000Y-47050000D03*
X178200000Y-96967040D03*
X170880000Y-77090000D03*
X175960000Y-73180000D03*
X175240000Y-75780000D03*
X149390000Y-80710000D03*
X162590000Y-83880000D03*
X169050000Y-70750000D03*
X170225000Y-62775000D03*
X162875000Y-60650000D03*
X162300000Y-66750000D03*
X164700000Y-66650000D03*
X166250000Y-59250000D03*
%TO.N,+5V*%
X184165240Y-68305680D03*
X183535320Y-61767720D03*
X181142640Y-66822320D03*
X156550360Y-85831680D03*
X160690560Y-87193120D03*
%TO.N,+3V3*%
X165247320Y-69880480D03*
X143606520Y-77861160D03*
X176580800Y-74284840D03*
X176692560Y-67843400D03*
%TO.N,Net-(C7-Pad2)*%
X159918400Y-71749920D03*
X159366583Y-76583417D03*
%TO.N,~RST~*%
X153893520Y-83997800D03*
X164881560Y-68940680D03*
X163979709Y-80210509D03*
%TO.N,SWD*%
X177637440Y-69397880D03*
X176306480Y-75336400D03*
%TO.N,SWC*%
X178059080Y-68168520D03*
X178546760Y-74046080D03*
%TO.N,PA15*%
X177728880Y-64566800D03*
X173309280Y-83002120D03*
X180609240Y-73146920D03*
X178948080Y-62560200D03*
X181813200Y-68930520D03*
X176210000Y-65860000D03*
%TO.N,PB1*%
X174498000Y-69047360D03*
X171240000Y-75350000D03*
%TO.N,SPIMOSI*%
X160736280Y-70891400D03*
X162864800Y-77129640D03*
X175620000Y-97020000D03*
X169530000Y-77430000D03*
%TO.N,SPIMISO*%
X168544240Y-72318880D03*
X168610280Y-76677520D03*
X173000000Y-97000000D03*
%TO.N,SPISCK*%
X156977080Y-72694800D03*
X170540000Y-96990000D03*
%TO.N,SPINSS*%
X167624760Y-75549760D03*
X168000000Y-97000000D03*
%TO.N,SPID2*%
X167665400Y-71790560D03*
X165500000Y-97000000D03*
%TO.N,SPID1*%
X165287960Y-72329040D03*
X163118800Y-96967040D03*
%TO.N,PA1*%
X164073840Y-71658480D03*
X160538160Y-96982280D03*
%TO.N,PA0*%
X164150040Y-70551040D03*
X157840000Y-97000000D03*
%TO.N,BOOT0*%
X148005800Y-69601080D03*
X167550000Y-68400000D03*
%TO.N,CARD_DET*%
X175046640Y-63738760D03*
X174452280Y-66654680D03*
X174470000Y-74880000D03*
X164551027Y-59448973D03*
%TD*%
D12*
%TO.N,*%
X182238236Y-53971705D02*
X181544295Y-53785764D01*
X181544295Y-53785764D02*
X182424177Y-53277764D01*
X182424177Y-53277764D02*
X182610118Y-52583823D01*
X182610118Y-52583823D02*
X182356118Y-52143882D01*
X182356118Y-52143882D02*
X181916177Y-52397882D01*
X181916177Y-52397882D02*
X181730236Y-53091823D01*
X181730236Y-53091823D02*
X182238236Y-53971705D01*
%TO.N,GND*%
X164465000Y-64383920D02*
X159927616Y-63404424D01*
X164465000Y-64383920D02*
X170393360Y-65740280D01*
X156672280Y-56159400D02*
X159927616Y-63404424D01*
X185348880Y-64404240D02*
X195796400Y-60902820D01*
X148407120Y-86233000D02*
X153832560Y-78592680D01*
X153832560Y-78592680D02*
X150921720Y-71927720D01*
X170428920Y-83418680D02*
X171719240Y-82758280D01*
X171719240Y-82758280D02*
X170652440Y-79486760D01*
X170393360Y-65740280D02*
X171043042Y-73960278D01*
X175569880Y-58958480D02*
X176255680Y-63403480D01*
X176255680Y-63403480D02*
X175529240Y-64912240D01*
X173334680Y-65293240D02*
X170393360Y-65740280D01*
X174992503Y-65005423D02*
X173334680Y-65293240D01*
X175529240Y-64912240D02*
X174992503Y-65005423D01*
X175290480Y-67167760D02*
X176270920Y-66984880D01*
X176270920Y-66984880D02*
X178419760Y-66964560D01*
X180817520Y-70073520D02*
X183372760Y-70581520D01*
X183372760Y-70581520D02*
X185729880Y-69159120D01*
X185729880Y-69159120D02*
X186359800Y-66888360D01*
X186359800Y-66888360D02*
X185348880Y-64404240D01*
X185348880Y-64404240D02*
X188874400Y-58115200D01*
X191653160Y-81117440D02*
X183372760Y-70581520D01*
X185729880Y-69159120D02*
X192944376Y-78881344D01*
X192221400Y-54710738D02*
X193741040Y-57012840D01*
X195796400Y-60902820D02*
X192221400Y-54710738D01*
X148407120Y-86233000D02*
X153441400Y-94802960D01*
X170428920Y-83418680D02*
X172050000Y-85550000D01*
X172050000Y-85550000D02*
X177100000Y-86100000D01*
X177100000Y-86100000D02*
X181850000Y-80050000D01*
X181850000Y-80050000D02*
X183600000Y-75500000D01*
X181850000Y-80050000D02*
X178800000Y-82850000D01*
X169150000Y-98000000D02*
X169550000Y-96700000D01*
X157250000Y-98250000D02*
X165600000Y-98500000D01*
X169550000Y-96700000D02*
X167650000Y-90600000D01*
X158250000Y-89350000D02*
X156400000Y-97150000D01*
X165600000Y-98500000D02*
X169150000Y-98000000D01*
X156400000Y-97150000D02*
X157250000Y-98250000D01*
X183600000Y-75500000D02*
X191200000Y-71700000D01*
X178419760Y-66964560D02*
X178797310Y-67252690D01*
X178797310Y-67252690D02*
X179964080Y-68143120D01*
X178797310Y-67252690D02*
X180498369Y-69351631D01*
X179964080Y-68143120D02*
X180498369Y-69351631D01*
X180498369Y-69351631D02*
X180817520Y-70073520D01*
X178797310Y-67252690D02*
X179950000Y-70050000D01*
X179950000Y-70050000D02*
X179950000Y-71350000D01*
X176850000Y-47100000D02*
X180200000Y-47050000D01*
X174350000Y-47100000D02*
X176850000Y-47100000D01*
X174350000Y-47100000D02*
X171800000Y-47050000D01*
X171800000Y-47050000D02*
X169300000Y-47050000D01*
X169300000Y-47050000D02*
X166700000Y-47050000D01*
X164200000Y-47050000D02*
X161650000Y-47050000D01*
X166700000Y-47050000D02*
X164200000Y-47050000D01*
X171394120Y-84129880D02*
X170428920Y-83418680D01*
X177627280Y-90561160D02*
X175188880Y-86370160D01*
X175188880Y-86370160D02*
X171394120Y-84129880D01*
X178200000Y-96967040D02*
X177627280Y-90561160D01*
X168760000Y-71020000D02*
X169040000Y-70800000D01*
X170393360Y-65740280D02*
X168760000Y-71020000D01*
%TO.N,+5V*%
X184165240Y-68305680D02*
X183535320Y-61767720D01*
X181142640Y-66822320D02*
X181752240Y-66497200D01*
X181752240Y-66497200D02*
X182382160Y-66476880D01*
X182382160Y-66476880D02*
X183159400Y-67101720D01*
X183159400Y-67101720D02*
X184165240Y-68305680D01*
X156550360Y-85831680D02*
X156834840Y-86420960D01*
X156834840Y-86420960D02*
X157525720Y-86888320D01*
X157525720Y-86888320D02*
X159004000Y-87518240D01*
X159004000Y-87518240D02*
X160162240Y-87457280D01*
X160162240Y-87457280D02*
X160690560Y-87193120D01*
%TO.N,+3V3*%
X165247320Y-69880480D02*
X165831520Y-69382640D01*
X165831520Y-69382640D02*
X165973760Y-68955920D01*
X165973760Y-68955920D02*
X165831520Y-68513960D01*
X165831520Y-68513960D02*
X165541960Y-68229480D01*
X165541960Y-68229480D02*
X165044120Y-68005960D01*
X165044120Y-68005960D02*
X164297360Y-67965320D01*
X164297360Y-67965320D02*
X162478720Y-68285360D01*
X162478720Y-68285360D02*
X161356040Y-68681600D01*
X161356040Y-68681600D02*
X160004760Y-69839840D01*
X160004760Y-69839840D02*
X158130240Y-71262240D01*
X158130240Y-71262240D02*
X155757880Y-71993760D01*
X155757880Y-71993760D02*
X154619960Y-72054720D01*
X154619960Y-72054720D02*
X153502360Y-71831200D01*
X153502360Y-71831200D02*
X152547320Y-71363840D01*
X152547320Y-71363840D02*
X151571960Y-70937120D01*
X151571960Y-70937120D02*
X151084280Y-70794880D01*
X151084280Y-70794880D02*
X150439120Y-70835520D01*
X150439120Y-70835520D02*
X149870160Y-71120000D01*
X149870160Y-71120000D02*
X149179280Y-71607680D01*
X149179280Y-71607680D02*
X148224240Y-72522080D01*
X148224240Y-72522080D02*
X145780760Y-75280520D01*
X145780760Y-75280520D02*
X144317720Y-77089000D01*
X144317720Y-77089000D02*
X143606520Y-77861160D01*
X176697640Y-68671440D02*
X176723040Y-69281040D01*
X176692560Y-67843400D02*
X176697640Y-68671440D01*
X177124360Y-70662800D02*
X176921160Y-71912480D01*
X177022760Y-70093840D02*
X177124360Y-70662800D01*
X176921160Y-69707760D02*
X177022760Y-70093840D01*
X176733200Y-72979280D02*
X176580800Y-74284840D01*
X176921160Y-71912480D02*
X176733200Y-72979280D01*
X176723040Y-69281040D02*
X176921160Y-69707760D01*
%TO.N,Net-(C7-Pad2)*%
X159366583Y-76583417D02*
X159171640Y-76332080D01*
X159366583Y-76583417D02*
X158739840Y-75773280D01*
X159171640Y-71714360D02*
X159918400Y-71749920D01*
X157784800Y-73858120D02*
X157916880Y-72903080D01*
X158247080Y-72110600D02*
X159171640Y-71714360D01*
X157916880Y-72903080D02*
X158247080Y-72110600D01*
X158739840Y-75773280D02*
X158181040Y-74848720D01*
X158181040Y-74848720D02*
X157784800Y-73858120D01*
%TO.N,~RST~*%
X164089080Y-69606160D02*
X163398200Y-69763640D01*
X163398200Y-69763640D02*
X162758120Y-70154800D01*
X162758120Y-70154800D02*
X162524440Y-70606920D01*
X162524440Y-70606920D02*
X162377120Y-71531480D01*
X162377120Y-71531480D02*
X162488880Y-72171560D01*
X162488880Y-72171560D02*
X162773360Y-72649080D01*
X162773360Y-72649080D02*
X163301680Y-73741280D01*
X163301680Y-73741280D02*
X163647120Y-74411840D01*
X163647120Y-74411840D02*
X164231320Y-75554840D01*
X164231320Y-75554840D02*
X164393880Y-76276200D01*
X164393880Y-76276200D02*
X164505640Y-77231240D01*
X164505640Y-77231240D02*
X164485320Y-78079600D01*
X163921440Y-80421480D02*
X163068000Y-82087720D01*
X163068000Y-82087720D02*
X162173920Y-82981800D01*
X162173920Y-82981800D02*
X160533080Y-83489800D01*
X160533080Y-83489800D02*
X159009080Y-83733640D01*
X159009080Y-83733640D02*
X157607000Y-83835240D01*
X157607000Y-83835240D02*
X156530040Y-83896200D01*
X156530040Y-83896200D02*
X155879800Y-83855560D01*
X155879800Y-83855560D02*
X155178760Y-83814920D01*
X155178760Y-83814920D02*
X154401520Y-83794600D01*
X154401520Y-83794600D02*
X153893520Y-83997800D01*
X164089080Y-69606160D02*
X164393880Y-69474080D01*
X164393880Y-69474080D02*
X164663120Y-69260720D01*
X164663120Y-69260720D02*
X164881560Y-68940680D01*
X164485320Y-78079600D02*
X164434354Y-78389646D01*
X164434354Y-78389646D02*
X164363400Y-78821280D01*
X164363400Y-78821280D02*
X163979709Y-80210509D01*
X163979709Y-80210509D02*
X163921440Y-80421480D01*
%TO.N,SWD*%
X177637440Y-69397880D02*
X177789840Y-70947280D01*
X177789840Y-70947280D02*
X177815240Y-72029320D01*
X177815240Y-72029320D02*
X177566320Y-73568560D01*
X177566320Y-73568560D02*
X177388520Y-74691240D01*
X177388520Y-74691240D02*
X177032920Y-75331320D01*
X177032920Y-75331320D02*
X176687480Y-75478640D01*
X176687480Y-75478640D02*
X176306480Y-75336400D01*
%TO.N,SWC*%
X178059080Y-68168520D02*
X178628040Y-68691760D01*
X178628040Y-68691760D02*
X178816000Y-69555360D01*
X178816000Y-69555360D02*
X178821080Y-70601840D01*
X178821080Y-70601840D02*
X178790600Y-71191120D01*
X178790600Y-71191120D02*
X178775360Y-72344280D01*
X178775360Y-72344280D02*
X178612800Y-73512680D01*
X178612800Y-73512680D02*
X178546760Y-74046080D01*
%TO.N,PA15*%
X173309280Y-83002120D02*
X179456080Y-76347320D01*
X179456080Y-76347320D02*
X179984400Y-75458320D01*
X179984400Y-75458320D02*
X180411120Y-74005440D01*
X180411120Y-74005440D02*
X180609240Y-73146920D01*
X181813200Y-68930520D02*
X180848000Y-67812920D01*
X180848000Y-67812920D02*
X179644040Y-66669920D01*
X179644040Y-66669920D02*
X177728880Y-64566800D01*
X176210000Y-65860000D02*
X176150000Y-65490000D01*
X176150000Y-65490000D02*
X176440000Y-65030000D01*
X176440000Y-65030000D02*
X176770000Y-64740000D01*
X176770000Y-64740000D02*
X177060000Y-64650000D01*
X177060000Y-64650000D02*
X177728880Y-64566800D01*
%TO.N,PB1*%
X171240000Y-75350000D02*
X172160000Y-75080000D01*
X172160000Y-75080000D02*
X172660000Y-74830000D01*
X172660000Y-74830000D02*
X173070000Y-74410000D01*
X173070000Y-74410000D02*
X173520000Y-73470000D01*
X173520000Y-73470000D02*
X173650000Y-72680000D01*
X173650000Y-72680000D02*
X173800000Y-71400000D01*
X173800000Y-71400000D02*
X173760000Y-70590000D01*
X173760000Y-70590000D02*
X173860000Y-69960000D01*
X173860000Y-69960000D02*
X174080000Y-69500000D01*
X174080000Y-69500000D02*
X174498000Y-69047360D01*
%TO.N,SPIMOSI*%
X160736280Y-70891400D02*
X161422080Y-72024240D01*
X161422080Y-72024240D02*
X162377120Y-73406000D01*
X162377120Y-73406000D02*
X162687000Y-74147680D01*
X162687000Y-74147680D02*
X162991800Y-75311000D01*
X162991800Y-75311000D02*
X162951160Y-76377800D01*
X162951160Y-76377800D02*
X162864800Y-77129640D01*
X175000000Y-94000000D02*
X175620000Y-97020000D01*
X174132240Y-92486480D02*
X175000000Y-94000000D01*
X169910760Y-89179400D02*
X171632880Y-90581480D01*
X168549320Y-87792560D02*
X169910760Y-89179400D01*
X167919400Y-86563200D02*
X168549320Y-87792560D01*
X167838120Y-85826600D02*
X167919400Y-86563200D01*
X168305480Y-82047080D02*
X168041320Y-84322920D01*
X168711880Y-80182720D02*
X168305480Y-82047080D01*
X168915080Y-78922880D02*
X168711880Y-80182720D01*
X171632880Y-90581480D02*
X174132240Y-92486480D01*
X168041320Y-84322920D02*
X167838120Y-85826600D01*
X169530000Y-77430000D02*
X168915080Y-78922880D01*
%TO.N,SPIMISO*%
X168544240Y-72318880D02*
X168183560Y-73715880D01*
X168183560Y-73715880D02*
X168208960Y-74132440D01*
X168208960Y-74132440D02*
X168396920Y-74818240D01*
X168396920Y-74818240D02*
X168447720Y-75605640D01*
X168610280Y-76677520D02*
X168377829Y-76267269D01*
X168447720Y-75605640D02*
X168377829Y-76267269D01*
X168371520Y-76327000D02*
X168377829Y-76267269D01*
X168346120Y-76936600D02*
X168371520Y-76327000D01*
X168361360Y-78455520D02*
X168346120Y-76936600D01*
X172201840Y-93345000D02*
X170677840Y-91800680D01*
X169158920Y-90175080D02*
X167675560Y-88270080D01*
X167965120Y-80949800D02*
X168361360Y-78455520D01*
X166867840Y-85765640D02*
X166944040Y-85161120D01*
X170677840Y-91800680D02*
X169158920Y-90175080D01*
X167675560Y-88270080D02*
X167035480Y-86705440D01*
X166944040Y-85161120D02*
X167365680Y-83738720D01*
X167035480Y-86705440D02*
X166867840Y-85765640D01*
X167365680Y-83738720D02*
X167599360Y-82270600D01*
X167599360Y-82270600D02*
X167965120Y-80949800D01*
X173000000Y-97000000D02*
X173000000Y-95000000D01*
X173000000Y-95000000D02*
X172201840Y-93345000D01*
%TO.N,SPISCK*%
X156321760Y-72522080D02*
X156977080Y-72694800D01*
X155051760Y-73167240D02*
X155407360Y-72740520D01*
X154995880Y-73771760D02*
X155051760Y-73167240D01*
X155097480Y-74422000D02*
X154995880Y-73771760D01*
X156362400Y-78760320D02*
X156382720Y-77033120D01*
X155549600Y-75427840D02*
X155326080Y-75021440D01*
X155021280Y-80319880D02*
X156016960Y-79588360D01*
X156382720Y-77033120D02*
X155549600Y-75427840D01*
X153705560Y-81010760D02*
X155021280Y-80319880D01*
X152648920Y-81782920D02*
X153705560Y-81010760D01*
X155407360Y-72740520D02*
X155849320Y-72522080D01*
X151998680Y-84033360D02*
X152019000Y-82900520D01*
X155519120Y-88478360D02*
X154264360Y-86832440D01*
X166258240Y-100070920D02*
X164078920Y-100131880D01*
X156150000Y-98250000D02*
X155800000Y-97300000D01*
X155326080Y-75021440D02*
X155097480Y-74422000D01*
X154264360Y-86832440D02*
X152679400Y-85369400D01*
X156453840Y-90606880D02*
X155519120Y-88478360D01*
X156016960Y-79588360D02*
X156362400Y-78760320D01*
X170281600Y-99095560D02*
X168742360Y-99755960D01*
X170759120Y-98104960D02*
X170281600Y-99095560D01*
X164078920Y-100131880D02*
X159795709Y-100104291D01*
X168742360Y-99755960D02*
X166258240Y-100070920D01*
X170540000Y-96990000D02*
X170759120Y-98104960D01*
X159795709Y-100104291D02*
X158350000Y-99800000D01*
X155849320Y-72522080D02*
X156321760Y-72522080D01*
X157100000Y-99250000D02*
X156150000Y-98250000D01*
X155800000Y-97300000D02*
X155750000Y-96000000D01*
X152019000Y-82900520D02*
X152648920Y-81782920D01*
X156372560Y-92984320D02*
X156453840Y-90606880D01*
X152679400Y-85369400D02*
X151998680Y-84033360D01*
X155750000Y-96000000D02*
X156000000Y-94150000D01*
X158350000Y-99800000D02*
X157100000Y-99250000D01*
X156000000Y-94150000D02*
X156372560Y-92984320D01*
%TO.N,SPINSS*%
X167690800Y-76992480D02*
X167624760Y-75549760D01*
X167751760Y-78399640D02*
X167690800Y-76992480D01*
X167528240Y-79796640D02*
X167751760Y-78399640D01*
X167096440Y-82001360D02*
X167528240Y-79796640D01*
X166634160Y-83525360D02*
X167096440Y-82001360D01*
X166207440Y-85328760D02*
X166634160Y-83525360D01*
X165232080Y-87975440D02*
X165496240Y-86898480D01*
X165475920Y-90576400D02*
X165150800Y-89275920D01*
X165496240Y-86898480D02*
X166207440Y-85328760D01*
X168000000Y-97000000D02*
X168010840Y-95864680D01*
X167076120Y-93512640D02*
X166268400Y-92181680D01*
X166268400Y-92181680D02*
X165475920Y-90576400D01*
X165150800Y-89275920D02*
X165232080Y-87975440D01*
X168010840Y-95864680D02*
X167462200Y-94386400D01*
X167462200Y-94386400D02*
X167076120Y-93512640D01*
%TO.N,SPID2*%
X163880800Y-92699840D02*
X164490400Y-94467680D01*
X163636960Y-90733880D02*
X163880800Y-92699840D01*
X163738560Y-89535000D02*
X163636960Y-90733880D01*
X166817040Y-72263000D02*
X166583360Y-72659240D01*
X166425880Y-72979280D02*
X166390320Y-73426320D01*
X166573200Y-81874360D02*
X165831520Y-84439760D01*
X167314880Y-71815960D02*
X167020240Y-71968360D01*
X164490400Y-94467680D02*
X165196520Y-95905320D01*
X167020240Y-71968360D02*
X166817040Y-72263000D01*
X164246560Y-87746840D02*
X163738560Y-89535000D01*
X166690040Y-75031600D02*
X167132000Y-77022960D01*
X167665400Y-71790560D02*
X167314880Y-71815960D01*
X166390320Y-73426320D02*
X166425880Y-73893680D01*
X166425880Y-73893680D02*
X166690040Y-75031600D01*
X166583360Y-72659240D02*
X166425880Y-72979280D01*
X167132000Y-77022960D02*
X167208200Y-78176120D01*
X167208200Y-78176120D02*
X167055800Y-79507080D01*
X167055800Y-79507080D02*
X166573200Y-81874360D01*
X165831520Y-84439760D02*
X165425120Y-85531960D01*
X165425120Y-85531960D02*
X164246560Y-87746840D01*
X165196520Y-95905320D02*
X165500000Y-97000000D01*
%TO.N,SPID1*%
X165287960Y-72329040D02*
X165684200Y-74122280D01*
X165684200Y-74122280D02*
X166202360Y-75737720D01*
X166202360Y-75737720D02*
X166537640Y-77409040D01*
X166537640Y-77409040D02*
X166568120Y-78486000D01*
X166568120Y-78486000D02*
X165999160Y-81706720D01*
X165999160Y-81706720D02*
X165694360Y-82839560D01*
X165694360Y-82839560D02*
X164896800Y-85298280D01*
X164896800Y-85298280D02*
X164221160Y-86547960D01*
X164221160Y-86547960D02*
X163367720Y-88234520D01*
X163367720Y-88234520D02*
X162859720Y-90002360D01*
X162859720Y-90002360D02*
X162778440Y-92008960D01*
X162778440Y-92008960D02*
X162819080Y-94340680D01*
X162819080Y-94340680D02*
X163118800Y-96967040D01*
%TO.N,PA1*%
X165729920Y-75981560D02*
X165282880Y-74579480D01*
X166014400Y-77972920D02*
X165729920Y-75981560D01*
X165750240Y-80081120D02*
X166014400Y-77972920D01*
X165282880Y-74579480D02*
X164632640Y-73182480D01*
X165160960Y-82621120D02*
X165750240Y-80081120D01*
X160898840Y-93421200D02*
X161361120Y-91048840D01*
X160538160Y-96982280D02*
X160898840Y-93421200D01*
X161361120Y-91048840D02*
X162250120Y-88737440D01*
X164632640Y-73182480D02*
X164073840Y-71658480D01*
X164429440Y-84582000D02*
X165160960Y-82621120D01*
X162250120Y-88737440D02*
X163540440Y-86527640D01*
X163540440Y-86527640D02*
X164429440Y-84582000D01*
%TO.N,PA0*%
X163403280Y-70972680D02*
X163631880Y-70693280D01*
X163017200Y-86100920D02*
X164393880Y-82748120D01*
X161772600Y-88407240D02*
X163017200Y-86100920D01*
X160695640Y-90769440D02*
X161772600Y-88407240D01*
X157840000Y-97000000D02*
X160695640Y-90769440D01*
X164393880Y-82748120D02*
X165089840Y-79883000D01*
X163870640Y-70591680D02*
X164150040Y-70551040D01*
X163631880Y-70693280D02*
X163870640Y-70591680D01*
X165089840Y-79883000D02*
X165343840Y-78018640D01*
X163291520Y-71323200D02*
X163403280Y-70972680D01*
X165343840Y-78018640D02*
X165318440Y-76840080D01*
X165318440Y-76840080D02*
X165155880Y-75890120D01*
X165155880Y-75890120D02*
X164531040Y-74340720D01*
X164531040Y-74340720D02*
X164048440Y-73466960D01*
X164048440Y-73466960D02*
X163479480Y-72273160D01*
X163479480Y-72273160D02*
X163276280Y-71770240D01*
X163276280Y-71770240D02*
X163291520Y-71323200D01*
%TO.N,BOOT0*%
X150576280Y-68280280D02*
X148005800Y-69601080D01*
X157332680Y-65867280D02*
X154492960Y-66476880D01*
X159324040Y-65796160D02*
X157332680Y-65867280D01*
X161417000Y-65745360D02*
X159324040Y-65796160D01*
X166110920Y-66060320D02*
X164947600Y-65679320D01*
X166710360Y-66492120D02*
X166110920Y-66060320D01*
X167116760Y-67127120D02*
X166710360Y-66492120D01*
X154492960Y-66476880D02*
X150576280Y-68280280D01*
X163103560Y-65577720D02*
X161417000Y-65745360D01*
X164947600Y-65679320D02*
X163103560Y-65577720D01*
X167330120Y-67787520D02*
X167116760Y-67127120D01*
X167550000Y-68400000D02*
X167330120Y-67787520D01*
%TO.N,CARD_DET*%
X175370000Y-70140000D02*
X175200000Y-70780000D01*
X175200000Y-70780000D02*
X175080000Y-71610000D01*
X175080000Y-71610000D02*
X174960000Y-72310000D01*
X174960000Y-72310000D02*
X174750000Y-73120000D01*
X174750000Y-73120000D02*
X174610000Y-73930000D01*
X174610000Y-73930000D02*
X174470000Y-74880000D01*
X175370000Y-70140000D02*
X175290000Y-69310000D01*
X175290000Y-69310000D02*
X175223001Y-68750000D01*
X175223001Y-68750000D02*
X174452280Y-66654680D01*
X173852840Y-61777880D02*
X174767240Y-62753240D01*
X169021760Y-61087000D02*
X170743880Y-61371480D01*
X174767240Y-62753240D02*
X174970440Y-63764160D01*
X164551027Y-59448973D02*
X166888160Y-60518040D01*
X174970440Y-63764160D02*
X175046640Y-63738760D01*
X166888160Y-60518040D02*
X169021760Y-61087000D01*
X170743880Y-61371480D02*
X172593000Y-61412120D01*
X172593000Y-61412120D02*
X173852840Y-61777880D01*
%TD*%
D13*
%TO.N,GND*%
G36*
X192640142Y-53449937D02*
G01*
X192524522Y-53445709D01*
X192320432Y-53478602D01*
X192126681Y-53550679D01*
X191758620Y-53763179D01*
X192248120Y-54611018D01*
X192265440Y-54601018D01*
X192338440Y-54727458D01*
X192321120Y-54737458D01*
X192810620Y-55585297D01*
X193178681Y-55372797D01*
X193337977Y-55241042D01*
X193468508Y-55080741D01*
X193525059Y-54973960D01*
X196235987Y-59642782D01*
X196099522Y-59637791D01*
X195895432Y-59670684D01*
X195701681Y-59742761D01*
X195333620Y-59955261D01*
X195823120Y-60803100D01*
X195840440Y-60793100D01*
X195913440Y-60919540D01*
X195896120Y-60929540D01*
X196385620Y-61777379D01*
X196753681Y-61564879D01*
X196912977Y-61433124D01*
X197043508Y-61272823D01*
X197109791Y-61147666D01*
X203357494Y-71907600D01*
X185678011Y-102355600D01*
X150313590Y-102355600D01*
X149445065Y-100859805D01*
X150493433Y-100859805D01*
X150728526Y-101218325D01*
X151190534Y-101472525D01*
X151693257Y-101631708D01*
X152217376Y-101689756D01*
X152742748Y-101644437D01*
X153249184Y-101497495D01*
X153717222Y-101254575D01*
X153771474Y-101218325D01*
X154006567Y-100859805D01*
X181993433Y-100859805D01*
X182228526Y-101218325D01*
X182690534Y-101472525D01*
X183193257Y-101631708D01*
X183717376Y-101689756D01*
X184242748Y-101644437D01*
X184749184Y-101497495D01*
X185217222Y-101254575D01*
X185271474Y-101218325D01*
X185506567Y-100859805D01*
X183750000Y-99103238D01*
X181993433Y-100859805D01*
X154006567Y-100859805D01*
X152250000Y-99103238D01*
X150493433Y-100859805D01*
X149445065Y-100859805D01*
X148346235Y-98967376D01*
X149560244Y-98967376D01*
X149605563Y-99492748D01*
X149752505Y-99999184D01*
X149995425Y-100467222D01*
X150031675Y-100521474D01*
X150390195Y-100756567D01*
X152146762Y-99000000D01*
X152353238Y-99000000D01*
X154109805Y-100756567D01*
X154468325Y-100521474D01*
X154722525Y-100059466D01*
X154881708Y-99556743D01*
X154939756Y-99032624D01*
X154894437Y-98507252D01*
X154747495Y-98000816D01*
X154504575Y-97532778D01*
X154468325Y-97478526D01*
X154109805Y-97243433D01*
X152353238Y-99000000D01*
X152146762Y-99000000D01*
X150390195Y-97243433D01*
X150031675Y-97478526D01*
X149777475Y-97940534D01*
X149618292Y-98443257D01*
X149560244Y-98967376D01*
X148346235Y-98967376D01*
X147285292Y-97140195D01*
X150493433Y-97140195D01*
X152250000Y-98896762D01*
X154006567Y-97140195D01*
X153771474Y-96781675D01*
X153309466Y-96527475D01*
X152806743Y-96368292D01*
X152282624Y-96310244D01*
X151757252Y-96355563D01*
X151250816Y-96502505D01*
X150782778Y-96745425D01*
X150728526Y-96781675D01*
X150493433Y-97140195D01*
X147285292Y-97140195D01*
X136037999Y-77769859D01*
X142679520Y-77769859D01*
X142679520Y-77952461D01*
X142715144Y-78131556D01*
X142785024Y-78300259D01*
X142886472Y-78452088D01*
X143015592Y-78581208D01*
X143167421Y-78682656D01*
X143336124Y-78752536D01*
X143515219Y-78788160D01*
X143697821Y-78788160D01*
X143876916Y-78752536D01*
X144045619Y-78682656D01*
X144197448Y-78581208D01*
X144326568Y-78452088D01*
X144428016Y-78300259D01*
X144497896Y-78131556D01*
X144533520Y-77952461D01*
X144533520Y-77817098D01*
X144789804Y-77538848D01*
X144804476Y-77523968D01*
X144811458Y-77515338D01*
X144818989Y-77507161D01*
X144831590Y-77490453D01*
X146278505Y-75701905D01*
X148694520Y-72974472D01*
X149595039Y-72112275D01*
X150205860Y-71681107D01*
X150612264Y-71477905D01*
X151011326Y-71452768D01*
X151349095Y-71551284D01*
X152273244Y-71955599D01*
X153205023Y-72411577D01*
X153251011Y-72436220D01*
X153293297Y-72449096D01*
X153334723Y-72464543D01*
X153386238Y-72472887D01*
X154478171Y-72691274D01*
X154526703Y-72703202D01*
X154573080Y-72705274D01*
X154586874Y-72706648D01*
X154568553Y-72728633D01*
X154542835Y-72754661D01*
X154509900Y-72804598D01*
X154476304Y-72854070D01*
X154474573Y-72858162D01*
X154472124Y-72861875D01*
X154449570Y-72917264D01*
X154426264Y-72972354D01*
X154425363Y-72976711D01*
X154423688Y-72980825D01*
X154412381Y-73039506D01*
X154400262Y-73098126D01*
X154399987Y-73134723D01*
X154348068Y-73696395D01*
X154341287Y-73744676D01*
X154343993Y-73792250D01*
X154344279Y-73839886D01*
X154354075Y-73887635D01*
X154449009Y-74495214D01*
X154451549Y-74531537D01*
X154467321Y-74589390D01*
X154482350Y-74647479D01*
X154498174Y-74680277D01*
X154698719Y-75206150D01*
X154701459Y-75219111D01*
X154721556Y-75266034D01*
X154728287Y-75283683D01*
X154734167Y-75295477D01*
X154739356Y-75307592D01*
X154748459Y-75324142D01*
X154771235Y-75369826D01*
X154779347Y-75380302D01*
X154974520Y-75735163D01*
X155728846Y-77188623D01*
X155711935Y-78626097D01*
X155484962Y-79170164D01*
X154674761Y-79765415D01*
X153444935Y-80411193D01*
X153429631Y-80416547D01*
X153388199Y-80440984D01*
X153374094Y-80448391D01*
X153360624Y-80457249D01*
X153346723Y-80465448D01*
X153333845Y-80474859D01*
X153293670Y-80501278D01*
X153282126Y-80512654D01*
X152281184Y-81244111D01*
X152244731Y-81267306D01*
X152206257Y-81304095D01*
X152166601Y-81339532D01*
X152159933Y-81348392D01*
X152151906Y-81356067D01*
X152121344Y-81399663D01*
X152089367Y-81442148D01*
X152070626Y-81481059D01*
X151481820Y-82525716D01*
X151480875Y-82526826D01*
X151450395Y-82581469D01*
X151435286Y-82608276D01*
X151434697Y-82609613D01*
X151418311Y-82638989D01*
X151408864Y-82668234D01*
X151396470Y-82696358D01*
X151389171Y-82729194D01*
X151378831Y-82761203D01*
X151375270Y-82791731D01*
X151368602Y-82821731D01*
X151367849Y-82855362D01*
X151367680Y-82856811D01*
X151367130Y-82887465D01*
X151365727Y-82950130D01*
X151365980Y-82951571D01*
X151346788Y-84021507D01*
X151345545Y-84084752D01*
X151351303Y-84116995D01*
X151353927Y-84149629D01*
X151362562Y-84180051D01*
X151368122Y-84211185D01*
X151380055Y-84241676D01*
X151388998Y-84273181D01*
X151417817Y-84329504D01*
X152078197Y-85625625D01*
X152084621Y-85644107D01*
X152107276Y-85682697D01*
X152112996Y-85693924D01*
X152123501Y-85710335D01*
X152149643Y-85754865D01*
X152158061Y-85764324D01*
X152164890Y-85774993D01*
X152200698Y-85812236D01*
X152213632Y-85826771D01*
X152222876Y-85835304D01*
X152253904Y-85867576D01*
X152269964Y-85878769D01*
X153780331Y-87272955D01*
X154953435Y-88811765D01*
X155797146Y-90733043D01*
X155724026Y-92871820D01*
X155390822Y-93914362D01*
X155380340Y-93937287D01*
X155371322Y-93975375D01*
X155369201Y-93982010D01*
X155363943Y-94006539D01*
X155358162Y-94030953D01*
X155357229Y-94037857D01*
X155349025Y-94076127D01*
X155348651Y-94101332D01*
X155109194Y-95873312D01*
X155102998Y-95896977D01*
X155100618Y-95936776D01*
X155099585Y-95944420D01*
X155098704Y-95968773D01*
X155097252Y-95993061D01*
X155097548Y-96000757D01*
X155096107Y-96040611D01*
X155100010Y-96064765D01*
X155146268Y-97267473D01*
X155145363Y-97273992D01*
X155148732Y-97331540D01*
X155149713Y-97357056D01*
X155150605Y-97363544D01*
X155152868Y-97402204D01*
X155159331Y-97427017D01*
X155162823Y-97452415D01*
X155175479Y-97489009D01*
X155177131Y-97495352D01*
X155185966Y-97519332D01*
X155204801Y-97573794D01*
X155208122Y-97579472D01*
X155528719Y-98449663D01*
X155538489Y-98485118D01*
X155565251Y-98538431D01*
X155591240Y-98592071D01*
X155594031Y-98595761D01*
X155596109Y-98599901D01*
X155632750Y-98646957D01*
X155668712Y-98694508D01*
X155696191Y-98718948D01*
X156606111Y-99676760D01*
X156626745Y-99703051D01*
X156674340Y-99743880D01*
X156722172Y-99785231D01*
X156723273Y-99785856D01*
X156724225Y-99786673D01*
X156778953Y-99817478D01*
X156833851Y-99848657D01*
X156865583Y-99859178D01*
X158061308Y-100385298D01*
X158092580Y-100402462D01*
X158150498Y-100420736D01*
X158208204Y-100439625D01*
X158243621Y-100443895D01*
X159631574Y-100736029D01*
X159663759Y-100746019D01*
X159726175Y-100752573D01*
X159788435Y-100759404D01*
X159822004Y-100756474D01*
X164053936Y-100783732D01*
X164065142Y-100784520D01*
X164085946Y-100783938D01*
X164106741Y-100784072D01*
X164117918Y-100783044D01*
X166305115Y-100721863D01*
X166308482Y-100721769D01*
X168819466Y-100403402D01*
X168878254Y-100396864D01*
X168913719Y-100385617D01*
X168949982Y-100377344D01*
X169003911Y-100353219D01*
X170488459Y-99716285D01*
X170497744Y-99714032D01*
X170547346Y-99691020D01*
X170568101Y-99682115D01*
X170576438Y-99677523D01*
X170614249Y-99659981D01*
X170632555Y-99646613D01*
X170652413Y-99635675D01*
X170684304Y-99608824D01*
X170717970Y-99584239D01*
X170733318Y-99567555D01*
X170750659Y-99552954D01*
X170776702Y-99520394D01*
X170804922Y-99489717D01*
X170816715Y-99470368D01*
X170830880Y-99452658D01*
X170850075Y-99415633D01*
X170855017Y-99407524D01*
X170864802Y-99387225D01*
X170889992Y-99338636D01*
X170892653Y-99329450D01*
X171067191Y-98967376D01*
X181060244Y-98967376D01*
X181105563Y-99492748D01*
X181252505Y-99999184D01*
X181495425Y-100467222D01*
X181531675Y-100521474D01*
X181890195Y-100756567D01*
X183646762Y-99000000D01*
X183853238Y-99000000D01*
X185609805Y-100756567D01*
X185968325Y-100521474D01*
X186222525Y-100059466D01*
X186381708Y-99556743D01*
X186439756Y-99032624D01*
X186394437Y-98507252D01*
X186247495Y-98000816D01*
X186004575Y-97532778D01*
X185968325Y-97478526D01*
X185609805Y-97243433D01*
X183853238Y-99000000D01*
X183646762Y-99000000D01*
X181890195Y-97243433D01*
X181531675Y-97478526D01*
X181277475Y-97940534D01*
X181118292Y-98443257D01*
X181060244Y-98967376D01*
X171067191Y-98967376D01*
X171340224Y-98400978D01*
X171363826Y-98357065D01*
X171377440Y-98312555D01*
X171393444Y-98268848D01*
X171396185Y-98251267D01*
X171401390Y-98234249D01*
X171406059Y-98187934D01*
X171413228Y-98141948D01*
X171412486Y-98124168D01*
X171414271Y-98106464D01*
X171409816Y-98060135D01*
X171407876Y-98013627D01*
X171396121Y-97965181D01*
X171306842Y-97510896D01*
X171361496Y-97429099D01*
X171431376Y-97260396D01*
X171467000Y-97081301D01*
X171467000Y-96898699D01*
X171431376Y-96719604D01*
X171361496Y-96550901D01*
X171260048Y-96399072D01*
X171130928Y-96269952D01*
X170979099Y-96168504D01*
X170810396Y-96098624D01*
X170631301Y-96063000D01*
X170448699Y-96063000D01*
X170269604Y-96098624D01*
X170100901Y-96168504D01*
X169949072Y-96269952D01*
X169819952Y-96399072D01*
X169718504Y-96550901D01*
X169648624Y-96719604D01*
X169613000Y-96898699D01*
X169613000Y-97081301D01*
X169648624Y-97260396D01*
X169718504Y-97429099D01*
X169819952Y-97580928D01*
X169949072Y-97710048D01*
X170027311Y-97762325D01*
X170077466Y-98017530D01*
X169800251Y-98592604D01*
X168569472Y-99120661D01*
X166208005Y-99420071D01*
X164071916Y-99479822D01*
X159865660Y-99452729D01*
X158550575Y-99175931D01*
X157482484Y-98705971D01*
X156715313Y-97898424D01*
X156447543Y-97171621D01*
X156403688Y-96031361D01*
X156638467Y-94294001D01*
X156991704Y-93188776D01*
X157010382Y-93134014D01*
X157015464Y-93095846D01*
X157023535Y-93058194D01*
X157024393Y-93000353D01*
X157104981Y-90643132D01*
X157108848Y-90593066D01*
X157103350Y-90547187D01*
X157100396Y-90501096D01*
X157095727Y-90483568D01*
X157093567Y-90465545D01*
X157079226Y-90421626D01*
X157067336Y-90376991D01*
X157045196Y-90331930D01*
X156123560Y-88233206D01*
X156107617Y-88190441D01*
X156080932Y-88147225D01*
X156056064Y-88102971D01*
X156026389Y-88068329D01*
X154806715Y-86468433D01*
X154794117Y-86446974D01*
X154767875Y-86417485D01*
X154763457Y-86411690D01*
X154746607Y-86393586D01*
X154730128Y-86375068D01*
X154724761Y-86370114D01*
X154697878Y-86341230D01*
X154677707Y-86326679D01*
X153207374Y-84969450D01*
X152653493Y-83882356D01*
X152667938Y-83077045D01*
X153147594Y-82226043D01*
X154051347Y-81565609D01*
X155282651Y-80919056D01*
X155298724Y-80913387D01*
X155339357Y-80889281D01*
X155352746Y-80882250D01*
X155366936Y-80872918D01*
X155381507Y-80864274D01*
X155393665Y-80855341D01*
X155433170Y-80829363D01*
X155445317Y-80817393D01*
X156364765Y-80141881D01*
X156379566Y-80134018D01*
X156416387Y-80103955D01*
X156428799Y-80094836D01*
X156441218Y-80083681D01*
X156479050Y-80052793D01*
X156488895Y-80040859D01*
X156500410Y-80030516D01*
X156529697Y-79991397D01*
X156560778Y-79953719D01*
X156568105Y-79940094D01*
X156577381Y-79927704D01*
X156598476Y-79883617D01*
X156606367Y-79868944D01*
X156612284Y-79854760D01*
X156632816Y-79811851D01*
X156636964Y-79795600D01*
X156950645Y-79043691D01*
X156964691Y-79018140D01*
X156975301Y-78984589D01*
X156976465Y-78981799D01*
X156984976Y-78953994D01*
X157003416Y-78895684D01*
X157003749Y-78892666D01*
X157004639Y-78889759D01*
X157010788Y-78828901D01*
X157013978Y-78800009D01*
X157014014Y-78796984D01*
X157017551Y-78761976D01*
X157014767Y-78732955D01*
X157034703Y-77038339D01*
X157035451Y-76976831D01*
X157029533Y-76945065D01*
X157026744Y-76912874D01*
X157017799Y-76882086D01*
X157011927Y-76850571D01*
X156999926Y-76820571D01*
X156990910Y-76789541D01*
X156961476Y-76732879D01*
X156139425Y-75148926D01*
X156136324Y-75141687D01*
X156124682Y-75120520D01*
X156113554Y-75099078D01*
X156109259Y-75092478D01*
X155919170Y-74746861D01*
X155731090Y-74253678D01*
X155652566Y-73751125D01*
X155682343Y-73428997D01*
X155819926Y-73263897D01*
X156001650Y-73174080D01*
X156182432Y-73174080D01*
X156257032Y-73285728D01*
X156386152Y-73414848D01*
X156537981Y-73516296D01*
X156706684Y-73586176D01*
X156885779Y-73621800D01*
X157068381Y-73621800D01*
X157161849Y-73603208D01*
X157146526Y-73714004D01*
X157143841Y-73722482D01*
X157137741Y-73777528D01*
X157134561Y-73800521D01*
X157134214Y-73809352D01*
X157129695Y-73850132D01*
X157131700Y-73873387D01*
X157130784Y-73896701D01*
X157137202Y-73937219D01*
X157140725Y-73978090D01*
X157147225Y-74000499D01*
X157150877Y-74023553D01*
X157165078Y-74062044D01*
X157167541Y-74070535D01*
X157176166Y-74092097D01*
X157195332Y-74144046D01*
X157199978Y-74151627D01*
X157559748Y-75051052D01*
X157565002Y-75071705D01*
X157583534Y-75110517D01*
X157587566Y-75120598D01*
X157597338Y-75139428D01*
X157606476Y-75158567D01*
X157612090Y-75167856D01*
X157631903Y-75206035D01*
X157645222Y-75222674D01*
X158151458Y-76060264D01*
X158153401Y-76065367D01*
X158184593Y-76115089D01*
X158198403Y-76137938D01*
X158201666Y-76142304D01*
X158204553Y-76146906D01*
X158220842Y-76167962D01*
X158256027Y-76215039D01*
X158260091Y-76218695D01*
X158446135Y-76459178D01*
X158439583Y-76492116D01*
X158439583Y-76674718D01*
X158475207Y-76853813D01*
X158545087Y-77022516D01*
X158646535Y-77174345D01*
X158775655Y-77303465D01*
X158927484Y-77404913D01*
X159096187Y-77474793D01*
X159275282Y-77510417D01*
X159457884Y-77510417D01*
X159636979Y-77474793D01*
X159805682Y-77404913D01*
X159957511Y-77303465D01*
X160086631Y-77174345D01*
X160188079Y-77022516D01*
X160257959Y-76853813D01*
X160293583Y-76674718D01*
X160293583Y-76492116D01*
X160257959Y-76313021D01*
X160188079Y-76144318D01*
X160086631Y-75992489D01*
X159957511Y-75863369D01*
X159805682Y-75761921D01*
X159636979Y-75692041D01*
X159476654Y-75660151D01*
X159278463Y-75403966D01*
X158766611Y-74557086D01*
X158454315Y-73776344D01*
X158551175Y-73075971D01*
X158747146Y-72605640D01*
X159248345Y-72390841D01*
X159327472Y-72469968D01*
X159479301Y-72571416D01*
X159648004Y-72641296D01*
X159827099Y-72676920D01*
X160009701Y-72676920D01*
X160188796Y-72641296D01*
X160357499Y-72571416D01*
X160509328Y-72469968D01*
X160638448Y-72340848D01*
X160739896Y-72189019D01*
X160747928Y-72169629D01*
X160857972Y-72351405D01*
X160867520Y-72368612D01*
X160874517Y-72378736D01*
X160880906Y-72389289D01*
X160892725Y-72405079D01*
X161801886Y-73720462D01*
X162067837Y-74357003D01*
X162336594Y-75382757D01*
X162300580Y-76328121D01*
X162292664Y-76397036D01*
X162273872Y-76409592D01*
X162144752Y-76538712D01*
X162043304Y-76690541D01*
X161973424Y-76859244D01*
X161937800Y-77038339D01*
X161937800Y-77220941D01*
X161973424Y-77400036D01*
X162043304Y-77568739D01*
X162144752Y-77720568D01*
X162273872Y-77849688D01*
X162425701Y-77951136D01*
X162594404Y-78021016D01*
X162773499Y-78056640D01*
X162956101Y-78056640D01*
X163135196Y-78021016D01*
X163303899Y-77951136D01*
X163455728Y-77849688D01*
X163584848Y-77720568D01*
X163686296Y-77568739D01*
X163756176Y-77400036D01*
X163791800Y-77220941D01*
X163791800Y-77038339D01*
X163756176Y-76859244D01*
X163686296Y-76690541D01*
X163588360Y-76543968D01*
X163598094Y-76459227D01*
X163601468Y-76434618D01*
X163601740Y-76427489D01*
X163602555Y-76420390D01*
X163602957Y-76395525D01*
X163624570Y-75828190D01*
X163750288Y-76386062D01*
X163852729Y-77261473D01*
X163834594Y-78018620D01*
X163796184Y-78252283D01*
X163796183Y-78252289D01*
X163725675Y-78681214D01*
X163527829Y-79397553D01*
X163388781Y-79490461D01*
X163259661Y-79619581D01*
X163158213Y-79771410D01*
X163088333Y-79940113D01*
X163052709Y-80119208D01*
X163052709Y-80301810D01*
X163088333Y-80480905D01*
X163119685Y-80556596D01*
X162534446Y-81699207D01*
X161826971Y-82406683D01*
X160384421Y-82853293D01*
X158933874Y-83085380D01*
X157565004Y-83184574D01*
X156531955Y-83243048D01*
X155950956Y-83206736D01*
X155949502Y-83206507D01*
X155919040Y-83204741D01*
X155888511Y-83202833D01*
X155887036Y-83202886D01*
X155238102Y-83165266D01*
X155227811Y-83163980D01*
X155206152Y-83163414D01*
X155184525Y-83162160D01*
X155174164Y-83162577D01*
X154446016Y-83143541D01*
X154409508Y-83139495D01*
X154350050Y-83144620D01*
X154290544Y-83148915D01*
X154286124Y-83150131D01*
X154281549Y-83150525D01*
X154274982Y-83152430D01*
X154163916Y-83106424D01*
X153984821Y-83070800D01*
X153802219Y-83070800D01*
X153623124Y-83106424D01*
X153454421Y-83176304D01*
X153302592Y-83277752D01*
X153173472Y-83406872D01*
X153072024Y-83558701D01*
X153002144Y-83727404D01*
X152966520Y-83906499D01*
X152966520Y-84089101D01*
X153002144Y-84268196D01*
X153072024Y-84436899D01*
X153173472Y-84588728D01*
X153302592Y-84717848D01*
X153454421Y-84819296D01*
X153623124Y-84889176D01*
X153802219Y-84924800D01*
X153984821Y-84924800D01*
X154163916Y-84889176D01*
X154332619Y-84819296D01*
X154484448Y-84717848D01*
X154613568Y-84588728D01*
X154703117Y-84454707D01*
X155151389Y-84466427D01*
X155840687Y-84506387D01*
X156432105Y-84543350D01*
X156438744Y-84544961D01*
X156496099Y-84547350D01*
X156521329Y-84548927D01*
X156528122Y-84548684D01*
X156534915Y-84548967D01*
X156560164Y-84547538D01*
X156617523Y-84545486D01*
X156624170Y-84543915D01*
X157617027Y-84487716D01*
X157622184Y-84487849D01*
X157648992Y-84485906D01*
X157675817Y-84484388D01*
X157680912Y-84483593D01*
X159052412Y-84384209D01*
X159080469Y-84382510D01*
X159084286Y-84381899D01*
X159088140Y-84381620D01*
X159115813Y-84376855D01*
X160586769Y-84141502D01*
X160601020Y-84141421D01*
X160650033Y-84131380D01*
X160667709Y-84128552D01*
X160681434Y-84124947D01*
X160695318Y-84122103D01*
X160712399Y-84116815D01*
X160760807Y-84104101D01*
X160773623Y-84097860D01*
X162365005Y-83605172D01*
X162424636Y-83587083D01*
X162454671Y-83571029D01*
X162486054Y-83557819D01*
X162511168Y-83540830D01*
X162537903Y-83526540D01*
X162564219Y-83504943D01*
X162592432Y-83485858D01*
X162636272Y-83441514D01*
X163487706Y-82590081D01*
X163492432Y-82586802D01*
X163533001Y-82544786D01*
X163551676Y-82526111D01*
X163555319Y-82521672D01*
X163581643Y-82494409D01*
X163595952Y-82472160D01*
X163612740Y-82451704D01*
X163630609Y-82418273D01*
X163633710Y-82413452D01*
X163645727Y-82389989D01*
X163673283Y-82338437D01*
X163674954Y-82332927D01*
X163958016Y-81780284D01*
X163771972Y-82546186D01*
X162427114Y-85821489D01*
X161605834Y-87343373D01*
X161617560Y-87284421D01*
X161617560Y-87101819D01*
X161581936Y-86922724D01*
X161512056Y-86754021D01*
X161410608Y-86602192D01*
X161281488Y-86473072D01*
X161129659Y-86371624D01*
X160960956Y-86301744D01*
X160781861Y-86266120D01*
X160599259Y-86266120D01*
X160420164Y-86301744D01*
X160251461Y-86371624D01*
X160099632Y-86473072D01*
X159970512Y-86602192D01*
X159869064Y-86754021D01*
X159841206Y-86821275D01*
X159120606Y-86859201D01*
X157839052Y-86313111D01*
X157451859Y-86051185D01*
X157477360Y-85922981D01*
X157477360Y-85740379D01*
X157441736Y-85561284D01*
X157371856Y-85392581D01*
X157270408Y-85240752D01*
X157141288Y-85111632D01*
X156989459Y-85010184D01*
X156820756Y-84940304D01*
X156641661Y-84904680D01*
X156459059Y-84904680D01*
X156279964Y-84940304D01*
X156111261Y-85010184D01*
X155959432Y-85111632D01*
X155830312Y-85240752D01*
X155728864Y-85392581D01*
X155658984Y-85561284D01*
X155623360Y-85740379D01*
X155623360Y-85922981D01*
X155658984Y-86102076D01*
X155728864Y-86270779D01*
X155830312Y-86422608D01*
X155959432Y-86551728D01*
X156111261Y-86653176D01*
X156250644Y-86710911D01*
X156252690Y-86714792D01*
X156261602Y-86733253D01*
X156267629Y-86743129D01*
X156288030Y-86781826D01*
X156301009Y-86797827D01*
X156311744Y-86815417D01*
X156341382Y-86847597D01*
X156368939Y-86881570D01*
X156384792Y-86894733D01*
X156398751Y-86909889D01*
X156434096Y-86935668D01*
X156442996Y-86943058D01*
X156459977Y-86954545D01*
X156502515Y-86985571D01*
X156513067Y-86990459D01*
X157132688Y-87409616D01*
X157156244Y-87429350D01*
X157185721Y-87445491D01*
X157186921Y-87446303D01*
X157213966Y-87460958D01*
X157240671Y-87475581D01*
X157241991Y-87476143D01*
X157271551Y-87492161D01*
X157300915Y-87501252D01*
X158737804Y-88113535D01*
X158785443Y-88135863D01*
X158827925Y-88146346D01*
X158869691Y-88159479D01*
X158890159Y-88161704D01*
X158910136Y-88166634D01*
X158953850Y-88168628D01*
X158997372Y-88173360D01*
X159049807Y-88168731D01*
X160170520Y-88109746D01*
X160208682Y-88110785D01*
X160266070Y-88100986D01*
X160323649Y-88092239D01*
X160329332Y-88090183D01*
X160335283Y-88089167D01*
X160385266Y-88070041D01*
X160420164Y-88084496D01*
X160599259Y-88120120D01*
X160781861Y-88120120D01*
X160960956Y-88084496D01*
X161129659Y-88014616D01*
X161281488Y-87913168D01*
X161318107Y-87876549D01*
X161203621Y-88088698D01*
X161192631Y-88107631D01*
X161188422Y-88116863D01*
X161183610Y-88125780D01*
X161175165Y-88145941D01*
X160102867Y-90497917D01*
X157522353Y-96128196D01*
X157400901Y-96178504D01*
X157249072Y-96279952D01*
X157119952Y-96409072D01*
X157018504Y-96560901D01*
X156948624Y-96729604D01*
X156913000Y-96908699D01*
X156913000Y-97091301D01*
X156948624Y-97270396D01*
X157018504Y-97439099D01*
X157119952Y-97590928D01*
X157249072Y-97720048D01*
X157400901Y-97821496D01*
X157569604Y-97891376D01*
X157748699Y-97927000D01*
X157931301Y-97927000D01*
X158110396Y-97891376D01*
X158279099Y-97821496D01*
X158430928Y-97720048D01*
X158560048Y-97590928D01*
X158661496Y-97439099D01*
X158731376Y-97270396D01*
X158767000Y-97091301D01*
X158767000Y-96908699D01*
X158731376Y-96729604D01*
X158707532Y-96672040D01*
X160262014Y-93280404D01*
X160259280Y-93294430D01*
X160253386Y-93323640D01*
X160253167Y-93325805D01*
X160252753Y-93327928D01*
X160249961Y-93357460D01*
X159956372Y-96256125D01*
X159947232Y-96262232D01*
X159818112Y-96391352D01*
X159716664Y-96543181D01*
X159646784Y-96711884D01*
X159611160Y-96890979D01*
X159611160Y-97073581D01*
X159646784Y-97252676D01*
X159716664Y-97421379D01*
X159818112Y-97573208D01*
X159947232Y-97702328D01*
X160099061Y-97803776D01*
X160267764Y-97873656D01*
X160446859Y-97909280D01*
X160629461Y-97909280D01*
X160808556Y-97873656D01*
X160977259Y-97803776D01*
X161129088Y-97702328D01*
X161258208Y-97573208D01*
X161359656Y-97421379D01*
X161429536Y-97252676D01*
X161465160Y-97073581D01*
X161465160Y-96890979D01*
X161429536Y-96711884D01*
X161359656Y-96543181D01*
X161258208Y-96391352D01*
X161253794Y-96386938D01*
X161544514Y-93516595D01*
X161990160Y-91229597D01*
X162177171Y-90743369D01*
X162127506Y-91969463D01*
X162125981Y-91988305D01*
X162126210Y-92001454D01*
X162125679Y-92014567D01*
X162126767Y-92033407D01*
X162167171Y-94351523D01*
X162167654Y-94382790D01*
X162167727Y-94383430D01*
X162167738Y-94384059D01*
X162171280Y-94414562D01*
X162395660Y-96380739D01*
X162297304Y-96527941D01*
X162227424Y-96696644D01*
X162191800Y-96875739D01*
X162191800Y-97058341D01*
X162227424Y-97237436D01*
X162297304Y-97406139D01*
X162398752Y-97557968D01*
X162527872Y-97687088D01*
X162679701Y-97788536D01*
X162848404Y-97858416D01*
X163027499Y-97894040D01*
X163210101Y-97894040D01*
X163389196Y-97858416D01*
X163557899Y-97788536D01*
X163709728Y-97687088D01*
X163838848Y-97557968D01*
X163940296Y-97406139D01*
X164010176Y-97237436D01*
X164045800Y-97058341D01*
X164045800Y-96875739D01*
X164010176Y-96696644D01*
X163940296Y-96527941D01*
X163838848Y-96376112D01*
X163709728Y-96246992D01*
X163691467Y-96234791D01*
X163470434Y-94297944D01*
X163455966Y-93467880D01*
X163855907Y-94627708D01*
X163857301Y-94636237D01*
X163876786Y-94688257D01*
X163884455Y-94710498D01*
X163888053Y-94718339D01*
X163891064Y-94726377D01*
X163901387Y-94747394D01*
X163924602Y-94797982D01*
X163929678Y-94804994D01*
X164584477Y-96138148D01*
X164694882Y-96536390D01*
X164678504Y-96560901D01*
X164608624Y-96729604D01*
X164573000Y-96908699D01*
X164573000Y-97091301D01*
X164608624Y-97270396D01*
X164678504Y-97439099D01*
X164779952Y-97590928D01*
X164909072Y-97720048D01*
X165060901Y-97821496D01*
X165229604Y-97891376D01*
X165408699Y-97927000D01*
X165591301Y-97927000D01*
X165770396Y-97891376D01*
X165939099Y-97821496D01*
X166090928Y-97720048D01*
X166220048Y-97590928D01*
X166321496Y-97439099D01*
X166391376Y-97270396D01*
X166427000Y-97091301D01*
X166427000Y-96908699D01*
X166391376Y-96729604D01*
X166321496Y-96560901D01*
X166220048Y-96409072D01*
X166090928Y-96279952D01*
X165951063Y-96186498D01*
X165834270Y-95765216D01*
X165829619Y-95736762D01*
X165817161Y-95703502D01*
X165816267Y-95700277D01*
X165805919Y-95673489D01*
X165795856Y-95646622D01*
X165794382Y-95643621D01*
X165781583Y-95610487D01*
X165766148Y-95586137D01*
X165093538Y-94216722D01*
X164519438Y-92551835D01*
X164292376Y-90721146D01*
X164382923Y-89652696D01*
X164499663Y-89241771D01*
X164498073Y-89267209D01*
X164498224Y-89271417D01*
X164496421Y-89307767D01*
X164500514Y-89335447D01*
X164501514Y-89363402D01*
X164509884Y-89398812D01*
X164510501Y-89402987D01*
X164517273Y-89430077D01*
X164531057Y-89488392D01*
X164532814Y-89492238D01*
X164836988Y-90708936D01*
X164843162Y-90746233D01*
X164863827Y-90801067D01*
X164883540Y-90856242D01*
X164902959Y-90888674D01*
X165682222Y-92467185D01*
X165694398Y-92492567D01*
X165696300Y-92495701D01*
X165697935Y-92499013D01*
X165712917Y-92523082D01*
X166496820Y-93814797D01*
X166857827Y-94631813D01*
X167357722Y-95978753D01*
X167354323Y-96334701D01*
X167279952Y-96409072D01*
X167178504Y-96560901D01*
X167108624Y-96729604D01*
X167073000Y-96908699D01*
X167073000Y-97091301D01*
X167108624Y-97270396D01*
X167178504Y-97439099D01*
X167279952Y-97590928D01*
X167409072Y-97720048D01*
X167560901Y-97821496D01*
X167729604Y-97891376D01*
X167908699Y-97927000D01*
X168091301Y-97927000D01*
X168270396Y-97891376D01*
X168439099Y-97821496D01*
X168590928Y-97720048D01*
X168720048Y-97590928D01*
X168821496Y-97439099D01*
X168891376Y-97270396D01*
X168927000Y-97091301D01*
X168927000Y-96908699D01*
X168891376Y-96729604D01*
X168821496Y-96560901D01*
X168720048Y-96409072D01*
X168658262Y-96347286D01*
X168662418Y-95912007D01*
X168665537Y-95889126D01*
X168663029Y-95847968D01*
X168663116Y-95838885D01*
X168661079Y-95815966D01*
X168657726Y-95760930D01*
X168655404Y-95752103D01*
X168654596Y-95743007D01*
X168639086Y-95690062D01*
X168633241Y-95667841D01*
X168630085Y-95659337D01*
X168618489Y-95619754D01*
X168607796Y-95599281D01*
X168077701Y-94170970D01*
X168071517Y-94152175D01*
X168066576Y-94140992D01*
X168062318Y-94129520D01*
X168053643Y-94111722D01*
X167694299Y-93298472D01*
X167691753Y-93288539D01*
X167668386Y-93239826D01*
X167659553Y-93219836D01*
X167654541Y-93210965D01*
X167650122Y-93201752D01*
X167638755Y-93183021D01*
X167612207Y-93136029D01*
X167605523Y-93128262D01*
X166840495Y-91867651D01*
X166091500Y-90350457D01*
X165807830Y-89215778D01*
X165879178Y-88074219D01*
X166115070Y-87112502D01*
X166352373Y-86588742D01*
X166388876Y-86793381D01*
X166392362Y-86830438D01*
X166409299Y-86887167D01*
X166425346Y-86944106D01*
X166442234Y-86977266D01*
X167069526Y-88510650D01*
X167090043Y-88564010D01*
X167110932Y-88597076D01*
X167129230Y-88631673D01*
X167165369Y-88676104D01*
X168642960Y-90573697D01*
X168660658Y-90596818D01*
X168662492Y-90598781D01*
X168664157Y-90600919D01*
X168684372Y-90622197D01*
X170185668Y-92228937D01*
X170191271Y-92235857D01*
X170207504Y-92252307D01*
X170223302Y-92269214D01*
X170229997Y-92275100D01*
X171661645Y-93725837D01*
X172348001Y-95149011D01*
X172348000Y-96341024D01*
X172279952Y-96409072D01*
X172178504Y-96560901D01*
X172108624Y-96729604D01*
X172073000Y-96908699D01*
X172073000Y-97091301D01*
X172108624Y-97270396D01*
X172178504Y-97439099D01*
X172279952Y-97590928D01*
X172409072Y-97720048D01*
X172560901Y-97821496D01*
X172729604Y-97891376D01*
X172908699Y-97927000D01*
X173091301Y-97927000D01*
X173270396Y-97891376D01*
X173439099Y-97821496D01*
X173590928Y-97720048D01*
X173720048Y-97590928D01*
X173821496Y-97439099D01*
X173891376Y-97270396D01*
X173927000Y-97091301D01*
X173927000Y-96908699D01*
X173891376Y-96729604D01*
X173821496Y-96560901D01*
X173720048Y-96409072D01*
X173652000Y-96341024D01*
X173652000Y-95013501D01*
X173654102Y-94962895D01*
X173647049Y-94917710D01*
X173642565Y-94872186D01*
X173637163Y-94854378D01*
X173634294Y-94835998D01*
X173618562Y-94793059D01*
X173605283Y-94749283D01*
X173581395Y-94704591D01*
X172812025Y-93109287D01*
X172808770Y-93098297D01*
X172784178Y-93051548D01*
X172775201Y-93032933D01*
X172769267Y-93023200D01*
X172748978Y-92984631D01*
X172735905Y-92968484D01*
X172725091Y-92950749D01*
X172695589Y-92918690D01*
X172688408Y-92909821D01*
X172673872Y-92895091D01*
X172638122Y-92856243D01*
X172628870Y-92849490D01*
X171148171Y-91349048D01*
X169892937Y-90005654D01*
X171204522Y-91073493D01*
X171212177Y-91080617D01*
X171229323Y-91093686D01*
X171246061Y-91107313D01*
X171254788Y-91113095D01*
X173632175Y-92925128D01*
X174382353Y-94233568D01*
X174848802Y-96505624D01*
X174798504Y-96580901D01*
X174728624Y-96749604D01*
X174693000Y-96928699D01*
X174693000Y-97111301D01*
X174728624Y-97290396D01*
X174798504Y-97459099D01*
X174899952Y-97610928D01*
X175029072Y-97740048D01*
X175180901Y-97841496D01*
X175349604Y-97911376D01*
X175528699Y-97947000D01*
X175711301Y-97947000D01*
X175890396Y-97911376D01*
X176059099Y-97841496D01*
X176210928Y-97740048D01*
X176340048Y-97610928D01*
X176441496Y-97459099D01*
X176511376Y-97290396D01*
X176541252Y-97140195D01*
X181993433Y-97140195D01*
X183750000Y-98896762D01*
X185506567Y-97140195D01*
X185271474Y-96781675D01*
X184809466Y-96527475D01*
X184306743Y-96368292D01*
X183782624Y-96310244D01*
X183257252Y-96355563D01*
X182750816Y-96502505D01*
X182282778Y-96745425D01*
X182228526Y-96781675D01*
X181993433Y-97140195D01*
X176541252Y-97140195D01*
X176547000Y-97111301D01*
X176547000Y-96928699D01*
X176511376Y-96749604D01*
X176441496Y-96580901D01*
X176340048Y-96429072D01*
X176210928Y-96299952D01*
X176126143Y-96243301D01*
X175650033Y-93924188D01*
X175649803Y-93916443D01*
X175637138Y-93861377D01*
X175632239Y-93837513D01*
X175629957Y-93830153D01*
X175621016Y-93791278D01*
X175610980Y-93768950D01*
X175603733Y-93745576D01*
X175584719Y-93710521D01*
X175581555Y-93703483D01*
X175569421Y-93682319D01*
X175542496Y-93632681D01*
X175537547Y-93626725D01*
X174712781Y-92188194D01*
X174698556Y-92157068D01*
X174662149Y-92106607D01*
X174626110Y-92055994D01*
X174624615Y-92054585D01*
X174623409Y-92052914D01*
X174577785Y-92010459D01*
X174532636Y-91967916D01*
X174503641Y-91949764D01*
X172036444Y-90069280D01*
X170350592Y-88696729D01*
X169084245Y-87406757D01*
X168554319Y-86372549D01*
X168494962Y-85834620D01*
X168683980Y-84435886D01*
X168685279Y-84429902D01*
X168688263Y-84404194D01*
X168691735Y-84378501D01*
X168691957Y-84372372D01*
X168861601Y-82910819D01*
X172382280Y-82910819D01*
X172382280Y-83093421D01*
X172417904Y-83272516D01*
X172487784Y-83441219D01*
X172589232Y-83593048D01*
X172718352Y-83722168D01*
X172870181Y-83823616D01*
X173038884Y-83893496D01*
X173217979Y-83929120D01*
X173400581Y-83929120D01*
X173579676Y-83893496D01*
X173748379Y-83823616D01*
X173900208Y-83722168D01*
X174029328Y-83593048D01*
X174130776Y-83441219D01*
X174200656Y-83272516D01*
X174236280Y-83093421D01*
X174236280Y-82959433D01*
X179916239Y-76810057D01*
X179943165Y-76785468D01*
X179978662Y-76737229D01*
X180014824Y-76689418D01*
X180030730Y-76656593D01*
X180537585Y-75803710D01*
X180564904Y-75762030D01*
X180582332Y-75718880D01*
X180602080Y-75676718D01*
X180614012Y-75628313D01*
X181033092Y-74201445D01*
X181039222Y-74183250D01*
X181042105Y-74170756D01*
X181045719Y-74158452D01*
X181049298Y-74139586D01*
X181096175Y-73936453D01*
X181200168Y-73866968D01*
X181307331Y-73759805D01*
X197743433Y-73759805D01*
X197978526Y-74118325D01*
X198440534Y-74372525D01*
X198943257Y-74531708D01*
X199467376Y-74589756D01*
X199992748Y-74544437D01*
X200499184Y-74397495D01*
X200967222Y-74154575D01*
X201021474Y-74118325D01*
X201256567Y-73759805D01*
X199500000Y-72003238D01*
X197743433Y-73759805D01*
X181307331Y-73759805D01*
X181329288Y-73737848D01*
X181430736Y-73586019D01*
X181500616Y-73417316D01*
X181536240Y-73238221D01*
X181536240Y-73055619D01*
X181500616Y-72876524D01*
X181430736Y-72707821D01*
X181329288Y-72555992D01*
X181200168Y-72426872D01*
X181048339Y-72325424D01*
X180879636Y-72255544D01*
X180700541Y-72219920D01*
X180517939Y-72219920D01*
X180338844Y-72255544D01*
X180170141Y-72325424D01*
X180018312Y-72426872D01*
X179889192Y-72555992D01*
X179787744Y-72707821D01*
X179717864Y-72876524D01*
X179682240Y-73055619D01*
X179682240Y-73238221D01*
X179717864Y-73417316D01*
X179787744Y-73586019D01*
X179825674Y-73642786D01*
X179780136Y-73840119D01*
X179381962Y-75195808D01*
X178930615Y-75955287D01*
X173277946Y-82075120D01*
X173217979Y-82075120D01*
X173038884Y-82110744D01*
X172870181Y-82180624D01*
X172718352Y-82282072D01*
X172589232Y-82411192D01*
X172487784Y-82563021D01*
X172417904Y-82731724D01*
X172382280Y-82910819D01*
X168861601Y-82910819D01*
X168949404Y-82154364D01*
X169345907Y-80335408D01*
X169350462Y-80318152D01*
X169352720Y-80304152D01*
X169355740Y-80290298D01*
X169357814Y-80272572D01*
X169546726Y-79101315D01*
X169881889Y-78287620D01*
X169969099Y-78251496D01*
X170120928Y-78150048D01*
X170250048Y-78020928D01*
X170351496Y-77869099D01*
X170421376Y-77700396D01*
X170457000Y-77521301D01*
X170457000Y-77338699D01*
X170421376Y-77159604D01*
X170351496Y-76990901D01*
X170250048Y-76839072D01*
X170120928Y-76709952D01*
X169969099Y-76608504D01*
X169800396Y-76538624D01*
X169621301Y-76503000D01*
X169520727Y-76503000D01*
X169501656Y-76407124D01*
X169431776Y-76238421D01*
X169330328Y-76086592D01*
X169201208Y-75957472D01*
X169075084Y-75873199D01*
X169091832Y-75714648D01*
X169097180Y-75691819D01*
X169098559Y-75650967D01*
X169099476Y-75642289D01*
X169099641Y-75618926D01*
X169100428Y-75595618D01*
X169099867Y-75586925D01*
X169100156Y-75546036D01*
X169095743Y-75523000D01*
X169078692Y-75258699D01*
X170313000Y-75258699D01*
X170313000Y-75441301D01*
X170348624Y-75620396D01*
X170418504Y-75789099D01*
X170519952Y-75940928D01*
X170649072Y-76070048D01*
X170800901Y-76171496D01*
X170969604Y-76241376D01*
X171148699Y-76277000D01*
X171331301Y-76277000D01*
X171510396Y-76241376D01*
X171679099Y-76171496D01*
X171830928Y-76070048D01*
X171960048Y-75940928D01*
X172061496Y-75789099D01*
X172061822Y-75788311D01*
X172307186Y-75716302D01*
X172333043Y-75711887D01*
X172368626Y-75698271D01*
X172374330Y-75696597D01*
X172398561Y-75686816D01*
X172422941Y-75677487D01*
X172428253Y-75674831D01*
X172463588Y-75660568D01*
X172485532Y-75646191D01*
X172905689Y-75436113D01*
X172917989Y-75432219D01*
X172963023Y-75407445D01*
X172980224Y-75398845D01*
X172991081Y-75392010D01*
X173030520Y-75370315D01*
X173045319Y-75357869D01*
X173061684Y-75347567D01*
X173094362Y-75316622D01*
X173104185Y-75308360D01*
X173117630Y-75294587D01*
X173154938Y-75259257D01*
X173162392Y-75248733D01*
X173499125Y-74903786D01*
X173507689Y-74897497D01*
X173543000Y-74858903D01*
X173543000Y-74971301D01*
X173578624Y-75150396D01*
X173648504Y-75319099D01*
X173749952Y-75470928D01*
X173879072Y-75600048D01*
X174030901Y-75701496D01*
X174199604Y-75771376D01*
X174378699Y-75807000D01*
X174561301Y-75807000D01*
X174740396Y-75771376D01*
X174909099Y-75701496D01*
X175060928Y-75600048D01*
X175190048Y-75470928D01*
X175291496Y-75319099D01*
X175322148Y-75245099D01*
X175379480Y-75245099D01*
X175379480Y-75427701D01*
X175415104Y-75606796D01*
X175484984Y-75775499D01*
X175586432Y-75927328D01*
X175715552Y-76056448D01*
X175867381Y-76157896D01*
X176036084Y-76227776D01*
X176215179Y-76263400D01*
X176397781Y-76263400D01*
X176576876Y-76227776D01*
X176745579Y-76157896D01*
X176798746Y-76122371D01*
X176821980Y-76119838D01*
X176829803Y-76117376D01*
X176837950Y-76116281D01*
X176891036Y-76098102D01*
X176913795Y-76090939D01*
X176921292Y-76087742D01*
X176959456Y-76074673D01*
X176980221Y-76062610D01*
X177280734Y-75934451D01*
X177332343Y-75914048D01*
X177366707Y-75891885D01*
X177402557Y-75872239D01*
X177420543Y-75857162D01*
X177440273Y-75844437D01*
X177469650Y-75815998D01*
X177500984Y-75789732D01*
X177515688Y-75771429D01*
X177532550Y-75755106D01*
X177555810Y-75721490D01*
X177581422Y-75689610D01*
X177607077Y-75640387D01*
X177936140Y-75048074D01*
X177947134Y-75033550D01*
X177967247Y-74992080D01*
X177974021Y-74979888D01*
X177981234Y-74963243D01*
X178003182Y-74917991D01*
X178006721Y-74904428D01*
X178012294Y-74891568D01*
X178022906Y-74842403D01*
X178027485Y-74824854D01*
X178029039Y-74815043D01*
X178107661Y-74867576D01*
X178276364Y-74937456D01*
X178455459Y-74973080D01*
X178638061Y-74973080D01*
X178817156Y-74937456D01*
X178985859Y-74867576D01*
X179137688Y-74766128D01*
X179266808Y-74637008D01*
X179368256Y-74485179D01*
X179438136Y-74316476D01*
X179473760Y-74137381D01*
X179473760Y-73954779D01*
X179438136Y-73775684D01*
X179368256Y-73606981D01*
X179276968Y-73470357D01*
X179413508Y-72488977D01*
X179416179Y-72480574D01*
X179422338Y-72425515D01*
X179425552Y-72402412D01*
X179425904Y-72393632D01*
X179426879Y-72384915D01*
X179427187Y-72361625D01*
X179429407Y-72306234D01*
X179428034Y-72297520D01*
X179433718Y-71867376D01*
X196810244Y-71867376D01*
X196855563Y-72392748D01*
X197002505Y-72899184D01*
X197245425Y-73367222D01*
X197281675Y-73421474D01*
X197640195Y-73656567D01*
X199396762Y-71900000D01*
X199603238Y-71900000D01*
X201359805Y-73656567D01*
X201718325Y-73421474D01*
X201972525Y-72959466D01*
X202131708Y-72456743D01*
X202189756Y-71932624D01*
X202144437Y-71407252D01*
X201997495Y-70900816D01*
X201754575Y-70432778D01*
X201718325Y-70378526D01*
X201359805Y-70143433D01*
X199603238Y-71900000D01*
X199396762Y-71900000D01*
X197640195Y-70143433D01*
X197281675Y-70378526D01*
X197027475Y-70840534D01*
X196868292Y-71343257D01*
X196810244Y-71867376D01*
X179433718Y-71867376D01*
X179442377Y-71212269D01*
X179471509Y-70649052D01*
X179473227Y-70630696D01*
X179473161Y-70617111D01*
X179473863Y-70603540D01*
X179473006Y-70585116D01*
X179470361Y-70040195D01*
X197743433Y-70040195D01*
X199500000Y-71796762D01*
X201256567Y-70040195D01*
X201021474Y-69681675D01*
X200559466Y-69427475D01*
X200056743Y-69268292D01*
X199532624Y-69210244D01*
X199007252Y-69255563D01*
X198500816Y-69402505D01*
X198032778Y-69645425D01*
X197978526Y-69681675D01*
X197743433Y-70040195D01*
X179470361Y-70040195D01*
X179468126Y-69579941D01*
X179471048Y-69543597D01*
X179464094Y-69483986D01*
X179457936Y-69424429D01*
X179447189Y-69389609D01*
X179270275Y-68576763D01*
X179264697Y-68537182D01*
X179246066Y-68483897D01*
X179228723Y-68430217D01*
X179224900Y-68423364D01*
X179222307Y-68415947D01*
X179193637Y-68367318D01*
X179166157Y-68318054D01*
X179161068Y-68312075D01*
X179157080Y-68305311D01*
X179119481Y-68263217D01*
X179082911Y-68220254D01*
X179051563Y-68195455D01*
X178986080Y-68135234D01*
X178986080Y-68077219D01*
X178950456Y-67898124D01*
X178880576Y-67729421D01*
X178779128Y-67577592D01*
X178650008Y-67448472D01*
X178498179Y-67347024D01*
X178329476Y-67277144D01*
X178150381Y-67241520D01*
X177967779Y-67241520D01*
X177788684Y-67277144D01*
X177619981Y-67347024D01*
X177518436Y-67414874D01*
X177514056Y-67404301D01*
X177412608Y-67252472D01*
X177283488Y-67123352D01*
X177131659Y-67021904D01*
X176962956Y-66952024D01*
X176783861Y-66916400D01*
X176601259Y-66916400D01*
X176422164Y-66952024D01*
X176253461Y-67021904D01*
X176101632Y-67123352D01*
X175972512Y-67252472D01*
X175871064Y-67404301D01*
X175801184Y-67573004D01*
X175765560Y-67752099D01*
X175765560Y-67934701D01*
X175801184Y-68113796D01*
X175871064Y-68282499D01*
X175972512Y-68434328D01*
X176044616Y-68506432D01*
X176045527Y-68655028D01*
X176044873Y-68666589D01*
X176045723Y-68687000D01*
X176045849Y-68707461D01*
X176047057Y-68718995D01*
X176070277Y-69276296D01*
X176068464Y-69308528D01*
X176077447Y-69372207D01*
X176086354Y-69435493D01*
X176086388Y-69435591D01*
X176086404Y-69435702D01*
X176108119Y-69497781D01*
X176128720Y-69556737D01*
X176145109Y-69584548D01*
X176305381Y-69929751D01*
X176385538Y-70234347D01*
X176462963Y-70667931D01*
X176278305Y-71803576D01*
X176093345Y-72853352D01*
X176089311Y-72871879D01*
X176087800Y-72884819D01*
X176085534Y-72897683D01*
X176084087Y-72916630D01*
X176009996Y-73551346D01*
X175989872Y-73564792D01*
X175860752Y-73693912D01*
X175759304Y-73845741D01*
X175689424Y-74014444D01*
X175653800Y-74193539D01*
X175653800Y-74376141D01*
X175689424Y-74555236D01*
X175714977Y-74616927D01*
X175586432Y-74745472D01*
X175484984Y-74897301D01*
X175415104Y-75066004D01*
X175379480Y-75245099D01*
X175322148Y-75245099D01*
X175361376Y-75150396D01*
X175397000Y-74971301D01*
X175397000Y-74788699D01*
X175361376Y-74609604D01*
X175291496Y-74440901D01*
X175211413Y-74321047D01*
X175253850Y-74033084D01*
X175387888Y-73257571D01*
X175589981Y-72478074D01*
X175597215Y-72451726D01*
X175598002Y-72447135D01*
X175599170Y-72442630D01*
X175603399Y-72415654D01*
X175718663Y-71743281D01*
X175720708Y-71734987D01*
X175724065Y-71711770D01*
X175728036Y-71688604D01*
X175728648Y-71680066D01*
X175839871Y-70910778D01*
X175988820Y-70350027D01*
X175996544Y-70331489D01*
X176005267Y-70288111D01*
X176008368Y-70276435D01*
X176011581Y-70256711D01*
X176021863Y-70205576D01*
X176021888Y-70193425D01*
X176023842Y-70181431D01*
X176022022Y-70129306D01*
X176022064Y-70109321D01*
X176020905Y-70097293D01*
X176019361Y-70053076D01*
X176014759Y-70033531D01*
X175941344Y-69271845D01*
X175941187Y-69264341D01*
X175938273Y-69239982D01*
X175935920Y-69215573D01*
X175934472Y-69208211D01*
X175872749Y-68692315D01*
X175870186Y-68648132D01*
X175857071Y-68597672D01*
X175845832Y-68546759D01*
X175828043Y-68506230D01*
X175292169Y-67049376D01*
X175343656Y-66925076D01*
X175379280Y-66745981D01*
X175379280Y-66563379D01*
X175343656Y-66384284D01*
X175273776Y-66215581D01*
X175172328Y-66063752D01*
X175043208Y-65934632D01*
X174891379Y-65833184D01*
X174735701Y-65768699D01*
X175283000Y-65768699D01*
X175283000Y-65951301D01*
X175318624Y-66130396D01*
X175388504Y-66299099D01*
X175489952Y-66450928D01*
X175619072Y-66580048D01*
X175770901Y-66681496D01*
X175939604Y-66751376D01*
X176118699Y-66787000D01*
X176301301Y-66787000D01*
X176480396Y-66751376D01*
X176649099Y-66681496D01*
X176800928Y-66580048D01*
X176930048Y-66450928D01*
X177031496Y-66299099D01*
X177101376Y-66130396D01*
X177137000Y-65951301D01*
X177137000Y-65768699D01*
X177101376Y-65589604D01*
X177031496Y-65420901D01*
X177013513Y-65393988D01*
X177095992Y-65321506D01*
X177160063Y-65301622D01*
X177289781Y-65388296D01*
X177458484Y-65458176D01*
X177637579Y-65493800D01*
X177691206Y-65493800D01*
X179156423Y-67102819D01*
X179171910Y-67120721D01*
X179177927Y-67126434D01*
X179183528Y-67132584D01*
X179201151Y-67148482D01*
X180375673Y-68263535D01*
X180886200Y-68854673D01*
X180886200Y-69021821D01*
X180921824Y-69200916D01*
X180991704Y-69369619D01*
X181093152Y-69521448D01*
X181222272Y-69650568D01*
X181374101Y-69752016D01*
X181542804Y-69821896D01*
X181721899Y-69857520D01*
X181904501Y-69857520D01*
X182083596Y-69821896D01*
X182252299Y-69752016D01*
X182404128Y-69650568D01*
X182533248Y-69521448D01*
X182634696Y-69369619D01*
X182704576Y-69200916D01*
X182740200Y-69021821D01*
X182740200Y-68839219D01*
X182704576Y-68660124D01*
X182634696Y-68491421D01*
X182533248Y-68339592D01*
X182404128Y-68210472D01*
X182252299Y-68109024D01*
X182083596Y-68039144D01*
X181904501Y-68003520D01*
X181874105Y-68003520D01*
X181568270Y-67649395D01*
X181581739Y-67643816D01*
X181733568Y-67542368D01*
X181862688Y-67413248D01*
X181964136Y-67261419D01*
X182013976Y-67141096D01*
X182161839Y-67136326D01*
X182700494Y-67569362D01*
X183238457Y-68213288D01*
X183238240Y-68214379D01*
X183238240Y-68396981D01*
X183273864Y-68576076D01*
X183343744Y-68744779D01*
X183445192Y-68896608D01*
X183574312Y-69025728D01*
X183726141Y-69127176D01*
X183894844Y-69197056D01*
X184073939Y-69232680D01*
X184256541Y-69232680D01*
X184435636Y-69197056D01*
X184604339Y-69127176D01*
X184756168Y-69025728D01*
X184885288Y-68896608D01*
X184986736Y-68744779D01*
X185056616Y-68576076D01*
X185092240Y-68396981D01*
X185092240Y-68214379D01*
X185056616Y-68035284D01*
X184986736Y-67866581D01*
X184885288Y-67714752D01*
X184756168Y-67585632D01*
X184750520Y-67581858D01*
X184247985Y-62366031D01*
X184255368Y-62358648D01*
X184356816Y-62206819D01*
X184426696Y-62038116D01*
X184462320Y-61859021D01*
X184462320Y-61832501D01*
X194658693Y-61832501D01*
X194730007Y-61905489D01*
X194897580Y-62026544D01*
X195085549Y-62112581D01*
X195286692Y-62160294D01*
X195493278Y-62167849D01*
X195697368Y-62134956D01*
X195891119Y-62062879D01*
X196259180Y-61850379D01*
X195769680Y-61002540D01*
X194670391Y-61637215D01*
X194658693Y-61832501D01*
X184462320Y-61832501D01*
X184462320Y-61676419D01*
X184426696Y-61497324D01*
X184356816Y-61328621D01*
X184255368Y-61176792D01*
X184197935Y-61119359D01*
X194373817Y-61119359D01*
X194394867Y-61325009D01*
X194422419Y-61423263D01*
X194597391Y-61510775D01*
X195696680Y-60876100D01*
X195207180Y-60028261D01*
X194839119Y-60240761D01*
X194679823Y-60372516D01*
X194549292Y-60532817D01*
X194452542Y-60715503D01*
X194393291Y-60913554D01*
X194373817Y-61119359D01*
X184197935Y-61119359D01*
X184126248Y-61047672D01*
X183974419Y-60946224D01*
X183805716Y-60876344D01*
X183626621Y-60840720D01*
X183444019Y-60840720D01*
X183264924Y-60876344D01*
X183096221Y-60946224D01*
X182944392Y-61047672D01*
X182815272Y-61176792D01*
X182713824Y-61328621D01*
X182643944Y-61497324D01*
X182608320Y-61676419D01*
X182608320Y-61859021D01*
X182643944Y-62038116D01*
X182713824Y-62206819D01*
X182815272Y-62358648D01*
X182944392Y-62487768D01*
X182950040Y-62491542D01*
X183326569Y-66399544D01*
X182835047Y-66004400D01*
X182830247Y-65998921D01*
X182785042Y-65964200D01*
X182765717Y-65948664D01*
X182759664Y-65944707D01*
X182728391Y-65920687D01*
X182706021Y-65909642D01*
X182685148Y-65895998D01*
X182648578Y-65881281D01*
X182613231Y-65863829D01*
X182589144Y-65857363D01*
X182566001Y-65848049D01*
X182527253Y-65840747D01*
X182489190Y-65830529D01*
X182464307Y-65828886D01*
X182439790Y-65824266D01*
X182400370Y-65824664D01*
X182393144Y-65824187D01*
X182368319Y-65824988D01*
X182311365Y-65825563D01*
X182304241Y-65827055D01*
X181742005Y-65845192D01*
X181688621Y-65845143D01*
X181646429Y-65853495D01*
X181603776Y-65859090D01*
X181583564Y-65865940D01*
X181562633Y-65870084D01*
X181522872Y-65886510D01*
X181482139Y-65900316D01*
X181435917Y-65926973D01*
X181421723Y-65934542D01*
X181413036Y-65930944D01*
X181233941Y-65895320D01*
X181051339Y-65895320D01*
X180872244Y-65930944D01*
X180703541Y-66000824D01*
X180551712Y-66102272D01*
X180422592Y-66231392D01*
X180321144Y-66383221D01*
X180312078Y-66405107D01*
X180110147Y-66213401D01*
X178655880Y-64616407D01*
X178655880Y-64475499D01*
X178620256Y-64296404D01*
X178550376Y-64127701D01*
X178448928Y-63975872D01*
X178319808Y-63846752D01*
X178167979Y-63745304D01*
X177999276Y-63675424D01*
X177820181Y-63639800D01*
X177637579Y-63639800D01*
X177458484Y-63675424D01*
X177289781Y-63745304D01*
X177137952Y-63846752D01*
X177008832Y-63975872D01*
X176993771Y-63998412D01*
X176991615Y-63998426D01*
X176953968Y-64006165D01*
X176947743Y-64006939D01*
X176922585Y-64012616D01*
X176897331Y-64017807D01*
X176891342Y-64019666D01*
X176853848Y-64028126D01*
X176830177Y-64038648D01*
X176598802Y-64110454D01*
X176558773Y-64119831D01*
X176508408Y-64142713D01*
X176457474Y-64164194D01*
X176450033Y-64169235D01*
X176441843Y-64172956D01*
X176396922Y-64205216D01*
X176351144Y-64236229D01*
X176322259Y-64265485D01*
X176011203Y-64538837D01*
X175964602Y-64579199D01*
X175943408Y-64606469D01*
X175919825Y-64631700D01*
X175887332Y-64684073D01*
X175626388Y-65097984D01*
X175618555Y-65106865D01*
X175592189Y-65152232D01*
X175581380Y-65169377D01*
X175576115Y-65179890D01*
X175571925Y-65187099D01*
X175489952Y-65269072D01*
X175388504Y-65420901D01*
X175318624Y-65589604D01*
X175283000Y-65768699D01*
X174735701Y-65768699D01*
X174722676Y-65763304D01*
X174543581Y-65727680D01*
X174360979Y-65727680D01*
X174181884Y-65763304D01*
X174013181Y-65833184D01*
X173861352Y-65934632D01*
X173732232Y-66063752D01*
X173630784Y-66215581D01*
X173560904Y-66384284D01*
X173525280Y-66563379D01*
X173525280Y-66745981D01*
X173560904Y-66925076D01*
X173630784Y-67093779D01*
X173732232Y-67245608D01*
X173861352Y-67374728D01*
X174013181Y-67476176D01*
X174068112Y-67498929D01*
X174304192Y-68140750D01*
X174227604Y-68155984D01*
X174058901Y-68225864D01*
X173907072Y-68327312D01*
X173777952Y-68456432D01*
X173676504Y-68608261D01*
X173606624Y-68776964D01*
X173571000Y-68956059D01*
X173571000Y-69090467D01*
X173555467Y-69107457D01*
X173539647Y-69133595D01*
X173521221Y-69157961D01*
X173506480Y-69188390D01*
X173505625Y-69189803D01*
X173492394Y-69217469D01*
X173465228Y-69273546D01*
X173464814Y-69275135D01*
X173272530Y-69677183D01*
X173245418Y-69733034D01*
X173236798Y-69766019D01*
X173225175Y-69798068D01*
X173215806Y-69859401D01*
X173120549Y-70459523D01*
X173111913Y-70494035D01*
X173108946Y-70554758D01*
X173105343Y-70615500D01*
X173110206Y-70650747D01*
X173146119Y-71377987D01*
X173004196Y-72589060D01*
X172891754Y-73272362D01*
X172528340Y-74031494D01*
X172270176Y-74295954D01*
X171920512Y-74470787D01*
X171692755Y-74537628D01*
X171679099Y-74528504D01*
X171510396Y-74458624D01*
X171331301Y-74423000D01*
X171148699Y-74423000D01*
X170969604Y-74458624D01*
X170800901Y-74528504D01*
X170649072Y-74629952D01*
X170519952Y-74759072D01*
X170418504Y-74910901D01*
X170348624Y-75079604D01*
X170313000Y-75258699D01*
X169078692Y-75258699D01*
X169049487Y-74806022D01*
X169050415Y-74771661D01*
X169039959Y-74710500D01*
X169029922Y-74649322D01*
X169017849Y-74617144D01*
X168855637Y-74025290D01*
X168840624Y-73779073D01*
X169010149Y-73122462D01*
X169135168Y-73038928D01*
X169264288Y-72909808D01*
X169365736Y-72757979D01*
X169435616Y-72589276D01*
X169471240Y-72410181D01*
X169471240Y-72227579D01*
X169435616Y-72048484D01*
X169365736Y-71879781D01*
X169264288Y-71727952D01*
X169135168Y-71598832D01*
X168983339Y-71497384D01*
X168814636Y-71427504D01*
X168635541Y-71391880D01*
X168503638Y-71391880D01*
X168486896Y-71351461D01*
X168385448Y-71199632D01*
X168256328Y-71070512D01*
X168104499Y-70969064D01*
X167935796Y-70899184D01*
X167756701Y-70863560D01*
X167574099Y-70863560D01*
X167395004Y-70899184D01*
X167226301Y-70969064D01*
X167074472Y-71070512D01*
X166945352Y-71199632D01*
X166870397Y-71311811D01*
X166720110Y-71389546D01*
X166664304Y-71418328D01*
X166638825Y-71438619D01*
X166611505Y-71456344D01*
X166588718Y-71478523D01*
X166563837Y-71498337D01*
X166542806Y-71523208D01*
X166519468Y-71545923D01*
X166483718Y-71597891D01*
X166285342Y-71885537D01*
X166271697Y-71904211D01*
X166267174Y-71911880D01*
X166262126Y-71919200D01*
X166250938Y-71939412D01*
X166179660Y-72060273D01*
X166179336Y-72058644D01*
X166109456Y-71889941D01*
X166008008Y-71738112D01*
X165878888Y-71608992D01*
X165727059Y-71507544D01*
X165558356Y-71437664D01*
X165379261Y-71402040D01*
X165196659Y-71402040D01*
X165017564Y-71437664D01*
X164978312Y-71453923D01*
X164965216Y-71388084D01*
X164895336Y-71219381D01*
X164854216Y-71157840D01*
X164870088Y-71141968D01*
X164971536Y-70990139D01*
X165041416Y-70821436D01*
X165048448Y-70786083D01*
X165156019Y-70807480D01*
X165338621Y-70807480D01*
X165517716Y-70771856D01*
X165686419Y-70701976D01*
X165838248Y-70600528D01*
X165967368Y-70471408D01*
X166068816Y-70319579D01*
X166138696Y-70150876D01*
X166174320Y-69971781D01*
X166174320Y-69947144D01*
X166218645Y-69909372D01*
X166233204Y-69900207D01*
X166267403Y-69867821D01*
X166278785Y-69858122D01*
X166290670Y-69845789D01*
X166326458Y-69811898D01*
X166335144Y-69799635D01*
X166345575Y-69788810D01*
X166372211Y-69747302D01*
X166400692Y-69707091D01*
X166406816Y-69693374D01*
X166414938Y-69680718D01*
X166432963Y-69634813D01*
X166439935Y-69619199D01*
X166444656Y-69605035D01*
X166461880Y-69561172D01*
X166464925Y-69544230D01*
X166586728Y-69178819D01*
X166603818Y-69135512D01*
X166612720Y-69086455D01*
X166623768Y-69037863D01*
X166624162Y-69023395D01*
X166626748Y-69009144D01*
X166625908Y-68959297D01*
X166627265Y-68909477D01*
X166624828Y-68895204D01*
X166624584Y-68880729D01*
X166614038Y-68832016D01*
X166605648Y-68782878D01*
X166589008Y-68739393D01*
X166452960Y-68316673D01*
X166434560Y-68257897D01*
X166417885Y-68227354D01*
X166404029Y-68195434D01*
X166387187Y-68171124D01*
X166373017Y-68145170D01*
X166350707Y-68118471D01*
X166330887Y-68089863D01*
X166286605Y-68047048D01*
X166030641Y-67795574D01*
X166018599Y-67779991D01*
X165984953Y-67750686D01*
X165976053Y-67741943D01*
X165960785Y-67729637D01*
X165921749Y-67695639D01*
X165910868Y-67689407D01*
X165901109Y-67681541D01*
X165855234Y-67657540D01*
X165838225Y-67647797D01*
X165826855Y-67642692D01*
X165787309Y-67622002D01*
X165768408Y-67616451D01*
X165347865Y-67427635D01*
X165327358Y-67415196D01*
X165289433Y-67401400D01*
X165281960Y-67398045D01*
X165259320Y-67390446D01*
X165206662Y-67371291D01*
X165198519Y-67370039D01*
X165190707Y-67367417D01*
X165135128Y-67360293D01*
X165111525Y-67356664D01*
X165103344Y-67356219D01*
X165063316Y-67351088D01*
X165039391Y-67352738D01*
X164354251Y-67315452D01*
X164311873Y-67310328D01*
X164258325Y-67314406D01*
X164204653Y-67316759D01*
X164163186Y-67326914D01*
X162407319Y-67635906D01*
X162385388Y-67636889D01*
X162344241Y-67647007D01*
X162334182Y-67648777D01*
X162313143Y-67654654D01*
X162291917Y-67659873D01*
X162282280Y-67663274D01*
X162241475Y-67674672D01*
X162221892Y-67684588D01*
X161176442Y-68053570D01*
X161152485Y-68058871D01*
X161116045Y-68074887D01*
X161108845Y-68077428D01*
X161086734Y-68087770D01*
X161034907Y-68110548D01*
X161028607Y-68114956D01*
X161021655Y-68118207D01*
X160976083Y-68151701D01*
X160956037Y-68165725D01*
X160950233Y-68170700D01*
X160918166Y-68194268D01*
X160901610Y-68212377D01*
X159595192Y-69332165D01*
X157827958Y-70673157D01*
X155642654Y-71346998D01*
X154667194Y-71399255D01*
X153713068Y-71208430D01*
X152850151Y-70786152D01*
X152837991Y-70779341D01*
X152821398Y-70772081D01*
X152805145Y-70764128D01*
X152792098Y-70759263D01*
X151882952Y-70361512D01*
X151874579Y-70356046D01*
X151824229Y-70335820D01*
X151803956Y-70326951D01*
X151794494Y-70323876D01*
X151785261Y-70320167D01*
X151764015Y-70313970D01*
X151712414Y-70297200D01*
X151702485Y-70296024D01*
X151312031Y-70182141D01*
X151296448Y-70175033D01*
X151250529Y-70164203D01*
X151236098Y-70159994D01*
X151219341Y-70156847D01*
X151171444Y-70145551D01*
X151156345Y-70145018D01*
X151141496Y-70142230D01*
X151092284Y-70142758D01*
X151075249Y-70142157D01*
X151060251Y-70143102D01*
X151013071Y-70143608D01*
X150996309Y-70147130D01*
X150427462Y-70182962D01*
X150392677Y-70182015D01*
X150332007Y-70192375D01*
X150271163Y-70202262D01*
X150268685Y-70203188D01*
X150266076Y-70203633D01*
X150208472Y-70225676D01*
X150150847Y-70247197D01*
X150121252Y-70265496D01*
X149620493Y-70515877D01*
X149604023Y-70521337D01*
X149563167Y-70544539D01*
X149549936Y-70551155D01*
X149535345Y-70560340D01*
X149520323Y-70568871D01*
X149508215Y-70577418D01*
X149468476Y-70602433D01*
X149455884Y-70614357D01*
X148842105Y-71047613D01*
X148827221Y-71055158D01*
X148789752Y-71084569D01*
X148777122Y-71093484D01*
X148764572Y-71104333D01*
X148751505Y-71114590D01*
X148740323Y-71125296D01*
X148704304Y-71156434D01*
X148694056Y-71169594D01*
X147777055Y-72047574D01*
X147757419Y-72065783D01*
X147753967Y-72069681D01*
X147750206Y-72073281D01*
X147732779Y-72093599D01*
X145304258Y-74835152D01*
X145294003Y-74845552D01*
X145283026Y-74859121D01*
X145271473Y-74872163D01*
X145262921Y-74883973D01*
X143823985Y-76662659D01*
X143573919Y-76934160D01*
X143515219Y-76934160D01*
X143336124Y-76969784D01*
X143167421Y-77039664D01*
X143015592Y-77141112D01*
X142886472Y-77270232D01*
X142785024Y-77422061D01*
X142715144Y-77590764D01*
X142679520Y-77769859D01*
X136037999Y-77769859D01*
X133709580Y-73759805D01*
X134743433Y-73759805D01*
X134978526Y-74118325D01*
X135440534Y-74372525D01*
X135943257Y-74531708D01*
X136467376Y-74589756D01*
X136992748Y-74544437D01*
X137499184Y-74397495D01*
X137967222Y-74154575D01*
X138021474Y-74118325D01*
X138256567Y-73759805D01*
X136500000Y-72003238D01*
X134743433Y-73759805D01*
X133709580Y-73759805D01*
X132634106Y-71907600D01*
X132657461Y-71867376D01*
X133810244Y-71867376D01*
X133855563Y-72392748D01*
X134002505Y-72899184D01*
X134245425Y-73367222D01*
X134281675Y-73421474D01*
X134640195Y-73656567D01*
X136396762Y-71900000D01*
X136603238Y-71900000D01*
X138359805Y-73656567D01*
X138718325Y-73421474D01*
X138972525Y-72959466D01*
X139131708Y-72456743D01*
X139189756Y-71932624D01*
X139144437Y-71407252D01*
X138997495Y-70900816D01*
X138754575Y-70432778D01*
X138718325Y-70378526D01*
X138359805Y-70143433D01*
X136603238Y-71900000D01*
X136396762Y-71900000D01*
X134640195Y-70143433D01*
X134281675Y-70378526D01*
X134027475Y-70840534D01*
X133868292Y-71343257D01*
X133810244Y-71867376D01*
X132657461Y-71867376D01*
X133718404Y-70040195D01*
X134743433Y-70040195D01*
X136500000Y-71796762D01*
X138256567Y-70040195D01*
X138021474Y-69681675D01*
X137709054Y-69509779D01*
X147078800Y-69509779D01*
X147078800Y-69692381D01*
X147114424Y-69871476D01*
X147184304Y-70040179D01*
X147285752Y-70192008D01*
X147414872Y-70321128D01*
X147566701Y-70422576D01*
X147735404Y-70492456D01*
X147914499Y-70528080D01*
X148097101Y-70528080D01*
X148276196Y-70492456D01*
X148444899Y-70422576D01*
X148596728Y-70321128D01*
X148725848Y-70192008D01*
X148827296Y-70040179D01*
X148894744Y-69877346D01*
X150861767Y-68866624D01*
X154700229Y-67099239D01*
X157413362Y-66516814D01*
X159343528Y-66447879D01*
X161425248Y-66397352D01*
X161449624Y-66397330D01*
X161457210Y-66396576D01*
X161464832Y-66396391D01*
X161489028Y-66393413D01*
X163117953Y-66231502D01*
X164826138Y-66325616D01*
X165811889Y-66648461D01*
X166228290Y-66948411D01*
X166522218Y-67407675D01*
X166703086Y-67967504D01*
X166705647Y-67977682D01*
X166712916Y-67997930D01*
X166713025Y-67998269D01*
X166658624Y-68129604D01*
X166623000Y-68308699D01*
X166623000Y-68491301D01*
X166658624Y-68670396D01*
X166728504Y-68839099D01*
X166829952Y-68990928D01*
X166959072Y-69120048D01*
X167110901Y-69221496D01*
X167279604Y-69291376D01*
X167458699Y-69327000D01*
X167641301Y-69327000D01*
X167820396Y-69291376D01*
X167989099Y-69221496D01*
X168140928Y-69120048D01*
X168270048Y-68990928D01*
X168371496Y-68839099D01*
X168441376Y-68670396D01*
X168477000Y-68491301D01*
X168477000Y-68308699D01*
X168441376Y-68129604D01*
X168371496Y-67960901D01*
X168270048Y-67809072D01*
X168140928Y-67679952D01*
X167989099Y-67578504D01*
X167941390Y-67558742D01*
X167740955Y-66938349D01*
X167726872Y-66888397D01*
X167706677Y-66848751D01*
X167688912Y-66807952D01*
X167659309Y-66765326D01*
X167279510Y-66171891D01*
X167267572Y-66147531D01*
X167244982Y-66117940D01*
X167242259Y-66113686D01*
X167225543Y-66092478D01*
X167189638Y-66045446D01*
X167185825Y-66042085D01*
X167182675Y-66038089D01*
X167137674Y-65999647D01*
X167117427Y-65981802D01*
X167113328Y-65978849D01*
X167085022Y-65954669D01*
X167061359Y-65941414D01*
X166540577Y-65566274D01*
X166537574Y-65563136D01*
X166488586Y-65528823D01*
X166466022Y-65512569D01*
X166462274Y-65510393D01*
X166432379Y-65489453D01*
X166406880Y-65478228D01*
X166382781Y-65464235D01*
X166348243Y-65452416D01*
X166344282Y-65450672D01*
X166317882Y-65442026D01*
X166261266Y-65422651D01*
X166256961Y-65422073D01*
X165160753Y-65063054D01*
X165110570Y-65044760D01*
X165068092Y-65038200D01*
X165026128Y-65028890D01*
X164972721Y-65027716D01*
X163185200Y-64929230D01*
X163167190Y-64925664D01*
X163121231Y-64925705D01*
X163107454Y-64924946D01*
X163089206Y-64925734D01*
X163070935Y-64925750D01*
X163057200Y-64927115D01*
X163011289Y-64929097D01*
X162993456Y-64933451D01*
X161376796Y-65094144D01*
X159336492Y-65143666D01*
X159332771Y-65143433D01*
X159304535Y-65144441D01*
X159276207Y-65145129D01*
X159272496Y-65145586D01*
X157348136Y-65214313D01*
X157322780Y-65212202D01*
X157284129Y-65216599D01*
X157277408Y-65216839D01*
X157252336Y-65220216D01*
X157227141Y-65223082D01*
X157220551Y-65224497D01*
X157182014Y-65229687D01*
X157157953Y-65237935D01*
X154379842Y-65834309D01*
X154340314Y-65839758D01*
X154286936Y-65858240D01*
X154233127Y-65875455D01*
X154198222Y-65894796D01*
X150319891Y-67680539D01*
X150306778Y-67685723D01*
X150290789Y-67693939D01*
X150274504Y-67701437D01*
X150262369Y-67708542D01*
X148297102Y-68718363D01*
X148276196Y-68709704D01*
X148097101Y-68674080D01*
X147914499Y-68674080D01*
X147735404Y-68709704D01*
X147566701Y-68779584D01*
X147414872Y-68881032D01*
X147285752Y-69010152D01*
X147184304Y-69161981D01*
X147114424Y-69330684D01*
X147078800Y-69509779D01*
X137709054Y-69509779D01*
X137559466Y-69427475D01*
X137056743Y-69268292D01*
X136532624Y-69210244D01*
X136007252Y-69255563D01*
X135500816Y-69402505D01*
X135032778Y-69645425D01*
X134978526Y-69681675D01*
X134743433Y-70040195D01*
X133718404Y-70040195D01*
X138489993Y-61822459D01*
X143873000Y-61822459D01*
X143873000Y-62044459D01*
X143916310Y-62262193D01*
X144001266Y-62467294D01*
X144124602Y-62651880D01*
X144281579Y-62808857D01*
X144466165Y-62932193D01*
X144671266Y-63017149D01*
X144889000Y-63060459D01*
X145111000Y-63060459D01*
X145328734Y-63017149D01*
X145533835Y-62932193D01*
X145718421Y-62808857D01*
X145875398Y-62651880D01*
X145998734Y-62467294D01*
X146083690Y-62262193D01*
X146127000Y-62044459D01*
X146127000Y-61822459D01*
X146083690Y-61604725D01*
X145998734Y-61399624D01*
X145875398Y-61215038D01*
X145718421Y-61058061D01*
X145533835Y-60934725D01*
X145328734Y-60849769D01*
X145111000Y-60806459D01*
X144889000Y-60806459D01*
X144671266Y-60849769D01*
X144466165Y-60934725D01*
X144281579Y-61058061D01*
X144124602Y-61215038D01*
X144001266Y-61399624D01*
X143916310Y-61604725D01*
X143873000Y-61822459D01*
X138489993Y-61822459D01*
X139921159Y-59357672D01*
X163624027Y-59357672D01*
X163624027Y-59540274D01*
X163659651Y-59719369D01*
X163729531Y-59888072D01*
X163830979Y-60039901D01*
X163960099Y-60169021D01*
X164111928Y-60270469D01*
X164280631Y-60340349D01*
X164459726Y-60375973D01*
X164642328Y-60375973D01*
X164821423Y-60340349D01*
X164879607Y-60316248D01*
X166579524Y-61093836D01*
X166599097Y-61105975D01*
X166637750Y-61120470D01*
X166646065Y-61124274D01*
X166667773Y-61131729D01*
X166689224Y-61139774D01*
X166698044Y-61142126D01*
X166737101Y-61155540D01*
X166759930Y-61158629D01*
X168854732Y-61717243D01*
X168883902Y-61725062D01*
X168884298Y-61725127D01*
X168884705Y-61725236D01*
X168915807Y-61730332D01*
X170588387Y-62006630D01*
X170601978Y-62011081D01*
X170651592Y-62017071D01*
X170669209Y-62019981D01*
X170683424Y-62020914D01*
X170697540Y-62022618D01*
X170715362Y-62023010D01*
X170765258Y-62026284D01*
X170779441Y-62024418D01*
X172493263Y-62062085D01*
X173499419Y-62354195D01*
X174164610Y-63063733D01*
X174216316Y-63320972D01*
X174155264Y-63468364D01*
X174119640Y-63647459D01*
X174119640Y-63830061D01*
X174155264Y-64009156D01*
X174225144Y-64177859D01*
X174326592Y-64329688D01*
X174455712Y-64458808D01*
X174607541Y-64560256D01*
X174776244Y-64630136D01*
X174955339Y-64665760D01*
X175137941Y-64665760D01*
X175317036Y-64630136D01*
X175485739Y-64560256D01*
X175637568Y-64458808D01*
X175766688Y-64329688D01*
X175868136Y-64177859D01*
X175938016Y-64009156D01*
X175973640Y-63830061D01*
X175973640Y-63647459D01*
X175938016Y-63468364D01*
X175868136Y-63299661D01*
X175766688Y-63147832D01*
X175637568Y-63018712D01*
X175485739Y-62917264D01*
X175463389Y-62908006D01*
X175414974Y-62667140D01*
X175413592Y-62646208D01*
X175402348Y-62604324D01*
X175400144Y-62593361D01*
X175394051Y-62573420D01*
X175380292Y-62522169D01*
X175375306Y-62512070D01*
X175372017Y-62501307D01*
X175354611Y-62468899D01*
X178021080Y-62468899D01*
X178021080Y-62651501D01*
X178056704Y-62830596D01*
X178126584Y-62999299D01*
X178228032Y-63151128D01*
X178357152Y-63280248D01*
X178508981Y-63381696D01*
X178677684Y-63451576D01*
X178856779Y-63487200D01*
X179039381Y-63487200D01*
X179218476Y-63451576D01*
X179387179Y-63381696D01*
X179539008Y-63280248D01*
X179668128Y-63151128D01*
X179769576Y-62999299D01*
X179839456Y-62830596D01*
X179875080Y-62651501D01*
X179875080Y-62468899D01*
X179839456Y-62289804D01*
X179769576Y-62121101D01*
X179668128Y-61969272D01*
X179539008Y-61840152D01*
X179387179Y-61738704D01*
X179218476Y-61668824D01*
X179039381Y-61633200D01*
X178856779Y-61633200D01*
X178677684Y-61668824D01*
X178508981Y-61738704D01*
X178357152Y-61840152D01*
X178228032Y-61969272D01*
X178126584Y-62121101D01*
X178056704Y-62289804D01*
X178021080Y-62468899D01*
X175354611Y-62468899D01*
X175346927Y-62454593D01*
X175323432Y-62407008D01*
X175316571Y-62398075D01*
X175311246Y-62388161D01*
X175277521Y-62347234D01*
X175264799Y-62330671D01*
X175257142Y-62322503D01*
X175229571Y-62289045D01*
X175213331Y-62275772D01*
X174362480Y-61368198D01*
X174354269Y-61356223D01*
X174318656Y-61321453D01*
X174306597Y-61308590D01*
X174295727Y-61299067D01*
X174262373Y-61266502D01*
X174247524Y-61256835D01*
X174234197Y-61245159D01*
X174193815Y-61221870D01*
X174154739Y-61196431D01*
X174138288Y-61189846D01*
X174122940Y-61180995D01*
X174078782Y-61166029D01*
X174065376Y-61160663D01*
X174048459Y-61155752D01*
X174001305Y-61139770D01*
X173986906Y-61137881D01*
X172785385Y-60789053D01*
X172734902Y-60772519D01*
X172691942Y-60767333D01*
X172649407Y-60759400D01*
X172596287Y-60760036D01*
X170804474Y-60720655D01*
X169159211Y-60448870D01*
X167109332Y-59902235D01*
X165422554Y-59130658D01*
X165372523Y-59009874D01*
X165271075Y-58858045D01*
X165141955Y-58728925D01*
X164990126Y-58627477D01*
X164821423Y-58557597D01*
X164642328Y-58521973D01*
X164459726Y-58521973D01*
X164280631Y-58557597D01*
X164111928Y-58627477D01*
X163960099Y-58728925D01*
X163830979Y-58858045D01*
X163729531Y-59009874D01*
X163659651Y-59178577D01*
X163624027Y-59357672D01*
X139921159Y-59357672D01*
X142512821Y-54894256D01*
X147873000Y-54894256D01*
X147873000Y-55116256D01*
X147916310Y-55333990D01*
X148001266Y-55539091D01*
X148124602Y-55723677D01*
X148281579Y-55880654D01*
X148466165Y-56003990D01*
X148671266Y-56088946D01*
X148889000Y-56132256D01*
X149111000Y-56132256D01*
X149328734Y-56088946D01*
X149533835Y-56003990D01*
X149718421Y-55880654D01*
X149875398Y-55723677D01*
X149931029Y-55640419D01*
X191083693Y-55640419D01*
X191155007Y-55713407D01*
X191322580Y-55834462D01*
X191510549Y-55920499D01*
X191711692Y-55968212D01*
X191918278Y-55975767D01*
X192122368Y-55942874D01*
X192316119Y-55870797D01*
X192684180Y-55658297D01*
X192194680Y-54810458D01*
X191095391Y-55445133D01*
X191083693Y-55640419D01*
X149931029Y-55640419D01*
X149998734Y-55539091D01*
X150083690Y-55333990D01*
X150127000Y-55116256D01*
X150127000Y-54927277D01*
X190798817Y-54927277D01*
X190819867Y-55132927D01*
X190847419Y-55231181D01*
X191022391Y-55318693D01*
X192121680Y-54684018D01*
X191632180Y-53836179D01*
X191264119Y-54048679D01*
X191104823Y-54180434D01*
X190974292Y-54340735D01*
X190877542Y-54523421D01*
X190818291Y-54721472D01*
X190798817Y-54927277D01*
X150127000Y-54927277D01*
X150127000Y-54894256D01*
X150083690Y-54676522D01*
X149998734Y-54471421D01*
X149875398Y-54286835D01*
X149718421Y-54129858D01*
X149533835Y-54006522D01*
X149328734Y-53921566D01*
X149111000Y-53878256D01*
X148889000Y-53878256D01*
X148671266Y-53921566D01*
X148466165Y-54006522D01*
X148281579Y-54129858D01*
X148124602Y-54286835D01*
X148001266Y-54471421D01*
X147916310Y-54676522D01*
X147873000Y-54894256D01*
X142512821Y-54894256D01*
X143181341Y-53742916D01*
X180890544Y-53742916D01*
X180893278Y-53826401D01*
X180894747Y-53871279D01*
X180923910Y-53996356D01*
X180976915Y-54113341D01*
X181051725Y-54217737D01*
X181145463Y-54305532D01*
X181254528Y-54373353D01*
X181374729Y-54418594D01*
X181406483Y-54423837D01*
X182038549Y-54593198D01*
X182068669Y-54604535D01*
X182195386Y-54625456D01*
X182319548Y-54621391D01*
X182323751Y-54621253D01*
X182448828Y-54592090D01*
X182565813Y-54539085D01*
X182670209Y-54464276D01*
X182758004Y-54370537D01*
X182825825Y-54261472D01*
X182871066Y-54141271D01*
X182891987Y-54014554D01*
X182887785Y-53886189D01*
X182859850Y-53766384D01*
X182910591Y-53712208D01*
X182943945Y-53676597D01*
X183011766Y-53567532D01*
X183057007Y-53447331D01*
X183062250Y-53415574D01*
X183231612Y-52783507D01*
X183242948Y-52753389D01*
X183263869Y-52626671D01*
X183259666Y-52498308D01*
X183244590Y-52433649D01*
X183230503Y-52373231D01*
X183177498Y-52256246D01*
X183158754Y-52230089D01*
X182936775Y-51845611D01*
X182923497Y-51816306D01*
X182848688Y-51711910D01*
X182754950Y-51624114D01*
X182645885Y-51556293D01*
X182525684Y-51511052D01*
X182398966Y-51490131D01*
X182270603Y-51494334D01*
X182145525Y-51523498D01*
X182057849Y-51563223D01*
X182057846Y-51563225D01*
X182028542Y-51576502D01*
X182002391Y-51595242D01*
X181617914Y-51817220D01*
X181588601Y-51830502D01*
X181484204Y-51905311D01*
X181396409Y-51999049D01*
X181355986Y-52064055D01*
X181328588Y-52108115D01*
X181283347Y-52228316D01*
X181278105Y-52260068D01*
X181108742Y-52892140D01*
X181097406Y-52922257D01*
X181076485Y-53048975D01*
X181080494Y-53171412D01*
X181080688Y-53177338D01*
X181108622Y-53297144D01*
X181029531Y-53381589D01*
X181024527Y-53386932D01*
X180956706Y-53495997D01*
X180911465Y-53616198D01*
X180890544Y-53742916D01*
X143181341Y-53742916D01*
X147352180Y-46559805D01*
X150493433Y-46559805D01*
X150728526Y-46918325D01*
X151190534Y-47172525D01*
X151693257Y-47331708D01*
X152217376Y-47389756D01*
X152742748Y-47344437D01*
X153249184Y-47197495D01*
X153717222Y-46954575D01*
X153771474Y-46918325D01*
X154006567Y-46559805D01*
X181993433Y-46559805D01*
X182228526Y-46918325D01*
X182690534Y-47172525D01*
X183193257Y-47331708D01*
X183717376Y-47389756D01*
X184242748Y-47344437D01*
X184749184Y-47197495D01*
X185217222Y-46954575D01*
X185271474Y-46918325D01*
X185506567Y-46559805D01*
X183750000Y-44803238D01*
X181993433Y-46559805D01*
X154006567Y-46559805D01*
X152250000Y-44803238D01*
X150493433Y-46559805D01*
X147352180Y-46559805D01*
X148451010Y-44667376D01*
X149560244Y-44667376D01*
X149605563Y-45192748D01*
X149752505Y-45699184D01*
X149995425Y-46167222D01*
X150031675Y-46221474D01*
X150390195Y-46456567D01*
X152146762Y-44700000D01*
X152353238Y-44700000D01*
X154109805Y-46456567D01*
X154468325Y-46221474D01*
X154722525Y-45759466D01*
X154881708Y-45256743D01*
X154939756Y-44732624D01*
X154934128Y-44667376D01*
X181060244Y-44667376D01*
X181105563Y-45192748D01*
X181252505Y-45699184D01*
X181495425Y-46167222D01*
X181531675Y-46221474D01*
X181890195Y-46456567D01*
X183646762Y-44700000D01*
X183853238Y-44700000D01*
X185609805Y-46456567D01*
X185968325Y-46221474D01*
X186222525Y-45759466D01*
X186381708Y-45256743D01*
X186439756Y-44732624D01*
X186394437Y-44207252D01*
X186247495Y-43700816D01*
X186004575Y-43232778D01*
X185968325Y-43178526D01*
X185609805Y-42943433D01*
X183853238Y-44700000D01*
X183646762Y-44700000D01*
X181890195Y-42943433D01*
X181531675Y-43178526D01*
X181277475Y-43640534D01*
X181118292Y-44143257D01*
X181060244Y-44667376D01*
X154934128Y-44667376D01*
X154894437Y-44207252D01*
X154747495Y-43700816D01*
X154504575Y-43232778D01*
X154468325Y-43178526D01*
X154109805Y-42943433D01*
X152353238Y-44700000D01*
X152146762Y-44700000D01*
X150390195Y-42943433D01*
X150031675Y-43178526D01*
X149777475Y-43640534D01*
X149618292Y-44143257D01*
X149560244Y-44667376D01*
X148451010Y-44667376D01*
X149511954Y-42840195D01*
X150493433Y-42840195D01*
X152250000Y-44596762D01*
X154006567Y-42840195D01*
X181993433Y-42840195D01*
X183750000Y-44596762D01*
X185506567Y-42840195D01*
X185271474Y-42481675D01*
X184809466Y-42227475D01*
X184306743Y-42068292D01*
X183782624Y-42010244D01*
X183257252Y-42055563D01*
X182750816Y-42202505D01*
X182282778Y-42445425D01*
X182228526Y-42481675D01*
X181993433Y-42840195D01*
X154006567Y-42840195D01*
X153771474Y-42481675D01*
X153309466Y-42227475D01*
X152806743Y-42068292D01*
X152282624Y-42010244D01*
X151757252Y-42055563D01*
X151250816Y-42202505D01*
X150782778Y-42445425D01*
X150728526Y-42481675D01*
X150493433Y-42840195D01*
X149511954Y-42840195D01*
X150313590Y-41459600D01*
X185678011Y-41459600D01*
X192640142Y-53449937D01*
G37*
X192640142Y-53449937D02*
X192524522Y-53445709D01*
X192320432Y-53478602D01*
X192126681Y-53550679D01*
X191758620Y-53763179D01*
X192248120Y-54611018D01*
X192265440Y-54601018D01*
X192338440Y-54727458D01*
X192321120Y-54737458D01*
X192810620Y-55585297D01*
X193178681Y-55372797D01*
X193337977Y-55241042D01*
X193468508Y-55080741D01*
X193525059Y-54973960D01*
X196235987Y-59642782D01*
X196099522Y-59637791D01*
X195895432Y-59670684D01*
X195701681Y-59742761D01*
X195333620Y-59955261D01*
X195823120Y-60803100D01*
X195840440Y-60793100D01*
X195913440Y-60919540D01*
X195896120Y-60929540D01*
X196385620Y-61777379D01*
X196753681Y-61564879D01*
X196912977Y-61433124D01*
X197043508Y-61272823D01*
X197109791Y-61147666D01*
X203357494Y-71907600D01*
X185678011Y-102355600D01*
X150313590Y-102355600D01*
X149445065Y-100859805D01*
X150493433Y-100859805D01*
X150728526Y-101218325D01*
X151190534Y-101472525D01*
X151693257Y-101631708D01*
X152217376Y-101689756D01*
X152742748Y-101644437D01*
X153249184Y-101497495D01*
X153717222Y-101254575D01*
X153771474Y-101218325D01*
X154006567Y-100859805D01*
X181993433Y-100859805D01*
X182228526Y-101218325D01*
X182690534Y-101472525D01*
X183193257Y-101631708D01*
X183717376Y-101689756D01*
X184242748Y-101644437D01*
X184749184Y-101497495D01*
X185217222Y-101254575D01*
X185271474Y-101218325D01*
X185506567Y-100859805D01*
X183750000Y-99103238D01*
X181993433Y-100859805D01*
X154006567Y-100859805D01*
X152250000Y-99103238D01*
X150493433Y-100859805D01*
X149445065Y-100859805D01*
X148346235Y-98967376D01*
X149560244Y-98967376D01*
X149605563Y-99492748D01*
X149752505Y-99999184D01*
X149995425Y-100467222D01*
X150031675Y-100521474D01*
X150390195Y-100756567D01*
X152146762Y-99000000D01*
X152353238Y-99000000D01*
X154109805Y-100756567D01*
X154468325Y-100521474D01*
X154722525Y-100059466D01*
X154881708Y-99556743D01*
X154939756Y-99032624D01*
X154894437Y-98507252D01*
X154747495Y-98000816D01*
X154504575Y-97532778D01*
X154468325Y-97478526D01*
X154109805Y-97243433D01*
X152353238Y-99000000D01*
X152146762Y-99000000D01*
X150390195Y-97243433D01*
X150031675Y-97478526D01*
X149777475Y-97940534D01*
X149618292Y-98443257D01*
X149560244Y-98967376D01*
X148346235Y-98967376D01*
X147285292Y-97140195D01*
X150493433Y-97140195D01*
X152250000Y-98896762D01*
X154006567Y-97140195D01*
X153771474Y-96781675D01*
X153309466Y-96527475D01*
X152806743Y-96368292D01*
X152282624Y-96310244D01*
X151757252Y-96355563D01*
X151250816Y-96502505D01*
X150782778Y-96745425D01*
X150728526Y-96781675D01*
X150493433Y-97140195D01*
X147285292Y-97140195D01*
X136037999Y-77769859D01*
X142679520Y-77769859D01*
X142679520Y-77952461D01*
X142715144Y-78131556D01*
X142785024Y-78300259D01*
X142886472Y-78452088D01*
X143015592Y-78581208D01*
X143167421Y-78682656D01*
X143336124Y-78752536D01*
X143515219Y-78788160D01*
X143697821Y-78788160D01*
X143876916Y-78752536D01*
X144045619Y-78682656D01*
X144197448Y-78581208D01*
X144326568Y-78452088D01*
X144428016Y-78300259D01*
X144497896Y-78131556D01*
X144533520Y-77952461D01*
X144533520Y-77817098D01*
X144789804Y-77538848D01*
X144804476Y-77523968D01*
X144811458Y-77515338D01*
X144818989Y-77507161D01*
X144831590Y-77490453D01*
X146278505Y-75701905D01*
X148694520Y-72974472D01*
X149595039Y-72112275D01*
X150205860Y-71681107D01*
X150612264Y-71477905D01*
X151011326Y-71452768D01*
X151349095Y-71551284D01*
X152273244Y-71955599D01*
X153205023Y-72411577D01*
X153251011Y-72436220D01*
X153293297Y-72449096D01*
X153334723Y-72464543D01*
X153386238Y-72472887D01*
X154478171Y-72691274D01*
X154526703Y-72703202D01*
X154573080Y-72705274D01*
X154586874Y-72706648D01*
X154568553Y-72728633D01*
X154542835Y-72754661D01*
X154509900Y-72804598D01*
X154476304Y-72854070D01*
X154474573Y-72858162D01*
X154472124Y-72861875D01*
X154449570Y-72917264D01*
X154426264Y-72972354D01*
X154425363Y-72976711D01*
X154423688Y-72980825D01*
X154412381Y-73039506D01*
X154400262Y-73098126D01*
X154399987Y-73134723D01*
X154348068Y-73696395D01*
X154341287Y-73744676D01*
X154343993Y-73792250D01*
X154344279Y-73839886D01*
X154354075Y-73887635D01*
X154449009Y-74495214D01*
X154451549Y-74531537D01*
X154467321Y-74589390D01*
X154482350Y-74647479D01*
X154498174Y-74680277D01*
X154698719Y-75206150D01*
X154701459Y-75219111D01*
X154721556Y-75266034D01*
X154728287Y-75283683D01*
X154734167Y-75295477D01*
X154739356Y-75307592D01*
X154748459Y-75324142D01*
X154771235Y-75369826D01*
X154779347Y-75380302D01*
X154974520Y-75735163D01*
X155728846Y-77188623D01*
X155711935Y-78626097D01*
X155484962Y-79170164D01*
X154674761Y-79765415D01*
X153444935Y-80411193D01*
X153429631Y-80416547D01*
X153388199Y-80440984D01*
X153374094Y-80448391D01*
X153360624Y-80457249D01*
X153346723Y-80465448D01*
X153333845Y-80474859D01*
X153293670Y-80501278D01*
X153282126Y-80512654D01*
X152281184Y-81244111D01*
X152244731Y-81267306D01*
X152206257Y-81304095D01*
X152166601Y-81339532D01*
X152159933Y-81348392D01*
X152151906Y-81356067D01*
X152121344Y-81399663D01*
X152089367Y-81442148D01*
X152070626Y-81481059D01*
X151481820Y-82525716D01*
X151480875Y-82526826D01*
X151450395Y-82581469D01*
X151435286Y-82608276D01*
X151434697Y-82609613D01*
X151418311Y-82638989D01*
X151408864Y-82668234D01*
X151396470Y-82696358D01*
X151389171Y-82729194D01*
X151378831Y-82761203D01*
X151375270Y-82791731D01*
X151368602Y-82821731D01*
X151367849Y-82855362D01*
X151367680Y-82856811D01*
X151367130Y-82887465D01*
X151365727Y-82950130D01*
X151365980Y-82951571D01*
X151346788Y-84021507D01*
X151345545Y-84084752D01*
X151351303Y-84116995D01*
X151353927Y-84149629D01*
X151362562Y-84180051D01*
X151368122Y-84211185D01*
X151380055Y-84241676D01*
X151388998Y-84273181D01*
X151417817Y-84329504D01*
X152078197Y-85625625D01*
X152084621Y-85644107D01*
X152107276Y-85682697D01*
X152112996Y-85693924D01*
X152123501Y-85710335D01*
X152149643Y-85754865D01*
X152158061Y-85764324D01*
X152164890Y-85774993D01*
X152200698Y-85812236D01*
X152213632Y-85826771D01*
X152222876Y-85835304D01*
X152253904Y-85867576D01*
X152269964Y-85878769D01*
X153780331Y-87272955D01*
X154953435Y-88811765D01*
X155797146Y-90733043D01*
X155724026Y-92871820D01*
X155390822Y-93914362D01*
X155380340Y-93937287D01*
X155371322Y-93975375D01*
X155369201Y-93982010D01*
X155363943Y-94006539D01*
X155358162Y-94030953D01*
X155357229Y-94037857D01*
X155349025Y-94076127D01*
X155348651Y-94101332D01*
X155109194Y-95873312D01*
X155102998Y-95896977D01*
X155100618Y-95936776D01*
X155099585Y-95944420D01*
X155098704Y-95968773D01*
X155097252Y-95993061D01*
X155097548Y-96000757D01*
X155096107Y-96040611D01*
X155100010Y-96064765D01*
X155146268Y-97267473D01*
X155145363Y-97273992D01*
X155148732Y-97331540D01*
X155149713Y-97357056D01*
X155150605Y-97363544D01*
X155152868Y-97402204D01*
X155159331Y-97427017D01*
X155162823Y-97452415D01*
X155175479Y-97489009D01*
X155177131Y-97495352D01*
X155185966Y-97519332D01*
X155204801Y-97573794D01*
X155208122Y-97579472D01*
X155528719Y-98449663D01*
X155538489Y-98485118D01*
X155565251Y-98538431D01*
X155591240Y-98592071D01*
X155594031Y-98595761D01*
X155596109Y-98599901D01*
X155632750Y-98646957D01*
X155668712Y-98694508D01*
X155696191Y-98718948D01*
X156606111Y-99676760D01*
X156626745Y-99703051D01*
X156674340Y-99743880D01*
X156722172Y-99785231D01*
X156723273Y-99785856D01*
X156724225Y-99786673D01*
X156778953Y-99817478D01*
X156833851Y-99848657D01*
X156865583Y-99859178D01*
X158061308Y-100385298D01*
X158092580Y-100402462D01*
X158150498Y-100420736D01*
X158208204Y-100439625D01*
X158243621Y-100443895D01*
X159631574Y-100736029D01*
X159663759Y-100746019D01*
X159726175Y-100752573D01*
X159788435Y-100759404D01*
X159822004Y-100756474D01*
X164053936Y-100783732D01*
X164065142Y-100784520D01*
X164085946Y-100783938D01*
X164106741Y-100784072D01*
X164117918Y-100783044D01*
X166305115Y-100721863D01*
X166308482Y-100721769D01*
X168819466Y-100403402D01*
X168878254Y-100396864D01*
X168913719Y-100385617D01*
X168949982Y-100377344D01*
X169003911Y-100353219D01*
X170488459Y-99716285D01*
X170497744Y-99714032D01*
X170547346Y-99691020D01*
X170568101Y-99682115D01*
X170576438Y-99677523D01*
X170614249Y-99659981D01*
X170632555Y-99646613D01*
X170652413Y-99635675D01*
X170684304Y-99608824D01*
X170717970Y-99584239D01*
X170733318Y-99567555D01*
X170750659Y-99552954D01*
X170776702Y-99520394D01*
X170804922Y-99489717D01*
X170816715Y-99470368D01*
X170830880Y-99452658D01*
X170850075Y-99415633D01*
X170855017Y-99407524D01*
X170864802Y-99387225D01*
X170889992Y-99338636D01*
X170892653Y-99329450D01*
X171067191Y-98967376D01*
X181060244Y-98967376D01*
X181105563Y-99492748D01*
X181252505Y-99999184D01*
X181495425Y-100467222D01*
X181531675Y-100521474D01*
X181890195Y-100756567D01*
X183646762Y-99000000D01*
X183853238Y-99000000D01*
X185609805Y-100756567D01*
X185968325Y-100521474D01*
X186222525Y-100059466D01*
X186381708Y-99556743D01*
X186439756Y-99032624D01*
X186394437Y-98507252D01*
X186247495Y-98000816D01*
X186004575Y-97532778D01*
X185968325Y-97478526D01*
X185609805Y-97243433D01*
X183853238Y-99000000D01*
X183646762Y-99000000D01*
X181890195Y-97243433D01*
X181531675Y-97478526D01*
X181277475Y-97940534D01*
X181118292Y-98443257D01*
X181060244Y-98967376D01*
X171067191Y-98967376D01*
X171340224Y-98400978D01*
X171363826Y-98357065D01*
X171377440Y-98312555D01*
X171393444Y-98268848D01*
X171396185Y-98251267D01*
X171401390Y-98234249D01*
X171406059Y-98187934D01*
X171413228Y-98141948D01*
X171412486Y-98124168D01*
X171414271Y-98106464D01*
X171409816Y-98060135D01*
X171407876Y-98013627D01*
X171396121Y-97965181D01*
X171306842Y-97510896D01*
X171361496Y-97429099D01*
X171431376Y-97260396D01*
X171467000Y-97081301D01*
X171467000Y-96898699D01*
X171431376Y-96719604D01*
X171361496Y-96550901D01*
X171260048Y-96399072D01*
X171130928Y-96269952D01*
X170979099Y-96168504D01*
X170810396Y-96098624D01*
X170631301Y-96063000D01*
X170448699Y-96063000D01*
X170269604Y-96098624D01*
X170100901Y-96168504D01*
X169949072Y-96269952D01*
X169819952Y-96399072D01*
X169718504Y-96550901D01*
X169648624Y-96719604D01*
X169613000Y-96898699D01*
X169613000Y-97081301D01*
X169648624Y-97260396D01*
X169718504Y-97429099D01*
X169819952Y-97580928D01*
X169949072Y-97710048D01*
X170027311Y-97762325D01*
X170077466Y-98017530D01*
X169800251Y-98592604D01*
X168569472Y-99120661D01*
X166208005Y-99420071D01*
X164071916Y-99479822D01*
X159865660Y-99452729D01*
X158550575Y-99175931D01*
X157482484Y-98705971D01*
X156715313Y-97898424D01*
X156447543Y-97171621D01*
X156403688Y-96031361D01*
X156638467Y-94294001D01*
X156991704Y-93188776D01*
X157010382Y-93134014D01*
X157015464Y-93095846D01*
X157023535Y-93058194D01*
X157024393Y-93000353D01*
X157104981Y-90643132D01*
X157108848Y-90593066D01*
X157103350Y-90547187D01*
X157100396Y-90501096D01*
X157095727Y-90483568D01*
X157093567Y-90465545D01*
X157079226Y-90421626D01*
X157067336Y-90376991D01*
X157045196Y-90331930D01*
X156123560Y-88233206D01*
X156107617Y-88190441D01*
X156080932Y-88147225D01*
X156056064Y-88102971D01*
X156026389Y-88068329D01*
X154806715Y-86468433D01*
X154794117Y-86446974D01*
X154767875Y-86417485D01*
X154763457Y-86411690D01*
X154746607Y-86393586D01*
X154730128Y-86375068D01*
X154724761Y-86370114D01*
X154697878Y-86341230D01*
X154677707Y-86326679D01*
X153207374Y-84969450D01*
X152653493Y-83882356D01*
X152667938Y-83077045D01*
X153147594Y-82226043D01*
X154051347Y-81565609D01*
X155282651Y-80919056D01*
X155298724Y-80913387D01*
X155339357Y-80889281D01*
X155352746Y-80882250D01*
X155366936Y-80872918D01*
X155381507Y-80864274D01*
X155393665Y-80855341D01*
X155433170Y-80829363D01*
X155445317Y-80817393D01*
X156364765Y-80141881D01*
X156379566Y-80134018D01*
X156416387Y-80103955D01*
X156428799Y-80094836D01*
X156441218Y-80083681D01*
X156479050Y-80052793D01*
X156488895Y-80040859D01*
X156500410Y-80030516D01*
X156529697Y-79991397D01*
X156560778Y-79953719D01*
X156568105Y-79940094D01*
X156577381Y-79927704D01*
X156598476Y-79883617D01*
X156606367Y-79868944D01*
X156612284Y-79854760D01*
X156632816Y-79811851D01*
X156636964Y-79795600D01*
X156950645Y-79043691D01*
X156964691Y-79018140D01*
X156975301Y-78984589D01*
X156976465Y-78981799D01*
X156984976Y-78953994D01*
X157003416Y-78895684D01*
X157003749Y-78892666D01*
X157004639Y-78889759D01*
X157010788Y-78828901D01*
X157013978Y-78800009D01*
X157014014Y-78796984D01*
X157017551Y-78761976D01*
X157014767Y-78732955D01*
X157034703Y-77038339D01*
X157035451Y-76976831D01*
X157029533Y-76945065D01*
X157026744Y-76912874D01*
X157017799Y-76882086D01*
X157011927Y-76850571D01*
X156999926Y-76820571D01*
X156990910Y-76789541D01*
X156961476Y-76732879D01*
X156139425Y-75148926D01*
X156136324Y-75141687D01*
X156124682Y-75120520D01*
X156113554Y-75099078D01*
X156109259Y-75092478D01*
X155919170Y-74746861D01*
X155731090Y-74253678D01*
X155652566Y-73751125D01*
X155682343Y-73428997D01*
X155819926Y-73263897D01*
X156001650Y-73174080D01*
X156182432Y-73174080D01*
X156257032Y-73285728D01*
X156386152Y-73414848D01*
X156537981Y-73516296D01*
X156706684Y-73586176D01*
X156885779Y-73621800D01*
X157068381Y-73621800D01*
X157161849Y-73603208D01*
X157146526Y-73714004D01*
X157143841Y-73722482D01*
X157137741Y-73777528D01*
X157134561Y-73800521D01*
X157134214Y-73809352D01*
X157129695Y-73850132D01*
X157131700Y-73873387D01*
X157130784Y-73896701D01*
X157137202Y-73937219D01*
X157140725Y-73978090D01*
X157147225Y-74000499D01*
X157150877Y-74023553D01*
X157165078Y-74062044D01*
X157167541Y-74070535D01*
X157176166Y-74092097D01*
X157195332Y-74144046D01*
X157199978Y-74151627D01*
X157559748Y-75051052D01*
X157565002Y-75071705D01*
X157583534Y-75110517D01*
X157587566Y-75120598D01*
X157597338Y-75139428D01*
X157606476Y-75158567D01*
X157612090Y-75167856D01*
X157631903Y-75206035D01*
X157645222Y-75222674D01*
X158151458Y-76060264D01*
X158153401Y-76065367D01*
X158184593Y-76115089D01*
X158198403Y-76137938D01*
X158201666Y-76142304D01*
X158204553Y-76146906D01*
X158220842Y-76167962D01*
X158256027Y-76215039D01*
X158260091Y-76218695D01*
X158446135Y-76459178D01*
X158439583Y-76492116D01*
X158439583Y-76674718D01*
X158475207Y-76853813D01*
X158545087Y-77022516D01*
X158646535Y-77174345D01*
X158775655Y-77303465D01*
X158927484Y-77404913D01*
X159096187Y-77474793D01*
X159275282Y-77510417D01*
X159457884Y-77510417D01*
X159636979Y-77474793D01*
X159805682Y-77404913D01*
X159957511Y-77303465D01*
X160086631Y-77174345D01*
X160188079Y-77022516D01*
X160257959Y-76853813D01*
X160293583Y-76674718D01*
X160293583Y-76492116D01*
X160257959Y-76313021D01*
X160188079Y-76144318D01*
X160086631Y-75992489D01*
X159957511Y-75863369D01*
X159805682Y-75761921D01*
X159636979Y-75692041D01*
X159476654Y-75660151D01*
X159278463Y-75403966D01*
X158766611Y-74557086D01*
X158454315Y-73776344D01*
X158551175Y-73075971D01*
X158747146Y-72605640D01*
X159248345Y-72390841D01*
X159327472Y-72469968D01*
X159479301Y-72571416D01*
X159648004Y-72641296D01*
X159827099Y-72676920D01*
X160009701Y-72676920D01*
X160188796Y-72641296D01*
X160357499Y-72571416D01*
X160509328Y-72469968D01*
X160638448Y-72340848D01*
X160739896Y-72189019D01*
X160747928Y-72169629D01*
X160857972Y-72351405D01*
X160867520Y-72368612D01*
X160874517Y-72378736D01*
X160880906Y-72389289D01*
X160892725Y-72405079D01*
X161801886Y-73720462D01*
X162067837Y-74357003D01*
X162336594Y-75382757D01*
X162300580Y-76328121D01*
X162292664Y-76397036D01*
X162273872Y-76409592D01*
X162144752Y-76538712D01*
X162043304Y-76690541D01*
X161973424Y-76859244D01*
X161937800Y-77038339D01*
X161937800Y-77220941D01*
X161973424Y-77400036D01*
X162043304Y-77568739D01*
X162144752Y-77720568D01*
X162273872Y-77849688D01*
X162425701Y-77951136D01*
X162594404Y-78021016D01*
X162773499Y-78056640D01*
X162956101Y-78056640D01*
X163135196Y-78021016D01*
X163303899Y-77951136D01*
X163455728Y-77849688D01*
X163584848Y-77720568D01*
X163686296Y-77568739D01*
X163756176Y-77400036D01*
X163791800Y-77220941D01*
X163791800Y-77038339D01*
X163756176Y-76859244D01*
X163686296Y-76690541D01*
X163588360Y-76543968D01*
X163598094Y-76459227D01*
X163601468Y-76434618D01*
X163601740Y-76427489D01*
X163602555Y-76420390D01*
X163602957Y-76395525D01*
X163624570Y-75828190D01*
X163750288Y-76386062D01*
X163852729Y-77261473D01*
X163834594Y-78018620D01*
X163796184Y-78252283D01*
X163796183Y-78252289D01*
X163725675Y-78681214D01*
X163527829Y-79397553D01*
X163388781Y-79490461D01*
X163259661Y-79619581D01*
X163158213Y-79771410D01*
X163088333Y-79940113D01*
X163052709Y-80119208D01*
X163052709Y-80301810D01*
X163088333Y-80480905D01*
X163119685Y-80556596D01*
X162534446Y-81699207D01*
X161826971Y-82406683D01*
X160384421Y-82853293D01*
X158933874Y-83085380D01*
X157565004Y-83184574D01*
X156531955Y-83243048D01*
X155950956Y-83206736D01*
X155949502Y-83206507D01*
X155919040Y-83204741D01*
X155888511Y-83202833D01*
X155887036Y-83202886D01*
X155238102Y-83165266D01*
X155227811Y-83163980D01*
X155206152Y-83163414D01*
X155184525Y-83162160D01*
X155174164Y-83162577D01*
X154446016Y-83143541D01*
X154409508Y-83139495D01*
X154350050Y-83144620D01*
X154290544Y-83148915D01*
X154286124Y-83150131D01*
X154281549Y-83150525D01*
X154274982Y-83152430D01*
X154163916Y-83106424D01*
X153984821Y-83070800D01*
X153802219Y-83070800D01*
X153623124Y-83106424D01*
X153454421Y-83176304D01*
X153302592Y-83277752D01*
X153173472Y-83406872D01*
X153072024Y-83558701D01*
X153002144Y-83727404D01*
X152966520Y-83906499D01*
X152966520Y-84089101D01*
X153002144Y-84268196D01*
X153072024Y-84436899D01*
X153173472Y-84588728D01*
X153302592Y-84717848D01*
X153454421Y-84819296D01*
X153623124Y-84889176D01*
X153802219Y-84924800D01*
X153984821Y-84924800D01*
X154163916Y-84889176D01*
X154332619Y-84819296D01*
X154484448Y-84717848D01*
X154613568Y-84588728D01*
X154703117Y-84454707D01*
X155151389Y-84466427D01*
X155840687Y-84506387D01*
X156432105Y-84543350D01*
X156438744Y-84544961D01*
X156496099Y-84547350D01*
X156521329Y-84548927D01*
X156528122Y-84548684D01*
X156534915Y-84548967D01*
X156560164Y-84547538D01*
X156617523Y-84545486D01*
X156624170Y-84543915D01*
X157617027Y-84487716D01*
X157622184Y-84487849D01*
X157648992Y-84485906D01*
X157675817Y-84484388D01*
X157680912Y-84483593D01*
X159052412Y-84384209D01*
X159080469Y-84382510D01*
X159084286Y-84381899D01*
X159088140Y-84381620D01*
X159115813Y-84376855D01*
X160586769Y-84141502D01*
X160601020Y-84141421D01*
X160650033Y-84131380D01*
X160667709Y-84128552D01*
X160681434Y-84124947D01*
X160695318Y-84122103D01*
X160712399Y-84116815D01*
X160760807Y-84104101D01*
X160773623Y-84097860D01*
X162365005Y-83605172D01*
X162424636Y-83587083D01*
X162454671Y-83571029D01*
X162486054Y-83557819D01*
X162511168Y-83540830D01*
X162537903Y-83526540D01*
X162564219Y-83504943D01*
X162592432Y-83485858D01*
X162636272Y-83441514D01*
X163487706Y-82590081D01*
X163492432Y-82586802D01*
X163533001Y-82544786D01*
X163551676Y-82526111D01*
X163555319Y-82521672D01*
X163581643Y-82494409D01*
X163595952Y-82472160D01*
X163612740Y-82451704D01*
X163630609Y-82418273D01*
X163633710Y-82413452D01*
X163645727Y-82389989D01*
X163673283Y-82338437D01*
X163674954Y-82332927D01*
X163958016Y-81780284D01*
X163771972Y-82546186D01*
X162427114Y-85821489D01*
X161605834Y-87343373D01*
X161617560Y-87284421D01*
X161617560Y-87101819D01*
X161581936Y-86922724D01*
X161512056Y-86754021D01*
X161410608Y-86602192D01*
X161281488Y-86473072D01*
X161129659Y-86371624D01*
X160960956Y-86301744D01*
X160781861Y-86266120D01*
X160599259Y-86266120D01*
X160420164Y-86301744D01*
X160251461Y-86371624D01*
X160099632Y-86473072D01*
X159970512Y-86602192D01*
X159869064Y-86754021D01*
X159841206Y-86821275D01*
X159120606Y-86859201D01*
X157839052Y-86313111D01*
X157451859Y-86051185D01*
X157477360Y-85922981D01*
X157477360Y-85740379D01*
X157441736Y-85561284D01*
X157371856Y-85392581D01*
X157270408Y-85240752D01*
X157141288Y-85111632D01*
X156989459Y-85010184D01*
X156820756Y-84940304D01*
X156641661Y-84904680D01*
X156459059Y-84904680D01*
X156279964Y-84940304D01*
X156111261Y-85010184D01*
X155959432Y-85111632D01*
X155830312Y-85240752D01*
X155728864Y-85392581D01*
X155658984Y-85561284D01*
X155623360Y-85740379D01*
X155623360Y-85922981D01*
X155658984Y-86102076D01*
X155728864Y-86270779D01*
X155830312Y-86422608D01*
X155959432Y-86551728D01*
X156111261Y-86653176D01*
X156250644Y-86710911D01*
X156252690Y-86714792D01*
X156261602Y-86733253D01*
X156267629Y-86743129D01*
X156288030Y-86781826D01*
X156301009Y-86797827D01*
X156311744Y-86815417D01*
X156341382Y-86847597D01*
X156368939Y-86881570D01*
X156384792Y-86894733D01*
X156398751Y-86909889D01*
X156434096Y-86935668D01*
X156442996Y-86943058D01*
X156459977Y-86954545D01*
X156502515Y-86985571D01*
X156513067Y-86990459D01*
X157132688Y-87409616D01*
X157156244Y-87429350D01*
X157185721Y-87445491D01*
X157186921Y-87446303D01*
X157213966Y-87460958D01*
X157240671Y-87475581D01*
X157241991Y-87476143D01*
X157271551Y-87492161D01*
X157300915Y-87501252D01*
X158737804Y-88113535D01*
X158785443Y-88135863D01*
X158827925Y-88146346D01*
X158869691Y-88159479D01*
X158890159Y-88161704D01*
X158910136Y-88166634D01*
X158953850Y-88168628D01*
X158997372Y-88173360D01*
X159049807Y-88168731D01*
X160170520Y-88109746D01*
X160208682Y-88110785D01*
X160266070Y-88100986D01*
X160323649Y-88092239D01*
X160329332Y-88090183D01*
X160335283Y-88089167D01*
X160385266Y-88070041D01*
X160420164Y-88084496D01*
X160599259Y-88120120D01*
X160781861Y-88120120D01*
X160960956Y-88084496D01*
X161129659Y-88014616D01*
X161281488Y-87913168D01*
X161318107Y-87876549D01*
X161203621Y-88088698D01*
X161192631Y-88107631D01*
X161188422Y-88116863D01*
X161183610Y-88125780D01*
X161175165Y-88145941D01*
X160102867Y-90497917D01*
X157522353Y-96128196D01*
X157400901Y-96178504D01*
X157249072Y-96279952D01*
X157119952Y-96409072D01*
X157018504Y-96560901D01*
X156948624Y-96729604D01*
X156913000Y-96908699D01*
X156913000Y-97091301D01*
X156948624Y-97270396D01*
X157018504Y-97439099D01*
X157119952Y-97590928D01*
X157249072Y-97720048D01*
X157400901Y-97821496D01*
X157569604Y-97891376D01*
X157748699Y-97927000D01*
X157931301Y-97927000D01*
X158110396Y-97891376D01*
X158279099Y-97821496D01*
X158430928Y-97720048D01*
X158560048Y-97590928D01*
X158661496Y-97439099D01*
X158731376Y-97270396D01*
X158767000Y-97091301D01*
X158767000Y-96908699D01*
X158731376Y-96729604D01*
X158707532Y-96672040D01*
X160262014Y-93280404D01*
X160259280Y-93294430D01*
X160253386Y-93323640D01*
X160253167Y-93325805D01*
X160252753Y-93327928D01*
X160249961Y-93357460D01*
X159956372Y-96256125D01*
X159947232Y-96262232D01*
X159818112Y-96391352D01*
X159716664Y-96543181D01*
X159646784Y-96711884D01*
X159611160Y-96890979D01*
X159611160Y-97073581D01*
X159646784Y-97252676D01*
X159716664Y-97421379D01*
X159818112Y-97573208D01*
X159947232Y-97702328D01*
X160099061Y-97803776D01*
X160267764Y-97873656D01*
X160446859Y-97909280D01*
X160629461Y-97909280D01*
X160808556Y-97873656D01*
X160977259Y-97803776D01*
X161129088Y-97702328D01*
X161258208Y-97573208D01*
X161359656Y-97421379D01*
X161429536Y-97252676D01*
X161465160Y-97073581D01*
X161465160Y-96890979D01*
X161429536Y-96711884D01*
X161359656Y-96543181D01*
X161258208Y-96391352D01*
X161253794Y-96386938D01*
X161544514Y-93516595D01*
X161990160Y-91229597D01*
X162177171Y-90743369D01*
X162127506Y-91969463D01*
X162125981Y-91988305D01*
X162126210Y-92001454D01*
X162125679Y-92014567D01*
X162126767Y-92033407D01*
X162167171Y-94351523D01*
X162167654Y-94382790D01*
X162167727Y-94383430D01*
X162167738Y-94384059D01*
X162171280Y-94414562D01*
X162395660Y-96380739D01*
X162297304Y-96527941D01*
X162227424Y-96696644D01*
X162191800Y-96875739D01*
X162191800Y-97058341D01*
X162227424Y-97237436D01*
X162297304Y-97406139D01*
X162398752Y-97557968D01*
X162527872Y-97687088D01*
X162679701Y-97788536D01*
X162848404Y-97858416D01*
X163027499Y-97894040D01*
X163210101Y-97894040D01*
X163389196Y-97858416D01*
X163557899Y-97788536D01*
X163709728Y-97687088D01*
X163838848Y-97557968D01*
X163940296Y-97406139D01*
X164010176Y-97237436D01*
X164045800Y-97058341D01*
X164045800Y-96875739D01*
X164010176Y-96696644D01*
X163940296Y-96527941D01*
X163838848Y-96376112D01*
X163709728Y-96246992D01*
X163691467Y-96234791D01*
X163470434Y-94297944D01*
X163455966Y-93467880D01*
X163855907Y-94627708D01*
X163857301Y-94636237D01*
X163876786Y-94688257D01*
X163884455Y-94710498D01*
X163888053Y-94718339D01*
X163891064Y-94726377D01*
X163901387Y-94747394D01*
X163924602Y-94797982D01*
X163929678Y-94804994D01*
X164584477Y-96138148D01*
X164694882Y-96536390D01*
X164678504Y-96560901D01*
X164608624Y-96729604D01*
X164573000Y-96908699D01*
X164573000Y-97091301D01*
X164608624Y-97270396D01*
X164678504Y-97439099D01*
X164779952Y-97590928D01*
X164909072Y-97720048D01*
X165060901Y-97821496D01*
X165229604Y-97891376D01*
X165408699Y-97927000D01*
X165591301Y-97927000D01*
X165770396Y-97891376D01*
X165939099Y-97821496D01*
X166090928Y-97720048D01*
X166220048Y-97590928D01*
X166321496Y-97439099D01*
X166391376Y-97270396D01*
X166427000Y-97091301D01*
X166427000Y-96908699D01*
X166391376Y-96729604D01*
X166321496Y-96560901D01*
X166220048Y-96409072D01*
X166090928Y-96279952D01*
X165951063Y-96186498D01*
X165834270Y-95765216D01*
X165829619Y-95736762D01*
X165817161Y-95703502D01*
X165816267Y-95700277D01*
X165805919Y-95673489D01*
X165795856Y-95646622D01*
X165794382Y-95643621D01*
X165781583Y-95610487D01*
X165766148Y-95586137D01*
X165093538Y-94216722D01*
X164519438Y-92551835D01*
X164292376Y-90721146D01*
X164382923Y-89652696D01*
X164499663Y-89241771D01*
X164498073Y-89267209D01*
X164498224Y-89271417D01*
X164496421Y-89307767D01*
X164500514Y-89335447D01*
X164501514Y-89363402D01*
X164509884Y-89398812D01*
X164510501Y-89402987D01*
X164517273Y-89430077D01*
X164531057Y-89488392D01*
X164532814Y-89492238D01*
X164836988Y-90708936D01*
X164843162Y-90746233D01*
X164863827Y-90801067D01*
X164883540Y-90856242D01*
X164902959Y-90888674D01*
X165682222Y-92467185D01*
X165694398Y-92492567D01*
X165696300Y-92495701D01*
X165697935Y-92499013D01*
X165712917Y-92523082D01*
X166496820Y-93814797D01*
X166857827Y-94631813D01*
X167357722Y-95978753D01*
X167354323Y-96334701D01*
X167279952Y-96409072D01*
X167178504Y-96560901D01*
X167108624Y-96729604D01*
X167073000Y-96908699D01*
X167073000Y-97091301D01*
X167108624Y-97270396D01*
X167178504Y-97439099D01*
X167279952Y-97590928D01*
X167409072Y-97720048D01*
X167560901Y-97821496D01*
X167729604Y-97891376D01*
X167908699Y-97927000D01*
X168091301Y-97927000D01*
X168270396Y-97891376D01*
X168439099Y-97821496D01*
X168590928Y-97720048D01*
X168720048Y-97590928D01*
X168821496Y-97439099D01*
X168891376Y-97270396D01*
X168927000Y-97091301D01*
X168927000Y-96908699D01*
X168891376Y-96729604D01*
X168821496Y-96560901D01*
X168720048Y-96409072D01*
X168658262Y-96347286D01*
X168662418Y-95912007D01*
X168665537Y-95889126D01*
X168663029Y-95847968D01*
X168663116Y-95838885D01*
X168661079Y-95815966D01*
X168657726Y-95760930D01*
X168655404Y-95752103D01*
X168654596Y-95743007D01*
X168639086Y-95690062D01*
X168633241Y-95667841D01*
X168630085Y-95659337D01*
X168618489Y-95619754D01*
X168607796Y-95599281D01*
X168077701Y-94170970D01*
X168071517Y-94152175D01*
X168066576Y-94140992D01*
X168062318Y-94129520D01*
X168053643Y-94111722D01*
X167694299Y-93298472D01*
X167691753Y-93288539D01*
X167668386Y-93239826D01*
X167659553Y-93219836D01*
X167654541Y-93210965D01*
X167650122Y-93201752D01*
X167638755Y-93183021D01*
X167612207Y-93136029D01*
X167605523Y-93128262D01*
X166840495Y-91867651D01*
X166091500Y-90350457D01*
X165807830Y-89215778D01*
X165879178Y-88074219D01*
X166115070Y-87112502D01*
X166352373Y-86588742D01*
X166388876Y-86793381D01*
X166392362Y-86830438D01*
X166409299Y-86887167D01*
X166425346Y-86944106D01*
X166442234Y-86977266D01*
X167069526Y-88510650D01*
X167090043Y-88564010D01*
X167110932Y-88597076D01*
X167129230Y-88631673D01*
X167165369Y-88676104D01*
X168642960Y-90573697D01*
X168660658Y-90596818D01*
X168662492Y-90598781D01*
X168664157Y-90600919D01*
X168684372Y-90622197D01*
X170185668Y-92228937D01*
X170191271Y-92235857D01*
X170207504Y-92252307D01*
X170223302Y-92269214D01*
X170229997Y-92275100D01*
X171661645Y-93725837D01*
X172348001Y-95149011D01*
X172348000Y-96341024D01*
X172279952Y-96409072D01*
X172178504Y-96560901D01*
X172108624Y-96729604D01*
X172073000Y-96908699D01*
X172073000Y-97091301D01*
X172108624Y-97270396D01*
X172178504Y-97439099D01*
X172279952Y-97590928D01*
X172409072Y-97720048D01*
X172560901Y-97821496D01*
X172729604Y-97891376D01*
X172908699Y-97927000D01*
X173091301Y-97927000D01*
X173270396Y-97891376D01*
X173439099Y-97821496D01*
X173590928Y-97720048D01*
X173720048Y-97590928D01*
X173821496Y-97439099D01*
X173891376Y-97270396D01*
X173927000Y-97091301D01*
X173927000Y-96908699D01*
X173891376Y-96729604D01*
X173821496Y-96560901D01*
X173720048Y-96409072D01*
X173652000Y-96341024D01*
X173652000Y-95013501D01*
X173654102Y-94962895D01*
X173647049Y-94917710D01*
X173642565Y-94872186D01*
X173637163Y-94854378D01*
X173634294Y-94835998D01*
X173618562Y-94793059D01*
X173605283Y-94749283D01*
X173581395Y-94704591D01*
X172812025Y-93109287D01*
X172808770Y-93098297D01*
X172784178Y-93051548D01*
X172775201Y-93032933D01*
X172769267Y-93023200D01*
X172748978Y-92984631D01*
X172735905Y-92968484D01*
X172725091Y-92950749D01*
X172695589Y-92918690D01*
X172688408Y-92909821D01*
X172673872Y-92895091D01*
X172638122Y-92856243D01*
X172628870Y-92849490D01*
X171148171Y-91349048D01*
X169892937Y-90005654D01*
X171204522Y-91073493D01*
X171212177Y-91080617D01*
X171229323Y-91093686D01*
X171246061Y-91107313D01*
X171254788Y-91113095D01*
X173632175Y-92925128D01*
X174382353Y-94233568D01*
X174848802Y-96505624D01*
X174798504Y-96580901D01*
X174728624Y-96749604D01*
X174693000Y-96928699D01*
X174693000Y-97111301D01*
X174728624Y-97290396D01*
X174798504Y-97459099D01*
X174899952Y-97610928D01*
X175029072Y-97740048D01*
X175180901Y-97841496D01*
X175349604Y-97911376D01*
X175528699Y-97947000D01*
X175711301Y-97947000D01*
X175890396Y-97911376D01*
X176059099Y-97841496D01*
X176210928Y-97740048D01*
X176340048Y-97610928D01*
X176441496Y-97459099D01*
X176511376Y-97290396D01*
X176541252Y-97140195D01*
X181993433Y-97140195D01*
X183750000Y-98896762D01*
X185506567Y-97140195D01*
X185271474Y-96781675D01*
X184809466Y-96527475D01*
X184306743Y-96368292D01*
X183782624Y-96310244D01*
X183257252Y-96355563D01*
X182750816Y-96502505D01*
X182282778Y-96745425D01*
X182228526Y-96781675D01*
X181993433Y-97140195D01*
X176541252Y-97140195D01*
X176547000Y-97111301D01*
X176547000Y-96928699D01*
X176511376Y-96749604D01*
X176441496Y-96580901D01*
X176340048Y-96429072D01*
X176210928Y-96299952D01*
X176126143Y-96243301D01*
X175650033Y-93924188D01*
X175649803Y-93916443D01*
X175637138Y-93861377D01*
X175632239Y-93837513D01*
X175629957Y-93830153D01*
X175621016Y-93791278D01*
X175610980Y-93768950D01*
X175603733Y-93745576D01*
X175584719Y-93710521D01*
X175581555Y-93703483D01*
X175569421Y-93682319D01*
X175542496Y-93632681D01*
X175537547Y-93626725D01*
X174712781Y-92188194D01*
X174698556Y-92157068D01*
X174662149Y-92106607D01*
X174626110Y-92055994D01*
X174624615Y-92054585D01*
X174623409Y-92052914D01*
X174577785Y-92010459D01*
X174532636Y-91967916D01*
X174503641Y-91949764D01*
X172036444Y-90069280D01*
X170350592Y-88696729D01*
X169084245Y-87406757D01*
X168554319Y-86372549D01*
X168494962Y-85834620D01*
X168683980Y-84435886D01*
X168685279Y-84429902D01*
X168688263Y-84404194D01*
X168691735Y-84378501D01*
X168691957Y-84372372D01*
X168861601Y-82910819D01*
X172382280Y-82910819D01*
X172382280Y-83093421D01*
X172417904Y-83272516D01*
X172487784Y-83441219D01*
X172589232Y-83593048D01*
X172718352Y-83722168D01*
X172870181Y-83823616D01*
X173038884Y-83893496D01*
X173217979Y-83929120D01*
X173400581Y-83929120D01*
X173579676Y-83893496D01*
X173748379Y-83823616D01*
X173900208Y-83722168D01*
X174029328Y-83593048D01*
X174130776Y-83441219D01*
X174200656Y-83272516D01*
X174236280Y-83093421D01*
X174236280Y-82959433D01*
X179916239Y-76810057D01*
X179943165Y-76785468D01*
X179978662Y-76737229D01*
X180014824Y-76689418D01*
X180030730Y-76656593D01*
X180537585Y-75803710D01*
X180564904Y-75762030D01*
X180582332Y-75718880D01*
X180602080Y-75676718D01*
X180614012Y-75628313D01*
X181033092Y-74201445D01*
X181039222Y-74183250D01*
X181042105Y-74170756D01*
X181045719Y-74158452D01*
X181049298Y-74139586D01*
X181096175Y-73936453D01*
X181200168Y-73866968D01*
X181307331Y-73759805D01*
X197743433Y-73759805D01*
X197978526Y-74118325D01*
X198440534Y-74372525D01*
X198943257Y-74531708D01*
X199467376Y-74589756D01*
X199992748Y-74544437D01*
X200499184Y-74397495D01*
X200967222Y-74154575D01*
X201021474Y-74118325D01*
X201256567Y-73759805D01*
X199500000Y-72003238D01*
X197743433Y-73759805D01*
X181307331Y-73759805D01*
X181329288Y-73737848D01*
X181430736Y-73586019D01*
X181500616Y-73417316D01*
X181536240Y-73238221D01*
X181536240Y-73055619D01*
X181500616Y-72876524D01*
X181430736Y-72707821D01*
X181329288Y-72555992D01*
X181200168Y-72426872D01*
X181048339Y-72325424D01*
X180879636Y-72255544D01*
X180700541Y-72219920D01*
X180517939Y-72219920D01*
X180338844Y-72255544D01*
X180170141Y-72325424D01*
X180018312Y-72426872D01*
X179889192Y-72555992D01*
X179787744Y-72707821D01*
X179717864Y-72876524D01*
X179682240Y-73055619D01*
X179682240Y-73238221D01*
X179717864Y-73417316D01*
X179787744Y-73586019D01*
X179825674Y-73642786D01*
X179780136Y-73840119D01*
X179381962Y-75195808D01*
X178930615Y-75955287D01*
X173277946Y-82075120D01*
X173217979Y-82075120D01*
X173038884Y-82110744D01*
X172870181Y-82180624D01*
X172718352Y-82282072D01*
X172589232Y-82411192D01*
X172487784Y-82563021D01*
X172417904Y-82731724D01*
X172382280Y-82910819D01*
X168861601Y-82910819D01*
X168949404Y-82154364D01*
X169345907Y-80335408D01*
X169350462Y-80318152D01*
X169352720Y-80304152D01*
X169355740Y-80290298D01*
X169357814Y-80272572D01*
X169546726Y-79101315D01*
X169881889Y-78287620D01*
X169969099Y-78251496D01*
X170120928Y-78150048D01*
X170250048Y-78020928D01*
X170351496Y-77869099D01*
X170421376Y-77700396D01*
X170457000Y-77521301D01*
X170457000Y-77338699D01*
X170421376Y-77159604D01*
X170351496Y-76990901D01*
X170250048Y-76839072D01*
X170120928Y-76709952D01*
X169969099Y-76608504D01*
X169800396Y-76538624D01*
X169621301Y-76503000D01*
X169520727Y-76503000D01*
X169501656Y-76407124D01*
X169431776Y-76238421D01*
X169330328Y-76086592D01*
X169201208Y-75957472D01*
X169075084Y-75873199D01*
X169091832Y-75714648D01*
X169097180Y-75691819D01*
X169098559Y-75650967D01*
X169099476Y-75642289D01*
X169099641Y-75618926D01*
X169100428Y-75595618D01*
X169099867Y-75586925D01*
X169100156Y-75546036D01*
X169095743Y-75523000D01*
X169078692Y-75258699D01*
X170313000Y-75258699D01*
X170313000Y-75441301D01*
X170348624Y-75620396D01*
X170418504Y-75789099D01*
X170519952Y-75940928D01*
X170649072Y-76070048D01*
X170800901Y-76171496D01*
X170969604Y-76241376D01*
X171148699Y-76277000D01*
X171331301Y-76277000D01*
X171510396Y-76241376D01*
X171679099Y-76171496D01*
X171830928Y-76070048D01*
X171960048Y-75940928D01*
X172061496Y-75789099D01*
X172061822Y-75788311D01*
X172307186Y-75716302D01*
X172333043Y-75711887D01*
X172368626Y-75698271D01*
X172374330Y-75696597D01*
X172398561Y-75686816D01*
X172422941Y-75677487D01*
X172428253Y-75674831D01*
X172463588Y-75660568D01*
X172485532Y-75646191D01*
X172905689Y-75436113D01*
X172917989Y-75432219D01*
X172963023Y-75407445D01*
X172980224Y-75398845D01*
X172991081Y-75392010D01*
X173030520Y-75370315D01*
X173045319Y-75357869D01*
X173061684Y-75347567D01*
X173094362Y-75316622D01*
X173104185Y-75308360D01*
X173117630Y-75294587D01*
X173154938Y-75259257D01*
X173162392Y-75248733D01*
X173499125Y-74903786D01*
X173507689Y-74897497D01*
X173543000Y-74858903D01*
X173543000Y-74971301D01*
X173578624Y-75150396D01*
X173648504Y-75319099D01*
X173749952Y-75470928D01*
X173879072Y-75600048D01*
X174030901Y-75701496D01*
X174199604Y-75771376D01*
X174378699Y-75807000D01*
X174561301Y-75807000D01*
X174740396Y-75771376D01*
X174909099Y-75701496D01*
X175060928Y-75600048D01*
X175190048Y-75470928D01*
X175291496Y-75319099D01*
X175322148Y-75245099D01*
X175379480Y-75245099D01*
X175379480Y-75427701D01*
X175415104Y-75606796D01*
X175484984Y-75775499D01*
X175586432Y-75927328D01*
X175715552Y-76056448D01*
X175867381Y-76157896D01*
X176036084Y-76227776D01*
X176215179Y-76263400D01*
X176397781Y-76263400D01*
X176576876Y-76227776D01*
X176745579Y-76157896D01*
X176798746Y-76122371D01*
X176821980Y-76119838D01*
X176829803Y-76117376D01*
X176837950Y-76116281D01*
X176891036Y-76098102D01*
X176913795Y-76090939D01*
X176921292Y-76087742D01*
X176959456Y-76074673D01*
X176980221Y-76062610D01*
X177280734Y-75934451D01*
X177332343Y-75914048D01*
X177366707Y-75891885D01*
X177402557Y-75872239D01*
X177420543Y-75857162D01*
X177440273Y-75844437D01*
X177469650Y-75815998D01*
X177500984Y-75789732D01*
X177515688Y-75771429D01*
X177532550Y-75755106D01*
X177555810Y-75721490D01*
X177581422Y-75689610D01*
X177607077Y-75640387D01*
X177936140Y-75048074D01*
X177947134Y-75033550D01*
X177967247Y-74992080D01*
X177974021Y-74979888D01*
X177981234Y-74963243D01*
X178003182Y-74917991D01*
X178006721Y-74904428D01*
X178012294Y-74891568D01*
X178022906Y-74842403D01*
X178027485Y-74824854D01*
X178029039Y-74815043D01*
X178107661Y-74867576D01*
X178276364Y-74937456D01*
X178455459Y-74973080D01*
X178638061Y-74973080D01*
X178817156Y-74937456D01*
X178985859Y-74867576D01*
X179137688Y-74766128D01*
X179266808Y-74637008D01*
X179368256Y-74485179D01*
X179438136Y-74316476D01*
X179473760Y-74137381D01*
X179473760Y-73954779D01*
X179438136Y-73775684D01*
X179368256Y-73606981D01*
X179276968Y-73470357D01*
X179413508Y-72488977D01*
X179416179Y-72480574D01*
X179422338Y-72425515D01*
X179425552Y-72402412D01*
X179425904Y-72393632D01*
X179426879Y-72384915D01*
X179427187Y-72361625D01*
X179429407Y-72306234D01*
X179428034Y-72297520D01*
X179433718Y-71867376D01*
X196810244Y-71867376D01*
X196855563Y-72392748D01*
X197002505Y-72899184D01*
X197245425Y-73367222D01*
X197281675Y-73421474D01*
X197640195Y-73656567D01*
X199396762Y-71900000D01*
X199603238Y-71900000D01*
X201359805Y-73656567D01*
X201718325Y-73421474D01*
X201972525Y-72959466D01*
X202131708Y-72456743D01*
X202189756Y-71932624D01*
X202144437Y-71407252D01*
X201997495Y-70900816D01*
X201754575Y-70432778D01*
X201718325Y-70378526D01*
X201359805Y-70143433D01*
X199603238Y-71900000D01*
X199396762Y-71900000D01*
X197640195Y-70143433D01*
X197281675Y-70378526D01*
X197027475Y-70840534D01*
X196868292Y-71343257D01*
X196810244Y-71867376D01*
X179433718Y-71867376D01*
X179442377Y-71212269D01*
X179471509Y-70649052D01*
X179473227Y-70630696D01*
X179473161Y-70617111D01*
X179473863Y-70603540D01*
X179473006Y-70585116D01*
X179470361Y-70040195D01*
X197743433Y-70040195D01*
X199500000Y-71796762D01*
X201256567Y-70040195D01*
X201021474Y-69681675D01*
X200559466Y-69427475D01*
X200056743Y-69268292D01*
X199532624Y-69210244D01*
X199007252Y-69255563D01*
X198500816Y-69402505D01*
X198032778Y-69645425D01*
X197978526Y-69681675D01*
X197743433Y-70040195D01*
X179470361Y-70040195D01*
X179468126Y-69579941D01*
X179471048Y-69543597D01*
X179464094Y-69483986D01*
X179457936Y-69424429D01*
X179447189Y-69389609D01*
X179270275Y-68576763D01*
X179264697Y-68537182D01*
X179246066Y-68483897D01*
X179228723Y-68430217D01*
X179224900Y-68423364D01*
X179222307Y-68415947D01*
X179193637Y-68367318D01*
X179166157Y-68318054D01*
X179161068Y-68312075D01*
X179157080Y-68305311D01*
X179119481Y-68263217D01*
X179082911Y-68220254D01*
X179051563Y-68195455D01*
X178986080Y-68135234D01*
X178986080Y-68077219D01*
X178950456Y-67898124D01*
X178880576Y-67729421D01*
X178779128Y-67577592D01*
X178650008Y-67448472D01*
X178498179Y-67347024D01*
X178329476Y-67277144D01*
X178150381Y-67241520D01*
X177967779Y-67241520D01*
X177788684Y-67277144D01*
X177619981Y-67347024D01*
X177518436Y-67414874D01*
X177514056Y-67404301D01*
X177412608Y-67252472D01*
X177283488Y-67123352D01*
X177131659Y-67021904D01*
X176962956Y-66952024D01*
X176783861Y-66916400D01*
X176601259Y-66916400D01*
X176422164Y-66952024D01*
X176253461Y-67021904D01*
X176101632Y-67123352D01*
X175972512Y-67252472D01*
X175871064Y-67404301D01*
X175801184Y-67573004D01*
X175765560Y-67752099D01*
X175765560Y-67934701D01*
X175801184Y-68113796D01*
X175871064Y-68282499D01*
X175972512Y-68434328D01*
X176044616Y-68506432D01*
X176045527Y-68655028D01*
X176044873Y-68666589D01*
X176045723Y-68687000D01*
X176045849Y-68707461D01*
X176047057Y-68718995D01*
X176070277Y-69276296D01*
X176068464Y-69308528D01*
X176077447Y-69372207D01*
X176086354Y-69435493D01*
X176086388Y-69435591D01*
X176086404Y-69435702D01*
X176108119Y-69497781D01*
X176128720Y-69556737D01*
X176145109Y-69584548D01*
X176305381Y-69929751D01*
X176385538Y-70234347D01*
X176462963Y-70667931D01*
X176278305Y-71803576D01*
X176093345Y-72853352D01*
X176089311Y-72871879D01*
X176087800Y-72884819D01*
X176085534Y-72897683D01*
X176084087Y-72916630D01*
X176009996Y-73551346D01*
X175989872Y-73564792D01*
X175860752Y-73693912D01*
X175759304Y-73845741D01*
X175689424Y-74014444D01*
X175653800Y-74193539D01*
X175653800Y-74376141D01*
X175689424Y-74555236D01*
X175714977Y-74616927D01*
X175586432Y-74745472D01*
X175484984Y-74897301D01*
X175415104Y-75066004D01*
X175379480Y-75245099D01*
X175322148Y-75245099D01*
X175361376Y-75150396D01*
X175397000Y-74971301D01*
X175397000Y-74788699D01*
X175361376Y-74609604D01*
X175291496Y-74440901D01*
X175211413Y-74321047D01*
X175253850Y-74033084D01*
X175387888Y-73257571D01*
X175589981Y-72478074D01*
X175597215Y-72451726D01*
X175598002Y-72447135D01*
X175599170Y-72442630D01*
X175603399Y-72415654D01*
X175718663Y-71743281D01*
X175720708Y-71734987D01*
X175724065Y-71711770D01*
X175728036Y-71688604D01*
X175728648Y-71680066D01*
X175839871Y-70910778D01*
X175988820Y-70350027D01*
X175996544Y-70331489D01*
X176005267Y-70288111D01*
X176008368Y-70276435D01*
X176011581Y-70256711D01*
X176021863Y-70205576D01*
X176021888Y-70193425D01*
X176023842Y-70181431D01*
X176022022Y-70129306D01*
X176022064Y-70109321D01*
X176020905Y-70097293D01*
X176019361Y-70053076D01*
X176014759Y-70033531D01*
X175941344Y-69271845D01*
X175941187Y-69264341D01*
X175938273Y-69239982D01*
X175935920Y-69215573D01*
X175934472Y-69208211D01*
X175872749Y-68692315D01*
X175870186Y-68648132D01*
X175857071Y-68597672D01*
X175845832Y-68546759D01*
X175828043Y-68506230D01*
X175292169Y-67049376D01*
X175343656Y-66925076D01*
X175379280Y-66745981D01*
X175379280Y-66563379D01*
X175343656Y-66384284D01*
X175273776Y-66215581D01*
X175172328Y-66063752D01*
X175043208Y-65934632D01*
X174891379Y-65833184D01*
X174735701Y-65768699D01*
X175283000Y-65768699D01*
X175283000Y-65951301D01*
X175318624Y-66130396D01*
X175388504Y-66299099D01*
X175489952Y-66450928D01*
X175619072Y-66580048D01*
X175770901Y-66681496D01*
X175939604Y-66751376D01*
X176118699Y-66787000D01*
X176301301Y-66787000D01*
X176480396Y-66751376D01*
X176649099Y-66681496D01*
X176800928Y-66580048D01*
X176930048Y-66450928D01*
X177031496Y-66299099D01*
X177101376Y-66130396D01*
X177137000Y-65951301D01*
X177137000Y-65768699D01*
X177101376Y-65589604D01*
X177031496Y-65420901D01*
X177013513Y-65393988D01*
X177095992Y-65321506D01*
X177160063Y-65301622D01*
X177289781Y-65388296D01*
X177458484Y-65458176D01*
X177637579Y-65493800D01*
X177691206Y-65493800D01*
X179156423Y-67102819D01*
X179171910Y-67120721D01*
X179177927Y-67126434D01*
X179183528Y-67132584D01*
X179201151Y-67148482D01*
X180375673Y-68263535D01*
X180886200Y-68854673D01*
X180886200Y-69021821D01*
X180921824Y-69200916D01*
X180991704Y-69369619D01*
X181093152Y-69521448D01*
X181222272Y-69650568D01*
X181374101Y-69752016D01*
X181542804Y-69821896D01*
X181721899Y-69857520D01*
X181904501Y-69857520D01*
X182083596Y-69821896D01*
X182252299Y-69752016D01*
X182404128Y-69650568D01*
X182533248Y-69521448D01*
X182634696Y-69369619D01*
X182704576Y-69200916D01*
X182740200Y-69021821D01*
X182740200Y-68839219D01*
X182704576Y-68660124D01*
X182634696Y-68491421D01*
X182533248Y-68339592D01*
X182404128Y-68210472D01*
X182252299Y-68109024D01*
X182083596Y-68039144D01*
X181904501Y-68003520D01*
X181874105Y-68003520D01*
X181568270Y-67649395D01*
X181581739Y-67643816D01*
X181733568Y-67542368D01*
X181862688Y-67413248D01*
X181964136Y-67261419D01*
X182013976Y-67141096D01*
X182161839Y-67136326D01*
X182700494Y-67569362D01*
X183238457Y-68213288D01*
X183238240Y-68214379D01*
X183238240Y-68396981D01*
X183273864Y-68576076D01*
X183343744Y-68744779D01*
X183445192Y-68896608D01*
X183574312Y-69025728D01*
X183726141Y-69127176D01*
X183894844Y-69197056D01*
X184073939Y-69232680D01*
X184256541Y-69232680D01*
X184435636Y-69197056D01*
X184604339Y-69127176D01*
X184756168Y-69025728D01*
X184885288Y-68896608D01*
X184986736Y-68744779D01*
X185056616Y-68576076D01*
X185092240Y-68396981D01*
X185092240Y-68214379D01*
X185056616Y-68035284D01*
X184986736Y-67866581D01*
X184885288Y-67714752D01*
X184756168Y-67585632D01*
X184750520Y-67581858D01*
X184247985Y-62366031D01*
X184255368Y-62358648D01*
X184356816Y-62206819D01*
X184426696Y-62038116D01*
X184462320Y-61859021D01*
X184462320Y-61832501D01*
X194658693Y-61832501D01*
X194730007Y-61905489D01*
X194897580Y-62026544D01*
X195085549Y-62112581D01*
X195286692Y-62160294D01*
X195493278Y-62167849D01*
X195697368Y-62134956D01*
X195891119Y-62062879D01*
X196259180Y-61850379D01*
X195769680Y-61002540D01*
X194670391Y-61637215D01*
X194658693Y-61832501D01*
X184462320Y-61832501D01*
X184462320Y-61676419D01*
X184426696Y-61497324D01*
X184356816Y-61328621D01*
X184255368Y-61176792D01*
X184197935Y-61119359D01*
X194373817Y-61119359D01*
X194394867Y-61325009D01*
X194422419Y-61423263D01*
X194597391Y-61510775D01*
X195696680Y-60876100D01*
X195207180Y-60028261D01*
X194839119Y-60240761D01*
X194679823Y-60372516D01*
X194549292Y-60532817D01*
X194452542Y-60715503D01*
X194393291Y-60913554D01*
X194373817Y-61119359D01*
X184197935Y-61119359D01*
X184126248Y-61047672D01*
X183974419Y-60946224D01*
X183805716Y-60876344D01*
X183626621Y-60840720D01*
X183444019Y-60840720D01*
X183264924Y-60876344D01*
X183096221Y-60946224D01*
X182944392Y-61047672D01*
X182815272Y-61176792D01*
X182713824Y-61328621D01*
X182643944Y-61497324D01*
X182608320Y-61676419D01*
X182608320Y-61859021D01*
X182643944Y-62038116D01*
X182713824Y-62206819D01*
X182815272Y-62358648D01*
X182944392Y-62487768D01*
X182950040Y-62491542D01*
X183326569Y-66399544D01*
X182835047Y-66004400D01*
X182830247Y-65998921D01*
X182785042Y-65964200D01*
X182765717Y-65948664D01*
X182759664Y-65944707D01*
X182728391Y-65920687D01*
X182706021Y-65909642D01*
X182685148Y-65895998D01*
X182648578Y-65881281D01*
X182613231Y-65863829D01*
X182589144Y-65857363D01*
X182566001Y-65848049D01*
X182527253Y-65840747D01*
X182489190Y-65830529D01*
X182464307Y-65828886D01*
X182439790Y-65824266D01*
X182400370Y-65824664D01*
X182393144Y-65824187D01*
X182368319Y-65824988D01*
X182311365Y-65825563D01*
X182304241Y-65827055D01*
X181742005Y-65845192D01*
X181688621Y-65845143D01*
X181646429Y-65853495D01*
X181603776Y-65859090D01*
X181583564Y-65865940D01*
X181562633Y-65870084D01*
X181522872Y-65886510D01*
X181482139Y-65900316D01*
X181435917Y-65926973D01*
X181421723Y-65934542D01*
X181413036Y-65930944D01*
X181233941Y-65895320D01*
X181051339Y-65895320D01*
X180872244Y-65930944D01*
X180703541Y-66000824D01*
X180551712Y-66102272D01*
X180422592Y-66231392D01*
X180321144Y-66383221D01*
X180312078Y-66405107D01*
X180110147Y-66213401D01*
X178655880Y-64616407D01*
X178655880Y-64475499D01*
X178620256Y-64296404D01*
X178550376Y-64127701D01*
X178448928Y-63975872D01*
X178319808Y-63846752D01*
X178167979Y-63745304D01*
X177999276Y-63675424D01*
X177820181Y-63639800D01*
X177637579Y-63639800D01*
X177458484Y-63675424D01*
X177289781Y-63745304D01*
X177137952Y-63846752D01*
X177008832Y-63975872D01*
X176993771Y-63998412D01*
X176991615Y-63998426D01*
X176953968Y-64006165D01*
X176947743Y-64006939D01*
X176922585Y-64012616D01*
X176897331Y-64017807D01*
X176891342Y-64019666D01*
X176853848Y-64028126D01*
X176830177Y-64038648D01*
X176598802Y-64110454D01*
X176558773Y-64119831D01*
X176508408Y-64142713D01*
X176457474Y-64164194D01*
X176450033Y-64169235D01*
X176441843Y-64172956D01*
X176396922Y-64205216D01*
X176351144Y-64236229D01*
X176322259Y-64265485D01*
X176011203Y-64538837D01*
X175964602Y-64579199D01*
X175943408Y-64606469D01*
X175919825Y-64631700D01*
X175887332Y-64684073D01*
X175626388Y-65097984D01*
X175618555Y-65106865D01*
X175592189Y-65152232D01*
X175581380Y-65169377D01*
X175576115Y-65179890D01*
X175571925Y-65187099D01*
X175489952Y-65269072D01*
X175388504Y-65420901D01*
X175318624Y-65589604D01*
X175283000Y-65768699D01*
X174735701Y-65768699D01*
X174722676Y-65763304D01*
X174543581Y-65727680D01*
X174360979Y-65727680D01*
X174181884Y-65763304D01*
X174013181Y-65833184D01*
X173861352Y-65934632D01*
X173732232Y-66063752D01*
X173630784Y-66215581D01*
X173560904Y-66384284D01*
X173525280Y-66563379D01*
X173525280Y-66745981D01*
X173560904Y-66925076D01*
X173630784Y-67093779D01*
X173732232Y-67245608D01*
X173861352Y-67374728D01*
X174013181Y-67476176D01*
X174068112Y-67498929D01*
X174304192Y-68140750D01*
X174227604Y-68155984D01*
X174058901Y-68225864D01*
X173907072Y-68327312D01*
X173777952Y-68456432D01*
X173676504Y-68608261D01*
X173606624Y-68776964D01*
X173571000Y-68956059D01*
X173571000Y-69090467D01*
X173555467Y-69107457D01*
X173539647Y-69133595D01*
X173521221Y-69157961D01*
X173506480Y-69188390D01*
X173505625Y-69189803D01*
X173492394Y-69217469D01*
X173465228Y-69273546D01*
X173464814Y-69275135D01*
X173272530Y-69677183D01*
X173245418Y-69733034D01*
X173236798Y-69766019D01*
X173225175Y-69798068D01*
X173215806Y-69859401D01*
X173120549Y-70459523D01*
X173111913Y-70494035D01*
X173108946Y-70554758D01*
X173105343Y-70615500D01*
X173110206Y-70650747D01*
X173146119Y-71377987D01*
X173004196Y-72589060D01*
X172891754Y-73272362D01*
X172528340Y-74031494D01*
X172270176Y-74295954D01*
X171920512Y-74470787D01*
X171692755Y-74537628D01*
X171679099Y-74528504D01*
X171510396Y-74458624D01*
X171331301Y-74423000D01*
X171148699Y-74423000D01*
X170969604Y-74458624D01*
X170800901Y-74528504D01*
X170649072Y-74629952D01*
X170519952Y-74759072D01*
X170418504Y-74910901D01*
X170348624Y-75079604D01*
X170313000Y-75258699D01*
X169078692Y-75258699D01*
X169049487Y-74806022D01*
X169050415Y-74771661D01*
X169039959Y-74710500D01*
X169029922Y-74649322D01*
X169017849Y-74617144D01*
X168855637Y-74025290D01*
X168840624Y-73779073D01*
X169010149Y-73122462D01*
X169135168Y-73038928D01*
X169264288Y-72909808D01*
X169365736Y-72757979D01*
X169435616Y-72589276D01*
X169471240Y-72410181D01*
X169471240Y-72227579D01*
X169435616Y-72048484D01*
X169365736Y-71879781D01*
X169264288Y-71727952D01*
X169135168Y-71598832D01*
X168983339Y-71497384D01*
X168814636Y-71427504D01*
X168635541Y-71391880D01*
X168503638Y-71391880D01*
X168486896Y-71351461D01*
X168385448Y-71199632D01*
X168256328Y-71070512D01*
X168104499Y-70969064D01*
X167935796Y-70899184D01*
X167756701Y-70863560D01*
X167574099Y-70863560D01*
X167395004Y-70899184D01*
X167226301Y-70969064D01*
X167074472Y-71070512D01*
X166945352Y-71199632D01*
X166870397Y-71311811D01*
X166720110Y-71389546D01*
X166664304Y-71418328D01*
X166638825Y-71438619D01*
X166611505Y-71456344D01*
X166588718Y-71478523D01*
X166563837Y-71498337D01*
X166542806Y-71523208D01*
X166519468Y-71545923D01*
X166483718Y-71597891D01*
X166285342Y-71885537D01*
X166271697Y-71904211D01*
X166267174Y-71911880D01*
X166262126Y-71919200D01*
X166250938Y-71939412D01*
X166179660Y-72060273D01*
X166179336Y-72058644D01*
X166109456Y-71889941D01*
X166008008Y-71738112D01*
X165878888Y-71608992D01*
X165727059Y-71507544D01*
X165558356Y-71437664D01*
X165379261Y-71402040D01*
X165196659Y-71402040D01*
X165017564Y-71437664D01*
X164978312Y-71453923D01*
X164965216Y-71388084D01*
X164895336Y-71219381D01*
X164854216Y-71157840D01*
X164870088Y-71141968D01*
X164971536Y-70990139D01*
X165041416Y-70821436D01*
X165048448Y-70786083D01*
X165156019Y-70807480D01*
X165338621Y-70807480D01*
X165517716Y-70771856D01*
X165686419Y-70701976D01*
X165838248Y-70600528D01*
X165967368Y-70471408D01*
X166068816Y-70319579D01*
X166138696Y-70150876D01*
X166174320Y-69971781D01*
X166174320Y-69947144D01*
X166218645Y-69909372D01*
X166233204Y-69900207D01*
X166267403Y-69867821D01*
X166278785Y-69858122D01*
X166290670Y-69845789D01*
X166326458Y-69811898D01*
X166335144Y-69799635D01*
X166345575Y-69788810D01*
X166372211Y-69747302D01*
X166400692Y-69707091D01*
X166406816Y-69693374D01*
X166414938Y-69680718D01*
X166432963Y-69634813D01*
X166439935Y-69619199D01*
X166444656Y-69605035D01*
X166461880Y-69561172D01*
X166464925Y-69544230D01*
X166586728Y-69178819D01*
X166603818Y-69135512D01*
X166612720Y-69086455D01*
X166623768Y-69037863D01*
X166624162Y-69023395D01*
X166626748Y-69009144D01*
X166625908Y-68959297D01*
X166627265Y-68909477D01*
X166624828Y-68895204D01*
X166624584Y-68880729D01*
X166614038Y-68832016D01*
X166605648Y-68782878D01*
X166589008Y-68739393D01*
X166452960Y-68316673D01*
X166434560Y-68257897D01*
X166417885Y-68227354D01*
X166404029Y-68195434D01*
X166387187Y-68171124D01*
X166373017Y-68145170D01*
X166350707Y-68118471D01*
X166330887Y-68089863D01*
X166286605Y-68047048D01*
X166030641Y-67795574D01*
X166018599Y-67779991D01*
X165984953Y-67750686D01*
X165976053Y-67741943D01*
X165960785Y-67729637D01*
X165921749Y-67695639D01*
X165910868Y-67689407D01*
X165901109Y-67681541D01*
X165855234Y-67657540D01*
X165838225Y-67647797D01*
X165826855Y-67642692D01*
X165787309Y-67622002D01*
X165768408Y-67616451D01*
X165347865Y-67427635D01*
X165327358Y-67415196D01*
X165289433Y-67401400D01*
X165281960Y-67398045D01*
X165259320Y-67390446D01*
X165206662Y-67371291D01*
X165198519Y-67370039D01*
X165190707Y-67367417D01*
X165135128Y-67360293D01*
X165111525Y-67356664D01*
X165103344Y-67356219D01*
X165063316Y-67351088D01*
X165039391Y-67352738D01*
X164354251Y-67315452D01*
X164311873Y-67310328D01*
X164258325Y-67314406D01*
X164204653Y-67316759D01*
X164163186Y-67326914D01*
X162407319Y-67635906D01*
X162385388Y-67636889D01*
X162344241Y-67647007D01*
X162334182Y-67648777D01*
X162313143Y-67654654D01*
X162291917Y-67659873D01*
X162282280Y-67663274D01*
X162241475Y-67674672D01*
X162221892Y-67684588D01*
X161176442Y-68053570D01*
X161152485Y-68058871D01*
X161116045Y-68074887D01*
X161108845Y-68077428D01*
X161086734Y-68087770D01*
X161034907Y-68110548D01*
X161028607Y-68114956D01*
X161021655Y-68118207D01*
X160976083Y-68151701D01*
X160956037Y-68165725D01*
X160950233Y-68170700D01*
X160918166Y-68194268D01*
X160901610Y-68212377D01*
X159595192Y-69332165D01*
X157827958Y-70673157D01*
X155642654Y-71346998D01*
X154667194Y-71399255D01*
X153713068Y-71208430D01*
X152850151Y-70786152D01*
X152837991Y-70779341D01*
X152821398Y-70772081D01*
X152805145Y-70764128D01*
X152792098Y-70759263D01*
X151882952Y-70361512D01*
X151874579Y-70356046D01*
X151824229Y-70335820D01*
X151803956Y-70326951D01*
X151794494Y-70323876D01*
X151785261Y-70320167D01*
X151764015Y-70313970D01*
X151712414Y-70297200D01*
X151702485Y-70296024D01*
X151312031Y-70182141D01*
X151296448Y-70175033D01*
X151250529Y-70164203D01*
X151236098Y-70159994D01*
X151219341Y-70156847D01*
X151171444Y-70145551D01*
X151156345Y-70145018D01*
X151141496Y-70142230D01*
X151092284Y-70142758D01*
X151075249Y-70142157D01*
X151060251Y-70143102D01*
X151013071Y-70143608D01*
X150996309Y-70147130D01*
X150427462Y-70182962D01*
X150392677Y-70182015D01*
X150332007Y-70192375D01*
X150271163Y-70202262D01*
X150268685Y-70203188D01*
X150266076Y-70203633D01*
X150208472Y-70225676D01*
X150150847Y-70247197D01*
X150121252Y-70265496D01*
X149620493Y-70515877D01*
X149604023Y-70521337D01*
X149563167Y-70544539D01*
X149549936Y-70551155D01*
X149535345Y-70560340D01*
X149520323Y-70568871D01*
X149508215Y-70577418D01*
X149468476Y-70602433D01*
X149455884Y-70614357D01*
X148842105Y-71047613D01*
X148827221Y-71055158D01*
X148789752Y-71084569D01*
X148777122Y-71093484D01*
X148764572Y-71104333D01*
X148751505Y-71114590D01*
X148740323Y-71125296D01*
X148704304Y-71156434D01*
X148694056Y-71169594D01*
X147777055Y-72047574D01*
X147757419Y-72065783D01*
X147753967Y-72069681D01*
X147750206Y-72073281D01*
X147732779Y-72093599D01*
X145304258Y-74835152D01*
X145294003Y-74845552D01*
X145283026Y-74859121D01*
X145271473Y-74872163D01*
X145262921Y-74883973D01*
X143823985Y-76662659D01*
X143573919Y-76934160D01*
X143515219Y-76934160D01*
X143336124Y-76969784D01*
X143167421Y-77039664D01*
X143015592Y-77141112D01*
X142886472Y-77270232D01*
X142785024Y-77422061D01*
X142715144Y-77590764D01*
X142679520Y-77769859D01*
X136037999Y-77769859D01*
X133709580Y-73759805D01*
X134743433Y-73759805D01*
X134978526Y-74118325D01*
X135440534Y-74372525D01*
X135943257Y-74531708D01*
X136467376Y-74589756D01*
X136992748Y-74544437D01*
X137499184Y-74397495D01*
X137967222Y-74154575D01*
X138021474Y-74118325D01*
X138256567Y-73759805D01*
X136500000Y-72003238D01*
X134743433Y-73759805D01*
X133709580Y-73759805D01*
X132634106Y-71907600D01*
X132657461Y-71867376D01*
X133810244Y-71867376D01*
X133855563Y-72392748D01*
X134002505Y-72899184D01*
X134245425Y-73367222D01*
X134281675Y-73421474D01*
X134640195Y-73656567D01*
X136396762Y-71900000D01*
X136603238Y-71900000D01*
X138359805Y-73656567D01*
X138718325Y-73421474D01*
X138972525Y-72959466D01*
X139131708Y-72456743D01*
X139189756Y-71932624D01*
X139144437Y-71407252D01*
X138997495Y-70900816D01*
X138754575Y-70432778D01*
X138718325Y-70378526D01*
X138359805Y-70143433D01*
X136603238Y-71900000D01*
X136396762Y-71900000D01*
X134640195Y-70143433D01*
X134281675Y-70378526D01*
X134027475Y-70840534D01*
X133868292Y-71343257D01*
X133810244Y-71867376D01*
X132657461Y-71867376D01*
X133718404Y-70040195D01*
X134743433Y-70040195D01*
X136500000Y-71796762D01*
X138256567Y-70040195D01*
X138021474Y-69681675D01*
X137709054Y-69509779D01*
X147078800Y-69509779D01*
X147078800Y-69692381D01*
X147114424Y-69871476D01*
X147184304Y-70040179D01*
X147285752Y-70192008D01*
X147414872Y-70321128D01*
X147566701Y-70422576D01*
X147735404Y-70492456D01*
X147914499Y-70528080D01*
X148097101Y-70528080D01*
X148276196Y-70492456D01*
X148444899Y-70422576D01*
X148596728Y-70321128D01*
X148725848Y-70192008D01*
X148827296Y-70040179D01*
X148894744Y-69877346D01*
X150861767Y-68866624D01*
X154700229Y-67099239D01*
X157413362Y-66516814D01*
X159343528Y-66447879D01*
X161425248Y-66397352D01*
X161449624Y-66397330D01*
X161457210Y-66396576D01*
X161464832Y-66396391D01*
X161489028Y-66393413D01*
X163117953Y-66231502D01*
X164826138Y-66325616D01*
X165811889Y-66648461D01*
X166228290Y-66948411D01*
X166522218Y-67407675D01*
X166703086Y-67967504D01*
X166705647Y-67977682D01*
X166712916Y-67997930D01*
X166713025Y-67998269D01*
X166658624Y-68129604D01*
X166623000Y-68308699D01*
X166623000Y-68491301D01*
X166658624Y-68670396D01*
X166728504Y-68839099D01*
X166829952Y-68990928D01*
X166959072Y-69120048D01*
X167110901Y-69221496D01*
X167279604Y-69291376D01*
X167458699Y-69327000D01*
X167641301Y-69327000D01*
X167820396Y-69291376D01*
X167989099Y-69221496D01*
X168140928Y-69120048D01*
X168270048Y-68990928D01*
X168371496Y-68839099D01*
X168441376Y-68670396D01*
X168477000Y-68491301D01*
X168477000Y-68308699D01*
X168441376Y-68129604D01*
X168371496Y-67960901D01*
X168270048Y-67809072D01*
X168140928Y-67679952D01*
X167989099Y-67578504D01*
X167941390Y-67558742D01*
X167740955Y-66938349D01*
X167726872Y-66888397D01*
X167706677Y-66848751D01*
X167688912Y-66807952D01*
X167659309Y-66765326D01*
X167279510Y-66171891D01*
X167267572Y-66147531D01*
X167244982Y-66117940D01*
X167242259Y-66113686D01*
X167225543Y-66092478D01*
X167189638Y-66045446D01*
X167185825Y-66042085D01*
X167182675Y-66038089D01*
X167137674Y-65999647D01*
X167117427Y-65981802D01*
X167113328Y-65978849D01*
X167085022Y-65954669D01*
X167061359Y-65941414D01*
X166540577Y-65566274D01*
X166537574Y-65563136D01*
X166488586Y-65528823D01*
X166466022Y-65512569D01*
X166462274Y-65510393D01*
X166432379Y-65489453D01*
X166406880Y-65478228D01*
X166382781Y-65464235D01*
X166348243Y-65452416D01*
X166344282Y-65450672D01*
X166317882Y-65442026D01*
X166261266Y-65422651D01*
X166256961Y-65422073D01*
X165160753Y-65063054D01*
X165110570Y-65044760D01*
X165068092Y-65038200D01*
X165026128Y-65028890D01*
X164972721Y-65027716D01*
X163185200Y-64929230D01*
X163167190Y-64925664D01*
X163121231Y-64925705D01*
X163107454Y-64924946D01*
X163089206Y-64925734D01*
X163070935Y-64925750D01*
X163057200Y-64927115D01*
X163011289Y-64929097D01*
X162993456Y-64933451D01*
X161376796Y-65094144D01*
X159336492Y-65143666D01*
X159332771Y-65143433D01*
X159304535Y-65144441D01*
X159276207Y-65145129D01*
X159272496Y-65145586D01*
X157348136Y-65214313D01*
X157322780Y-65212202D01*
X157284129Y-65216599D01*
X157277408Y-65216839D01*
X157252336Y-65220216D01*
X157227141Y-65223082D01*
X157220551Y-65224497D01*
X157182014Y-65229687D01*
X157157953Y-65237935D01*
X154379842Y-65834309D01*
X154340314Y-65839758D01*
X154286936Y-65858240D01*
X154233127Y-65875455D01*
X154198222Y-65894796D01*
X150319891Y-67680539D01*
X150306778Y-67685723D01*
X150290789Y-67693939D01*
X150274504Y-67701437D01*
X150262369Y-67708542D01*
X148297102Y-68718363D01*
X148276196Y-68709704D01*
X148097101Y-68674080D01*
X147914499Y-68674080D01*
X147735404Y-68709704D01*
X147566701Y-68779584D01*
X147414872Y-68881032D01*
X147285752Y-69010152D01*
X147184304Y-69161981D01*
X147114424Y-69330684D01*
X147078800Y-69509779D01*
X137709054Y-69509779D01*
X137559466Y-69427475D01*
X137056743Y-69268292D01*
X136532624Y-69210244D01*
X136007252Y-69255563D01*
X135500816Y-69402505D01*
X135032778Y-69645425D01*
X134978526Y-69681675D01*
X134743433Y-70040195D01*
X133718404Y-70040195D01*
X138489993Y-61822459D01*
X143873000Y-61822459D01*
X143873000Y-62044459D01*
X143916310Y-62262193D01*
X144001266Y-62467294D01*
X144124602Y-62651880D01*
X144281579Y-62808857D01*
X144466165Y-62932193D01*
X144671266Y-63017149D01*
X144889000Y-63060459D01*
X145111000Y-63060459D01*
X145328734Y-63017149D01*
X145533835Y-62932193D01*
X145718421Y-62808857D01*
X145875398Y-62651880D01*
X145998734Y-62467294D01*
X146083690Y-62262193D01*
X146127000Y-62044459D01*
X146127000Y-61822459D01*
X146083690Y-61604725D01*
X145998734Y-61399624D01*
X145875398Y-61215038D01*
X145718421Y-61058061D01*
X145533835Y-60934725D01*
X145328734Y-60849769D01*
X145111000Y-60806459D01*
X144889000Y-60806459D01*
X144671266Y-60849769D01*
X144466165Y-60934725D01*
X144281579Y-61058061D01*
X144124602Y-61215038D01*
X144001266Y-61399624D01*
X143916310Y-61604725D01*
X143873000Y-61822459D01*
X138489993Y-61822459D01*
X139921159Y-59357672D01*
X163624027Y-59357672D01*
X163624027Y-59540274D01*
X163659651Y-59719369D01*
X163729531Y-59888072D01*
X163830979Y-60039901D01*
X163960099Y-60169021D01*
X164111928Y-60270469D01*
X164280631Y-60340349D01*
X164459726Y-60375973D01*
X164642328Y-60375973D01*
X164821423Y-60340349D01*
X164879607Y-60316248D01*
X166579524Y-61093836D01*
X166599097Y-61105975D01*
X166637750Y-61120470D01*
X166646065Y-61124274D01*
X166667773Y-61131729D01*
X166689224Y-61139774D01*
X166698044Y-61142126D01*
X166737101Y-61155540D01*
X166759930Y-61158629D01*
X168854732Y-61717243D01*
X168883902Y-61725062D01*
X168884298Y-61725127D01*
X168884705Y-61725236D01*
X168915807Y-61730332D01*
X170588387Y-62006630D01*
X170601978Y-62011081D01*
X170651592Y-62017071D01*
X170669209Y-62019981D01*
X170683424Y-62020914D01*
X170697540Y-62022618D01*
X170715362Y-62023010D01*
X170765258Y-62026284D01*
X170779441Y-62024418D01*
X172493263Y-62062085D01*
X173499419Y-62354195D01*
X174164610Y-63063733D01*
X174216316Y-63320972D01*
X174155264Y-63468364D01*
X174119640Y-63647459D01*
X174119640Y-63830061D01*
X174155264Y-64009156D01*
X174225144Y-64177859D01*
X174326592Y-64329688D01*
X174455712Y-64458808D01*
X174607541Y-64560256D01*
X174776244Y-64630136D01*
X174955339Y-64665760D01*
X175137941Y-64665760D01*
X175317036Y-64630136D01*
X175485739Y-64560256D01*
X175637568Y-64458808D01*
X175766688Y-64329688D01*
X175868136Y-64177859D01*
X175938016Y-64009156D01*
X175973640Y-63830061D01*
X175973640Y-63647459D01*
X175938016Y-63468364D01*
X175868136Y-63299661D01*
X175766688Y-63147832D01*
X175637568Y-63018712D01*
X175485739Y-62917264D01*
X175463389Y-62908006D01*
X175414974Y-62667140D01*
X175413592Y-62646208D01*
X175402348Y-62604324D01*
X175400144Y-62593361D01*
X175394051Y-62573420D01*
X175380292Y-62522169D01*
X175375306Y-62512070D01*
X175372017Y-62501307D01*
X175354611Y-62468899D01*
X178021080Y-62468899D01*
X178021080Y-62651501D01*
X178056704Y-62830596D01*
X178126584Y-62999299D01*
X178228032Y-63151128D01*
X178357152Y-63280248D01*
X178508981Y-63381696D01*
X178677684Y-63451576D01*
X178856779Y-63487200D01*
X179039381Y-63487200D01*
X179218476Y-63451576D01*
X179387179Y-63381696D01*
X179539008Y-63280248D01*
X179668128Y-63151128D01*
X179769576Y-62999299D01*
X179839456Y-62830596D01*
X179875080Y-62651501D01*
X179875080Y-62468899D01*
X179839456Y-62289804D01*
X179769576Y-62121101D01*
X179668128Y-61969272D01*
X179539008Y-61840152D01*
X179387179Y-61738704D01*
X179218476Y-61668824D01*
X179039381Y-61633200D01*
X178856779Y-61633200D01*
X178677684Y-61668824D01*
X178508981Y-61738704D01*
X178357152Y-61840152D01*
X178228032Y-61969272D01*
X178126584Y-62121101D01*
X178056704Y-62289804D01*
X178021080Y-62468899D01*
X175354611Y-62468899D01*
X175346927Y-62454593D01*
X175323432Y-62407008D01*
X175316571Y-62398075D01*
X175311246Y-62388161D01*
X175277521Y-62347234D01*
X175264799Y-62330671D01*
X175257142Y-62322503D01*
X175229571Y-62289045D01*
X175213331Y-62275772D01*
X174362480Y-61368198D01*
X174354269Y-61356223D01*
X174318656Y-61321453D01*
X174306597Y-61308590D01*
X174295727Y-61299067D01*
X174262373Y-61266502D01*
X174247524Y-61256835D01*
X174234197Y-61245159D01*
X174193815Y-61221870D01*
X174154739Y-61196431D01*
X174138288Y-61189846D01*
X174122940Y-61180995D01*
X174078782Y-61166029D01*
X174065376Y-61160663D01*
X174048459Y-61155752D01*
X174001305Y-61139770D01*
X173986906Y-61137881D01*
X172785385Y-60789053D01*
X172734902Y-60772519D01*
X172691942Y-60767333D01*
X172649407Y-60759400D01*
X172596287Y-60760036D01*
X170804474Y-60720655D01*
X169159211Y-60448870D01*
X167109332Y-59902235D01*
X165422554Y-59130658D01*
X165372523Y-59009874D01*
X165271075Y-58858045D01*
X165141955Y-58728925D01*
X164990126Y-58627477D01*
X164821423Y-58557597D01*
X164642328Y-58521973D01*
X164459726Y-58521973D01*
X164280631Y-58557597D01*
X164111928Y-58627477D01*
X163960099Y-58728925D01*
X163830979Y-58858045D01*
X163729531Y-59009874D01*
X163659651Y-59178577D01*
X163624027Y-59357672D01*
X139921159Y-59357672D01*
X142512821Y-54894256D01*
X147873000Y-54894256D01*
X147873000Y-55116256D01*
X147916310Y-55333990D01*
X148001266Y-55539091D01*
X148124602Y-55723677D01*
X148281579Y-55880654D01*
X148466165Y-56003990D01*
X148671266Y-56088946D01*
X148889000Y-56132256D01*
X149111000Y-56132256D01*
X149328734Y-56088946D01*
X149533835Y-56003990D01*
X149718421Y-55880654D01*
X149875398Y-55723677D01*
X149931029Y-55640419D01*
X191083693Y-55640419D01*
X191155007Y-55713407D01*
X191322580Y-55834462D01*
X191510549Y-55920499D01*
X191711692Y-55968212D01*
X191918278Y-55975767D01*
X192122368Y-55942874D01*
X192316119Y-55870797D01*
X192684180Y-55658297D01*
X192194680Y-54810458D01*
X191095391Y-55445133D01*
X191083693Y-55640419D01*
X149931029Y-55640419D01*
X149998734Y-55539091D01*
X150083690Y-55333990D01*
X150127000Y-55116256D01*
X150127000Y-54927277D01*
X190798817Y-54927277D01*
X190819867Y-55132927D01*
X190847419Y-55231181D01*
X191022391Y-55318693D01*
X192121680Y-54684018D01*
X191632180Y-53836179D01*
X191264119Y-54048679D01*
X191104823Y-54180434D01*
X190974292Y-54340735D01*
X190877542Y-54523421D01*
X190818291Y-54721472D01*
X190798817Y-54927277D01*
X150127000Y-54927277D01*
X150127000Y-54894256D01*
X150083690Y-54676522D01*
X149998734Y-54471421D01*
X149875398Y-54286835D01*
X149718421Y-54129858D01*
X149533835Y-54006522D01*
X149328734Y-53921566D01*
X149111000Y-53878256D01*
X148889000Y-53878256D01*
X148671266Y-53921566D01*
X148466165Y-54006522D01*
X148281579Y-54129858D01*
X148124602Y-54286835D01*
X148001266Y-54471421D01*
X147916310Y-54676522D01*
X147873000Y-54894256D01*
X142512821Y-54894256D01*
X143181341Y-53742916D01*
X180890544Y-53742916D01*
X180893278Y-53826401D01*
X180894747Y-53871279D01*
X180923910Y-53996356D01*
X180976915Y-54113341D01*
X181051725Y-54217737D01*
X181145463Y-54305532D01*
X181254528Y-54373353D01*
X181374729Y-54418594D01*
X181406483Y-54423837D01*
X182038549Y-54593198D01*
X182068669Y-54604535D01*
X182195386Y-54625456D01*
X182319548Y-54621391D01*
X182323751Y-54621253D01*
X182448828Y-54592090D01*
X182565813Y-54539085D01*
X182670209Y-54464276D01*
X182758004Y-54370537D01*
X182825825Y-54261472D01*
X182871066Y-54141271D01*
X182891987Y-54014554D01*
X182887785Y-53886189D01*
X182859850Y-53766384D01*
X182910591Y-53712208D01*
X182943945Y-53676597D01*
X183011766Y-53567532D01*
X183057007Y-53447331D01*
X183062250Y-53415574D01*
X183231612Y-52783507D01*
X183242948Y-52753389D01*
X183263869Y-52626671D01*
X183259666Y-52498308D01*
X183244590Y-52433649D01*
X183230503Y-52373231D01*
X183177498Y-52256246D01*
X183158754Y-52230089D01*
X182936775Y-51845611D01*
X182923497Y-51816306D01*
X182848688Y-51711910D01*
X182754950Y-51624114D01*
X182645885Y-51556293D01*
X182525684Y-51511052D01*
X182398966Y-51490131D01*
X182270603Y-51494334D01*
X182145525Y-51523498D01*
X182057849Y-51563223D01*
X182057846Y-51563225D01*
X182028542Y-51576502D01*
X182002391Y-51595242D01*
X181617914Y-51817220D01*
X181588601Y-51830502D01*
X181484204Y-51905311D01*
X181396409Y-51999049D01*
X181355986Y-52064055D01*
X181328588Y-52108115D01*
X181283347Y-52228316D01*
X181278105Y-52260068D01*
X181108742Y-52892140D01*
X181097406Y-52922257D01*
X181076485Y-53048975D01*
X181080494Y-53171412D01*
X181080688Y-53177338D01*
X181108622Y-53297144D01*
X181029531Y-53381589D01*
X181024527Y-53386932D01*
X180956706Y-53495997D01*
X180911465Y-53616198D01*
X180890544Y-53742916D01*
X143181341Y-53742916D01*
X147352180Y-46559805D01*
X150493433Y-46559805D01*
X150728526Y-46918325D01*
X151190534Y-47172525D01*
X151693257Y-47331708D01*
X152217376Y-47389756D01*
X152742748Y-47344437D01*
X153249184Y-47197495D01*
X153717222Y-46954575D01*
X153771474Y-46918325D01*
X154006567Y-46559805D01*
X181993433Y-46559805D01*
X182228526Y-46918325D01*
X182690534Y-47172525D01*
X183193257Y-47331708D01*
X183717376Y-47389756D01*
X184242748Y-47344437D01*
X184749184Y-47197495D01*
X185217222Y-46954575D01*
X185271474Y-46918325D01*
X185506567Y-46559805D01*
X183750000Y-44803238D01*
X181993433Y-46559805D01*
X154006567Y-46559805D01*
X152250000Y-44803238D01*
X150493433Y-46559805D01*
X147352180Y-46559805D01*
X148451010Y-44667376D01*
X149560244Y-44667376D01*
X149605563Y-45192748D01*
X149752505Y-45699184D01*
X149995425Y-46167222D01*
X150031675Y-46221474D01*
X150390195Y-46456567D01*
X152146762Y-44700000D01*
X152353238Y-44700000D01*
X154109805Y-46456567D01*
X154468325Y-46221474D01*
X154722525Y-45759466D01*
X154881708Y-45256743D01*
X154939756Y-44732624D01*
X154934128Y-44667376D01*
X181060244Y-44667376D01*
X181105563Y-45192748D01*
X181252505Y-45699184D01*
X181495425Y-46167222D01*
X181531675Y-46221474D01*
X181890195Y-46456567D01*
X183646762Y-44700000D01*
X183853238Y-44700000D01*
X185609805Y-46456567D01*
X185968325Y-46221474D01*
X186222525Y-45759466D01*
X186381708Y-45256743D01*
X186439756Y-44732624D01*
X186394437Y-44207252D01*
X186247495Y-43700816D01*
X186004575Y-43232778D01*
X185968325Y-43178526D01*
X185609805Y-42943433D01*
X183853238Y-44700000D01*
X183646762Y-44700000D01*
X181890195Y-42943433D01*
X181531675Y-43178526D01*
X181277475Y-43640534D01*
X181118292Y-44143257D01*
X181060244Y-44667376D01*
X154934128Y-44667376D01*
X154894437Y-44207252D01*
X154747495Y-43700816D01*
X154504575Y-43232778D01*
X154468325Y-43178526D01*
X154109805Y-42943433D01*
X152353238Y-44700000D01*
X152146762Y-44700000D01*
X150390195Y-42943433D01*
X150031675Y-43178526D01*
X149777475Y-43640534D01*
X149618292Y-44143257D01*
X149560244Y-44667376D01*
X148451010Y-44667376D01*
X149511954Y-42840195D01*
X150493433Y-42840195D01*
X152250000Y-44596762D01*
X154006567Y-42840195D01*
X181993433Y-42840195D01*
X183750000Y-44596762D01*
X185506567Y-42840195D01*
X185271474Y-42481675D01*
X184809466Y-42227475D01*
X184306743Y-42068292D01*
X183782624Y-42010244D01*
X183257252Y-42055563D01*
X182750816Y-42202505D01*
X182282778Y-42445425D01*
X182228526Y-42481675D01*
X181993433Y-42840195D01*
X154006567Y-42840195D01*
X153771474Y-42481675D01*
X153309466Y-42227475D01*
X152806743Y-42068292D01*
X152282624Y-42010244D01*
X151757252Y-42055563D01*
X151250816Y-42202505D01*
X150782778Y-42445425D01*
X150728526Y-42481675D01*
X150493433Y-42840195D01*
X149511954Y-42840195D01*
X150313590Y-41459600D01*
X185678011Y-41459600D01*
X192640142Y-53449937D01*
%TD*%
M02*
