%TF.GenerationSoftware,KiCad,Pcbnew,5.1.6-c6e7f7d~86~ubuntu18.04.1*%
%TF.CreationDate,2020-07-24T20:28:44-07:00*%
%TF.ProjectId,stm32f042_breakout,73746d33-3266-4303-9432-5f627265616b,rev?*%
%TF.SameCoordinates,Original*%
%TF.FileFunction,Paste,Top*%
%TF.FilePolarity,Positive*%
%FSLAX46Y46*%
G04 Gerber Fmt 4.6, Leading zero omitted, Abs format (unit mm)*
G04 Created by KiCad (PCBNEW 5.1.6-c6e7f7d~86~ubuntu18.04.1) date 2020-07-24 20:28:44*
%MOMM*%
%LPD*%
G01*
G04 APERTURE LIST*
%ADD10R,1.000000X3.150000*%
%ADD11C,0.100000*%
%ADD12R,0.900000X0.800000*%
G04 APERTURE END LIST*
%TO.C,J7*%
G36*
G01*
X142447705Y-65194164D02*
X144145115Y-66174164D01*
G75*
G02*
X144189038Y-66338087I-60000J-103923D01*
G01*
X143709038Y-67169471D01*
G75*
G02*
X143545115Y-67213394I-103923J60000D01*
G01*
X141847705Y-66233394D01*
G75*
G02*
X141803782Y-66069471I60000J103923D01*
G01*
X142283782Y-65238087D01*
G75*
G02*
X142447705Y-65194164I103923J-60000D01*
G01*
G37*
G36*
G01*
X151640639Y-69231536D02*
X152679869Y-69831535D01*
G75*
G02*
X152734773Y-70036439I-75000J-129904D01*
G01*
X152084773Y-71162273D01*
G75*
G02*
X151879869Y-71217177I-129904J75000D01*
G01*
X150840639Y-70617177D01*
G75*
G02*
X150785735Y-70412273I75000J129904D01*
G01*
X151435735Y-69286439D01*
G75*
G02*
X151640639Y-69231535I129904J-75000D01*
G01*
G37*
G36*
G01*
X158814658Y-56745770D02*
X159905850Y-57375770D01*
G75*
G02*
X159949773Y-57539693I-60000J-103923D01*
G01*
X159469773Y-58371077D01*
G75*
G02*
X159305850Y-58415000I-103923J60000D01*
G01*
X158214658Y-57785000D01*
G75*
G02*
X158170735Y-57621077I60000J103923D01*
G01*
X158650735Y-56789693D01*
G75*
G02*
X158814658Y-56745770I103923J-60000D01*
G01*
G37*
G36*
G01*
X150197705Y-51770770D02*
X151895115Y-52750770D01*
G75*
G02*
X151939038Y-52914693I-60000J-103923D01*
G01*
X151459038Y-53746077D01*
G75*
G02*
X151295115Y-53790000I-103923J60000D01*
G01*
X149597705Y-52810000D01*
G75*
G02*
X149553782Y-52646077I60000J103923D01*
G01*
X150033782Y-51814693D01*
G75*
G02*
X150197705Y-51770770I103923J-60000D01*
G01*
G37*
G36*
G01*
X158869080Y-58451506D02*
X160133478Y-59181506D01*
G75*
G02*
X160159100Y-59277128I-35000J-60622D01*
G01*
X159879100Y-59762102D01*
G75*
G02*
X159783478Y-59787724I-60622J35000D01*
G01*
X158519080Y-59057724D01*
G75*
G02*
X158493458Y-58962102I35000J60622D01*
G01*
X158773458Y-58477128D01*
G75*
G02*
X158869080Y-58451506I60622J-35000D01*
G01*
G37*
G36*
G01*
X158319080Y-59404134D02*
X159583478Y-60134134D01*
G75*
G02*
X159609100Y-60229756I-35000J-60622D01*
G01*
X159329100Y-60714730D01*
G75*
G02*
X159233478Y-60740352I-60622J35000D01*
G01*
X157969080Y-60010352D01*
G75*
G02*
X157943458Y-59914730I35000J60622D01*
G01*
X158223458Y-59429756D01*
G75*
G02*
X158319080Y-59404134I60622J-35000D01*
G01*
G37*
G36*
G01*
X157769080Y-60356762D02*
X159033478Y-61086762D01*
G75*
G02*
X159059100Y-61182384I-35000J-60622D01*
G01*
X158779100Y-61667358D01*
G75*
G02*
X158683478Y-61692980I-60622J35000D01*
G01*
X157419080Y-60962980D01*
G75*
G02*
X157393458Y-60867358I35000J60622D01*
G01*
X157673458Y-60382384D01*
G75*
G02*
X157769080Y-60356762I60622J-35000D01*
G01*
G37*
G36*
G01*
X157219080Y-61309390D02*
X158483478Y-62039390D01*
G75*
G02*
X158509100Y-62135012I-35000J-60622D01*
G01*
X158229100Y-62619986D01*
G75*
G02*
X158133478Y-62645608I-60622J35000D01*
G01*
X156869080Y-61915608D01*
G75*
G02*
X156843458Y-61819986I35000J60622D01*
G01*
X157123458Y-61335012D01*
G75*
G02*
X157219080Y-61309390I60622J-35000D01*
G01*
G37*
G36*
G01*
X156669080Y-62262018D02*
X157933478Y-62992018D01*
G75*
G02*
X157959100Y-63087640I-35000J-60622D01*
G01*
X157679100Y-63572614D01*
G75*
G02*
X157583478Y-63598236I-60622J35000D01*
G01*
X156319080Y-62868236D01*
G75*
G02*
X156293458Y-62772614I35000J60622D01*
G01*
X156573458Y-62287640D01*
G75*
G02*
X156669080Y-62262018I60622J-35000D01*
G01*
G37*
G36*
G01*
X156119080Y-63214646D02*
X157383478Y-63944646D01*
G75*
G02*
X157409100Y-64040268I-35000J-60622D01*
G01*
X157129100Y-64525242D01*
G75*
G02*
X157033478Y-64550864I-60622J35000D01*
G01*
X155769080Y-63820864D01*
G75*
G02*
X155743458Y-63725242I35000J60622D01*
G01*
X156023458Y-63240268D01*
G75*
G02*
X156119080Y-63214646I60622J-35000D01*
G01*
G37*
G36*
G01*
X155569080Y-64167274D02*
X156833478Y-64897274D01*
G75*
G02*
X156859100Y-64992896I-35000J-60622D01*
G01*
X156579100Y-65477870D01*
G75*
G02*
X156483478Y-65503492I-60622J35000D01*
G01*
X155219080Y-64773492D01*
G75*
G02*
X155193458Y-64677870I35000J60622D01*
G01*
X155473458Y-64192896D01*
G75*
G02*
X155569080Y-64167274I60622J-35000D01*
G01*
G37*
G36*
G01*
X155019080Y-65119902D02*
X156283478Y-65849902D01*
G75*
G02*
X156309100Y-65945524I-35000J-60622D01*
G01*
X156029100Y-66430498D01*
G75*
G02*
X155933478Y-66456120I-60622J35000D01*
G01*
X154669080Y-65726120D01*
G75*
G02*
X154643458Y-65630498I35000J60622D01*
G01*
X154923458Y-65145524D01*
G75*
G02*
X155019080Y-65119902I60622J-35000D01*
G01*
G37*
G36*
G01*
X154469080Y-66072530D02*
X155733478Y-66802530D01*
G75*
G02*
X155759100Y-66898152I-35000J-60622D01*
G01*
X155479100Y-67383126D01*
G75*
G02*
X155383478Y-67408748I-60622J35000D01*
G01*
X154119080Y-66678748D01*
G75*
G02*
X154093458Y-66583126I35000J60622D01*
G01*
X154373458Y-66098152D01*
G75*
G02*
X154469080Y-66072530I60622J-35000D01*
G01*
G37*
%TD*%
D10*
%TO.C,J4*%
X178160000Y-94475000D03*
X178160000Y-99525000D03*
X175620000Y-94475000D03*
X175620000Y-99525000D03*
X173080000Y-94475000D03*
X173080000Y-99525000D03*
X170540000Y-94475000D03*
X170540000Y-99525000D03*
X168000000Y-94475000D03*
X168000000Y-99525000D03*
X165460000Y-94475000D03*
X165460000Y-99525000D03*
X162920000Y-94475000D03*
X162920000Y-99525000D03*
X160380000Y-94475000D03*
X160380000Y-99525000D03*
X157840000Y-94475000D03*
X157840000Y-99525000D03*
%TD*%
%TO.C,C1*%
G36*
G01*
X179770754Y-56302219D02*
X180027004Y-55858381D01*
G75*
G02*
X180325822Y-55778313I189443J-109375D01*
G01*
X180704708Y-55997063D01*
G75*
G02*
X180784776Y-56295881I-109375J-189443D01*
G01*
X180528526Y-56739719D01*
G75*
G02*
X180229708Y-56819787I-189443J109375D01*
G01*
X179850822Y-56601037D01*
G75*
G02*
X179770754Y-56302219I109375J189443D01*
G01*
G37*
G36*
G01*
X181134744Y-57089719D02*
X181390994Y-56645881D01*
G75*
G02*
X181689812Y-56565813I189443J-109375D01*
G01*
X182068698Y-56784563D01*
G75*
G02*
X182148766Y-57083381I-109375J-189443D01*
G01*
X181892516Y-57527219D01*
G75*
G02*
X181593698Y-57607287I-189443J109375D01*
G01*
X181214812Y-57388537D01*
G75*
G02*
X181134744Y-57089719I109375J189443D01*
G01*
G37*
%TD*%
%TO.C,C2*%
G36*
G01*
X176390590Y-59760600D02*
X176903090Y-59760600D01*
G75*
G02*
X177121840Y-59979350I0J-218750D01*
G01*
X177121840Y-60416850D01*
G75*
G02*
X176903090Y-60635600I-218750J0D01*
G01*
X176390590Y-60635600D01*
G75*
G02*
X176171840Y-60416850I0J218750D01*
G01*
X176171840Y-59979350D01*
G75*
G02*
X176390590Y-59760600I218750J0D01*
G01*
G37*
G36*
G01*
X176390590Y-58185600D02*
X176903090Y-58185600D01*
G75*
G02*
X177121840Y-58404350I0J-218750D01*
G01*
X177121840Y-58841850D01*
G75*
G02*
X176903090Y-59060600I-218750J0D01*
G01*
X176390590Y-59060600D01*
G75*
G02*
X176171840Y-58841850I0J218750D01*
G01*
X176171840Y-58404350D01*
G75*
G02*
X176390590Y-58185600I218750J0D01*
G01*
G37*
%TD*%
%TO.C,C3*%
G36*
G01*
X156179497Y-77712558D02*
X155735659Y-77456308D01*
G75*
G02*
X155655591Y-77157490I109375J189443D01*
G01*
X155874341Y-76778604D01*
G75*
G02*
X156173159Y-76698536I189443J-109375D01*
G01*
X156616997Y-76954786D01*
G75*
G02*
X156697065Y-77253604I-109375J-189443D01*
G01*
X156478315Y-77632490D01*
G75*
G02*
X156179497Y-77712558I-189443J109375D01*
G01*
G37*
G36*
G01*
X155391997Y-79076548D02*
X154948159Y-78820298D01*
G75*
G02*
X154868091Y-78521480I109375J189443D01*
G01*
X155086841Y-78142594D01*
G75*
G02*
X155385659Y-78062526I189443J-109375D01*
G01*
X155829497Y-78318776D01*
G75*
G02*
X155909565Y-78617594I-109375J-189443D01*
G01*
X155690815Y-78996480D01*
G75*
G02*
X155391997Y-79076548I-189443J109375D01*
G01*
G37*
%TD*%
%TO.C,C4*%
G36*
G01*
X172265869Y-75226201D02*
X171822031Y-74969951D01*
G75*
G02*
X171741963Y-74671133I109375J189443D01*
G01*
X171960713Y-74292247D01*
G75*
G02*
X172259531Y-74212179I189443J-109375D01*
G01*
X172703369Y-74468429D01*
G75*
G02*
X172783437Y-74767247I-109375J-189443D01*
G01*
X172564687Y-75146133D01*
G75*
G02*
X172265869Y-75226201I-189443J109375D01*
G01*
G37*
G36*
G01*
X173053369Y-73862211D02*
X172609531Y-73605961D01*
G75*
G02*
X172529463Y-73307143I109375J189443D01*
G01*
X172748213Y-72928257D01*
G75*
G02*
X173047031Y-72848189I189443J-109375D01*
G01*
X173490869Y-73104439D01*
G75*
G02*
X173570937Y-73403257I-109375J-189443D01*
G01*
X173352187Y-73782143D01*
G75*
G02*
X173053369Y-73862211I-189443J109375D01*
G01*
G37*
%TD*%
%TO.C,C5*%
G36*
G01*
X168846919Y-62068766D02*
X168403081Y-62325016D01*
G75*
G02*
X168104263Y-62244948I-109375J189443D01*
G01*
X167885513Y-61866062D01*
G75*
G02*
X167965581Y-61567244I189443J109375D01*
G01*
X168409419Y-61310994D01*
G75*
G02*
X168708237Y-61391062I109375J-189443D01*
G01*
X168926987Y-61769948D01*
G75*
G02*
X168846919Y-62068766I-189443J-109375D01*
G01*
G37*
G36*
G01*
X169634419Y-63432756D02*
X169190581Y-63689006D01*
G75*
G02*
X168891763Y-63608938I-109375J189443D01*
G01*
X168673013Y-63230052D01*
G75*
G02*
X168753081Y-62931234I189443J109375D01*
G01*
X169196919Y-62674984D01*
G75*
G02*
X169495737Y-62755052I109375J-189443D01*
G01*
X169714487Y-63133938D01*
G75*
G02*
X169634419Y-63432756I-189443J-109375D01*
G01*
G37*
%TD*%
%TO.C,C6*%
G36*
G01*
X163967244Y-62434419D02*
X163710994Y-61990581D01*
G75*
G02*
X163791062Y-61691763I189443J109375D01*
G01*
X164169948Y-61473013D01*
G75*
G02*
X164468766Y-61553081I109375J-189443D01*
G01*
X164725016Y-61996919D01*
G75*
G02*
X164644948Y-62295737I-189443J-109375D01*
G01*
X164266062Y-62514487D01*
G75*
G02*
X163967244Y-62434419I-109375J189443D01*
G01*
G37*
G36*
G01*
X165331234Y-61646919D02*
X165074984Y-61203081D01*
G75*
G02*
X165155052Y-60904263I189443J109375D01*
G01*
X165533938Y-60685513D01*
G75*
G02*
X165832756Y-60765581I109375J-189443D01*
G01*
X166089006Y-61209419D01*
G75*
G02*
X166008938Y-61508237I-189443J-109375D01*
G01*
X165630052Y-61726987D01*
G75*
G02*
X165331234Y-61646919I-109375J189443D01*
G01*
G37*
%TD*%
%TO.C,C7*%
G36*
G01*
X162001605Y-82930125D02*
X161557767Y-82673875D01*
G75*
G02*
X161477699Y-82375057I109375J189443D01*
G01*
X161696449Y-81996171D01*
G75*
G02*
X161995267Y-81916103I189443J-109375D01*
G01*
X162439105Y-82172353D01*
G75*
G02*
X162519173Y-82471171I-109375J-189443D01*
G01*
X162300423Y-82850057D01*
G75*
G02*
X162001605Y-82930125I-189443J109375D01*
G01*
G37*
G36*
G01*
X162789105Y-81566135D02*
X162345267Y-81309885D01*
G75*
G02*
X162265199Y-81011067I109375J189443D01*
G01*
X162483949Y-80632181D01*
G75*
G02*
X162782767Y-80552113I189443J-109375D01*
G01*
X163226605Y-80808363D01*
G75*
G02*
X163306673Y-81107181I-109375J-189443D01*
G01*
X163087923Y-81486067D01*
G75*
G02*
X162789105Y-81566135I-189443J109375D01*
G01*
G37*
%TD*%
%TO.C,C8*%
G36*
G01*
X160791431Y-65182479D02*
X161235269Y-65438729D01*
G75*
G02*
X161315337Y-65737547I-109375J-189443D01*
G01*
X161096587Y-66116433D01*
G75*
G02*
X160797769Y-66196501I-189443J109375D01*
G01*
X160353931Y-65940251D01*
G75*
G02*
X160273863Y-65641433I109375J189443D01*
G01*
X160492613Y-65262547D01*
G75*
G02*
X160791431Y-65182479I189443J-109375D01*
G01*
G37*
G36*
G01*
X161578931Y-63818489D02*
X162022769Y-64074739D01*
G75*
G02*
X162102837Y-64373557I-109375J-189443D01*
G01*
X161884087Y-64752443D01*
G75*
G02*
X161585269Y-64832511I-189443J109375D01*
G01*
X161141431Y-64576261D01*
G75*
G02*
X161061363Y-64277443I109375J189443D01*
G01*
X161280113Y-63898557D01*
G75*
G02*
X161578931Y-63818489I189443J-109375D01*
G01*
G37*
%TD*%
D11*
%TO.C,J2*%
G36*
X194706624Y-57115272D02*
G01*
X193061176Y-58065272D01*
X192186176Y-56549728D01*
X193831624Y-55599728D01*
X194706624Y-57115272D01*
G37*
G36*
X192745151Y-59517901D02*
G01*
X191532715Y-60217901D01*
X191332715Y-59871491D01*
X192545151Y-59171491D01*
X192745151Y-59517901D01*
G37*
G36*
X193070151Y-60080817D02*
G01*
X191857715Y-60780817D01*
X191657715Y-60434407D01*
X192870151Y-59734407D01*
X193070151Y-60080817D01*
G37*
G36*
X191770151Y-57829151D02*
G01*
X190557715Y-58529151D01*
X190357715Y-58182741D01*
X191570151Y-57482741D01*
X191770151Y-57829151D01*
G37*
G36*
X192095151Y-58392067D02*
G01*
X190882715Y-59092067D01*
X190682715Y-58745657D01*
X191895151Y-58045657D01*
X192095151Y-58392067D01*
G37*
G36*
X192420151Y-58954984D02*
G01*
X191207715Y-59654984D01*
X191007715Y-59308574D01*
X192220151Y-58608574D01*
X192420151Y-58954984D01*
G37*
G36*
X195831624Y-59063830D02*
G01*
X194186176Y-60013830D01*
X193311176Y-58498286D01*
X194956624Y-57548286D01*
X195831624Y-59063830D01*
G37*
G36*
X191833032Y-57048065D02*
G01*
X190577296Y-57773065D01*
X190002296Y-56777135D01*
X191258032Y-56052135D01*
X191833032Y-57048065D01*
G37*
G36*
X194153032Y-61066423D02*
G01*
X192897296Y-61791423D01*
X192322296Y-60795493D01*
X193578032Y-60070493D01*
X194153032Y-61066423D01*
G37*
%TD*%
D10*
%TO.C,J3*%
X178160000Y-44475000D03*
X178160000Y-49525000D03*
X175620000Y-44475000D03*
X175620000Y-49525000D03*
X173080000Y-44475000D03*
X173080000Y-49525000D03*
X170540000Y-44475000D03*
X170540000Y-49525000D03*
X168000000Y-44475000D03*
X168000000Y-49525000D03*
X165460000Y-44475000D03*
X165460000Y-49525000D03*
X162920000Y-44475000D03*
X162920000Y-49525000D03*
X160380000Y-44475000D03*
X160380000Y-49525000D03*
X157840000Y-44475000D03*
X157840000Y-49525000D03*
%TD*%
D11*
%TO.C,J5*%
G36*
X189175796Y-77282904D02*
G01*
X189675796Y-76416878D01*
X192403776Y-77991878D01*
X191903776Y-78857904D01*
X189175796Y-77282904D01*
G37*
G36*
X193549224Y-79807904D02*
G01*
X194049224Y-78941878D01*
X196777204Y-80516878D01*
X196277204Y-81382904D01*
X193549224Y-79807904D01*
G37*
G36*
X187905796Y-79482608D02*
G01*
X188405796Y-78616582D01*
X191133776Y-80191582D01*
X190633776Y-81057608D01*
X187905796Y-79482608D01*
G37*
G36*
X192279224Y-82007608D02*
G01*
X192779224Y-81141582D01*
X195507204Y-82716582D01*
X195007204Y-83582608D01*
X192279224Y-82007608D01*
G37*
G36*
X186635796Y-81682313D02*
G01*
X187135796Y-80816287D01*
X189863776Y-82391287D01*
X189363776Y-83257313D01*
X186635796Y-81682313D01*
G37*
G36*
X191009224Y-84207313D02*
G01*
X191509224Y-83341287D01*
X194237204Y-84916287D01*
X193737204Y-85782313D01*
X191009224Y-84207313D01*
G37*
G36*
X185365796Y-83882018D02*
G01*
X185865796Y-83015992D01*
X188593776Y-84590992D01*
X188093776Y-85457018D01*
X185365796Y-83882018D01*
G37*
G36*
X189739224Y-86407018D02*
G01*
X190239224Y-85540992D01*
X192967204Y-87115992D01*
X192467204Y-87982018D01*
X189739224Y-86407018D01*
G37*
G36*
X184095796Y-86081722D02*
G01*
X184595796Y-85215696D01*
X187323776Y-86790696D01*
X186823776Y-87656722D01*
X184095796Y-86081722D01*
G37*
G36*
X188469224Y-88606722D02*
G01*
X188969224Y-87740696D01*
X191697204Y-89315696D01*
X191197204Y-90181722D01*
X188469224Y-88606722D01*
G37*
%TD*%
%TO.C,J6*%
G36*
X157279623Y-79079777D02*
G01*
X157604623Y-78516861D01*
X158522609Y-79046861D01*
X158197609Y-79609777D01*
X157279623Y-79079777D01*
G37*
G36*
X156804623Y-79902501D02*
G01*
X157129623Y-79339585D01*
X158047609Y-79869585D01*
X157722609Y-80432501D01*
X156804623Y-79902501D01*
G37*
G36*
X156329623Y-80725225D02*
G01*
X156654623Y-80162309D01*
X157572609Y-80692309D01*
X157247609Y-81255225D01*
X156329623Y-80725225D01*
G37*
G36*
X158234879Y-81825225D02*
G01*
X158559879Y-81262309D01*
X159477865Y-81792309D01*
X159152865Y-82355225D01*
X158234879Y-81825225D01*
G37*
G36*
X159184879Y-80179777D02*
G01*
X159509879Y-79616861D01*
X160427865Y-80146861D01*
X160102865Y-80709777D01*
X159184879Y-80179777D01*
G37*
%TD*%
%TO.C,R1*%
G36*
G01*
X146375581Y-83037244D02*
X146819419Y-82780994D01*
G75*
G02*
X147118237Y-82861062I109375J-189443D01*
G01*
X147336987Y-83239948D01*
G75*
G02*
X147256919Y-83538766I-189443J-109375D01*
G01*
X146813081Y-83795016D01*
G75*
G02*
X146514263Y-83714948I-109375J189443D01*
G01*
X146295513Y-83336062D01*
G75*
G02*
X146375581Y-83037244I189443J109375D01*
G01*
G37*
G36*
G01*
X147163081Y-84401234D02*
X147606919Y-84144984D01*
G75*
G02*
X147905737Y-84225052I109375J-189443D01*
G01*
X148124487Y-84603938D01*
G75*
G02*
X148044419Y-84902756I-189443J-109375D01*
G01*
X147600581Y-85159006D01*
G75*
G02*
X147301763Y-85078938I-109375J189443D01*
G01*
X147083013Y-84700052D01*
G75*
G02*
X147163081Y-84401234I189443J109375D01*
G01*
G37*
%TD*%
%TO.C,R2*%
G36*
G01*
X143686919Y-85738766D02*
X143243081Y-85995016D01*
G75*
G02*
X142944263Y-85914948I-109375J189443D01*
G01*
X142725513Y-85536062D01*
G75*
G02*
X142805581Y-85237244I189443J109375D01*
G01*
X143249419Y-84980994D01*
G75*
G02*
X143548237Y-85061062I109375J-189443D01*
G01*
X143766987Y-85439948D01*
G75*
G02*
X143686919Y-85738766I-189443J-109375D01*
G01*
G37*
G36*
G01*
X144474419Y-87102756D02*
X144030581Y-87359006D01*
G75*
G02*
X143731763Y-87278938I-109375J189443D01*
G01*
X143513013Y-86900052D01*
G75*
G02*
X143593081Y-86601234I189443J109375D01*
G01*
X144036919Y-86344984D01*
G75*
G02*
X144335737Y-86425052I109375J-189443D01*
G01*
X144554487Y-86803938D01*
G75*
G02*
X144474419Y-87102756I-189443J-109375D01*
G01*
G37*
%TD*%
%TO.C,SW1*%
G36*
X144111538Y-79703368D02*
G01*
X144977564Y-79203368D01*
X146352564Y-81584938D01*
X145486538Y-82084938D01*
X144111538Y-79703368D01*
G37*
G36*
X141231538Y-74715062D02*
G01*
X142097564Y-74215062D01*
X143472564Y-76596632D01*
X142606538Y-77096632D01*
X141231538Y-74715062D01*
G37*
G36*
X137767436Y-76715062D02*
G01*
X138633462Y-76215062D01*
X140008462Y-78596632D01*
X139142436Y-79096632D01*
X137767436Y-76715062D01*
G37*
G36*
X140647436Y-81703368D02*
G01*
X141513462Y-81203368D01*
X142888462Y-83584938D01*
X142022436Y-84084938D01*
X140647436Y-81703368D01*
G37*
%TD*%
%TO.C,SW2*%
G36*
X149974615Y-88162479D02*
G01*
X149108589Y-88662479D01*
X147733589Y-86280909D01*
X148599615Y-85780909D01*
X149974615Y-88162479D01*
G37*
G36*
X152854615Y-93150785D02*
G01*
X151988589Y-93650785D01*
X150613589Y-91269215D01*
X151479615Y-90769215D01*
X152854615Y-93150785D01*
G37*
G36*
X149390513Y-95150785D02*
G01*
X148524487Y-95650785D01*
X147149487Y-93269215D01*
X148015513Y-92769215D01*
X149390513Y-95150785D01*
G37*
G36*
X146510513Y-90162479D02*
G01*
X145644487Y-90662479D01*
X144269487Y-88280909D01*
X145135513Y-87780909D01*
X146510513Y-90162479D01*
G37*
%TD*%
D12*
%TO.C,U1*%
X178327300Y-58452980D03*
X178327300Y-60352980D03*
X180327300Y-59402980D03*
%TD*%
D11*
%TO.C,U2*%
G36*
X184837949Y-65429390D02*
G01*
X185162949Y-65992306D01*
X184244963Y-66522306D01*
X183919963Y-65959390D01*
X184837949Y-65429390D01*
G37*
G36*
X184362949Y-64606666D02*
G01*
X184687949Y-65169582D01*
X183769963Y-65699582D01*
X183444963Y-65136666D01*
X184362949Y-64606666D01*
G37*
G36*
X183887949Y-63783942D02*
G01*
X184212949Y-64346858D01*
X183294963Y-64876858D01*
X182969963Y-64313942D01*
X183887949Y-63783942D01*
G37*
G36*
X181982693Y-64883942D02*
G01*
X182307693Y-65446858D01*
X181389707Y-65976858D01*
X181064707Y-65413942D01*
X181982693Y-64883942D01*
G37*
G36*
X182932693Y-66529390D02*
G01*
X183257693Y-67092306D01*
X182339707Y-67622306D01*
X182014707Y-67059390D01*
X182932693Y-66529390D01*
G37*
G36*
X182457693Y-65706666D02*
G01*
X182782693Y-66269582D01*
X181864707Y-66799582D01*
X181539707Y-66236666D01*
X182457693Y-65706666D01*
G37*
%TD*%
%TO.C,U3*%
G36*
X167994202Y-69136027D02*
G01*
X168000233Y-69142465D01*
X168004891Y-69149957D01*
X168007999Y-69158213D01*
X168056914Y-69340769D01*
X168058351Y-69349472D01*
X168058063Y-69358289D01*
X168056059Y-69366880D01*
X168052419Y-69374916D01*
X168039239Y-69397744D01*
X168034100Y-69404914D01*
X168027662Y-69410945D01*
X168020170Y-69415604D01*
X168011914Y-69418711D01*
X168003211Y-69420148D01*
X167994394Y-69419860D01*
X167985803Y-69417856D01*
X167977767Y-69414215D01*
X167401861Y-69081715D01*
X167394690Y-69076577D01*
X167388659Y-69070139D01*
X167384001Y-69062647D01*
X167380894Y-69054391D01*
X167379457Y-69045688D01*
X167379745Y-69036870D01*
X167381749Y-69028279D01*
X167385389Y-69020244D01*
X167465389Y-68881680D01*
X167470528Y-68874510D01*
X167476966Y-68868479D01*
X167484458Y-68863820D01*
X167492714Y-68860713D01*
X167501417Y-68859276D01*
X167510234Y-68859564D01*
X167518825Y-68861568D01*
X167526861Y-68865209D01*
X167987032Y-69130889D01*
X167994202Y-69136027D01*
G37*
G36*
G01*
X167144140Y-69438102D02*
X167206639Y-69329848D01*
G75*
G02*
X167292016Y-69306971I54127J-31250D01*
G01*
X167941536Y-69681971D01*
G75*
G02*
X167964413Y-69767348I-31250J-54127D01*
G01*
X167901913Y-69875602D01*
G75*
G02*
X167816536Y-69898479I-54127J31250D01*
G01*
X167167016Y-69523479D01*
G75*
G02*
X167144139Y-69438102I31250J54127D01*
G01*
G37*
G36*
G01*
X166894140Y-69871114D02*
X166956639Y-69762860D01*
G75*
G02*
X167042016Y-69739983I54127J-31250D01*
G01*
X167691536Y-70114983D01*
G75*
G02*
X167714413Y-70200360I-31250J-54127D01*
G01*
X167651913Y-70308614D01*
G75*
G02*
X167566536Y-70331491I-54127J31250D01*
G01*
X166917016Y-69956491D01*
G75*
G02*
X166894139Y-69871114I31250J54127D01*
G01*
G37*
G36*
G01*
X166644140Y-70304127D02*
X166706639Y-70195873D01*
G75*
G02*
X166792016Y-70172996I54127J-31250D01*
G01*
X167441536Y-70547996D01*
G75*
G02*
X167464413Y-70633373I-31250J-54127D01*
G01*
X167401913Y-70741627D01*
G75*
G02*
X167316536Y-70764504I-54127J31250D01*
G01*
X166667016Y-70389504D01*
G75*
G02*
X166644139Y-70304127I31250J54127D01*
G01*
G37*
G36*
G01*
X166394140Y-70737140D02*
X166456639Y-70628886D01*
G75*
G02*
X166542016Y-70606009I54127J-31250D01*
G01*
X167191536Y-70981009D01*
G75*
G02*
X167214413Y-71066386I-31250J-54127D01*
G01*
X167151913Y-71174640D01*
G75*
G02*
X167066536Y-71197517I-54127J31250D01*
G01*
X166417016Y-70822517D01*
G75*
G02*
X166394139Y-70737140I31250J54127D01*
G01*
G37*
G36*
G01*
X166144140Y-71170152D02*
X166206639Y-71061898D01*
G75*
G02*
X166292016Y-71039021I54127J-31250D01*
G01*
X166941536Y-71414021D01*
G75*
G02*
X166964413Y-71499398I-31250J-54127D01*
G01*
X166901913Y-71607652D01*
G75*
G02*
X166816536Y-71630529I-54127J31250D01*
G01*
X166167016Y-71255529D01*
G75*
G02*
X166144139Y-71170152I31250J54127D01*
G01*
G37*
G36*
X166609938Y-71800923D02*
G01*
X166615969Y-71807361D01*
X166620627Y-71814853D01*
X166623734Y-71823109D01*
X166625171Y-71831812D01*
X166624883Y-71840630D01*
X166622879Y-71849221D01*
X166619239Y-71857256D01*
X166606059Y-71880084D01*
X166600920Y-71887255D01*
X166594482Y-71893286D01*
X166586990Y-71897944D01*
X166578734Y-71901051D01*
X166396179Y-71949967D01*
X166387475Y-71951404D01*
X166378658Y-71951116D01*
X166370067Y-71949112D01*
X166362032Y-71945471D01*
X165901861Y-71679791D01*
X165894690Y-71674653D01*
X165888659Y-71668215D01*
X165884001Y-71660723D01*
X165880894Y-71652467D01*
X165879457Y-71643764D01*
X165879745Y-71634946D01*
X165881749Y-71626355D01*
X165885389Y-71618320D01*
X165965389Y-71479756D01*
X165970528Y-71472586D01*
X165976966Y-71466555D01*
X165984458Y-71461896D01*
X165992714Y-71458789D01*
X166001417Y-71457352D01*
X166010234Y-71457640D01*
X166018825Y-71459644D01*
X166026861Y-71463285D01*
X166602767Y-71795785D01*
X166609938Y-71800923D01*
G37*
G36*
X166699614Y-72135600D02*
G01*
X166705645Y-72142038D01*
X166710304Y-72149530D01*
X166713411Y-72157786D01*
X166714848Y-72166489D01*
X166714560Y-72175306D01*
X166712556Y-72183897D01*
X166708915Y-72191933D01*
X166376415Y-72767839D01*
X166371277Y-72775010D01*
X166364839Y-72781041D01*
X166357347Y-72785699D01*
X166349091Y-72788806D01*
X166340388Y-72790243D01*
X166331570Y-72789955D01*
X166322979Y-72787951D01*
X166314944Y-72784311D01*
X166176380Y-72704311D01*
X166169210Y-72699172D01*
X166163179Y-72692734D01*
X166158520Y-72685242D01*
X166155413Y-72676986D01*
X166153976Y-72668283D01*
X166154264Y-72659466D01*
X166156268Y-72650875D01*
X166159909Y-72642839D01*
X166425589Y-72182668D01*
X166430727Y-72175498D01*
X166437165Y-72169467D01*
X166444657Y-72164809D01*
X166452913Y-72161701D01*
X166635469Y-72112786D01*
X166644172Y-72111349D01*
X166652989Y-72111637D01*
X166661580Y-72113641D01*
X166669616Y-72117281D01*
X166692444Y-72130461D01*
X166699614Y-72135600D01*
G37*
G36*
G01*
X166601672Y-72877684D02*
X166976671Y-72228164D01*
G75*
G02*
X167062048Y-72205287I54127J-31250D01*
G01*
X167170302Y-72267787D01*
G75*
G02*
X167193179Y-72353164I-31250J-54127D01*
G01*
X166818179Y-73002684D01*
G75*
G02*
X166732802Y-73025561I-54127J31250D01*
G01*
X166624548Y-72963061D01*
G75*
G02*
X166601671Y-72877684I31250J54127D01*
G01*
G37*
G36*
G01*
X167034684Y-73127684D02*
X167409683Y-72478164D01*
G75*
G02*
X167495060Y-72455287I54127J-31250D01*
G01*
X167603314Y-72517787D01*
G75*
G02*
X167626191Y-72603164I-31250J-54127D01*
G01*
X167251191Y-73252684D01*
G75*
G02*
X167165814Y-73275561I-54127J31250D01*
G01*
X167057560Y-73213061D01*
G75*
G02*
X167034683Y-73127684I31250J54127D01*
G01*
G37*
G36*
G01*
X167467697Y-73377684D02*
X167842696Y-72728164D01*
G75*
G02*
X167928073Y-72705287I54127J-31250D01*
G01*
X168036327Y-72767787D01*
G75*
G02*
X168059204Y-72853164I-31250J-54127D01*
G01*
X167684204Y-73502684D01*
G75*
G02*
X167598827Y-73525561I-54127J31250D01*
G01*
X167490573Y-73463061D01*
G75*
G02*
X167467696Y-73377684I31250J54127D01*
G01*
G37*
G36*
G01*
X167900710Y-73627684D02*
X168275709Y-72978164D01*
G75*
G02*
X168361086Y-72955287I54127J-31250D01*
G01*
X168469340Y-73017787D01*
G75*
G02*
X168492217Y-73103164I-31250J-54127D01*
G01*
X168117217Y-73752684D01*
G75*
G02*
X168031840Y-73775561I-54127J31250D01*
G01*
X167923586Y-73713061D01*
G75*
G02*
X167900709Y-73627684I31250J54127D01*
G01*
G37*
G36*
G01*
X168333722Y-73877684D02*
X168708721Y-73228164D01*
G75*
G02*
X168794098Y-73205287I54127J-31250D01*
G01*
X168902352Y-73267787D01*
G75*
G02*
X168925229Y-73353164I-31250J-54127D01*
G01*
X168550229Y-74002684D01*
G75*
G02*
X168464852Y-74025561I-54127J31250D01*
G01*
X168356598Y-73963061D01*
G75*
G02*
X168333721Y-73877684I31250J54127D01*
G01*
G37*
G36*
X169181955Y-73568780D02*
G01*
X169187986Y-73575218D01*
X169192644Y-73582710D01*
X169195751Y-73590966D01*
X169244667Y-73773521D01*
X169246104Y-73782225D01*
X169245816Y-73791042D01*
X169243812Y-73799633D01*
X169240171Y-73807668D01*
X168974491Y-74267839D01*
X168969353Y-74275010D01*
X168962915Y-74281041D01*
X168955423Y-74285699D01*
X168947167Y-74288806D01*
X168938464Y-74290243D01*
X168929646Y-74289955D01*
X168921055Y-74287951D01*
X168913020Y-74284311D01*
X168774456Y-74204311D01*
X168767286Y-74199172D01*
X168761255Y-74192734D01*
X168756596Y-74185242D01*
X168753489Y-74176986D01*
X168752052Y-74168283D01*
X168752340Y-74159466D01*
X168754344Y-74150875D01*
X168757985Y-74142839D01*
X169090485Y-73566933D01*
X169095623Y-73559762D01*
X169102061Y-73553731D01*
X169109553Y-73549073D01*
X169117809Y-73545966D01*
X169126512Y-73544529D01*
X169135330Y-73544817D01*
X169143921Y-73546821D01*
X169151956Y-73550461D01*
X169174784Y-73563641D01*
X169181955Y-73568780D01*
G37*
G36*
X170069710Y-73798423D02*
G01*
X170075741Y-73804861D01*
X170080399Y-73812353D01*
X170083506Y-73820609D01*
X170084943Y-73829312D01*
X170084655Y-73838130D01*
X170082651Y-73846721D01*
X170079011Y-73854756D01*
X169999011Y-73993320D01*
X169993872Y-74000490D01*
X169987434Y-74006521D01*
X169979942Y-74011180D01*
X169971686Y-74014287D01*
X169962983Y-74015724D01*
X169954166Y-74015436D01*
X169945575Y-74013432D01*
X169937539Y-74009791D01*
X169477368Y-73744111D01*
X169470198Y-73738973D01*
X169464167Y-73732535D01*
X169459509Y-73725043D01*
X169456401Y-73716787D01*
X169407486Y-73534231D01*
X169406049Y-73525528D01*
X169406337Y-73516711D01*
X169408341Y-73508120D01*
X169411981Y-73500084D01*
X169425161Y-73477256D01*
X169430300Y-73470086D01*
X169436738Y-73464055D01*
X169444230Y-73459396D01*
X169452486Y-73456289D01*
X169461189Y-73454852D01*
X169470006Y-73455140D01*
X169478597Y-73457144D01*
X169486633Y-73460785D01*
X170062539Y-73793285D01*
X170069710Y-73798423D01*
G37*
G36*
G01*
X169499988Y-73107652D02*
X169562487Y-72999398D01*
G75*
G02*
X169647864Y-72976521I54127J-31250D01*
G01*
X170297384Y-73351521D01*
G75*
G02*
X170320261Y-73436898I-31250J-54127D01*
G01*
X170257761Y-73545152D01*
G75*
G02*
X170172384Y-73568029I-54127J31250D01*
G01*
X169522864Y-73193029D01*
G75*
G02*
X169499987Y-73107652I31250J54127D01*
G01*
G37*
G36*
G01*
X169749988Y-72674640D02*
X169812487Y-72566386D01*
G75*
G02*
X169897864Y-72543509I54127J-31250D01*
G01*
X170547384Y-72918509D01*
G75*
G02*
X170570261Y-73003886I-31250J-54127D01*
G01*
X170507761Y-73112140D01*
G75*
G02*
X170422384Y-73135017I-54127J31250D01*
G01*
X169772864Y-72760017D01*
G75*
G02*
X169749987Y-72674640I31250J54127D01*
G01*
G37*
G36*
G01*
X169999988Y-72241627D02*
X170062487Y-72133373D01*
G75*
G02*
X170147864Y-72110496I54127J-31250D01*
G01*
X170797384Y-72485496D01*
G75*
G02*
X170820261Y-72570873I-31250J-54127D01*
G01*
X170757761Y-72679127D01*
G75*
G02*
X170672384Y-72702004I-54127J31250D01*
G01*
X170022864Y-72327004D01*
G75*
G02*
X169999987Y-72241627I31250J54127D01*
G01*
G37*
G36*
G01*
X170249988Y-71808614D02*
X170312487Y-71700360D01*
G75*
G02*
X170397864Y-71677483I54127J-31250D01*
G01*
X171047384Y-72052483D01*
G75*
G02*
X171070261Y-72137860I-31250J-54127D01*
G01*
X171007761Y-72246114D01*
G75*
G02*
X170922384Y-72268991I-54127J31250D01*
G01*
X170272864Y-71893991D01*
G75*
G02*
X170249987Y-71808614I31250J54127D01*
G01*
G37*
G36*
G01*
X170499988Y-71375602D02*
X170562487Y-71267348D01*
G75*
G02*
X170647864Y-71244471I54127J-31250D01*
G01*
X171297384Y-71619471D01*
G75*
G02*
X171320261Y-71704848I-31250J-54127D01*
G01*
X171257761Y-71813102D01*
G75*
G02*
X171172384Y-71835979I-54127J31250D01*
G01*
X170522864Y-71460979D01*
G75*
G02*
X170499987Y-71375602I31250J54127D01*
G01*
G37*
G36*
X171569710Y-71200347D02*
G01*
X171575741Y-71206785D01*
X171580399Y-71214277D01*
X171583506Y-71222533D01*
X171584943Y-71231236D01*
X171584655Y-71240054D01*
X171582651Y-71248645D01*
X171579011Y-71256680D01*
X171499011Y-71395244D01*
X171493872Y-71402414D01*
X171487434Y-71408445D01*
X171479942Y-71413104D01*
X171471686Y-71416211D01*
X171462983Y-71417648D01*
X171454166Y-71417360D01*
X171445575Y-71415356D01*
X171437539Y-71411715D01*
X170861633Y-71079215D01*
X170854462Y-71074077D01*
X170848431Y-71067639D01*
X170843773Y-71060147D01*
X170840666Y-71051891D01*
X170839229Y-71043188D01*
X170839517Y-71034370D01*
X170841521Y-71025779D01*
X170845161Y-71017744D01*
X170858341Y-70994916D01*
X170863480Y-70987745D01*
X170869918Y-70981714D01*
X170877410Y-70977056D01*
X170885666Y-70973949D01*
X171068221Y-70925033D01*
X171076925Y-70923596D01*
X171085742Y-70923884D01*
X171094333Y-70925888D01*
X171102368Y-70929529D01*
X171562539Y-71195209D01*
X171569710Y-71200347D01*
G37*
G36*
X171295190Y-70175828D02*
G01*
X171301221Y-70182266D01*
X171305880Y-70189758D01*
X171308987Y-70198014D01*
X171310424Y-70206717D01*
X171310136Y-70215534D01*
X171308132Y-70224125D01*
X171304491Y-70232161D01*
X171038811Y-70692332D01*
X171033673Y-70699502D01*
X171027235Y-70705533D01*
X171019743Y-70710191D01*
X171011487Y-70713299D01*
X170828931Y-70762214D01*
X170820228Y-70763651D01*
X170811411Y-70763363D01*
X170802820Y-70761359D01*
X170794784Y-70757719D01*
X170771956Y-70744539D01*
X170764786Y-70739400D01*
X170758755Y-70732962D01*
X170754096Y-70725470D01*
X170750989Y-70717214D01*
X170749552Y-70708511D01*
X170749840Y-70699694D01*
X170751844Y-70691103D01*
X170755485Y-70683067D01*
X171087985Y-70107161D01*
X171093123Y-70099990D01*
X171099561Y-70093959D01*
X171107053Y-70089301D01*
X171115309Y-70086194D01*
X171124012Y-70084757D01*
X171132830Y-70085045D01*
X171141421Y-70087049D01*
X171149456Y-70090689D01*
X171288020Y-70170689D01*
X171295190Y-70175828D01*
G37*
G36*
G01*
X170271222Y-70521836D02*
X170646221Y-69872316D01*
G75*
G02*
X170731598Y-69849439I54127J-31250D01*
G01*
X170839852Y-69911939D01*
G75*
G02*
X170862729Y-69997316I-31250J-54127D01*
G01*
X170487729Y-70646836D01*
G75*
G02*
X170402352Y-70669713I-54127J31250D01*
G01*
X170294098Y-70607213D01*
G75*
G02*
X170271221Y-70521836I31250J54127D01*
G01*
G37*
G36*
G01*
X169838210Y-70271836D02*
X170213209Y-69622316D01*
G75*
G02*
X170298586Y-69599439I54127J-31250D01*
G01*
X170406840Y-69661939D01*
G75*
G02*
X170429717Y-69747316I-31250J-54127D01*
G01*
X170054717Y-70396836D01*
G75*
G02*
X169969340Y-70419713I-54127J31250D01*
G01*
X169861086Y-70357213D01*
G75*
G02*
X169838209Y-70271836I31250J54127D01*
G01*
G37*
G36*
G01*
X169405197Y-70021836D02*
X169780196Y-69372316D01*
G75*
G02*
X169865573Y-69349439I54127J-31250D01*
G01*
X169973827Y-69411939D01*
G75*
G02*
X169996704Y-69497316I-31250J-54127D01*
G01*
X169621704Y-70146836D01*
G75*
G02*
X169536327Y-70169713I-54127J31250D01*
G01*
X169428073Y-70107213D01*
G75*
G02*
X169405196Y-70021836I31250J54127D01*
G01*
G37*
G36*
G01*
X168972184Y-69771836D02*
X169347183Y-69122316D01*
G75*
G02*
X169432560Y-69099439I54127J-31250D01*
G01*
X169540814Y-69161939D01*
G75*
G02*
X169563691Y-69247316I-31250J-54127D01*
G01*
X169188691Y-69896836D01*
G75*
G02*
X169103314Y-69919713I-54127J31250D01*
G01*
X168995060Y-69857213D01*
G75*
G02*
X168972183Y-69771836I31250J54127D01*
G01*
G37*
G36*
G01*
X168539172Y-69521836D02*
X168914171Y-68872316D01*
G75*
G02*
X168999548Y-68849439I54127J-31250D01*
G01*
X169107802Y-68911939D01*
G75*
G02*
X169130679Y-68997316I-31250J-54127D01*
G01*
X168755679Y-69646836D01*
G75*
G02*
X168670302Y-69669713I-54127J31250D01*
G01*
X168562048Y-69607213D01*
G75*
G02*
X168539171Y-69521836I31250J54127D01*
G01*
G37*
G36*
X168697114Y-68675828D02*
G01*
X168703145Y-68682266D01*
X168707804Y-68689758D01*
X168710911Y-68698014D01*
X168712348Y-68706717D01*
X168712060Y-68715534D01*
X168710056Y-68724125D01*
X168706415Y-68732161D01*
X168373915Y-69308067D01*
X168368777Y-69315238D01*
X168362339Y-69321269D01*
X168354847Y-69325927D01*
X168346591Y-69329034D01*
X168337888Y-69330471D01*
X168329070Y-69330183D01*
X168320479Y-69328179D01*
X168312444Y-69324539D01*
X168289616Y-69311359D01*
X168282445Y-69306220D01*
X168276414Y-69299782D01*
X168271756Y-69292290D01*
X168268649Y-69284034D01*
X168219733Y-69101479D01*
X168218296Y-69092775D01*
X168218584Y-69083958D01*
X168220588Y-69075367D01*
X168224229Y-69067332D01*
X168489909Y-68607161D01*
X168495047Y-68599990D01*
X168501485Y-68593959D01*
X168508977Y-68589301D01*
X168517233Y-68586194D01*
X168525936Y-68584757D01*
X168534754Y-68585045D01*
X168543345Y-68587049D01*
X168551380Y-68590689D01*
X168689944Y-68670689D01*
X168697114Y-68675828D01*
G37*
%TD*%
%TO.C,Y1*%
G36*
X166983346Y-61755563D02*
G01*
X167583346Y-62794793D01*
X166370910Y-63494793D01*
X165770910Y-62455563D01*
X166983346Y-61755563D01*
G37*
G36*
X165078090Y-62855563D02*
G01*
X165678090Y-63894793D01*
X164465654Y-64594793D01*
X163865654Y-63555563D01*
X165078090Y-62855563D01*
G37*
G36*
X165928090Y-64327807D02*
G01*
X166528090Y-65367037D01*
X165315654Y-66067037D01*
X164715654Y-65027807D01*
X165928090Y-64327807D01*
G37*
G36*
X167833346Y-63227807D02*
G01*
X168433346Y-64267037D01*
X167220910Y-64967037D01*
X166620910Y-63927807D01*
X167833346Y-63227807D01*
G37*
%TD*%
%TO.C,D1*%
G36*
G01*
X149434419Y-77182756D02*
X148990581Y-77439006D01*
G75*
G02*
X148691763Y-77358938I-109375J189443D01*
G01*
X148473013Y-76980052D01*
G75*
G02*
X148553081Y-76681234I189443J109375D01*
G01*
X148996919Y-76424984D01*
G75*
G02*
X149295737Y-76505052I109375J-189443D01*
G01*
X149514487Y-76883938D01*
G75*
G02*
X149434419Y-77182756I-189443J-109375D01*
G01*
G37*
G36*
G01*
X148646919Y-75818766D02*
X148203081Y-76075016D01*
G75*
G02*
X147904263Y-75994948I-109375J189443D01*
G01*
X147685513Y-75616062D01*
G75*
G02*
X147765581Y-75317244I189443J109375D01*
G01*
X148209419Y-75060994D01*
G75*
G02*
X148508237Y-75141062I109375J-189443D01*
G01*
X148726987Y-75519948D01*
G75*
G02*
X148646919Y-75818766I-189443J-109375D01*
G01*
G37*
%TD*%
%TO.C,R3*%
G36*
G01*
X147834419Y-74482756D02*
X147390581Y-74739006D01*
G75*
G02*
X147091763Y-74658938I-109375J189443D01*
G01*
X146873013Y-74280052D01*
G75*
G02*
X146953081Y-73981234I189443J109375D01*
G01*
X147396919Y-73724984D01*
G75*
G02*
X147695737Y-73805052I109375J-189443D01*
G01*
X147914487Y-74183938D01*
G75*
G02*
X147834419Y-74482756I-189443J-109375D01*
G01*
G37*
G36*
G01*
X147046919Y-73118766D02*
X146603081Y-73375016D01*
G75*
G02*
X146304263Y-73294948I-109375J189443D01*
G01*
X146085513Y-72916062D01*
G75*
G02*
X146165581Y-72617244I189443J109375D01*
G01*
X146609419Y-72360994D01*
G75*
G02*
X146908237Y-72441062I109375J-189443D01*
G01*
X147126987Y-72819948D01*
G75*
G02*
X147046919Y-73118766I-189443J-109375D01*
G01*
G37*
%TD*%
%TO.C,C9*%
G36*
G01*
X165058640Y-81211130D02*
X165058640Y-80698630D01*
G75*
G02*
X165277390Y-80479880I218750J0D01*
G01*
X165714890Y-80479880D01*
G75*
G02*
X165933640Y-80698630I0J-218750D01*
G01*
X165933640Y-81211130D01*
G75*
G02*
X165714890Y-81429880I-218750J0D01*
G01*
X165277390Y-81429880D01*
G75*
G02*
X165058640Y-81211130I0J218750D01*
G01*
G37*
G36*
G01*
X166633640Y-81211130D02*
X166633640Y-80698630D01*
G75*
G02*
X166852390Y-80479880I218750J0D01*
G01*
X167289890Y-80479880D01*
G75*
G02*
X167508640Y-80698630I0J-218750D01*
G01*
X167508640Y-81211130D01*
G75*
G02*
X167289890Y-81429880I-218750J0D01*
G01*
X166852390Y-81429880D01*
G75*
G02*
X166633640Y-81211130I0J218750D01*
G01*
G37*
%TD*%
M02*
