M48
; DRILL file {KiCad 5.1.6-c6e7f7d~86~ubuntu18.04.1} date Fri Jul 24 20:28:46 2020
; FORMAT={-:-/ absolute / inch / decimal}
; #@! TF.CreationDate,2020-07-24T20:28:46-07:00
; #@! TF.GenerationSoftware,Kicad,Pcbnew,5.1.6-c6e7f7d~86~ubuntu18.04.1
; #@! TF.FileFunction,Plated,1,2,PTH
FMAT,2
INCH
T1C0.0157
T2C0.0177
T3C0.0394
%
G90
G05
T1
X5.5Y-2.6
X5.6538Y-3.0654
X5.827Y-2.7402
X5.8428Y-3.395
X5.8815Y-3.1776
X5.9418Y-2.8318
X5.9608Y-2.7136
X6.041Y-3.7324
X6.0551Y-2.061
X6.0564Y-3.0942
X6.0588Y-3.307
X6.1299Y-3.2224
X6.1634Y-3.3792
X6.1682Y-2.211
X6.1802Y-2.862
X6.2142Y-3.8189
X6.2303Y-3.5177
X6.2382Y-3.3661
X6.2618Y-1.8517
X6.2743Y-3.0151
X6.296Y-2.8248
X6.2964Y-2.4962
X6.3202Y-3.214
X6.3204Y-3.8182
X6.3264Y-3.4328
X6.3282Y-2.791
X6.3563Y-3.0709
X6.3642Y-1.8524
X6.3898Y-2.628
X6.4012Y-3.3024
X6.412Y-3.0366
X6.4124Y-2.3878
X6.422Y-3.8176
X6.4559Y-3.1579
X6.4596Y-2.8212
X6.4626Y-2.7776
X6.4646Y-1.8524
X6.4784Y-2.3405
X6.4843Y-2.624
X6.4914Y-2.7142
X6.5058Y-2.7512
X6.5074Y-2.8476
X6.5157Y-3.8189
X6.5453Y-2.3327
X6.563Y-1.8524
X6.5965Y-2.6929
X6.5994Y-2.9744
X6.6004Y-3.5669
X6.601Y-2.8264
X6.6142Y-3.8189
X6.6356Y-2.8472
X6.6382Y-3.0188
X6.6555Y-2.7854
X6.6654Y-1.8524
X6.6744Y-3.0484
X6.7018Y-2.4715
X6.7098Y-3.2842
X6.7142Y-3.8185
X6.7276Y-3.035
X6.734Y-2.9118
X6.7417Y-2.9665
X6.7606Y-3.2582
X6.7638Y-1.8524
X6.811Y-3.8189
X6.8232Y-3.2678
X6.8642Y-1.8543
X6.8682Y-2.6242
X6.8689Y-2.948
X6.87Y-2.7184
X6.8916Y-2.5094
X6.8992Y-2.9835
X6.9122Y-2.3212
X6.9142Y-3.8197
X6.9276Y-2.8811
X6.9374Y-2.5929
X6.9412Y-2.966
X6.952Y-2.9246
X6.9564Y-2.671
X6.9626Y-1.8543
X6.9936Y-2.7322
X6.9972Y-2.542
X7.0102Y-2.6838
X7.0157Y-3.8176
X7.0262Y-2.2442
X7.0294Y-2.9152
X7.0393Y-2.6477
X7.0394Y-3.2618
X7.0452Y-2.463
X7.0846Y-2.8091
X7.0945Y-1.8524
X7.1106Y-2.8798
X7.1316Y-2.6308
X7.1319Y-2.4173
X7.158Y-2.7138
X7.1594Y-3.1516
X7.2258Y-2.4318
X7.2283Y-2.9724
X7.2506Y-2.6892
X7.2972Y-2.5356
X7.436Y-2.288
X7.5276Y-2.8228
X7.5454Y-3.1936
X7.5962Y-3.1056
T3
X5.7087Y-2.4383
X5.8661Y-2.1656
T2
G00X7.5541Y-2.1618
M15
G01X7.5814Y-2.1461
M16
G05
G00X7.7222Y-2.3899
M15
G01X7.6949Y-2.4056
M16
G05
T0
M30
